<?xml version="1.0" encoding="UTF-8" standalone="no"?>
<svg width="420mm" height="297mm"
 viewBox="0 0 4200 2970"
 xmlns="http://www.w3.org/2000/svg" xmlns:xlink="http://www.w3.org/1999/xlink"  version="1.2" baseProfile="tiny">
<title>FreeCAD SVG Export</title>
<desc>Drawing page: Page exported from FreeCAD document: Unnamed</desc>
<defs>
</defs>
<g fill="none" stroke="black" stroke-width="1" fill-rule="evenodd" stroke-linecap="square" stroke-linejoin="bevel" >

<g fill="none" stroke="#000000" stroke-opacity="1" stroke-width="1" stroke-linecap="square" stroke-linejoin="bevel" transform="matrix(1,0,0,1,0,0)"
font-family="MS Shell Dlg 2" font-size="29.1042" font-weight="400" font-style="normal" 
>
</g>

<g fill="none" stroke="#000000" stroke-opacity="1" stroke-width="1" stroke-linecap="square" stroke-linejoin="bevel" transform="matrix(1,0,0,1,0,2970)"
font-family="MS Shell Dlg 2" font-size="29.1042" font-weight="400" font-style="normal" 
>
</g>

<g fill="none" stroke="#000000" stroke-opacity="1" stroke-width="1" stroke-linecap="square" stroke-linejoin="bevel" transform="matrix(1,0,0,1,0,2970)"
font-family="MS Shell Dlg 2" font-size="29.1042" font-weight="400" font-style="normal" 
>
</g>

<g fill="none" stroke="#000000" stroke-opacity="1" stroke-width="1" stroke-linecap="square" stroke-linejoin="bevel" transform="matrix(2.82258,0,0,2.82319,0,0)"
font-family="MS Shell Dlg 2" font-size="29.1042" font-weight="400" font-style="normal" 
>
</g>

<g fill="none" stroke="#000000" stroke-opacity="1" stroke-width="1" stroke-linecap="square" stroke-linejoin="bevel" transform="matrix(2.82258,0,0,2.82319,0,0)"
font-family="MS Shell Dlg 2" font-size="29.1042" font-weight="400" font-style="normal" 
>
</g>

<g fill="none" stroke="#000000" stroke-opacity="1" stroke-width="1" stroke-linecap="square" stroke-linejoin="bevel" transform="matrix(2.82258,0,0,2.82319,0,0)"
font-family="MS Shell Dlg 2" font-size="29.1042" font-weight="400" font-style="normal" 
>
</g>

<g fill="none" stroke="#000000" stroke-opacity="1" stroke-width="1" stroke-linecap="square" stroke-linejoin="bevel" transform="matrix(2.82258,0,0,2.82319,0,0)"
font-family="MS Shell Dlg 2" font-size="29.1042" font-weight="400" font-style="normal" 
>
</g>

<g fill="none" stroke="#000000" stroke-opacity="1" stroke-width="1" stroke-linecap="square" stroke-linejoin="bevel" transform="matrix(1,0,0,1,0,0)"
font-family="MS Shell Dlg 2" font-size="29.1042" font-weight="400" font-style="normal" 
>
</g>

<g fill="none" stroke="#000000" stroke-opacity="1" stroke-width="1" stroke-linecap="square" stroke-linejoin="bevel" transform="matrix(2.82258,0,0,2.82319,0,0)"
font-family="MS Shell Dlg 2" font-size="29.1042" font-weight="400" font-style="normal" 
>
</g>

<g fill="none" stroke="#000000" stroke-opacity="1" stroke-width="1" stroke-linecap="square" stroke-linejoin="bevel" transform="matrix(1,0,0,1,2100,1485)"
font-family="MS Shell Dlg 2" font-size="29.1042" font-weight="400" font-style="normal" 
>
</g>

<g fill="none" stroke="#000000" stroke-opacity="1" stroke-width="1" stroke-linecap="square" stroke-linejoin="bevel" transform="matrix(1,0,0,1,2100,1485)"
font-family="MS Shell Dlg 2" font-size="29.1042" font-weight="400" font-style="normal" 
>
</g>

<g fill="none" stroke="#000000" stroke-opacity="1" stroke-width="1" stroke-linecap="square" stroke-linejoin="bevel" transform="matrix(1,0,0,1,2096,2602.5)"
font-family="MS Shell Dlg 2" font-size="29.1042" font-weight="400" font-style="normal" 
>
</g>

<g fill="none" stroke="#000000" stroke-opacity="1" stroke-width="1" stroke-linecap="square" stroke-linejoin="bevel" transform="matrix(0.353,0,0,0.353,2088,2655.36)"
font-family="MS Shell Dlg 2" font-size="29.1042" font-weight="400" font-style="normal" 
>
</g>

<g fill="none" stroke="#000000" stroke-opacity="1" stroke-width="1" stroke-linecap="square" stroke-linejoin="bevel" transform="matrix(0.353,0,0,0.353,2088,2655.36)"
font-family="MS Shell Dlg 2" font-size="29.1042" font-weight="400" font-style="normal" 
>
</g>

<g fill="none" stroke="#000000" stroke-opacity="1" stroke-width="1" stroke-linecap="square" stroke-linejoin="bevel" transform="matrix(0.353,0,0,0.353,2088,2655.36)"
font-family="MS Shell Dlg 2" font-size="29.1042" font-weight="400" font-style="normal" 
>
</g>

<g fill="none" stroke="#000000" stroke-opacity="1" stroke-width="1" stroke-linecap="square" stroke-linejoin="bevel" transform="matrix(0.353,0,0,0.353,2088,2655.36)"
font-family="MS Shell Dlg 2" font-size="29.1042" font-weight="400" font-style="normal" 
>
</g>

<g fill="none" stroke="#000000" stroke-opacity="1" stroke-width="1" stroke-linecap="square" stroke-linejoin="bevel" transform="matrix(1,0,0,1,0,0)"
font-family="MS Shell Dlg 2" font-size="29.1042" font-weight="400" font-style="normal" 
>
</g>

<g fill="none" stroke="#000000" stroke-opacity="1" stroke-width="1" stroke-linecap="square" stroke-linejoin="bevel" transform="matrix(0.353,0,0,0.353,2088,2655.36)"
font-family="MS Shell Dlg 2" font-size="29.1042" font-weight="400" font-style="normal" 
>
</g>

<g fill="none" stroke="#000000" stroke-opacity="1" stroke-width="1" stroke-linecap="square" stroke-linejoin="bevel" transform="matrix(0.353,0,0,0.353,2088,2655.36)"
font-family="MS Shell Dlg 2" font-size="29.1042" font-weight="400" font-style="normal" 
>
</g>

<g fill="none" stroke="#000000" stroke-opacity="1" stroke-width="1" stroke-linecap="square" stroke-linejoin="bevel" transform="matrix(1,0,0,1,2096,2602.5)"
font-family="MS Shell Dlg 2" font-size="29.1042" font-weight="400" font-style="normal" 
>
</g>

<g fill="none" stroke="#000000" stroke-opacity="1" stroke-width="1" stroke-linecap="square" stroke-linejoin="bevel" transform="matrix(1,0,0,1,2100,1485)"
font-family="MS Shell Dlg 2" font-size="29.1042" font-weight="400" font-style="normal" 
>
</g>

<g fill="#ffffff" fill-opacity="1" stroke="none" transform="matrix(1,0,0,1,2100,1485)"
font-family="MS Shell Dlg 2" font-size="29.1042" font-weight="400" font-style="normal" 
>
<path vector-effect="non-scaling-stroke" fill-rule="evenodd" d="M-1045,-1100 L1045,-1100 C1075.38,-1100 1100,-1075.38 1100,-1045 L1100,1045 C1100,1075.38 1075.38,1100 1045,1100 L-1045,1100 C-1075.38,1100 -1100,1075.38 -1100,1045 L-1100,-1045 C-1100,-1075.38 -1075.38,-1100 -1045,-1100 "/>
</g>

<g fill="none" stroke="#000000" stroke-opacity="1" stroke-width="1" stroke-linecap="square" stroke-linejoin="bevel" transform="matrix(1,0,0,1,2100,1485)"
font-family="MS Shell Dlg 2" font-size="29.1042" font-weight="400" font-style="normal" 
>
</g>

<g fill="none" stroke="#000000" stroke-opacity="1" stroke-width="1" stroke-linecap="square" stroke-linejoin="bevel" transform="matrix(1,0,0,1,2100,1485)"
font-family="MS Shell Dlg 2" font-size="29.1042" font-weight="400" font-style="normal" 
>
</g>

<g fill="none" stroke="#000000" stroke-opacity="1" stroke-width="1" stroke-linecap="square" stroke-linejoin="bevel" transform="matrix(1,0,0,1,2100,1485)"
font-family="MS Shell Dlg 2" font-size="29.1042" font-weight="400" font-style="normal" 
>
</g>

<g fill="none" stroke="#000000" stroke-opacity="1" stroke-width="1" stroke-linecap="square" stroke-linejoin="bevel" transform="matrix(1,0,0,1,0,0)"
font-family="MS Shell Dlg 2" font-size="29.1042" font-weight="400" font-style="normal" 
>
</g>

<g fill="none" stroke="#000000" stroke-opacity="1" stroke-width="1" stroke-linecap="square" stroke-linejoin="bevel" transform="matrix(1,0,0,1,2100,1485)"
font-family="MS Shell Dlg 2" font-size="29.1042" font-weight="400" font-style="normal" 
>
</g>

<g fill="none" stroke="#000000" stroke-opacity="1" stroke-width="1" stroke-linecap="square" stroke-linejoin="bevel" transform="matrix(1,0,0,1,2100,1485)"
font-family="MS Shell Dlg 2" font-size="29.1042" font-weight="400" font-style="normal" 
>
</g>

<g fill="#ffffff" fill-opacity="1" stroke="none" transform="matrix(1,0,0,1,2100,1485)"
font-family="MS Shell Dlg 2" font-size="29.1042" font-weight="400" font-style="normal" 
>
<path vector-effect="non-scaling-stroke" fill-rule="evenodd" d="M1077,-1045 C1077,-1027.33 1062.67,-1013 1045,-1013 C1027.33,-1013 1013,-1027.33 1013,-1045 C1013,-1062.67 1027.33,-1077 1045,-1077 C1062.67,-1077 1077,-1062.67 1077,-1045 "/>
</g>

<g fill="none" stroke="#000000" stroke-opacity="1" stroke-width="1" stroke-linecap="square" stroke-linejoin="bevel" transform="matrix(1,0,0,1,2100,1485)"
font-family="MS Shell Dlg 2" font-size="29.1042" font-weight="400" font-style="normal" 
>
</g>

<g fill="none" stroke="#000000" stroke-opacity="1" stroke-width="1" stroke-linecap="square" stroke-linejoin="bevel" transform="matrix(1,0,0,1,2100,1485)"
font-family="MS Shell Dlg 2" font-size="29.1042" font-weight="400" font-style="normal" 
>
</g>

<g fill="none" stroke="#000000" stroke-opacity="1" stroke-width="1" stroke-linecap="square" stroke-linejoin="bevel" transform="matrix(1,0,0,1,2100,1485)"
font-family="MS Shell Dlg 2" font-size="29.1042" font-weight="400" font-style="normal" 
>
</g>

<g fill="none" stroke="#000000" stroke-opacity="1" stroke-width="1" stroke-linecap="square" stroke-linejoin="bevel" transform="matrix(1,0,0,1,0,0)"
font-family="MS Shell Dlg 2" font-size="29.1042" font-weight="400" font-style="normal" 
>
</g>

<g fill="none" stroke="#000000" stroke-opacity="1" stroke-width="1" stroke-linecap="square" stroke-linejoin="bevel" transform="matrix(1,0,0,1,2100,1485)"
font-family="MS Shell Dlg 2" font-size="29.1042" font-weight="400" font-style="normal" 
>
</g>

<g fill="none" stroke="#000000" stroke-opacity="1" stroke-width="1" stroke-linecap="square" stroke-linejoin="bevel" transform="matrix(1,0,0,1,2100,1485)"
font-family="MS Shell Dlg 2" font-size="29.1042" font-weight="400" font-style="normal" 
>
</g>

<g fill="#ffffff" fill-opacity="1" stroke="none" transform="matrix(1,0,0,1,2100,1485)"
font-family="MS Shell Dlg 2" font-size="29.1042" font-weight="400" font-style="normal" 
>
<path vector-effect="non-scaling-stroke" fill-rule="evenodd" d="M-1013,-1045 C-1013,-1027.33 -1027.33,-1013 -1045,-1013 C-1062.67,-1013 -1077,-1027.33 -1077,-1045 C-1077,-1062.67 -1062.67,-1077 -1045,-1077 C-1027.33,-1077 -1013,-1062.67 -1013,-1045 "/>
</g>

<g fill="none" stroke="#000000" stroke-opacity="1" stroke-width="1" stroke-linecap="square" stroke-linejoin="bevel" transform="matrix(1,0,0,1,2100,1485)"
font-family="MS Shell Dlg 2" font-size="29.1042" font-weight="400" font-style="normal" 
>
</g>

<g fill="none" stroke="#000000" stroke-opacity="1" stroke-width="1" stroke-linecap="square" stroke-linejoin="bevel" transform="matrix(1,0,0,1,2100,1485)"
font-family="MS Shell Dlg 2" font-size="29.1042" font-weight="400" font-style="normal" 
>
</g>

<g fill="none" stroke="#000000" stroke-opacity="1" stroke-width="1" stroke-linecap="square" stroke-linejoin="bevel" transform="matrix(1,0,0,1,2100,1485)"
font-family="MS Shell Dlg 2" font-size="29.1042" font-weight="400" font-style="normal" 
>
</g>

<g fill="none" stroke="#000000" stroke-opacity="1" stroke-width="1" stroke-linecap="square" stroke-linejoin="bevel" transform="matrix(1,0,0,1,0,0)"
font-family="MS Shell Dlg 2" font-size="29.1042" font-weight="400" font-style="normal" 
>
</g>

<g fill="none" stroke="#000000" stroke-opacity="1" stroke-width="1" stroke-linecap="square" stroke-linejoin="bevel" transform="matrix(1,0,0,1,2100,1485)"
font-family="MS Shell Dlg 2" font-size="29.1042" font-weight="400" font-style="normal" 
>
</g>

<g fill="none" stroke="#000000" stroke-opacity="1" stroke-width="1" stroke-linecap="square" stroke-linejoin="bevel" transform="matrix(1,0,0,1,2100,1485)"
font-family="MS Shell Dlg 2" font-size="29.1042" font-weight="400" font-style="normal" 
>
</g>

<g fill="#ffffff" fill-opacity="1" stroke="none" transform="matrix(1,0,0,1,2100,1485)"
font-family="MS Shell Dlg 2" font-size="29.1042" font-weight="400" font-style="normal" 
>
<path vector-effect="non-scaling-stroke" fill-rule="evenodd" d="M1077,1045 C1077,1062.67 1062.67,1077 1045,1077 C1027.33,1077 1013,1062.67 1013,1045 C1013,1027.33 1027.33,1013 1045,1013 C1062.67,1013 1077,1027.33 1077,1045 "/>
</g>

<g fill="none" stroke="#000000" stroke-opacity="1" stroke-width="1" stroke-linecap="square" stroke-linejoin="bevel" transform="matrix(1,0,0,1,2100,1485)"
font-family="MS Shell Dlg 2" font-size="29.1042" font-weight="400" font-style="normal" 
>
</g>

<g fill="none" stroke="#000000" stroke-opacity="1" stroke-width="1" stroke-linecap="square" stroke-linejoin="bevel" transform="matrix(1,0,0,1,2100,1485)"
font-family="MS Shell Dlg 2" font-size="29.1042" font-weight="400" font-style="normal" 
>
</g>

<g fill="none" stroke="#000000" stroke-opacity="1" stroke-width="1" stroke-linecap="square" stroke-linejoin="bevel" transform="matrix(1,0,0,1,2100,1485)"
font-family="MS Shell Dlg 2" font-size="29.1042" font-weight="400" font-style="normal" 
>
</g>

<g fill="none" stroke="#000000" stroke-opacity="1" stroke-width="1" stroke-linecap="square" stroke-linejoin="bevel" transform="matrix(1,0,0,1,0,0)"
font-family="MS Shell Dlg 2" font-size="29.1042" font-weight="400" font-style="normal" 
>
</g>

<g fill="none" stroke="#000000" stroke-opacity="1" stroke-width="1" stroke-linecap="square" stroke-linejoin="bevel" transform="matrix(1,0,0,1,2100,1485)"
font-family="MS Shell Dlg 2" font-size="29.1042" font-weight="400" font-style="normal" 
>
</g>

<g fill="none" stroke="#000000" stroke-opacity="1" stroke-width="1" stroke-linecap="square" stroke-linejoin="bevel" transform="matrix(1,0,0,1,2100,1485)"
font-family="MS Shell Dlg 2" font-size="29.1042" font-weight="400" font-style="normal" 
>
</g>

<g fill="#ffffff" fill-opacity="1" stroke="none" transform="matrix(1,0,0,1,2100,1485)"
font-family="MS Shell Dlg 2" font-size="29.1042" font-weight="400" font-style="normal" 
>
<path vector-effect="non-scaling-stroke" fill-rule="evenodd" d="M-1013,1045 C-1013,1062.67 -1027.33,1077 -1045,1077 C-1062.67,1077 -1077,1062.67 -1077,1045 C-1077,1027.33 -1062.67,1013 -1045,1013 C-1027.33,1013 -1013,1027.33 -1013,1045 "/>
</g>

<g fill="none" stroke="#000000" stroke-opacity="1" stroke-width="1" stroke-linecap="square" stroke-linejoin="bevel" transform="matrix(1,0,0,1,2100,1485)"
font-family="MS Shell Dlg 2" font-size="29.1042" font-weight="400" font-style="normal" 
>
</g>

<g fill="none" stroke="#000000" stroke-opacity="1" stroke-width="1" stroke-linecap="square" stroke-linejoin="bevel" transform="matrix(1,0,0,1,2100,1485)"
font-family="MS Shell Dlg 2" font-size="29.1042" font-weight="400" font-style="normal" 
>
</g>

<g fill="none" stroke="#000000" stroke-opacity="1" stroke-width="1" stroke-linecap="square" stroke-linejoin="bevel" transform="matrix(1,0,0,1,2100,1485)"
font-family="MS Shell Dlg 2" font-size="29.1042" font-weight="400" font-style="normal" 
>
</g>

<g fill="none" stroke="#000000" stroke-opacity="1" stroke-width="1" stroke-linecap="square" stroke-linejoin="bevel" transform="matrix(1,0,0,1,0,0)"
font-family="MS Shell Dlg 2" font-size="29.1042" font-weight="400" font-style="normal" 
>
</g>

<g fill="none" stroke="#000000" stroke-opacity="1" stroke-width="1" stroke-linecap="square" stroke-linejoin="bevel" transform="matrix(1,0,0,1,2100,1485)"
font-family="MS Shell Dlg 2" font-size="29.1042" font-weight="400" font-style="normal" 
>
</g>

<g fill="none" stroke="#000000" stroke-opacity="1" stroke-width="1" stroke-linecap="square" stroke-linejoin="bevel" transform="matrix(1,0,0,1,2100,1485)"
font-family="MS Shell Dlg 2" font-size="29.1042" font-weight="400" font-style="normal" 
>
</g>

<g fill="#ffffff" fill-opacity="1" stroke="none" transform="matrix(1,0,0,1,2100,1485)"
font-family="MS Shell Dlg 2" font-size="29.1042" font-weight="400" font-style="normal" 
>
<path vector-effect="non-scaling-stroke" fill-rule="evenodd" d="M-772.5,-800 C-772.5,-784.812 -784.812,-772.5 -800,-772.5 C-815.188,-772.5 -827.5,-784.812 -827.5,-800 C-827.5,-815.188 -815.188,-827.5 -800,-827.5 C-784.812,-827.5 -772.5,-815.188 -772.5,-800 "/>
</g>

<g fill="none" stroke="#000000" stroke-opacity="1" stroke-width="1" stroke-linecap="square" stroke-linejoin="bevel" transform="matrix(1,0,0,1,2100,1485)"
font-family="MS Shell Dlg 2" font-size="29.1042" font-weight="400" font-style="normal" 
>
</g>

<g fill="none" stroke="#000000" stroke-opacity="1" stroke-width="1" stroke-linecap="square" stroke-linejoin="bevel" transform="matrix(1,0,0,1,2100,1485)"
font-family="MS Shell Dlg 2" font-size="29.1042" font-weight="400" font-style="normal" 
>
</g>

<g fill="none" stroke="#000000" stroke-opacity="1" stroke-width="1" stroke-linecap="square" stroke-linejoin="bevel" transform="matrix(1,0,0,1,2100,1485)"
font-family="MS Shell Dlg 2" font-size="29.1042" font-weight="400" font-style="normal" 
>
</g>

<g fill="none" stroke="#000000" stroke-opacity="1" stroke-width="1" stroke-linecap="square" stroke-linejoin="bevel" transform="matrix(1,0,0,1,0,0)"
font-family="MS Shell Dlg 2" font-size="29.1042" font-weight="400" font-style="normal" 
>
</g>

<g fill="none" stroke="#000000" stroke-opacity="1" stroke-width="1" stroke-linecap="square" stroke-linejoin="bevel" transform="matrix(1,0,0,1,2100,1485)"
font-family="MS Shell Dlg 2" font-size="29.1042" font-weight="400" font-style="normal" 
>
</g>

<g fill="none" stroke="#000000" stroke-opacity="1" stroke-width="1" stroke-linecap="square" stroke-linejoin="bevel" transform="matrix(1,0,0,1,2100,1485)"
font-family="MS Shell Dlg 2" font-size="29.1042" font-weight="400" font-style="normal" 
>
</g>

<g fill="#ffffff" fill-opacity="1" stroke="none" transform="matrix(1,0,0,1,2100,1485)"
font-family="MS Shell Dlg 2" font-size="29.1042" font-weight="400" font-style="normal" 
>
<path vector-effect="non-scaling-stroke" fill-rule="evenodd" d="M-772.5,800 C-772.5,815.188 -784.812,827.5 -800,827.5 C-815.188,827.5 -827.5,815.188 -827.5,800 C-827.5,784.812 -815.188,772.5 -800,772.5 C-784.812,772.5 -772.5,784.812 -772.5,800 "/>
</g>

<g fill="none" stroke="#000000" stroke-opacity="1" stroke-width="1" stroke-linecap="square" stroke-linejoin="bevel" transform="matrix(1,0,0,1,2100,1485)"
font-family="MS Shell Dlg 2" font-size="29.1042" font-weight="400" font-style="normal" 
>
</g>

<g fill="none" stroke="#000000" stroke-opacity="1" stroke-width="1" stroke-linecap="square" stroke-linejoin="bevel" transform="matrix(1,0,0,1,2100,1485)"
font-family="MS Shell Dlg 2" font-size="29.1042" font-weight="400" font-style="normal" 
>
</g>

<g fill="none" stroke="#000000" stroke-opacity="1" stroke-width="1" stroke-linecap="square" stroke-linejoin="bevel" transform="matrix(1,0,0,1,2100,1485)"
font-family="MS Shell Dlg 2" font-size="29.1042" font-weight="400" font-style="normal" 
>
</g>

<g fill="none" stroke="#000000" stroke-opacity="1" stroke-width="1" stroke-linecap="square" stroke-linejoin="bevel" transform="matrix(1,0,0,1,0,0)"
font-family="MS Shell Dlg 2" font-size="29.1042" font-weight="400" font-style="normal" 
>
</g>

<g fill="none" stroke="#000000" stroke-opacity="1" stroke-width="1" stroke-linecap="square" stroke-linejoin="bevel" transform="matrix(1,0,0,1,2100,1485)"
font-family="MS Shell Dlg 2" font-size="29.1042" font-weight="400" font-style="normal" 
>
</g>

<g fill="none" stroke="#000000" stroke-opacity="1" stroke-width="1" stroke-linecap="square" stroke-linejoin="bevel" transform="matrix(1,0,0,1,2100,1485)"
font-family="MS Shell Dlg 2" font-size="29.1042" font-weight="400" font-style="normal" 
>
</g>

<g fill="#ffffff" fill-opacity="1" stroke="none" transform="matrix(1,0,0,1,2100,1485)"
font-family="MS Shell Dlg 2" font-size="29.1042" font-weight="400" font-style="normal" 
>
<path vector-effect="non-scaling-stroke" fill-rule="evenodd" d="M827.5,-800 C827.5,-784.812 815.188,-772.5 800,-772.5 C784.812,-772.5 772.5,-784.812 772.5,-800 C772.5,-815.188 784.812,-827.5 800,-827.5 C815.188,-827.5 827.5,-815.188 827.5,-800 "/>
</g>

<g fill="none" stroke="#000000" stroke-opacity="1" stroke-width="1" stroke-linecap="square" stroke-linejoin="bevel" transform="matrix(1,0,0,1,2100,1485)"
font-family="MS Shell Dlg 2" font-size="29.1042" font-weight="400" font-style="normal" 
>
</g>

<g fill="none" stroke="#000000" stroke-opacity="1" stroke-width="1" stroke-linecap="square" stroke-linejoin="bevel" transform="matrix(1,0,0,1,2100,1485)"
font-family="MS Shell Dlg 2" font-size="29.1042" font-weight="400" font-style="normal" 
>
</g>

<g fill="none" stroke="#000000" stroke-opacity="1" stroke-width="1" stroke-linecap="square" stroke-linejoin="bevel" transform="matrix(1,0,0,1,2100,1485)"
font-family="MS Shell Dlg 2" font-size="29.1042" font-weight="400" font-style="normal" 
>
</g>

<g fill="none" stroke="#000000" stroke-opacity="1" stroke-width="1" stroke-linecap="square" stroke-linejoin="bevel" transform="matrix(1,0,0,1,0,0)"
font-family="MS Shell Dlg 2" font-size="29.1042" font-weight="400" font-style="normal" 
>
</g>

<g fill="none" stroke="#000000" stroke-opacity="1" stroke-width="1" stroke-linecap="square" stroke-linejoin="bevel" transform="matrix(1,0,0,1,2100,1485)"
font-family="MS Shell Dlg 2" font-size="29.1042" font-weight="400" font-style="normal" 
>
</g>

<g fill="none" stroke="#000000" stroke-opacity="1" stroke-width="1" stroke-linecap="square" stroke-linejoin="bevel" transform="matrix(1,0,0,1,2100,1485)"
font-family="MS Shell Dlg 2" font-size="29.1042" font-weight="400" font-style="normal" 
>
</g>

<g fill="#ffffff" fill-opacity="1" stroke="none" transform="matrix(1,0,0,1,2100,1485)"
font-family="MS Shell Dlg 2" font-size="29.1042" font-weight="400" font-style="normal" 
>
<path vector-effect="non-scaling-stroke" fill-rule="evenodd" d="M827.5,800 C827.5,815.188 815.188,827.5 800,827.5 C784.812,827.5 772.5,815.188 772.5,800 C772.5,784.812 784.812,772.5 800,772.5 C815.188,772.5 827.5,784.812 827.5,800 "/>
</g>

<g fill="none" stroke="#000000" stroke-opacity="1" stroke-width="1" stroke-linecap="square" stroke-linejoin="bevel" transform="matrix(1,0,0,1,2100,1485)"
font-family="MS Shell Dlg 2" font-size="29.1042" font-weight="400" font-style="normal" 
>
</g>

<g fill="none" stroke="#000000" stroke-opacity="1" stroke-width="1" stroke-linecap="square" stroke-linejoin="bevel" transform="matrix(1,0,0,1,2100,1485)"
font-family="MS Shell Dlg 2" font-size="29.1042" font-weight="400" font-style="normal" 
>
</g>

<g fill="none" stroke="#000000" stroke-opacity="1" stroke-width="1" stroke-linecap="square" stroke-linejoin="bevel" transform="matrix(1,0,0,1,2100,1485)"
font-family="MS Shell Dlg 2" font-size="29.1042" font-weight="400" font-style="normal" 
>
</g>

<g fill="none" stroke="#000000" stroke-opacity="1" stroke-width="1" stroke-linecap="square" stroke-linejoin="bevel" transform="matrix(1,0,0,1,0,0)"
font-family="MS Shell Dlg 2" font-size="29.1042" font-weight="400" font-style="normal" 
>
</g>

<g fill="none" stroke="#000000" stroke-opacity="1" stroke-width="1" stroke-linecap="square" stroke-linejoin="bevel" transform="matrix(1,0,0,1,2100,1485)"
font-family="MS Shell Dlg 2" font-size="29.1042" font-weight="400" font-style="normal" 
>
</g>

<g fill="none" stroke="#000000" stroke-opacity="1" stroke-width="1" stroke-linecap="square" stroke-linejoin="bevel" transform="matrix(1,0,0,1,2100,1485)"
font-family="MS Shell Dlg 2" font-size="29.1042" font-weight="400" font-style="normal" 
>
</g>

<g fill="none" stroke="#000000" stroke-opacity="1" stroke-width="7" stroke-linecap="round" stroke-linejoin="bevel" transform="matrix(1,0,0,1,2100,1485)"
font-family="MS Shell Dlg 2" font-size="29.1042" font-weight="400" font-style="normal" 
>
<path vector-effect="none" fill-rule="evenodd" d="M-1045,-1100 L1045,-1100"/>
</g>

<g fill="none" stroke="#000000" stroke-opacity="1" stroke-width="1" stroke-linecap="square" stroke-linejoin="bevel" transform="matrix(1,0,0,1,2100,1485)"
font-family="MS Shell Dlg 2" font-size="29.1042" font-weight="400" font-style="normal" 
>
</g>

<g fill="none" stroke="#000000" stroke-opacity="1" stroke-width="1" stroke-linecap="square" stroke-linejoin="bevel" transform="matrix(1,0,0,1,2100,1485)"
font-family="MS Shell Dlg 2" font-size="29.1042" font-weight="400" font-style="normal" 
>
</g>

<g fill="none" stroke="#000000" stroke-opacity="1" stroke-width="7" stroke-linecap="round" stroke-linejoin="bevel" transform="matrix(1,0,0,1,2100,1485)"
font-family="MS Shell Dlg 2" font-size="29.1042" font-weight="400" font-style="normal" 
>
<path vector-effect="none" fill-rule="evenodd" d="M-1045,-1100 C-1075.38,-1100 -1100,-1075.38 -1100,-1045 "/>
</g>

<g fill="none" stroke="#000000" stroke-opacity="1" stroke-width="1" stroke-linecap="square" stroke-linejoin="bevel" transform="matrix(1,0,0,1,2100,1485)"
font-family="MS Shell Dlg 2" font-size="29.1042" font-weight="400" font-style="normal" 
>
</g>

<g fill="none" stroke="#000000" stroke-opacity="1" stroke-width="1" stroke-linecap="square" stroke-linejoin="bevel" transform="matrix(1,0,0,1,2100,1485)"
font-family="MS Shell Dlg 2" font-size="29.1042" font-weight="400" font-style="normal" 
>
</g>

<g fill="none" stroke="#000000" stroke-opacity="1" stroke-width="7" stroke-linecap="round" stroke-linejoin="bevel" transform="matrix(1,0,0,1,2100,1485)"
font-family="MS Shell Dlg 2" font-size="29.1042" font-weight="400" font-style="normal" 
>
<path vector-effect="none" fill-rule="evenodd" d="M1045,-1100 C1075.38,-1100 1100,-1075.38 1100,-1045 "/>
</g>

<g fill="none" stroke="#000000" stroke-opacity="1" stroke-width="1" stroke-linecap="square" stroke-linejoin="bevel" transform="matrix(1,0,0,1,2100,1485)"
font-family="MS Shell Dlg 2" font-size="29.1042" font-weight="400" font-style="normal" 
>
</g>

<g fill="none" stroke="#000000" stroke-opacity="1" stroke-width="1" stroke-linecap="square" stroke-linejoin="bevel" transform="matrix(1,0,0,1,2100,1485)"
font-family="MS Shell Dlg 2" font-size="29.1042" font-weight="400" font-style="normal" 
>
</g>

<g fill="none" stroke="#000000" stroke-opacity="1" stroke-width="7" stroke-linecap="round" stroke-linejoin="bevel" transform="matrix(1,0,0,1,2100,1485)"
font-family="MS Shell Dlg 2" font-size="29.1042" font-weight="400" font-style="normal" 
>
<path vector-effect="none" fill-rule="evenodd" d="M-1100,1045 L-1100,-1045"/>
</g>

<g fill="none" stroke="#000000" stroke-opacity="1" stroke-width="1" stroke-linecap="square" stroke-linejoin="bevel" transform="matrix(1,0,0,1,2100,1485)"
font-family="MS Shell Dlg 2" font-size="29.1042" font-weight="400" font-style="normal" 
>
</g>

<g fill="none" stroke="#000000" stroke-opacity="1" stroke-width="1" stroke-linecap="square" stroke-linejoin="bevel" transform="matrix(1,0,0,1,2100,1485)"
font-family="MS Shell Dlg 2" font-size="29.1042" font-weight="400" font-style="normal" 
>
</g>

<g fill="none" stroke="#000000" stroke-opacity="1" stroke-width="7" stroke-linecap="round" stroke-linejoin="bevel" transform="matrix(1,0,0,1,2100,1485)"
font-family="MS Shell Dlg 2" font-size="29.1042" font-weight="400" font-style="normal" 
>
<path vector-effect="none" fill-rule="evenodd" d="M1100,-1045 L1100,1045"/>
</g>

<g fill="none" stroke="#000000" stroke-opacity="1" stroke-width="1" stroke-linecap="square" stroke-linejoin="bevel" transform="matrix(1,0,0,1,2100,1485)"
font-family="MS Shell Dlg 2" font-size="29.1042" font-weight="400" font-style="normal" 
>
</g>

<g fill="none" stroke="#000000" stroke-opacity="1" stroke-width="1" stroke-linecap="square" stroke-linejoin="bevel" transform="matrix(1,0,0,1,2100,1485)"
font-family="MS Shell Dlg 2" font-size="29.1042" font-weight="400" font-style="normal" 
>
</g>

<g fill="none" stroke="#000000" stroke-opacity="1" stroke-width="7" stroke-linecap="round" stroke-linejoin="bevel" transform="matrix(1,0,0,1,2100,1485)"
font-family="MS Shell Dlg 2" font-size="29.1042" font-weight="400" font-style="normal" 
>
<path vector-effect="none" fill-rule="evenodd" d="M-1100,1045 C-1100,1075.38 -1075.38,1100 -1045,1100 "/>
</g>

<g fill="none" stroke="#000000" stroke-opacity="1" stroke-width="1" stroke-linecap="square" stroke-linejoin="bevel" transform="matrix(1,0,0,1,2100,1485)"
font-family="MS Shell Dlg 2" font-size="29.1042" font-weight="400" font-style="normal" 
>
</g>

<g fill="none" stroke="#000000" stroke-opacity="1" stroke-width="1" stroke-linecap="square" stroke-linejoin="bevel" transform="matrix(1,0,0,1,2100,1485)"
font-family="MS Shell Dlg 2" font-size="29.1042" font-weight="400" font-style="normal" 
>
</g>

<g fill="none" stroke="#000000" stroke-opacity="1" stroke-width="7" stroke-linecap="round" stroke-linejoin="bevel" transform="matrix(1,0,0,1,2100,1485)"
font-family="MS Shell Dlg 2" font-size="29.1042" font-weight="400" font-style="normal" 
>
<path vector-effect="none" fill-rule="evenodd" d="M1100,1045 C1100,1075.38 1075.38,1100 1045,1100 "/>
</g>

<g fill="none" stroke="#000000" stroke-opacity="1" stroke-width="1" stroke-linecap="square" stroke-linejoin="bevel" transform="matrix(1,0,0,1,2100,1485)"
font-family="MS Shell Dlg 2" font-size="29.1042" font-weight="400" font-style="normal" 
>
</g>

<g fill="none" stroke="#000000" stroke-opacity="1" stroke-width="1" stroke-linecap="square" stroke-linejoin="bevel" transform="matrix(1,0,0,1,2100,1485)"
font-family="MS Shell Dlg 2" font-size="29.1042" font-weight="400" font-style="normal" 
>
</g>

<g fill="none" stroke="#000000" stroke-opacity="1" stroke-width="7" stroke-linecap="round" stroke-linejoin="bevel" transform="matrix(1,0,0,1,2100,1485)"
font-family="MS Shell Dlg 2" font-size="29.1042" font-weight="400" font-style="normal" 
>
<path vector-effect="none" fill-rule="evenodd" d="M1045,1100 L-1045,1100"/>
</g>

<g fill="none" stroke="#000000" stroke-opacity="1" stroke-width="1" stroke-linecap="square" stroke-linejoin="bevel" transform="matrix(1,0,0,1,2100,1485)"
font-family="MS Shell Dlg 2" font-size="29.1042" font-weight="400" font-style="normal" 
>
</g>

<g fill="none" stroke="#000000" stroke-opacity="1" stroke-width="1" stroke-linecap="square" stroke-linejoin="bevel" transform="matrix(1,0,0,1,2100,1485)"
font-family="MS Shell Dlg 2" font-size="29.1042" font-weight="400" font-style="normal" 
>
</g>

<g fill="none" stroke="#000000" stroke-opacity="1" stroke-width="7" stroke-linecap="round" stroke-linejoin="bevel" transform="matrix(1,0,0,1,2100,1485)"
font-family="MS Shell Dlg 2" font-size="29.1042" font-weight="400" font-style="normal" 
>
<path vector-effect="none" fill-rule="evenodd" d="M827.5,800 C827.5,815.188 815.188,827.5 800,827.5 C784.812,827.5 772.5,815.188 772.5,800 C772.5,784.812 784.812,772.5 800,772.5 C815.188,772.5 827.5,784.812 827.5,800 "/>
</g>

<g fill="none" stroke="#000000" stroke-opacity="1" stroke-width="1" stroke-linecap="square" stroke-linejoin="bevel" transform="matrix(1,0,0,1,2100,1485)"
font-family="MS Shell Dlg 2" font-size="29.1042" font-weight="400" font-style="normal" 
>
</g>

<g fill="none" stroke="#000000" stroke-opacity="1" stroke-width="1" stroke-linecap="square" stroke-linejoin="bevel" transform="matrix(1,0,0,1,2100,1485)"
font-family="MS Shell Dlg 2" font-size="29.1042" font-weight="400" font-style="normal" 
>
</g>

<g fill="none" stroke="#000000" stroke-opacity="1" stroke-width="7" stroke-linecap="round" stroke-linejoin="bevel" transform="matrix(1,0,0,1,2100,1485)"
font-family="MS Shell Dlg 2" font-size="29.1042" font-weight="400" font-style="normal" 
>
<path vector-effect="none" fill-rule="evenodd" d="M-1013,1045 C-1013,1062.67 -1027.33,1077 -1045,1077 C-1062.67,1077 -1077,1062.67 -1077,1045 C-1077,1027.33 -1062.67,1013 -1045,1013 C-1027.33,1013 -1013,1027.33 -1013,1045 "/>
</g>

<g fill="none" stroke="#000000" stroke-opacity="1" stroke-width="1" stroke-linecap="square" stroke-linejoin="bevel" transform="matrix(1,0,0,1,2100,1485)"
font-family="MS Shell Dlg 2" font-size="29.1042" font-weight="400" font-style="normal" 
>
</g>

<g fill="none" stroke="#000000" stroke-opacity="1" stroke-width="1" stroke-linecap="square" stroke-linejoin="bevel" transform="matrix(1,0,0,1,2100,1485)"
font-family="MS Shell Dlg 2" font-size="29.1042" font-weight="400" font-style="normal" 
>
</g>

<g fill="none" stroke="#000000" stroke-opacity="1" stroke-width="7" stroke-linecap="round" stroke-linejoin="bevel" transform="matrix(1,0,0,1,2100,1485)"
font-family="MS Shell Dlg 2" font-size="29.1042" font-weight="400" font-style="normal" 
>
<path vector-effect="none" fill-rule="evenodd" d="M-772.5,800 C-772.5,815.188 -784.812,827.5 -800,827.5 C-815.188,827.5 -827.5,815.188 -827.5,800 C-827.5,784.812 -815.188,772.5 -800,772.5 C-784.812,772.5 -772.5,784.812 -772.5,800 "/>
</g>

<g fill="none" stroke="#000000" stroke-opacity="1" stroke-width="1" stroke-linecap="square" stroke-linejoin="bevel" transform="matrix(1,0,0,1,2100,1485)"
font-family="MS Shell Dlg 2" font-size="29.1042" font-weight="400" font-style="normal" 
>
</g>

<g fill="none" stroke="#000000" stroke-opacity="1" stroke-width="1" stroke-linecap="square" stroke-linejoin="bevel" transform="matrix(1,0,0,1,2100,1485)"
font-family="MS Shell Dlg 2" font-size="29.1042" font-weight="400" font-style="normal" 
>
</g>

<g fill="none" stroke="#000000" stroke-opacity="1" stroke-width="7" stroke-linecap="round" stroke-linejoin="bevel" transform="matrix(1,0,0,1,2100,1485)"
font-family="MS Shell Dlg 2" font-size="29.1042" font-weight="400" font-style="normal" 
>
<path vector-effect="none" fill-rule="evenodd" d="M1077,1045 C1077,1062.67 1062.67,1077 1045,1077 C1027.33,1077 1013,1062.67 1013,1045 C1013,1027.33 1027.33,1013 1045,1013 C1062.67,1013 1077,1027.33 1077,1045 "/>
</g>

<g fill="none" stroke="#000000" stroke-opacity="1" stroke-width="1" stroke-linecap="square" stroke-linejoin="bevel" transform="matrix(1,0,0,1,2100,1485)"
font-family="MS Shell Dlg 2" font-size="29.1042" font-weight="400" font-style="normal" 
>
</g>

<g fill="none" stroke="#000000" stroke-opacity="1" stroke-width="1" stroke-linecap="square" stroke-linejoin="bevel" transform="matrix(1,0,0,1,2100,1485)"
font-family="MS Shell Dlg 2" font-size="29.1042" font-weight="400" font-style="normal" 
>
</g>

<g fill="none" stroke="#000000" stroke-opacity="1" stroke-width="7" stroke-linecap="round" stroke-linejoin="bevel" transform="matrix(1,0,0,1,2100,1485)"
font-family="MS Shell Dlg 2" font-size="29.1042" font-weight="400" font-style="normal" 
>
<path vector-effect="none" fill-rule="evenodd" d="M1077,-1045 C1077,-1027.33 1062.67,-1013 1045,-1013 C1027.33,-1013 1013,-1027.33 1013,-1045 C1013,-1062.67 1027.33,-1077 1045,-1077 C1062.67,-1077 1077,-1062.67 1077,-1045 "/>
</g>

<g fill="none" stroke="#000000" stroke-opacity="1" stroke-width="1" stroke-linecap="square" stroke-linejoin="bevel" transform="matrix(1,0,0,1,2100,1485)"
font-family="MS Shell Dlg 2" font-size="29.1042" font-weight="400" font-style="normal" 
>
</g>

<g fill="none" stroke="#000000" stroke-opacity="1" stroke-width="1" stroke-linecap="square" stroke-linejoin="bevel" transform="matrix(1,0,0,1,2100,1485)"
font-family="MS Shell Dlg 2" font-size="29.1042" font-weight="400" font-style="normal" 
>
</g>

<g fill="none" stroke="#000000" stroke-opacity="1" stroke-width="7" stroke-linecap="round" stroke-linejoin="bevel" transform="matrix(1,0,0,1,2100,1485)"
font-family="MS Shell Dlg 2" font-size="29.1042" font-weight="400" font-style="normal" 
>
<path vector-effect="none" fill-rule="evenodd" d="M827.5,-800 C827.5,-784.812 815.188,-772.5 800,-772.5 C784.812,-772.5 772.5,-784.812 772.5,-800 C772.5,-815.188 784.812,-827.5 800,-827.5 C815.188,-827.5 827.5,-815.188 827.5,-800 "/>
</g>

<g fill="none" stroke="#000000" stroke-opacity="1" stroke-width="1" stroke-linecap="square" stroke-linejoin="bevel" transform="matrix(1,0,0,1,2100,1485)"
font-family="MS Shell Dlg 2" font-size="29.1042" font-weight="400" font-style="normal" 
>
</g>

<g fill="none" stroke="#000000" stroke-opacity="1" stroke-width="1" stroke-linecap="square" stroke-linejoin="bevel" transform="matrix(1,0,0,1,2100,1485)"
font-family="MS Shell Dlg 2" font-size="29.1042" font-weight="400" font-style="normal" 
>
</g>

<g fill="none" stroke="#000000" stroke-opacity="1" stroke-width="7" stroke-linecap="round" stroke-linejoin="bevel" transform="matrix(1,0,0,1,2100,1485)"
font-family="MS Shell Dlg 2" font-size="29.1042" font-weight="400" font-style="normal" 
>
<path vector-effect="none" fill-rule="evenodd" d="M-772.5,-800 C-772.5,-784.812 -784.812,-772.5 -800,-772.5 C-815.188,-772.5 -827.5,-784.812 -827.5,-800 C-827.5,-815.188 -815.188,-827.5 -800,-827.5 C-784.812,-827.5 -772.5,-815.188 -772.5,-800 "/>
</g>

<g fill="none" stroke="#000000" stroke-opacity="1" stroke-width="1" stroke-linecap="square" stroke-linejoin="bevel" transform="matrix(1,0,0,1,2100,1485)"
font-family="MS Shell Dlg 2" font-size="29.1042" font-weight="400" font-style="normal" 
>
</g>

<g fill="none" stroke="#000000" stroke-opacity="1" stroke-width="1" stroke-linecap="square" stroke-linejoin="bevel" transform="matrix(1,0,0,1,2100,1485)"
font-family="MS Shell Dlg 2" font-size="29.1042" font-weight="400" font-style="normal" 
>
</g>

<g fill="none" stroke="#000000" stroke-opacity="1" stroke-width="7" stroke-linecap="round" stroke-linejoin="bevel" transform="matrix(1,0,0,1,2100,1485)"
font-family="MS Shell Dlg 2" font-size="29.1042" font-weight="400" font-style="normal" 
>
<path vector-effect="none" fill-rule="evenodd" d="M-1013,-1045 C-1013,-1027.33 -1027.33,-1013 -1045,-1013 C-1062.67,-1013 -1077,-1027.33 -1077,-1045 C-1077,-1062.67 -1062.67,-1077 -1045,-1077 C-1027.33,-1077 -1013,-1062.67 -1013,-1045 "/>
</g>

<g fill="none" stroke="#000000" stroke-opacity="1" stroke-width="1" stroke-linecap="square" stroke-linejoin="bevel" transform="matrix(1,0,0,1,2100,1485)"
font-family="MS Shell Dlg 2" font-size="29.1042" font-weight="400" font-style="normal" 
>
</g>

<g fill="none" stroke="#000000" stroke-opacity="1" stroke-width="1" stroke-linecap="square" stroke-linejoin="bevel" transform="matrix(1,0,0,1,1055,440)"
font-family="MS Shell Dlg 2" font-size="29.1042" font-weight="400" font-style="normal" 
>
</g>

<g fill="#080808" fill-opacity="1" stroke="#080808" stroke-opacity="1" stroke-width="3.5" stroke-linecap="round" stroke-linejoin="bevel" transform="matrix(1,0,0,1,1055,440)"
font-family="MS Shell Dlg 2" font-size="29.1042" font-weight="400" font-style="normal" 
>
<path vector-effect="none" fill-rule="evenodd" d="M0,42 L0,-42 M42,0 L-42,0"/>
</g>

<g fill="none" stroke="#000000" stroke-opacity="1" stroke-width="1" stroke-linecap="square" stroke-linejoin="bevel" transform="matrix(1,0,0,1,1055,440)"
font-family="MS Shell Dlg 2" font-size="29.1042" font-weight="400" font-style="normal" 
>
</g>

<g fill="none" stroke="#000000" stroke-opacity="1" stroke-width="1" stroke-linecap="square" stroke-linejoin="bevel" transform="matrix(1,0,0,1,3145,440)"
font-family="MS Shell Dlg 2" font-size="29.1042" font-weight="400" font-style="normal" 
>
</g>

<g fill="#000000" fill-opacity="1" stroke="#000000" stroke-opacity="1" stroke-width="3.5" stroke-linecap="round" stroke-linejoin="bevel" transform="matrix(1,0,0,1,3145,440)"
font-family="MS Shell Dlg 2" font-size="29.1042" font-weight="400" font-style="normal" 
>
<path vector-effect="none" fill-rule="evenodd" d="M0,42 L0,-42 M42,0 L-42,0"/>
</g>

<g fill="none" stroke="#000000" stroke-opacity="1" stroke-width="1" stroke-linecap="square" stroke-linejoin="bevel" transform="matrix(1,0,0,1,3145,440)"
font-family="MS Shell Dlg 2" font-size="29.1042" font-weight="400" font-style="normal" 
>
</g>

<g fill="none" stroke="#000000" stroke-opacity="1" stroke-width="1" stroke-linecap="square" stroke-linejoin="bevel" transform="matrix(1,0,0,1,1055,2530)"
font-family="MS Shell Dlg 2" font-size="29.1042" font-weight="400" font-style="normal" 
>
</g>

<g fill="#000000" fill-opacity="1" stroke="#000000" stroke-opacity="1" stroke-width="3.5" stroke-linecap="round" stroke-linejoin="bevel" transform="matrix(1,0,0,1,1055,2530)"
font-family="MS Shell Dlg 2" font-size="29.1042" font-weight="400" font-style="normal" 
>
<path vector-effect="none" fill-rule="evenodd" d="M0,42 L0,-42 M42,0 L-42,0"/>
</g>

<g fill="none" stroke="#000000" stroke-opacity="1" stroke-width="1" stroke-linecap="square" stroke-linejoin="bevel" transform="matrix(1,0,0,1,1055,2530)"
font-family="MS Shell Dlg 2" font-size="29.1042" font-weight="400" font-style="normal" 
>
</g>

<g fill="none" stroke="#000000" stroke-opacity="1" stroke-width="1" stroke-linecap="square" stroke-linejoin="bevel" transform="matrix(1,0,0,1,3145,2530)"
font-family="MS Shell Dlg 2" font-size="29.1042" font-weight="400" font-style="normal" 
>
</g>

<g fill="#000000" fill-opacity="1" stroke="#000000" stroke-opacity="1" stroke-width="3.5" stroke-linecap="round" stroke-linejoin="bevel" transform="matrix(1,0,0,1,3145,2530)"
font-family="MS Shell Dlg 2" font-size="29.1042" font-weight="400" font-style="normal" 
>
<path vector-effect="none" fill-rule="evenodd" d="M0,42 L0,-42 M42,0 L-42,0"/>
</g>

<g fill="none" stroke="#000000" stroke-opacity="1" stroke-width="1" stroke-linecap="square" stroke-linejoin="bevel" transform="matrix(1,0,0,1,3145,2530)"
font-family="MS Shell Dlg 2" font-size="29.1042" font-weight="400" font-style="normal" 
>
</g>

<g fill="none" stroke="#000000" stroke-opacity="1" stroke-width="1" stroke-linecap="square" stroke-linejoin="bevel" transform="matrix(1,0,0,1,2900,2285)"
font-family="MS Shell Dlg 2" font-size="29.1042" font-weight="400" font-style="normal" 
>
</g>

<g fill="#000000" fill-opacity="1" stroke="#000000" stroke-opacity="1" stroke-width="3.5" stroke-linecap="round" stroke-linejoin="bevel" transform="matrix(1,0,0,1,2900,2285)"
font-family="MS Shell Dlg 2" font-size="29.1042" font-weight="400" font-style="normal" 
>
<path vector-effect="none" fill-rule="evenodd" d="M0,42 L0,-42 M42,0 L-42,0"/>
</g>

<g fill="none" stroke="#000000" stroke-opacity="1" stroke-width="1" stroke-linecap="square" stroke-linejoin="bevel" transform="matrix(1,0,0,1,2900,2285)"
font-family="MS Shell Dlg 2" font-size="29.1042" font-weight="400" font-style="normal" 
>
</g>

<g fill="none" stroke="#000000" stroke-opacity="1" stroke-width="1" stroke-linecap="square" stroke-linejoin="bevel" transform="matrix(1,0,0,1,1300,2285)"
font-family="MS Shell Dlg 2" font-size="29.1042" font-weight="400" font-style="normal" 
>
</g>

<g fill="#000000" fill-opacity="1" stroke="#000000" stroke-opacity="1" stroke-width="3.5" stroke-linecap="round" stroke-linejoin="bevel" transform="matrix(1,0,0,1,1300,2285)"
font-family="MS Shell Dlg 2" font-size="29.1042" font-weight="400" font-style="normal" 
>
<path vector-effect="none" fill-rule="evenodd" d="M0,42 L0,-42 M42,0 L-42,0"/>
</g>

<g fill="none" stroke="#000000" stroke-opacity="1" stroke-width="1" stroke-linecap="square" stroke-linejoin="bevel" transform="matrix(1,0,0,1,1300,2285)"
font-family="MS Shell Dlg 2" font-size="29.1042" font-weight="400" font-style="normal" 
>
</g>

<g fill="none" stroke="#000000" stroke-opacity="1" stroke-width="1" stroke-linecap="square" stroke-linejoin="bevel" transform="matrix(1,0,0,1,2900,685)"
font-family="MS Shell Dlg 2" font-size="29.1042" font-weight="400" font-style="normal" 
>
</g>

<g fill="#000000" fill-opacity="1" stroke="#000000" stroke-opacity="1" stroke-width="3.5" stroke-linecap="round" stroke-linejoin="bevel" transform="matrix(1,0,0,1,2900,685)"
font-family="MS Shell Dlg 2" font-size="29.1042" font-weight="400" font-style="normal" 
>
<path vector-effect="none" fill-rule="evenodd" d="M0,42 L0,-42 M42,0 L-42,0"/>
</g>

<g fill="none" stroke="#000000" stroke-opacity="1" stroke-width="1" stroke-linecap="square" stroke-linejoin="bevel" transform="matrix(1,0,0,1,2900,685)"
font-family="MS Shell Dlg 2" font-size="29.1042" font-weight="400" font-style="normal" 
>
</g>

<g fill="none" stroke="#000000" stroke-opacity="1" stroke-width="1" stroke-linecap="square" stroke-linejoin="bevel" transform="matrix(1,0,0,1,1300,685)"
font-family="MS Shell Dlg 2" font-size="29.1042" font-weight="400" font-style="normal" 
>
</g>

<g fill="#000000" fill-opacity="1" stroke="#000000" stroke-opacity="1" stroke-width="3.5" stroke-linecap="round" stroke-linejoin="bevel" transform="matrix(1,0,0,1,1300,685)"
font-family="MS Shell Dlg 2" font-size="29.1042" font-weight="400" font-style="normal" 
>
<path vector-effect="none" fill-rule="evenodd" d="M0,42 L0,-42 M42,0 L-42,0"/>
</g>

<g fill="none" stroke="#000000" stroke-opacity="1" stroke-width="1" stroke-linecap="square" stroke-linejoin="bevel" transform="matrix(1,0,0,1,1300,685)"
font-family="MS Shell Dlg 2" font-size="29.1042" font-weight="400" font-style="normal" 
>
</g>

<g fill="none" stroke="#000000" stroke-opacity="1" stroke-width="1" stroke-linecap="square" stroke-linejoin="bevel" transform="matrix(1,0,0,1,0,0)"
font-family="MS Shell Dlg 2" font-size="29.1042" font-weight="400" font-style="normal" 
>
</g>
</g>
</svg>
