  0
SECTION
  2
HEADER
  9
$ACADVER
  1
AC1014
  9
$HANDSEED
  5
FFFF
  9
$MEASUREMENT
 70
     1
  0
ENDSEC
  0
SECTION
  2
TABLES
  0
TABLE
  2
VPORT
  5
8
330
0
100
AcDbSymbolTable
 70
     4
  0
VPORT
  5
2E
330
8
100
AcDbSymbolTableRecord
100
AcDbViewportTableRecord
  2
*ACTIVE
 70
     0
 10
0.0
 20
0.0
 11
1.0
 21
1.0
 12
210.0
 22
148.5
 13
0.0
 23
0.0
 14
10.0
 24
10.0
 15
10.0
 25
10.0
 16
0.0
 26
0.0
 36
1.0
 17
0.0
 27
0.0
 37
0.0
 40
341.0
 41
1.24
 42
50.0
 43
0.0
 44
0.0
 50
0.0
 51
0.0
 71
     0
 72
   100
 73
     1
 74
     3
 75
     0
 76
     0
 77
     0
 78
     0
  0
ENDTAB
  0
TABLE
  2
LTYPE
  5
5
330
0
100
AcDbSymbolTable
 70
     1
  0
LTYPE
  5
14
330
5
100
AcDbSymbolTableRecord
100
AcDbLinetypeTableRecord
  2
BYBLOCK
 70
     0
  3

 72
    65
 73
     0
 40
0.0
  0
LTYPE
  5
15
330
5
100
AcDbSymbolTableRecord
100
AcDbLinetypeTableRecord
  2
BYLAYER
 70
     0
  3

 72
    65
 73
     0
 40
0.0
  0
LTYPE
  5
16
330
5
100
AcDbSymbolTableRecord
100
AcDbLinetypeTableRecord
  2
CONTINUOUS
 70
     0
  3
Solid line
 72
    65
 73
     0
 40
0.0
  0
ENDTAB
  0
TABLE
  2
LAYER
  5
2
100
AcDbSymbolTable
 70
1
  0
LAYER
  5
50
100
AcDbSymbolTableRecord
100
AcDbLayerTableRecord
  2
0
 70
0
  6
CONTINUOUS
  0
ENDTAB
  0
TABLE
  2
STYLE
  5
3
330
0
100
AcDbSymbolTable
 70
     1
  0
STYLE
  5
11
330
3
100
AcDbSymbolTableRecord
100
AcDbTextStyleTableRecord
  2
STANDARD
 70
     0
 40
0.0
 41
1.0
 50
0.0
 71
     0
 42
2.5
  3
txt
  4

  0
ENDTAB
  0
TABLE
  2
VIEW
  5
6
330
0
100
AcDbSymbolTable
 70
     0
  0
ENDTAB
  0
TABLE
  2
UCS
  5
7
330
0
100
AcDbSymbolTable
 70
     0
  0
ENDTAB
  0
TABLE
  2
APPID
  5
9
330
0
100
AcDbSymbolTable
 70
     2
  0
APPID
  5
12
330
9
100
AcDbSymbolTableRecord
100
AcDbRegAppTableRecord
  2
ACAD
 70
     0
  0
ENDTAB
  0
TABLE
  2
DIMSTYLE
  5
A
330
0
100
AcDbSymbolTable
 70
     1
  0
DIMSTYLE
105
27
330
A
100
AcDbSymbolTableRecord
100
AcDbDimStyleTableRecord
  2
ISO-25
 70
     0
  3

  4

  5

  6

  7

 40
1.0
 41
2.5
 42
0.625
 43
3.75
 44
1.25
 45
0.0
 46
0.0
 47
0.0
 48
0.0
140
2.5
141
2.5
142
0.0
143
0.03937007874016
144
1.0
145
0.0
146
1.0
147
0.625
 71
     0
 72
     0
 73
     0
 74
     0
 75
     0
 76
     0
 77
     1
 78
     8
170
     0
171
     3
172
     1
173
     0
174
     0
175
     0
176
     0
177
     0
178
     0
270
     2
271
     2
272
     2
273
     2
274
     3
340
11
275
     0
280
     0
281
     0
282
     0
283
     0
284
     8
285
     0
286
     0
287
     3
288
     0
  0
ENDTAB
  0
TABLE
  2
BLOCK_RECORD
  5
1
330
0
100
AcDbSymbolTable
 70
     1
  0
BLOCK_RECORD
  5
1F
330
1
100
AcDbSymbolTableRecord
100
AcDbBlockTableRecord
  2
*MODEL_SPACE
  0
BLOCK_RECORD
  5
1B
330
1
100
AcDbSymbolTableRecord
100
AcDbBlockTableRecord
  2
*PAPER_SPACE
  0
ENDTAB
  0
ENDSEC
  0
SECTION
  2
BLOCKS
  0
BLOCK
  5
20
330
1F
100
AcDbEntity
  8
0
100
AcDbBlockBegin
  2
*MODEL_SPACE
 70
     0
 10
0.0
 20
0.0
 30
0.0
  3
*MODEL_SPACE
  1

  0
ENDBLK
  5
21
330
1F
100
AcDbEntity
  8
0
100
AcDbBlockEnd
  0
BLOCK
  5
1C
330
1B
100
AcDbEntity
 67
     1
  8
0
100
AcDbBlockBegin
  2
*PAPER_SPACE
  1

  0
ENDBLK
  5
1D
330
1B
100
AcDbEntity
 67
     1
  8
0
100
AcDbBlockEnd
  0
ENDSEC
  0
SECTION
  2
ENTITIES
  0
SPLINE
  5
100
100
AcDbEntity
  8
0
 62
7
100
AcDbSpline
 70
8
 71
3
 72
8
 73
4
 74
0
 40
0
 40
0
 40
0
 40
0
 40
1
 40
1
 40
1
 40
1
 10
468.000000
 20
-210.759843
 30
0.0
 10
466.895000
 20
-210.759843
 30
0.0
 10
466.000000
 20
-211.654843
 30
0.0
 10
466.000000
 20
-212.759843
 30
0.0
  0
LWPOLYLINE
  5
101
100
AcDbEntity
  8
0
 62
7
100
AcDbPolyline
 90
3
 70
0
 10
491.000000
 20
107.240157
 30
0.0
 10
491.000000
 20
-210.759843
 30
0.0
 10
468.000000
 20
-210.759843
 30
0.0
  0
SPLINE
  5
102
100
AcDbEntity
  8
0
 62
7
100
AcDbSpline
 70
8
 71
3
 72
8
 73
4
 74
0
 40
0
 40
0
 40
0
 40
0
 40
1
 40
1
 40
1
 40
1
 10
128.000000
 20
-212.759843
 30
0.0
 10
128.000000
 20
-211.654843
 30
0.0
 10
127.105000
 20
-210.759843
 30
0.0
 10
126.000000
 20
-210.759843
 30
0.0
  0
LWPOLYLINE
  5
103
100
AcDbEntity
  8
0
 62
7
100
AcDbPolyline
 90
4
 70
0
 10
466.000000
 20
-212.759843
 30
0.0
 10
466.000000
 20
-235.759843
 30
0.0
 10
128.000000
 20
-235.759843
 30
0.0
 10
128.000000
 20
-212.759843
 30
0.0
  0
SPLINE
  5
104
100
AcDbEntity
  8
0
 62
7
100
AcDbSpline
 70
8
 71
3
 72
8
 73
4
 74
0
 40
0
 40
0
 40
0
 40
0
 40
1
 40
1
 40
1
 40
1
 10
126.000000
 20
107.240157
 30
0.0
 10
127.105000
 20
107.240157
 30
0.0
 10
128.000000
 20
108.135157
 30
0.0
 10
128.000000
 20
109.240157
 30
0.0
  0
LWPOLYLINE
  5
105
100
AcDbEntity
  8
0
 62
7
100
AcDbPolyline
 90
4
 70
0
 10
126.000000
 20
-210.759843
 30
0.0
 10
103.000000
 20
-210.759843
 30
0.0
 10
103.000000
 20
107.240157
 30
0.0
 10
126.000000
 20
107.240157
 30
0.0
  0
SPLINE
  5
106
100
AcDbEntity
  8
0
 62
7
100
AcDbSpline
 70
8
 71
3
 72
8
 73
4
 74
0
 40
0
 40
0
 40
0
 40
0
 40
1
 40
1
 40
1
 40
1
 10
225.000000
 20
108.240157
 30
0.0
 10
223.343100
 20
108.240157
 30
0.0
 10
222.000000
 20
106.897157
 30
0.0
 10
222.000000
 20
105.240157
 30
0.0
  0
LWPOLYLINE
  5
107
100
AcDbEntity
  8
0
 62
7
100
AcDbPolyline
 90
5
 70
0
 10
128.000000
 20
109.240157
 30
0.0
 10
128.000000
 20
133.240157
 30
0.0
 10
233.000000
 20
133.240157
 30
0.0
 10
233.000000
 20
108.240157
 30
0.0
 10
225.000000
 20
108.240157
 30
0.0
  0
SPLINE
  5
108
100
AcDbEntity
  8
0
 62
7
100
AcDbSpline
 70
8
 71
3
 72
8
 73
4
 74
0
 40
0
 40
0
 40
0
 40
0
 40
1
 40
1
 40
1
 40
1
 10
222.000000
 20
77.240157
 30
0.0
 10
222.000000
 20
75.583157
 30
0.0
 10
223.343100
 20
74.240157
 30
0.0
 10
225.000000
 20
74.240157
 30
0.0
  0
LWPOLYLINE
  5
109
100
AcDbEntity
  8
0
 62
7
100
AcDbPolyline
 90
2
 70
0
 10
222.000000
 20
105.240157
 30
0.0
 10
222.000000
 20
77.240157
 30
0.0
  0
SPLINE
  5
10a
100
AcDbEntity
  8
0
 62
7
100
AcDbSpline
 70
8
 71
3
 72
8
 73
4
 74
0
 40
0
 40
0
 40
0
 40
0
 40
1
 40
1
 40
1
 40
1
 10
249.000000
 20
74.240157
 30
0.0
 10
250.656900
 20
74.240157
 30
0.0
 10
252.000000
 20
75.583157
 30
0.0
 10
252.000000
 20
77.240157
 30
0.0
  0
LWPOLYLINE
  5
10b
100
AcDbEntity
  8
0
 62
7
100
AcDbPolyline
 90
2
 70
0
 10
225.000000
 20
74.240157
 30
0.0
 10
249.000000
 20
74.240157
 30
0.0
  0
SPLINE
  5
10c
100
AcDbEntity
  8
0
 62
7
100
AcDbSpline
 70
8
 71
3
 72
8
 73
4
 74
0
 40
0
 40
0
 40
0
 40
0
 40
1
 40
1
 40
1
 40
1
 10
252.000000
 20
105.240157
 30
0.0
 10
252.000000
 20
106.897157
 30
0.0
 10
250.656900
 20
108.240157
 30
0.0
 10
249.000000
 20
108.240157
 30
0.0
  0
LWPOLYLINE
  5
10d
100
AcDbEntity
  8
0
 62
7
100
AcDbPolyline
 90
2
 70
0
 10
252.000000
 20
77.240157
 30
0.0
 10
252.000000
 20
105.240157
 30
0.0
  0
SPLINE
  5
10e
100
AcDbEntity
  8
0
 62
7
100
AcDbSpline
 70
8
 71
3
 72
8
 73
4
 74
0
 40
0
 40
0
 40
0
 40
0
 40
1
 40
1
 40
1
 40
1
 10
345.000000
 20
108.240157
 30
0.0
 10
343.343100
 20
108.240157
 30
0.0
 10
342.000000
 20
106.897157
 30
0.0
 10
342.000000
 20
105.240157
 30
0.0
  0
LWPOLYLINE
  5
10f
100
AcDbEntity
  8
0
 62
7
100
AcDbPolyline
 90
6
 70
0
 10
249.000000
 20
108.240157
 30
0.0
 10
247.000000
 20
108.240157
 30
0.0
 10
247.000000
 20
133.240157
 30
0.0
 10
347.000000
 20
133.240157
 30
0.0
 10
347.000000
 20
108.240157
 30
0.0
 10
345.000000
 20
108.240157
 30
0.0
  0
SPLINE
  5
110
100
AcDbEntity
  8
0
 62
7
100
AcDbSpline
 70
8
 71
3
 72
8
 73
4
 74
0
 40
0
 40
0
 40
0
 40
0
 40
1
 40
1
 40
1
 40
1
 10
342.000000
 20
77.240157
 30
0.0
 10
342.000000
 20
75.583157
 30
0.0
 10
343.343100
 20
74.240157
 30
0.0
 10
345.000000
 20
74.240157
 30
0.0
  0
LWPOLYLINE
  5
111
100
AcDbEntity
  8
0
 62
7
100
AcDbPolyline
 90
4
 70
0
 10
342.000000
 20
105.240157
 30
0.0
 10
342.000000
 20
105.240157
 30
0.0
 10
342.000000
 20
77.240157
 30
0.0
 10
342.000000
 20
77.240157
 30
0.0
  0
SPLINE
  5
112
100
AcDbEntity
  8
0
 62
7
100
AcDbSpline
 70
8
 71
3
 72
8
 73
4
 74
0
 40
0
 40
0
 40
0
 40
0
 40
1
 40
1
 40
1
 40
1
 10
369.000000
 20
74.240157
 30
0.0
 10
370.656900
 20
74.240157
 30
0.0
 10
372.000000
 20
75.583157
 30
0.0
 10
372.000000
 20
77.240157
 30
0.0
  0
LWPOLYLINE
  5
113
100
AcDbEntity
  8
0
 62
7
100
AcDbPolyline
 90
2
 70
0
 10
345.000000
 20
74.240157
 30
0.0
 10
369.000000
 20
74.240157
 30
0.0
  0
SPLINE
  5
114
100
AcDbEntity
  8
0
 62
7
100
AcDbSpline
 70
8
 71
3
 72
8
 73
4
 74
0
 40
0
 40
0
 40
0
 40
0
 40
1
 40
1
 40
1
 40
1
 10
372.000000
 20
105.240157
 30
0.0
 10
372.000000
 20
106.897157
 30
0.0
 10
370.656900
 20
108.240157
 30
0.0
 10
369.000000
 20
108.240157
 30
0.0
  0
LWPOLYLINE
  5
115
100
AcDbEntity
  8
0
 62
7
100
AcDbPolyline
 90
4
 70
0
 10
372.000000
 20
77.240157
 30
0.0
 10
372.000000
 20
77.240157
 30
0.0
 10
372.000000
 20
105.240157
 30
0.0
 10
372.000000
 20
105.240157
 30
0.0
  0
SPLINE
  5
116
100
AcDbEntity
  8
0
 62
7
100
AcDbSpline
 70
8
 71
3
 72
8
 73
4
 74
0
 40
0
 40
0
 40
0
 40
0
 40
1
 40
1
 40
1
 40
1
 10
466.000000
 20
109.240157
 30
0.0
 10
466.000000
 20
108.135157
 30
0.0
 10
466.895000
 20
107.240157
 30
0.0
 10
468.000000
 20
107.240157
 30
0.0
  0
LWPOLYLINE
  5
117
100
AcDbEntity
  8
0
 62
7
100
AcDbPolyline
 90
5
 70
0
 10
369.000000
 20
108.240157
 30
0.0
 10
361.000000
 20
108.240157
 30
0.0
 10
361.000000
 20
133.240157
 30
0.0
 10
466.000000
 20
133.240157
 30
0.0
 10
466.000000
 20
109.240157
 30
0.0
  0
SPLINE
  5
118
100
AcDbEntity
  8
0
 62
7
100
AcDbSpline
 70
8
 71
3
 72
8
 73
4
 74
0
 40
0
 40
0
 40
0
 40
0
 40
1
 40
1
 40
1
 40
1
 10
309.000000
 20
91.240157
 30
0.0
 10
309.000000
 20
84.613157
 30
0.0
 10
303.627420
 20
79.240157
 30
0.0
 10
297.000000
 20
79.240157
 30
0.0
  0
SPLINE
  5
119
100
AcDbEntity
  8
0
 62
7
100
AcDbSpline
 70
8
 71
3
 72
8
 73
4
 74
0
 40
0
 40
0
 40
0
 40
0
 40
1
 40
1
 40
1
 40
1
 10
297.000000
 20
79.240157
 30
0.0
 10
290.372580
 20
79.240157
 30
0.0
 10
285.000000
 20
84.613157
 30
0.0
 10
285.000000
 20
91.240157
 30
0.0
  0
SPLINE
  5
11a
100
AcDbEntity
  8
0
 62
7
100
AcDbSpline
 70
8
 71
3
 72
8
 73
4
 74
0
 40
0
 40
0
 40
0
 40
0
 40
1
 40
1
 40
1
 40
1
 10
285.000000
 20
91.240157
 30
0.0
 10
285.000000
 20
97.867157
 30
0.0
 10
290.372580
 20
103.240157
 30
0.0
 10
297.000000
 20
103.240157
 30
0.0
  0
SPLINE
  5
11b
100
AcDbEntity
  8
0
 62
7
100
AcDbSpline
 70
8
 71
3
 72
8
 73
4
 74
0
 40
0
 40
0
 40
0
 40
0
 40
1
 40
1
 40
1
 40
1
 10
297.000000
 20
103.240157
 30
0.0
 10
303.627420
 20
103.240157
 30
0.0
 10
309.000000
 20
97.867157
 30
0.0
 10
309.000000
 20
91.240157
 30
0.0
  0
SPLINE
  5
11c
100
AcDbEntity
  8
0
 62
7
100
AcDbSpline
 70
8
 71
3
 72
8
 73
4
 74
0
 40
0
 40
0
 40
0
 40
0
 40
1
 40
1
 40
1
 40
1
 10
462.500000
 20
98.240157
 30
0.0
 10
462.500000
 20
95.202157
 30
0.0
 10
460.038000
 20
92.740157
 30
0.0
 10
457.000000
 20
92.740157
 30
0.0
  0
SPLINE
  5
11d
100
AcDbEntity
  8
0
 62
7
100
AcDbSpline
 70
8
 71
3
 72
8
 73
4
 74
0
 40
0
 40
0
 40
0
 40
0
 40
1
 40
1
 40
1
 40
1
 10
457.000000
 20
92.740157
 30
0.0
 10
453.962000
 20
92.740157
 30
0.0
 10
451.500000
 20
95.202157
 30
0.0
 10
451.500000
 20
98.240157
 30
0.0
  0
SPLINE
  5
11e
100
AcDbEntity
  8
0
 62
7
100
AcDbSpline
 70
8
 71
3
 72
8
 73
4
 74
0
 40
0
 40
0
 40
0
 40
0
 40
1
 40
1
 40
1
 40
1
 10
451.500000
 20
98.240157
 30
0.0
 10
451.500000
 20
101.278157
 30
0.0
 10
453.962000
 20
103.740157
 30
0.0
 10
457.000000
 20
103.740157
 30
0.0
  0
SPLINE
  5
11f
100
AcDbEntity
  8
0
 62
7
100
AcDbSpline
 70
8
 71
3
 72
8
 73
4
 74
0
 40
0
 40
0
 40
0
 40
0
 40
1
 40
1
 40
1
 40
1
 10
457.000000
 20
103.740157
 30
0.0
 10
460.038000
 20
103.740157
 30
0.0
 10
462.500000
 20
101.278157
 30
0.0
 10
462.500000
 20
98.240157
 30
0.0
  0
SPLINE
  5
120
100
AcDbEntity
  8
0
 62
7
100
AcDbSpline
 70
8
 71
3
 72
8
 73
4
 74
0
 40
0
 40
0
 40
0
 40
0
 40
1
 40
1
 40
1
 40
1
 10
158.000000
 20
106.240157
 30
0.0
 10
158.000000
 20
103.202157
 30
0.0
 10
155.538000
 20
100.740157
 30
0.0
 10
152.500000
 20
100.740157
 30
0.0
  0
SPLINE
  5
121
100
AcDbEntity
  8
0
 62
7
100
AcDbSpline
 70
8
 71
3
 72
8
 73
4
 74
0
 40
0
 40
0
 40
0
 40
0
 40
1
 40
1
 40
1
 40
1
 10
152.500000
 20
100.740157
 30
0.0
 10
149.462000
 20
100.740157
 30
0.0
 10
147.000000
 20
103.202157
 30
0.0
 10
147.000000
 20
106.240157
 30
0.0
  0
SPLINE
  5
122
100
AcDbEntity
  8
0
 62
7
100
AcDbSpline
 70
8
 71
3
 72
8
 73
4
 74
0
 40
0
 40
0
 40
0
 40
0
 40
1
 40
1
 40
1
 40
1
 10
147.000000
 20
106.240157
 30
0.0
 10
147.000000
 20
109.278157
 30
0.0
 10
149.462000
 20
111.740157
 30
0.0
 10
152.500000
 20
111.740157
 30
0.0
  0
SPLINE
  5
123
100
AcDbEntity
  8
0
 62
7
100
AcDbSpline
 70
8
 71
3
 72
8
 73
4
 74
0
 40
0
 40
0
 40
0
 40
0
 40
1
 40
1
 40
1
 40
1
 10
152.500000
 20
111.740157
 30
0.0
 10
155.538000
 20
111.740157
 30
0.0
 10
158.000000
 20
109.278157
 30
0.0
 10
158.000000
 20
106.240157
 30
0.0
  0
SPLINE
  5
124
100
AcDbEntity
  8
0
 62
7
100
AcDbSpline
 70
8
 71
3
 72
8
 73
4
 74
0
 40
0
 40
0
 40
0
 40
0
 40
1
 40
1
 40
1
 40
1
 10
462.500000
 20
-201.759843
 30
0.0
 10
462.500000
 20
-204.797843
 30
0.0
 10
460.038000
 20
-207.259843
 30
0.0
 10
457.000000
 20
-207.259843
 30
0.0
  0
SPLINE
  5
125
100
AcDbEntity
  8
0
 62
7
100
AcDbSpline
 70
8
 71
3
 72
8
 73
4
 74
0
 40
0
 40
0
 40
0
 40
0
 40
1
 40
1
 40
1
 40
1
 10
457.000000
 20
-207.259843
 30
0.0
 10
453.962000
 20
-207.259843
 30
0.0
 10
451.500000
 20
-204.797843
 30
0.0
 10
451.500000
 20
-201.759843
 30
0.0
  0
SPLINE
  5
126
100
AcDbEntity
  8
0
 62
7
100
AcDbSpline
 70
8
 71
3
 72
8
 73
4
 74
0
 40
0
 40
0
 40
0
 40
0
 40
1
 40
1
 40
1
 40
1
 10
451.500000
 20
-201.759843
 30
0.0
 10
451.500000
 20
-198.721843
 30
0.0
 10
453.962000
 20
-196.259843
 30
0.0
 10
457.000000
 20
-196.259843
 30
0.0
  0
SPLINE
  5
127
100
AcDbEntity
  8
0
 62
7
100
AcDbSpline
 70
8
 71
3
 72
8
 73
4
 74
0
 40
0
 40
0
 40
0
 40
0
 40
1
 40
1
 40
1
 40
1
 10
457.000000
 20
-196.259843
 30
0.0
 10
460.038000
 20
-196.259843
 30
0.0
 10
462.500000
 20
-198.721843
 30
0.0
 10
462.500000
 20
-201.759843
 30
0.0
  0
SPLINE
  5
128
100
AcDbEntity
  8
0
 62
7
100
AcDbSpline
 70
8
 71
3
 72
8
 73
4
 74
0
 40
0
 40
0
 40
0
 40
0
 40
1
 40
1
 40
1
 40
1
 10
142.500000
 20
-201.759843
 30
0.0
 10
142.500000
 20
-204.797843
 30
0.0
 10
140.038000
 20
-207.259843
 30
0.0
 10
137.000000
 20
-207.259843
 30
0.0
  0
SPLINE
  5
129
100
AcDbEntity
  8
0
 62
7
100
AcDbSpline
 70
8
 71
3
 72
8
 73
4
 74
0
 40
0
 40
0
 40
0
 40
0
 40
1
 40
1
 40
1
 40
1
 10
137.000000
 20
-207.259843
 30
0.0
 10
133.962000
 20
-207.259843
 30
0.0
 10
131.500000
 20
-204.797843
 30
0.0
 10
131.500000
 20
-201.759843
 30
0.0
  0
SPLINE
  5
12a
100
AcDbEntity
  8
0
 62
7
100
AcDbSpline
 70
8
 71
3
 72
8
 73
4
 74
0
 40
0
 40
0
 40
0
 40
0
 40
1
 40
1
 40
1
 40
1
 10
131.500000
 20
-201.759843
 30
0.0
 10
131.500000
 20
-198.721843
 30
0.0
 10
133.962000
 20
-196.259843
 30
0.0
 10
137.000000
 20
-196.259843
 30
0.0
  0
SPLINE
  5
12b
100
AcDbEntity
  8
0
 62
7
100
AcDbSpline
 70
8
 71
3
 72
8
 73
4
 74
0
 40
0
 40
0
 40
0
 40
0
 40
1
 40
1
 40
1
 40
1
 10
137.000000
 20
-196.259843
 30
0.0
 10
140.038000
 20
-196.259843
 30
0.0
 10
142.500000
 20
-198.721843
 30
0.0
 10
142.500000
 20
-201.759843
 30
0.0
  0
SPLINE
  5
12c
100
AcDbEntity
  8
0
 62
7
100
AcDbSpline
 70
8
 71
3
 72
8
 73
4
 74
0
 40
0
 40
0
 40
0
 40
0
 40
1
 40
1
 40
1
 40
1
 10
142.500000
 20
98.240157
 30
0.0
 10
142.500000
 20
95.202157
 30
0.0
 10
140.038000
 20
92.740157
 30
0.0
 10
137.000000
 20
92.740157
 30
0.0
  0
SPLINE
  5
12d
100
AcDbEntity
  8
0
 62
7
100
AcDbSpline
 70
8
 71
3
 72
8
 73
4
 74
0
 40
0
 40
0
 40
0
 40
0
 40
1
 40
1
 40
1
 40
1
 10
137.000000
 20
92.740157
 30
0.0
 10
133.962000
 20
92.740157
 30
0.0
 10
131.500000
 20
95.202157
 30
0.0
 10
131.500000
 20
98.240157
 30
0.0
  0
SPLINE
  5
12e
100
AcDbEntity
  8
0
 62
7
100
AcDbSpline
 70
8
 71
3
 72
8
 73
4
 74
0
 40
0
 40
0
 40
0
 40
0
 40
1
 40
1
 40
1
 40
1
 10
131.500000
 20
98.240157
 30
0.0
 10
131.500000
 20
101.278157
 30
0.0
 10
133.962000
 20
103.740157
 30
0.0
 10
137.000000
 20
103.740157
 30
0.0
  0
SPLINE
  5
12f
100
AcDbEntity
  8
0
 62
7
100
AcDbSpline
 70
8
 71
3
 72
8
 73
4
 74
0
 40
0
 40
0
 40
0
 40
0
 40
1
 40
1
 40
1
 40
1
 10
137.000000
 20
103.740157
 30
0.0
 10
140.038000
 20
103.740157
 30
0.0
 10
142.500000
 20
101.278157
 30
0.0
 10
142.500000
 20
98.240157
 30
0.0
  0
SPLINE
  5
130
100
AcDbEntity
  8
0
 62
7
100
AcDbSpline
 70
8
 71
3
 72
8
 73
4
 74
0
 40
0
 40
0
 40
0
 40
0
 40
1
 40
1
 40
1
 40
1
 10
447.000000
 20
106.240157
 30
0.0
 10
447.000000
 20
103.202157
 30
0.0
 10
444.538000
 20
100.740157
 30
0.0
 10
441.500000
 20
100.740157
 30
0.0
  0
SPLINE
  5
131
100
AcDbEntity
  8
0
 62
7
100
AcDbSpline
 70
8
 71
3
 72
8
 73
4
 74
0
 40
0
 40
0
 40
0
 40
0
 40
1
 40
1
 40
1
 40
1
 10
441.500000
 20
100.740157
 30
0.0
 10
438.462000
 20
100.740157
 30
0.0
 10
436.000000
 20
103.202157
 30
0.0
 10
436.000000
 20
106.240157
 30
0.0
  0
SPLINE
  5
132
100
AcDbEntity
  8
0
 62
7
100
AcDbSpline
 70
8
 71
3
 72
8
 73
4
 74
0
 40
0
 40
0
 40
0
 40
0
 40
1
 40
1
 40
1
 40
1
 10
436.000000
 20
106.240157
 30
0.0
 10
436.000000
 20
109.278157
 30
0.0
 10
438.462000
 20
111.740157
 30
0.0
 10
441.500000
 20
111.740157
 30
0.0
  0
SPLINE
  5
133
100
AcDbEntity
  8
0
 62
7
100
AcDbSpline
 70
8
 71
3
 72
8
 73
4
 74
0
 40
0
 40
0
 40
0
 40
0
 40
1
 40
1
 40
1
 40
1
 10
441.500000
 20
111.740157
 30
0.0
 10
444.538000
 20
111.740157
 30
0.0
 10
447.000000
 20
109.278157
 30
0.0
 10
447.000000
 20
106.240157
 30
0.0
  0
SPLINE
  5
134
100
AcDbEntity
  8
0
 62
7
100
AcDbSpline
 70
8
 71
3
 72
8
 73
4
 74
0
 40
0
 40
0
 40
0
 40
0
 40
1
 40
1
 40
1
 40
1
 10
484.250000
 20
63.240157
 30
0.0
 10
484.250000
 20
61.997157
 30
0.0
 10
483.243000
 20
60.990157
 30
0.0
 10
482.000000
 20
60.990157
 30
0.0
  0
SPLINE
  5
135
100
AcDbEntity
  8
0
 62
7
100
AcDbSpline
 70
8
 71
3
 72
8
 73
4
 74
0
 40
0
 40
0
 40
0
 40
0
 40
1
 40
1
 40
1
 40
1
 10
482.000000
 20
60.990157
 30
0.0
 10
480.757000
 20
60.990157
 30
0.0
 10
479.750000
 20
61.997157
 30
0.0
 10
479.750000
 20
63.240157
 30
0.0
  0
SPLINE
  5
136
100
AcDbEntity
  8
0
 62
7
100
AcDbSpline
 70
8
 71
3
 72
8
 73
4
 74
0
 40
0
 40
0
 40
0
 40
0
 40
1
 40
1
 40
1
 40
1
 10
479.750000
 20
63.240157
 30
0.0
 10
479.750000
 20
64.483157
 30
0.0
 10
480.757000
 20
65.490157
 30
0.0
 10
482.000000
 20
65.490157
 30
0.0
  0
SPLINE
  5
137
100
AcDbEntity
  8
0
 62
7
100
AcDbSpline
 70
8
 71
3
 72
8
 73
4
 74
0
 40
0
 40
0
 40
0
 40
0
 40
1
 40
1
 40
1
 40
1
 10
482.000000
 20
65.490157
 30
0.0
 10
483.243000
 20
65.490157
 30
0.0
 10
484.250000
 20
64.483157
 30
0.0
 10
484.250000
 20
63.240157
 30
0.0
  0
SPLINE
  5
138
100
AcDbEntity
  8
0
 62
7
100
AcDbSpline
 70
8
 71
3
 72
8
 73
4
 74
0
 40
0
 40
0
 40
0
 40
0
 40
1
 40
1
 40
1
 40
1
 10
484.250000
 20
-166.759843
 30
0.0
 10
484.250000
 20
-168.002843
 30
0.0
 10
483.243000
 20
-169.009843
 30
0.0
 10
482.000000
 20
-169.009843
 30
0.0
  0
SPLINE
  5
139
100
AcDbEntity
  8
0
 62
7
100
AcDbSpline
 70
8
 71
3
 72
8
 73
4
 74
0
 40
0
 40
0
 40
0
 40
0
 40
1
 40
1
 40
1
 40
1
 10
482.000000
 20
-169.009843
 30
0.0
 10
480.757000
 20
-169.009843
 30
0.0
 10
479.750000
 20
-168.002843
 30
0.0
 10
479.750000
 20
-166.759843
 30
0.0
  0
SPLINE
  5
13a
100
AcDbEntity
  8
0
 62
7
100
AcDbSpline
 70
8
 71
3
 72
8
 73
4
 74
0
 40
0
 40
0
 40
0
 40
0
 40
1
 40
1
 40
1
 40
1
 10
479.750000
 20
-166.759843
 30
0.0
 10
479.750000
 20
-165.516843
 30
0.0
 10
480.757000
 20
-164.509843
 30
0.0
 10
482.000000
 20
-164.509843
 30
0.0
  0
SPLINE
  5
13b
100
AcDbEntity
  8
0
 62
7
100
AcDbSpline
 70
8
 71
3
 72
8
 73
4
 74
0
 40
0
 40
0
 40
0
 40
0
 40
1
 40
1
 40
1
 40
1
 10
482.000000
 20
-164.509843
 30
0.0
 10
483.243000
 20
-164.509843
 30
0.0
 10
484.250000
 20
-165.516843
 30
0.0
 10
484.250000
 20
-166.759843
 30
0.0
  0
SPLINE
  5
13c
100
AcDbEntity
  8
0
 62
7
100
AcDbSpline
 70
8
 71
3
 72
8
 73
4
 74
0
 40
0
 40
0
 40
0
 40
0
 40
1
 40
1
 40
1
 40
1
 10
114.250000
 20
63.240157
 30
0.0
 10
114.250000
 20
61.997157
 30
0.0
 10
113.243000
 20
60.990157
 30
0.0
 10
112.000000
 20
60.990157
 30
0.0
  0
SPLINE
  5
13d
100
AcDbEntity
  8
0
 62
7
100
AcDbSpline
 70
8
 71
3
 72
8
 73
4
 74
0
 40
0
 40
0
 40
0
 40
0
 40
1
 40
1
 40
1
 40
1
 10
112.000000
 20
60.990157
 30
0.0
 10
110.757000
 20
60.990157
 30
0.0
 10
109.750000
 20
61.997157
 30
0.0
 10
109.750000
 20
63.240157
 30
0.0
  0
SPLINE
  5
13e
100
AcDbEntity
  8
0
 62
7
100
AcDbSpline
 70
8
 71
3
 72
8
 73
4
 74
0
 40
0
 40
0
 40
0
 40
0
 40
1
 40
1
 40
1
 40
1
 10
109.750000
 20
63.240157
 30
0.0
 10
109.750000
 20
64.483157
 30
0.0
 10
110.757000
 20
65.490157
 30
0.0
 10
112.000000
 20
65.490157
 30
0.0
  0
SPLINE
  5
13f
100
AcDbEntity
  8
0
 62
7
100
AcDbSpline
 70
8
 71
3
 72
8
 73
4
 74
0
 40
0
 40
0
 40
0
 40
0
 40
1
 40
1
 40
1
 40
1
 10
112.000000
 20
65.490157
 30
0.0
 10
113.243000
 20
65.490157
 30
0.0
 10
114.250000
 20
64.483157
 30
0.0
 10
114.250000
 20
63.240157
 30
0.0
  0
SPLINE
  5
140
100
AcDbEntity
  8
0
 62
7
100
AcDbSpline
 70
8
 71
3
 72
8
 73
4
 74
0
 40
0
 40
0
 40
0
 40
0
 40
1
 40
1
 40
1
 40
1
 10
174.250000
 20
-226.759843
 30
0.0
 10
174.250000
 20
-228.002843
 30
0.0
 10
173.243000
 20
-229.009843
 30
0.0
 10
172.000000
 20
-229.009843
 30
0.0
  0
SPLINE
  5
141
100
AcDbEntity
  8
0
 62
7
100
AcDbSpline
 70
8
 71
3
 72
8
 73
4
 74
0
 40
0
 40
0
 40
0
 40
0
 40
1
 40
1
 40
1
 40
1
 10
172.000000
 20
-229.009843
 30
0.0
 10
170.757000
 20
-229.009843
 30
0.0
 10
169.750000
 20
-228.002843
 30
0.0
 10
169.750000
 20
-226.759843
 30
0.0
  0
SPLINE
  5
142
100
AcDbEntity
  8
0
 62
7
100
AcDbSpline
 70
8
 71
3
 72
8
 73
4
 74
0
 40
0
 40
0
 40
0
 40
0
 40
1
 40
1
 40
1
 40
1
 10
169.750000
 20
-226.759843
 30
0.0
 10
169.750000
 20
-225.516843
 30
0.0
 10
170.757000
 20
-224.509843
 30
0.0
 10
172.000000
 20
-224.509843
 30
0.0
  0
SPLINE
  5
143
100
AcDbEntity
  8
0
 62
7
100
AcDbSpline
 70
8
 71
3
 72
8
 73
4
 74
0
 40
0
 40
0
 40
0
 40
0
 40
1
 40
1
 40
1
 40
1
 10
172.000000
 20
-224.509843
 30
0.0
 10
173.243000
 20
-224.509843
 30
0.0
 10
174.250000
 20
-225.516843
 30
0.0
 10
174.250000
 20
-226.759843
 30
0.0
  0
SPLINE
  5
144
100
AcDbEntity
  8
0
 62
7
100
AcDbSpline
 70
8
 71
3
 72
8
 73
4
 74
0
 40
0
 40
0
 40
0
 40
0
 40
1
 40
1
 40
1
 40
1
 10
454.250000
 20
-0.759843
 30
0.0
 10
454.250000
 20
-2.002443
 30
0.0
 10
453.243000
 20
-3.009843
 30
0.0
 10
452.000000
 20
-3.009843
 30
0.0
  0
SPLINE
  5
145
100
AcDbEntity
  8
0
 62
7
100
AcDbSpline
 70
8
 71
3
 72
8
 73
4
 74
0
 40
0
 40
0
 40
0
 40
0
 40
1
 40
1
 40
1
 40
1
 10
452.000000
 20
-3.009843
 30
0.0
 10
450.757000
 20
-3.009843
 30
0.0
 10
449.750000
 20
-2.002443
 30
0.0
 10
449.750000
 20
-0.759843
 30
0.0
  0
SPLINE
  5
146
100
AcDbEntity
  8
0
 62
7
100
AcDbSpline
 70
8
 71
3
 72
8
 73
4
 74
0
 40
0
 40
0
 40
0
 40
0
 40
1
 40
1
 40
1
 40
1
 10
449.750000
 20
-0.759843
 30
0.0
 10
449.750000
 20
0.482757
 30
0.0
 10
450.757000
 20
1.490157
 30
0.0
 10
452.000000
 20
1.490157
 30
0.0
  0
SPLINE
  5
147
100
AcDbEntity
  8
0
 62
7
100
AcDbSpline
 70
8
 71
3
 72
8
 73
4
 74
0
 40
0
 40
0
 40
0
 40
0
 40
1
 40
1
 40
1
 40
1
 10
452.000000
 20
1.490157
 30
0.0
 10
453.243000
 20
1.490157
 30
0.0
 10
454.250000
 20
0.482757
 30
0.0
 10
454.250000
 20
-0.759843
 30
0.0
  0
SPLINE
  5
148
100
AcDbEntity
  8
0
 62
7
100
AcDbSpline
 70
8
 71
3
 72
8
 73
4
 74
0
 40
0
 40
0
 40
0
 40
0
 40
1
 40
1
 40
1
 40
1
 10
144.250000
 20
-126.759843
 30
0.0
 10
144.250000
 20
-128.002443
 30
0.0
 10
143.243000
 20
-129.009843
 30
0.0
 10
142.000000
 20
-129.009843
 30
0.0
  0
SPLINE
  5
149
100
AcDbEntity
  8
0
 62
7
100
AcDbSpline
 70
8
 71
3
 72
8
 73
4
 74
0
 40
0
 40
0
 40
0
 40
0
 40
1
 40
1
 40
1
 40
1
 10
142.000000
 20
-129.009843
 30
0.0
 10
140.757000
 20
-129.009843
 30
0.0
 10
139.750000
 20
-128.002443
 30
0.0
 10
139.750000
 20
-126.759843
 30
0.0
  0
SPLINE
  5
14a
100
AcDbEntity
  8
0
 62
7
100
AcDbSpline
 70
8
 71
3
 72
8
 73
4
 74
0
 40
0
 40
0
 40
0
 40
0
 40
1
 40
1
 40
1
 40
1
 10
139.750000
 20
-126.759843
 30
0.0
 10
139.750000
 20
-125.517243
 30
0.0
 10
140.757000
 20
-124.509843
 30
0.0
 10
142.000000
 20
-124.509843
 30
0.0
  0
SPLINE
  5
14b
100
AcDbEntity
  8
0
 62
7
100
AcDbSpline
 70
8
 71
3
 72
8
 73
4
 74
0
 40
0
 40
0
 40
0
 40
0
 40
1
 40
1
 40
1
 40
1
 10
142.000000
 20
-124.509843
 30
0.0
 10
143.243000
 20
-124.509843
 30
0.0
 10
144.250000
 20
-125.517243
 30
0.0
 10
144.250000
 20
-126.759843
 30
0.0
  0
SPLINE
  5
14c
100
AcDbEntity
  8
0
 62
7
100
AcDbSpline
 70
8
 71
3
 72
8
 73
4
 74
0
 40
0
 40
0
 40
0
 40
0
 40
1
 40
1
 40
1
 40
1
 10
114.250000
 20
-166.759843
 30
0.0
 10
114.250000
 20
-168.002843
 30
0.0
 10
113.243000
 20
-169.009843
 30
0.0
 10
112.000000
 20
-169.009843
 30
0.0
  0
SPLINE
  5
14d
100
AcDbEntity
  8
0
 62
7
100
AcDbSpline
 70
8
 71
3
 72
8
 73
4
 74
0
 40
0
 40
0
 40
0
 40
0
 40
1
 40
1
 40
1
 40
1
 10
112.000000
 20
-169.009843
 30
0.0
 10
110.757000
 20
-169.009843
 30
0.0
 10
109.750000
 20
-168.002843
 30
0.0
 10
109.750000
 20
-166.759843
 30
0.0
  0
SPLINE
  5
14e
100
AcDbEntity
  8
0
 62
7
100
AcDbSpline
 70
8
 71
3
 72
8
 73
4
 74
0
 40
0
 40
0
 40
0
 40
0
 40
1
 40
1
 40
1
 40
1
 10
109.750000
 20
-166.759843
 30
0.0
 10
109.750000
 20
-165.516843
 30
0.0
 10
110.757000
 20
-164.509843
 30
0.0
 10
112.000000
 20
-164.509843
 30
0.0
  0
SPLINE
  5
14f
100
AcDbEntity
  8
0
 62
7
100
AcDbSpline
 70
8
 71
3
 72
8
 73
4
 74
0
 40
0
 40
0
 40
0
 40
0
 40
1
 40
1
 40
1
 40
1
 10
112.000000
 20
-164.509843
 30
0.0
 10
113.243000
 20
-164.509843
 30
0.0
 10
114.250000
 20
-165.516843
 30
0.0
 10
114.250000
 20
-166.759843
 30
0.0
  0
SPLINE
  5
150
100
AcDbEntity
  8
0
 62
7
100
AcDbSpline
 70
8
 71
3
 72
8
 73
4
 74
0
 40
0
 40
0
 40
0
 40
0
 40
1
 40
1
 40
1
 40
1
 10
229.250000
 20
-0.759843
 30
0.0
 10
229.250000
 20
-2.002443
 30
0.0
 10
228.242600
 20
-3.009843
 30
0.0
 10
227.000000
 20
-3.009843
 30
0.0
  0
SPLINE
  5
151
100
AcDbEntity
  8
0
 62
7
100
AcDbSpline
 70
8
 71
3
 72
8
 73
4
 74
0
 40
0
 40
0
 40
0
 40
0
 40
1
 40
1
 40
1
 40
1
 10
227.000000
 20
-3.009843
 30
0.0
 10
225.757400
 20
-3.009843
 30
0.0
 10
224.750000
 20
-2.002443
 30
0.0
 10
224.750000
 20
-0.759843
 30
0.0
  0
SPLINE
  5
152
100
AcDbEntity
  8
0
 62
7
100
AcDbSpline
 70
8
 71
3
 72
8
 73
4
 74
0
 40
0
 40
0
 40
0
 40
0
 40
1
 40
1
 40
1
 40
1
 10
224.750000
 20
-0.759843
 30
0.0
 10
224.750000
 20
0.482757
 30
0.0
 10
225.757400
 20
1.490157
 30
0.0
 10
227.000000
 20
1.490157
 30
0.0
  0
SPLINE
  5
153
100
AcDbEntity
  8
0
 62
7
100
AcDbSpline
 70
8
 71
3
 72
8
 73
4
 74
0
 40
0
 40
0
 40
0
 40
0
 40
1
 40
1
 40
1
 40
1
 10
227.000000
 20
1.490157
 30
0.0
 10
228.242600
 20
1.490157
 30
0.0
 10
229.250000
 20
0.482757
 30
0.0
 10
229.250000
 20
-0.759843
 30
0.0
  0
SPLINE
  5
154
100
AcDbEntity
  8
0
 62
7
100
AcDbSpline
 70
8
 71
3
 72
8
 73
4
 74
0
 40
0
 40
0
 40
0
 40
0
 40
1
 40
1
 40
1
 40
1
 10
299.250000
 20
123.240157
 30
0.0
 10
299.250000
 20
121.997157
 30
0.0
 10
298.242640
 20
120.990157
 30
0.0
 10
297.000000
 20
120.990157
 30
0.0
  0
SPLINE
  5
155
100
AcDbEntity
  8
0
 62
7
100
AcDbSpline
 70
8
 71
3
 72
8
 73
4
 74
0
 40
0
 40
0
 40
0
 40
0
 40
1
 40
1
 40
1
 40
1
 10
297.000000
 20
120.990157
 30
0.0
 10
295.757360
 20
120.990157
 30
0.0
 10
294.750000
 20
121.997157
 30
0.0
 10
294.750000
 20
123.240157
 30
0.0
  0
SPLINE
  5
156
100
AcDbEntity
  8
0
 62
7
100
AcDbSpline
 70
8
 71
3
 72
8
 73
4
 74
0
 40
0
 40
0
 40
0
 40
0
 40
1
 40
1
 40
1
 40
1
 10
294.750000
 20
123.240157
 30
0.0
 10
294.750000
 20
124.483157
 30
0.0
 10
295.757360
 20
125.490157
 30
0.0
 10
297.000000
 20
125.490157
 30
0.0
  0
SPLINE
  5
157
100
AcDbEntity
  8
0
 62
7
100
AcDbSpline
 70
8
 71
3
 72
8
 73
4
 74
0
 40
0
 40
0
 40
0
 40
0
 40
1
 40
1
 40
1
 40
1
 10
297.000000
 20
125.490157
 30
0.0
 10
298.242640
 20
125.490157
 30
0.0
 10
299.250000
 20
124.483157
 30
0.0
 10
299.250000
 20
123.240157
 30
0.0
  0
SPLINE
  5
158
100
AcDbEntity
  8
0
 62
7
100
AcDbSpline
 70
8
 71
3
 72
8
 73
4
 74
0
 40
0
 40
0
 40
0
 40
0
 40
1
 40
1
 40
1
 40
1
 10
369.250000
 20
-126.759843
 30
0.0
 10
369.250000
 20
-128.002443
 30
0.0
 10
368.242600
 20
-129.009843
 30
0.0
 10
367.000000
 20
-129.009843
 30
0.0
  0
SPLINE
  5
159
100
AcDbEntity
  8
0
 62
7
100
AcDbSpline
 70
8
 71
3
 72
8
 73
4
 74
0
 40
0
 40
0
 40
0
 40
0
 40
1
 40
1
 40
1
 40
1
 10
367.000000
 20
-129.009843
 30
0.0
 10
365.757400
 20
-129.009843
 30
0.0
 10
364.750000
 20
-128.002443
 30
0.0
 10
364.750000
 20
-126.759843
 30
0.0
  0
SPLINE
  5
15a
100
AcDbEntity
  8
0
 62
7
100
AcDbSpline
 70
8
 71
3
 72
8
 73
4
 74
0
 40
0
 40
0
 40
0
 40
0
 40
1
 40
1
 40
1
 40
1
 10
364.750000
 20
-126.759843
 30
0.0
 10
364.750000
 20
-125.517243
 30
0.0
 10
365.757400
 20
-124.509843
 30
0.0
 10
367.000000
 20
-124.509843
 30
0.0
  0
SPLINE
  5
15b
100
AcDbEntity
  8
0
 62
7
100
AcDbSpline
 70
8
 71
3
 72
8
 73
4
 74
0
 40
0
 40
0
 40
0
 40
0
 40
1
 40
1
 40
1
 40
1
 10
367.000000
 20
-124.509843
 30
0.0
 10
368.242600
 20
-124.509843
 30
0.0
 10
369.250000
 20
-125.517243
 30
0.0
 10
369.250000
 20
-126.759843
 30
0.0
  0
SPLINE
  5
15c
100
AcDbEntity
  8
0
 62
7
100
AcDbSpline
 70
8
 71
3
 72
8
 73
4
 74
0
 40
0
 40
0
 40
0
 40
0
 40
1
 40
1
 40
1
 40
1
 10
144.250000
 20
-0.759843
 30
0.0
 10
144.250000
 20
-2.002443
 30
0.0
 10
143.243000
 20
-3.009843
 30
0.0
 10
142.000000
 20
-3.009843
 30
0.0
  0
SPLINE
  5
15d
100
AcDbEntity
  8
0
 62
7
100
AcDbSpline
 70
8
 71
3
 72
8
 73
4
 74
0
 40
0
 40
0
 40
0
 40
0
 40
1
 40
1
 40
1
 40
1
 10
142.000000
 20
-3.009843
 30
0.0
 10
140.757000
 20
-3.009843
 30
0.0
 10
139.750000
 20
-2.002443
 30
0.0
 10
139.750000
 20
-0.759843
 30
0.0
  0
SPLINE
  5
15e
100
AcDbEntity
  8
0
 62
7
100
AcDbSpline
 70
8
 71
3
 72
8
 73
4
 74
0
 40
0
 40
0
 40
0
 40
0
 40
1
 40
1
 40
1
 40
1
 10
139.750000
 20
-0.759843
 30
0.0
 10
139.750000
 20
0.482757
 30
0.0
 10
140.757000
 20
1.490157
 30
0.0
 10
142.000000
 20
1.490157
 30
0.0
  0
SPLINE
  5
15f
100
AcDbEntity
  8
0
 62
7
100
AcDbSpline
 70
8
 71
3
 72
8
 73
4
 74
0
 40
0
 40
0
 40
0
 40
0
 40
1
 40
1
 40
1
 40
1
 10
142.000000
 20
1.490157
 30
0.0
 10
143.243000
 20
1.490157
 30
0.0
 10
144.250000
 20
0.482757
 30
0.0
 10
144.250000
 20
-0.759843
 30
0.0
  0
SPLINE
  5
160
100
AcDbEntity
  8
0
 62
7
100
AcDbSpline
 70
8
 71
3
 72
8
 73
4
 74
0
 40
0
 40
0
 40
0
 40
0
 40
1
 40
1
 40
1
 40
1
 10
369.250000
 20
-0.759843
 30
0.0
 10
369.250000
 20
-2.002443
 30
0.0
 10
368.242600
 20
-3.009843
 30
0.0
 10
367.000000
 20
-3.009843
 30
0.0
  0
SPLINE
  5
161
100
AcDbEntity
  8
0
 62
7
100
AcDbSpline
 70
8
 71
3
 72
8
 73
4
 74
0
 40
0
 40
0
 40
0
 40
0
 40
1
 40
1
 40
1
 40
1
 10
367.000000
 20
-3.009843
 30
0.0
 10
365.757400
 20
-3.009843
 30
0.0
 10
364.750000
 20
-2.002443
 30
0.0
 10
364.750000
 20
-0.759843
 30
0.0
  0
SPLINE
  5
162
100
AcDbEntity
  8
0
 62
7
100
AcDbSpline
 70
8
 71
3
 72
8
 73
4
 74
0
 40
0
 40
0
 40
0
 40
0
 40
1
 40
1
 40
1
 40
1
 10
364.750000
 20
-0.759843
 30
0.0
 10
364.750000
 20
0.482757
 30
0.0
 10
365.757400
 20
1.490157
 30
0.0
 10
367.000000
 20
1.490157
 30
0.0
  0
SPLINE
  5
163
100
AcDbEntity
  8
0
 62
7
100
AcDbSpline
 70
8
 71
3
 72
8
 73
4
 74
0
 40
0
 40
0
 40
0
 40
0
 40
1
 40
1
 40
1
 40
1
 10
367.000000
 20
1.490157
 30
0.0
 10
368.242600
 20
1.490157
 30
0.0
 10
369.250000
 20
0.482757
 30
0.0
 10
369.250000
 20
-0.759843
 30
0.0
  0
SPLINE
  5
164
100
AcDbEntity
  8
0
 62
7
100
AcDbSpline
 70
8
 71
3
 72
8
 73
4
 74
0
 40
0
 40
0
 40
0
 40
0
 40
1
 40
1
 40
1
 40
1
 10
229.250000
 20
-126.759843
 30
0.0
 10
229.250000
 20
-128.002443
 30
0.0
 10
228.242600
 20
-129.009843
 30
0.0
 10
227.000000
 20
-129.009843
 30
0.0
  0
SPLINE
  5
165
100
AcDbEntity
  8
0
 62
7
100
AcDbSpline
 70
8
 71
3
 72
8
 73
4
 74
0
 40
0
 40
0
 40
0
 40
0
 40
1
 40
1
 40
1
 40
1
 10
227.000000
 20
-129.009843
 30
0.0
 10
225.757400
 20
-129.009843
 30
0.0
 10
224.750000
 20
-128.002443
 30
0.0
 10
224.750000
 20
-126.759843
 30
0.0
  0
SPLINE
  5
166
100
AcDbEntity
  8
0
 62
7
100
AcDbSpline
 70
8
 71
3
 72
8
 73
4
 74
0
 40
0
 40
0
 40
0
 40
0
 40
1
 40
1
 40
1
 40
1
 10
224.750000
 20
-126.759843
 30
0.0
 10
224.750000
 20
-125.517243
 30
0.0
 10
225.757400
 20
-124.509843
 30
0.0
 10
227.000000
 20
-124.509843
 30
0.0
  0
SPLINE
  5
167
100
AcDbEntity
  8
0
 62
7
100
AcDbSpline
 70
8
 71
3
 72
8
 73
4
 74
0
 40
0
 40
0
 40
0
 40
0
 40
1
 40
1
 40
1
 40
1
 10
227.000000
 20
-124.509843
 30
0.0
 10
228.242600
 20
-124.509843
 30
0.0
 10
229.250000
 20
-125.517243
 30
0.0
 10
229.250000
 20
-126.759843
 30
0.0
  0
SPLINE
  5
168
100
AcDbEntity
  8
0
 62
7
100
AcDbSpline
 70
8
 71
3
 72
8
 73
4
 74
0
 40
0
 40
0
 40
0
 40
0
 40
1
 40
1
 40
1
 40
1
 10
454.250000
 20
-126.759843
 30
0.0
 10
454.250000
 20
-128.002443
 30
0.0
 10
453.243000
 20
-129.009843
 30
0.0
 10
452.000000
 20
-129.009843
 30
0.0
  0
SPLINE
  5
169
100
AcDbEntity
  8
0
 62
7
100
AcDbSpline
 70
8
 71
3
 72
8
 73
4
 74
0
 40
0
 40
0
 40
0
 40
0
 40
1
 40
1
 40
1
 40
1
 10
452.000000
 20
-129.009843
 30
0.0
 10
450.757000
 20
-129.009843
 30
0.0
 10
449.750000
 20
-128.002443
 30
0.0
 10
449.750000
 20
-126.759843
 30
0.0
  0
SPLINE
  5
16a
100
AcDbEntity
  8
0
 62
7
100
AcDbSpline
 70
8
 71
3
 72
8
 73
4
 74
0
 40
0
 40
0
 40
0
 40
0
 40
1
 40
1
 40
1
 40
1
 10
449.750000
 20
-126.759843
 30
0.0
 10
449.750000
 20
-125.517243
 30
0.0
 10
450.757000
 20
-124.509843
 30
0.0
 10
452.000000
 20
-124.509843
 30
0.0
  0
SPLINE
  5
16b
100
AcDbEntity
  8
0
 62
7
100
AcDbSpline
 70
8
 71
3
 72
8
 73
4
 74
0
 40
0
 40
0
 40
0
 40
0
 40
1
 40
1
 40
1
 40
1
 10
452.000000
 20
-124.509843
 30
0.0
 10
453.243000
 20
-124.509843
 30
0.0
 10
454.250000
 20
-125.517243
 30
0.0
 10
454.250000
 20
-126.759843
 30
0.0
  0
SPLINE
  5
16c
100
AcDbEntity
  8
0
 62
7
100
AcDbSpline
 70
8
 71
3
 72
8
 73
4
 74
0
 40
0
 40
0
 40
0
 40
0
 40
1
 40
1
 40
1
 40
1
 10
424.250000
 20
-226.759843
 30
0.0
 10
424.250000
 20
-228.002843
 30
0.0
 10
423.243000
 20
-229.009843
 30
0.0
 10
422.000000
 20
-229.009843
 30
0.0
  0
SPLINE
  5
16d
100
AcDbEntity
  8
0
 62
7
100
AcDbSpline
 70
8
 71
3
 72
8
 73
4
 74
0
 40
0
 40
0
 40
0
 40
0
 40
1
 40
1
 40
1
 40
1
 10
422.000000
 20
-229.009843
 30
0.0
 10
420.757000
 20
-229.009843
 30
0.0
 10
419.750000
 20
-228.002843
 30
0.0
 10
419.750000
 20
-226.759843
 30
0.0
  0
SPLINE
  5
16e
100
AcDbEntity
  8
0
 62
7
100
AcDbSpline
 70
8
 71
3
 72
8
 73
4
 74
0
 40
0
 40
0
 40
0
 40
0
 40
1
 40
1
 40
1
 40
1
 10
419.750000
 20
-226.759843
 30
0.0
 10
419.750000
 20
-225.516843
 30
0.0
 10
420.757000
 20
-224.509843
 30
0.0
 10
422.000000
 20
-224.509843
 30
0.0
  0
SPLINE
  5
16f
100
AcDbEntity
  8
0
 62
7
100
AcDbSpline
 70
8
 71
3
 72
8
 73
4
 74
0
 40
0
 40
0
 40
0
 40
0
 40
1
 40
1
 40
1
 40
1
 10
422.000000
 20
-224.509843
 30
0.0
 10
423.243000
 20
-224.509843
 30
0.0
 10
424.250000
 20
-225.516843
 30
0.0
 10
424.250000
 20
-226.759843
 30
0.0
  0
SPLINE
  5
170
100
AcDbEntity
  8
0
 62
7
100
AcDbSpline
 70
8
 71
3
 72
8
 73
4
 74
0
 40
0
 40
0
 40
0
 40
0
 40
1
 40
1
 40
1
 40
1
 10
424.250000
 20
123.240157
 30
0.0
 10
424.250000
 20
121.997157
 30
0.0
 10
423.243000
 20
120.990157
 30
0.0
 10
422.000000
 20
120.990157
 30
0.0
  0
SPLINE
  5
171
100
AcDbEntity
  8
0
 62
7
100
AcDbSpline
 70
8
 71
3
 72
8
 73
4
 74
0
 40
0
 40
0
 40
0
 40
0
 40
1
 40
1
 40
1
 40
1
 10
422.000000
 20
120.990157
 30
0.0
 10
420.757000
 20
120.990157
 30
0.0
 10
419.750000
 20
121.997157
 30
0.0
 10
419.750000
 20
123.240157
 30
0.0
  0
SPLINE
  5
172
100
AcDbEntity
  8
0
 62
7
100
AcDbSpline
 70
8
 71
3
 72
8
 73
4
 74
0
 40
0
 40
0
 40
0
 40
0
 40
1
 40
1
 40
1
 40
1
 10
419.750000
 20
123.240157
 30
0.0
 10
419.750000
 20
124.483157
 30
0.0
 10
420.757000
 20
125.490157
 30
0.0
 10
422.000000
 20
125.490157
 30
0.0
  0
SPLINE
  5
173
100
AcDbEntity
  8
0
 62
7
100
AcDbSpline
 70
8
 71
3
 72
8
 73
4
 74
0
 40
0
 40
0
 40
0
 40
0
 40
1
 40
1
 40
1
 40
1
 10
422.000000
 20
125.490157
 30
0.0
 10
423.243000
 20
125.490157
 30
0.0
 10
424.250000
 20
124.483157
 30
0.0
 10
424.250000
 20
123.240157
 30
0.0
  0
SPLINE
  5
174
100
AcDbEntity
  8
0
 62
7
100
AcDbSpline
 70
8
 71
3
 72
8
 73
4
 74
0
 40
0
 40
0
 40
0
 40
0
 40
1
 40
1
 40
1
 40
1
 10
174.250000
 20
123.240157
 30
0.0
 10
174.250000
 20
121.997157
 30
0.0
 10
173.243000
 20
120.990157
 30
0.0
 10
172.000000
 20
120.990157
 30
0.0
  0
SPLINE
  5
175
100
AcDbEntity
  8
0
 62
7
100
AcDbSpline
 70
8
 71
3
 72
8
 73
4
 74
0
 40
0
 40
0
 40
0
 40
0
 40
1
 40
1
 40
1
 40
1
 10
172.000000
 20
120.990157
 30
0.0
 10
170.757000
 20
120.990157
 30
0.0
 10
169.750000
 20
121.997157
 30
0.0
 10
169.750000
 20
123.240157
 30
0.0
  0
SPLINE
  5
176
100
AcDbEntity
  8
0
 62
7
100
AcDbSpline
 70
8
 71
3
 72
8
 73
4
 74
0
 40
0
 40
0
 40
0
 40
0
 40
1
 40
1
 40
1
 40
1
 10
169.750000
 20
123.240157
 30
0.0
 10
169.750000
 20
124.483157
 30
0.0
 10
170.757000
 20
125.490157
 30
0.0
 10
172.000000
 20
125.490157
 30
0.0
  0
SPLINE
  5
177
100
AcDbEntity
  8
0
 62
7
100
AcDbSpline
 70
8
 71
3
 72
8
 73
4
 74
0
 40
0
 40
0
 40
0
 40
0
 40
1
 40
1
 40
1
 40
1
 10
172.000000
 20
125.490157
 30
0.0
 10
173.243000
 20
125.490157
 30
0.0
 10
174.250000
 20
124.483157
 30
0.0
 10
174.250000
 20
123.240157
 30
0.0
  0
SPLINE
  5
178
100
AcDbEntity
  8
0
 62
7
100
AcDbSpline
 70
8
 71
3
 72
8
 73
4
 74
0
 40
0
 40
0
 40
0
 40
0
 40
1
 40
1
 40
1
 40
1
 10
314.250000
 20
106.740157
 30
0.0
 10
314.250000
 20
105.774157
 30
0.0
 10
313.466500
 20
104.990157
 30
0.0
 10
312.500000
 20
104.990157
 30
0.0
  0
SPLINE
  5
179
100
AcDbEntity
  8
0
 62
7
100
AcDbSpline
 70
8
 71
3
 72
8
 73
4
 74
0
 40
0
 40
0
 40
0
 40
0
 40
1
 40
1
 40
1
 40
1
 10
312.500000
 20
104.990157
 30
0.0
 10
311.533500
 20
104.990157
 30
0.0
 10
310.750000
 20
105.774157
 30
0.0
 10
310.750000
 20
106.740157
 30
0.0
  0
SPLINE
  5
17a
100
AcDbEntity
  8
0
 62
7
100
AcDbSpline
 70
8
 71
3
 72
8
 73
4
 74
0
 40
0
 40
0
 40
0
 40
0
 40
1
 40
1
 40
1
 40
1
 10
310.750000
 20
106.740157
 30
0.0
 10
310.750000
 20
107.706157
 30
0.0
 10
311.533500
 20
108.490157
 30
0.0
 10
312.500000
 20
108.490157
 30
0.0
  0
SPLINE
  5
17b
100
AcDbEntity
  8
0
 62
7
100
AcDbSpline
 70
8
 71
3
 72
8
 73
4
 74
0
 40
0
 40
0
 40
0
 40
0
 40
1
 40
1
 40
1
 40
1
 10
312.500000
 20
108.490157
 30
0.0
 10
313.466500
 20
108.490157
 30
0.0
 10
314.250000
 20
107.706157
 30
0.0
 10
314.250000
 20
106.740157
 30
0.0
  0
SPLINE
  5
17c
100
AcDbEntity
  8
0
 62
7
100
AcDbSpline
 70
8
 71
3
 72
8
 73
4
 74
0
 40
0
 40
0
 40
0
 40
0
 40
1
 40
1
 40
1
 40
1
 10
314.250000
 20
75.740157
 30
0.0
 10
314.250000
 20
74.774157
 30
0.0
 10
313.466500
 20
73.990157
 30
0.0
 10
312.500000
 20
73.990157
 30
0.0
  0
SPLINE
  5
17d
100
AcDbEntity
  8
0
 62
7
100
AcDbSpline
 70
8
 71
3
 72
8
 73
4
 74
0
 40
0
 40
0
 40
0
 40
0
 40
1
 40
1
 40
1
 40
1
 10
312.500000
 20
73.990157
 30
0.0
 10
311.533500
 20
73.990157
 30
0.0
 10
310.750000
 20
74.774157
 30
0.0
 10
310.750000
 20
75.740157
 30
0.0
  0
SPLINE
  5
17e
100
AcDbEntity
  8
0
 62
7
100
AcDbSpline
 70
8
 71
3
 72
8
 73
4
 74
0
 40
0
 40
0
 40
0
 40
0
 40
1
 40
1
 40
1
 40
1
 10
310.750000
 20
75.740157
 30
0.0
 10
310.750000
 20
76.706157
 30
0.0
 10
311.533500
 20
77.490157
 30
0.0
 10
312.500000
 20
77.490157
 30
0.0
  0
SPLINE
  5
17f
100
AcDbEntity
  8
0
 62
7
100
AcDbSpline
 70
8
 71
3
 72
8
 73
4
 74
0
 40
0
 40
0
 40
0
 40
0
 40
1
 40
1
 40
1
 40
1
 10
312.500000
 20
77.490157
 30
0.0
 10
313.466500
 20
77.490157
 30
0.0
 10
314.250000
 20
76.706157
 30
0.0
 10
314.250000
 20
75.740157
 30
0.0
  0
SPLINE
  5
180
100
AcDbEntity
  8
0
 62
7
100
AcDbSpline
 70
8
 71
3
 72
8
 73
4
 74
0
 40
0
 40
0
 40
0
 40
0
 40
1
 40
1
 40
1
 40
1
 10
283.250000
 20
106.740157
 30
0.0
 10
283.250000
 20
105.774157
 30
0.0
 10
282.466500
 20
104.990157
 30
0.0
 10
281.500000
 20
104.990157
 30
0.0
  0
SPLINE
  5
181
100
AcDbEntity
  8
0
 62
7
100
AcDbSpline
 70
8
 71
3
 72
8
 73
4
 74
0
 40
0
 40
0
 40
0
 40
0
 40
1
 40
1
 40
1
 40
1
 10
281.500000
 20
104.990157
 30
0.0
 10
280.533500
 20
104.990157
 30
0.0
 10
279.750000
 20
105.774157
 30
0.0
 10
279.750000
 20
106.740157
 30
0.0
  0
SPLINE
  5
182
100
AcDbEntity
  8
0
 62
7
100
AcDbSpline
 70
8
 71
3
 72
8
 73
4
 74
0
 40
0
 40
0
 40
0
 40
0
 40
1
 40
1
 40
1
 40
1
 10
279.750000
 20
106.740157
 30
0.0
 10
279.750000
 20
107.706157
 30
0.0
 10
280.533500
 20
108.490157
 30
0.0
 10
281.500000
 20
108.490157
 30
0.0
  0
SPLINE
  5
183
100
AcDbEntity
  8
0
 62
7
100
AcDbSpline
 70
8
 71
3
 72
8
 73
4
 74
0
 40
0
 40
0
 40
0
 40
0
 40
1
 40
1
 40
1
 40
1
 10
281.500000
 20
108.490157
 30
0.0
 10
282.466500
 20
108.490157
 30
0.0
 10
283.250000
 20
107.706157
 30
0.0
 10
283.250000
 20
106.740157
 30
0.0
  0
SPLINE
  5
184
100
AcDbEntity
  8
0
 62
7
100
AcDbSpline
 70
8
 71
3
 72
8
 73
4
 74
0
 40
0
 40
0
 40
0
 40
0
 40
1
 40
1
 40
1
 40
1
 10
283.250000
 20
75.740157
 30
0.0
 10
283.250000
 20
74.774157
 30
0.0
 10
282.466500
 20
73.990157
 30
0.0
 10
281.500000
 20
73.990157
 30
0.0
  0
SPLINE
  5
185
100
AcDbEntity
  8
0
 62
7
100
AcDbSpline
 70
8
 71
3
 72
8
 73
4
 74
0
 40
0
 40
0
 40
0
 40
0
 40
1
 40
1
 40
1
 40
1
 10
281.500000
 20
73.990157
 30
0.0
 10
280.533500
 20
73.990157
 30
0.0
 10
279.750000
 20
74.774157
 30
0.0
 10
279.750000
 20
75.740157
 30
0.0
  0
SPLINE
  5
186
100
AcDbEntity
  8
0
 62
7
100
AcDbSpline
 70
8
 71
3
 72
8
 73
4
 74
0
 40
0
 40
0
 40
0
 40
0
 40
1
 40
1
 40
1
 40
1
 10
279.750000
 20
75.740157
 30
0.0
 10
279.750000
 20
76.706157
 30
0.0
 10
280.533500
 20
77.490157
 30
0.0
 10
281.500000
 20
77.490157
 30
0.0
  0
SPLINE
  5
187
100
AcDbEntity
  8
0
 62
7
100
AcDbSpline
 70
8
 71
3
 72
8
 73
4
 74
0
 40
0
 40
0
 40
0
 40
0
 40
1
 40
1
 40
1
 40
1
 10
281.500000
 20
77.490157
 30
0.0
 10
282.466500
 20
77.490157
 30
0.0
 10
283.250000
 20
76.706157
 30
0.0
 10
283.250000
 20
75.740157
 30
0.0
  0
LWPOLYLINE
  5
188
100
AcDbEntity
  8
0
 62
7
100
AcDbPolyline
 90
2
 70
0
 10
468.000000
 20
107.240157
 30
0.0
 10
491.000000
 20
107.240157
 30
0.0
  0
SPLINE
  5
189
100
AcDbEntity
  8
0
 62
7
100
AcDbSpline
 70
8
 71
3
 72
8
 73
4
 74
0
 40
0
 40
0
 40
0
 40
0
 40
1
 40
1
 40
1
 40
1
 10
466.000000
 20
109.240157
 30
0.0
 10
466.000000
 20
108.135157
 30
0.0
 10
466.895000
 20
107.240157
 30
0.0
 10
468.000000
 20
107.240157
 30
0.0
  0
LWPOLYLINE
  5
18a
100
AcDbEntity
  8
0
 62
7
100
AcDbPolyline
 90
2
 70
0
 10
466.000000
 20
109.240157
 30
0.0
 10
466.000000
 20
133.240157
 30
0.0
  0
LWPOLYLINE
  5
18b
100
AcDbEntity
  8
0
 62
7
100
AcDbPolyline
 90
2
 70
0
 10
361.000000
 20
133.240157
 30
0.0
 10
466.000000
 20
133.240157
 30
0.0
  0
LWPOLYLINE
  5
18c
100
AcDbEntity
  8
0
 62
7
100
AcDbPolyline
 90
2
 70
0
 10
491.000000
 20
107.240157
 30
0.0
 10
468.000000
 20
107.240157
 30
0.0
  0
LWPOLYLINE
  5
18d
100
AcDbEntity
  8
0
 62
7
100
AcDbPolyline
 90
2
 70
0
 10
361.000000
 20
133.240157
 30
0.0
 10
361.000000
 20
108.240157
 30
0.0
  0
LWPOLYLINE
  5
18e
100
AcDbEntity
  8
0
 62
7
100
AcDbPolyline
 90
2
 70
0
 10
491.000000
 20
107.240157
 30
0.0
 10
491.000000
 20
-210.759843
 30
0.0
  0
LWPOLYLINE
  5
18f
100
AcDbEntity
  8
0
 62
7
100
AcDbPolyline
 90
2
 70
0
 10
369.000000
 20
108.240157
 30
0.0
 10
361.000000
 20
108.240157
 30
0.0
  0
SPLINE
  5
190
100
AcDbEntity
  8
0
 62
7
100
AcDbSpline
 70
8
 71
3
 72
8
 73
4
 74
0
 40
0
 40
0
 40
0
 40
0
 40
1
 40
1
 40
1
 40
1
 10
369.000000
 20
108.240157
 30
0.0
 10
370.656900
 20
108.240157
 30
0.0
 10
372.000000
 20
106.897157
 30
0.0
 10
372.000000
 20
105.240157
 30
0.0
  0
SPLINE
  5
191
100
AcDbEntity
  8
0
 62
7
100
AcDbSpline
 70
8
 71
3
 72
8
 73
4
 74
0
 40
0
 40
0
 40
0
 40
0
 40
1
 40
1
 40
1
 40
1
 10
468.000000
 20
-210.759843
 30
0.0
 10
466.895000
 20
-210.759843
 30
0.0
 10
466.000000
 20
-211.654843
 30
0.0
 10
466.000000
 20
-212.759843
 30
0.0
  0
LWPOLYLINE
  5
192
100
AcDbEntity
  8
0
 62
7
100
AcDbPolyline
 90
2
 70
0
 10
468.000000
 20
-210.759843
 30
0.0
 10
491.000000
 20
-210.759843
 30
0.0
  0
LWPOLYLINE
  5
193
100
AcDbEntity
  8
0
 62
7
100
AcDbPolyline
 90
2
 70
0
 10
372.000000
 20
77.240157
 30
0.0
 10
372.000000
 20
105.240157
 30
0.0
  0
SPLINE
  5
194
100
AcDbEntity
  8
0
 62
7
100
AcDbSpline
 70
8
 71
3
 72
8
 73
4
 74
0
 40
0
 40
0
 40
0
 40
0
 40
1
 40
1
 40
1
 40
1
 10
372.000000
 20
77.240157
 30
0.0
 10
372.000000
 20
75.583157
 30
0.0
 10
370.656900
 20
74.240157
 30
0.0
 10
369.000000
 20
74.240157
 30
0.0
  0
LWPOLYLINE
  5
195
100
AcDbEntity
  8
0
 62
7
100
AcDbPolyline
 90
2
 70
0
 10
466.000000
 20
-235.759843
 30
0.0
 10
466.000000
 20
-212.759843
 30
0.0
  0
LWPOLYLINE
  5
196
100
AcDbEntity
  8
0
 62
7
100
AcDbPolyline
 90
2
 70
0
 10
466.000000
 20
-235.759843
 30
0.0
 10
128.000000
 20
-235.759843
 30
0.0
  0
LWPOLYLINE
  5
197
100
AcDbEntity
  8
0
 62
7
100
AcDbPolyline
 90
2
 70
0
 10
345.000000
 20
74.240157
 30
0.0
 10
369.000000
 20
74.240157
 30
0.0
  0
SPLINE
  5
198
100
AcDbEntity
  8
0
 62
7
100
AcDbSpline
 70
8
 71
3
 72
8
 73
4
 74
0
 40
0
 40
0
 40
0
 40
0
 40
1
 40
1
 40
1
 40
1
 10
345.000000
 20
74.240157
 30
0.0
 10
343.343100
 20
74.240157
 30
0.0
 10
342.000000
 20
75.583157
 30
0.0
 10
342.000000
 20
77.240157
 30
0.0
  0
SPLINE
  5
199
100
AcDbEntity
  8
0
 62
7
100
AcDbSpline
 70
8
 71
3
 72
8
 73
4
 74
0
 40
0
 40
0
 40
0
 40
0
 40
1
 40
1
 40
1
 40
1
 10
128.000000
 20
-212.759843
 30
0.0
 10
128.000000
 20
-211.654843
 30
0.0
 10
127.105000
 20
-210.759843
 30
0.0
 10
126.000000
 20
-210.759843
 30
0.0
  0
LWPOLYLINE
  5
19a
100
AcDbEntity
  8
0
 62
7
100
AcDbPolyline
 90
2
 70
0
 10
128.000000
 20
-235.759843
 30
0.0
 10
128.000000
 20
-212.759843
 30
0.0
  0
LWPOLYLINE
  5
19b
100
AcDbEntity
  8
0
 62
7
100
AcDbPolyline
 90
2
 70
0
 10
342.000000
 20
105.240157
 30
0.0
 10
342.000000
 20
77.240157
 30
0.0
  0
SPLINE
  5
19c
100
AcDbEntity
  8
0
 62
7
100
AcDbSpline
 70
8
 71
3
 72
8
 73
4
 74
0
 40
0
 40
0
 40
0
 40
0
 40
1
 40
1
 40
1
 40
1
 10
342.000000
 20
105.240157
 30
0.0
 10
342.000000
 20
106.897157
 30
0.0
 10
343.343100
 20
108.240157
 30
0.0
 10
345.000000
 20
108.240157
 30
0.0
  0
LWPOLYLINE
  5
19d
100
AcDbEntity
  8
0
 62
7
100
AcDbPolyline
 90
3
 70
0
 10
126.000000
 20
-210.759843
 30
0.0
 10
103.000000
 20
-210.759843
 30
0.0
 10
103.000000
 20
107.240157
 30
0.0
  0
LWPOLYLINE
  5
19e
100
AcDbEntity
  8
0
 62
7
100
AcDbPolyline
 90
2
 70
0
 10
347.000000
 20
108.240157
 30
0.0
 10
345.000000
 20
108.240157
 30
0.0
  0
LWPOLYLINE
  5
19f
100
AcDbEntity
  8
0
 62
7
100
AcDbPolyline
 90
2
 70
0
 10
103.000000
 20
107.240157
 30
0.0
 10
126.000000
 20
107.240157
 30
0.0
  0
SPLINE
  5
1a0
100
AcDbEntity
  8
0
 62
7
100
AcDbSpline
 70
8
 71
3
 72
8
 73
4
 74
0
 40
0
 40
0
 40
0
 40
0
 40
1
 40
1
 40
1
 40
1
 10
126.000000
 20
107.240157
 30
0.0
 10
127.105000
 20
107.240157
 30
0.0
 10
128.000000
 20
108.135157
 30
0.0
 10
128.000000
 20
109.240157
 30
0.0
  0
LWPOLYLINE
  5
1a1
100
AcDbEntity
  8
0
 62
7
100
AcDbPolyline
 90
2
 70
0
 10
347.000000
 20
108.240157
 30
0.0
 10
347.000000
 20
133.240157
 30
0.0
  0
LWPOLYLINE
  5
1a2
100
AcDbEntity
  8
0
 62
7
100
AcDbPolyline
 90
2
 70
0
 10
247.000000
 20
133.240157
 30
0.0
 10
347.000000
 20
133.240157
 30
0.0
  0
LWPOLYLINE
  5
1a3
100
AcDbEntity
  8
0
 62
7
100
AcDbPolyline
 90
2
 70
0
 10
128.000000
 20
109.240157
 30
0.0
 10
128.000000
 20
133.240157
 30
0.0
  0
LWPOLYLINE
  5
1a4
100
AcDbEntity
  8
0
 62
7
100
AcDbPolyline
 90
2
 70
0
 10
247.000000
 20
133.240157
 30
0.0
 10
247.000000
 20
108.240157
 30
0.0
  0
LWPOLYLINE
  5
1a5
100
AcDbEntity
  8
0
 62
7
100
AcDbPolyline
 90
2
 70
0
 10
128.000000
 20
133.240157
 30
0.0
 10
233.000000
 20
133.240157
 30
0.0
  0
LWPOLYLINE
  5
1a6
100
AcDbEntity
  8
0
 62
7
100
AcDbPolyline
 90
2
 70
0
 10
247.000000
 20
108.240157
 30
0.0
 10
249.000000
 20
108.240157
 30
0.0
  0
SPLINE
  5
1a7
100
AcDbEntity
  8
0
 62
7
100
AcDbSpline
 70
8
 71
3
 72
8
 73
4
 74
0
 40
0
 40
0
 40
0
 40
0
 40
1
 40
1
 40
1
 40
1
 10
249.000000
 20
108.240157
 30
0.0
 10
250.656900
 20
108.240157
 30
0.0
 10
252.000000
 20
106.897157
 30
0.0
 10
252.000000
 20
105.240157
 30
0.0
  0
LWPOLYLINE
  5
1a8
100
AcDbEntity
  8
0
 62
7
100
AcDbPolyline
 90
2
 70
0
 10
233.000000
 20
108.240157
 30
0.0
 10
233.000000
 20
133.240157
 30
0.0
  0
LWPOLYLINE
  5
1a9
100
AcDbEntity
  8
0
 62
7
100
AcDbPolyline
 90
2
 70
0
 10
225.000000
 20
108.240157
 30
0.0
 10
233.000000
 20
108.240157
 30
0.0
  0
SPLINE
  5
1aa
100
AcDbEntity
  8
0
 62
7
100
AcDbSpline
 70
8
 71
3
 72
8
 73
4
 74
0
 40
0
 40
0
 40
0
 40
0
 40
1
 40
1
 40
1
 40
1
 10
222.000000
 20
105.240157
 30
0.0
 10
222.000000
 20
106.897157
 30
0.0
 10
223.343100
 20
108.240157
 30
0.0
 10
225.000000
 20
108.240157
 30
0.0
  0
SPLINE
  5
1ab
100
AcDbEntity
  8
0
 62
7
100
AcDbSpline
 70
8
 71
3
 72
8
 73
4
 74
0
 40
0
 40
0
 40
0
 40
0
 40
1
 40
1
 40
1
 40
1
 10
252.000000
 20
77.240157
 30
0.0
 10
252.000000
 20
75.583157
 30
0.0
 10
250.656900
 20
74.240157
 30
0.0
 10
249.000000
 20
74.240157
 30
0.0
  0
LWPOLYLINE
  5
1ac
100
AcDbEntity
  8
0
 62
7
100
AcDbPolyline
 90
2
 70
0
 10
252.000000
 20
105.240157
 30
0.0
 10
252.000000
 20
77.240157
 30
0.0
  0
LWPOLYLINE
  5
1ad
100
AcDbEntity
  8
0
 62
7
100
AcDbPolyline
 90
2
 70
0
 10
222.000000
 20
77.240157
 30
0.0
 10
222.000000
 20
105.240157
 30
0.0
  0
SPLINE
  5
1ae
100
AcDbEntity
  8
0
 62
7
100
AcDbSpline
 70
8
 71
3
 72
8
 73
4
 74
0
 40
0
 40
0
 40
0
 40
0
 40
1
 40
1
 40
1
 40
1
 10
225.000000
 20
74.240157
 30
0.0
 10
223.343100
 20
74.240157
 30
0.0
 10
222.000000
 20
75.583157
 30
0.0
 10
222.000000
 20
77.240157
 30
0.0
  0
SPLINE
  5
1af
100
AcDbEntity
  8
0
 62
7
100
AcDbSpline
 70
8
 71
3
 72
8
 73
4
 74
0
 40
0
 40
0
 40
0
 40
0
 40
1
 40
1
 40
1
 40
1
 10
283.250000
 20
75.740157
 30
0.0
 10
283.250000
 20
74.774157
 30
0.0
 10
282.466500
 20
73.990157
 30
0.0
 10
281.500000
 20
73.990157
 30
0.0
  0
SPLINE
  5
1b0
100
AcDbEntity
  8
0
 62
7
100
AcDbSpline
 70
8
 71
3
 72
8
 73
4
 74
0
 40
0
 40
0
 40
0
 40
0
 40
1
 40
1
 40
1
 40
1
 10
281.500000
 20
73.990157
 30
0.0
 10
280.533500
 20
73.990157
 30
0.0
 10
279.750000
 20
74.774157
 30
0.0
 10
279.750000
 20
75.740157
 30
0.0
  0
SPLINE
  5
1b1
100
AcDbEntity
  8
0
 62
7
100
AcDbSpline
 70
8
 71
3
 72
8
 73
4
 74
0
 40
0
 40
0
 40
0
 40
0
 40
1
 40
1
 40
1
 40
1
 10
279.750000
 20
75.740157
 30
0.0
 10
279.750000
 20
76.706157
 30
0.0
 10
280.533500
 20
77.490157
 30
0.0
 10
281.500000
 20
77.490157
 30
0.0
  0
SPLINE
  5
1b2
100
AcDbEntity
  8
0
 62
7
100
AcDbSpline
 70
8
 71
3
 72
8
 73
4
 74
0
 40
0
 40
0
 40
0
 40
0
 40
1
 40
1
 40
1
 40
1
 10
281.500000
 20
77.490157
 30
0.0
 10
282.466500
 20
77.490157
 30
0.0
 10
283.250000
 20
76.706157
 30
0.0
 10
283.250000
 20
75.740157
 30
0.0
  0
SPLINE
  5
1b3
100
AcDbEntity
  8
0
 62
7
100
AcDbSpline
 70
8
 71
3
 72
8
 73
4
 74
0
 40
0
 40
0
 40
0
 40
0
 40
1
 40
1
 40
1
 40
1
 10
314.250000
 20
75.740157
 30
0.0
 10
314.250000
 20
74.774157
 30
0.0
 10
313.466500
 20
73.990157
 30
0.0
 10
312.500000
 20
73.990157
 30
0.0
  0
SPLINE
  5
1b4
100
AcDbEntity
  8
0
 62
7
100
AcDbSpline
 70
8
 71
3
 72
8
 73
4
 74
0
 40
0
 40
0
 40
0
 40
0
 40
1
 40
1
 40
1
 40
1
 10
312.500000
 20
73.990157
 30
0.0
 10
311.533500
 20
73.990157
 30
0.0
 10
310.750000
 20
74.774157
 30
0.0
 10
310.750000
 20
75.740157
 30
0.0
  0
SPLINE
  5
1b5
100
AcDbEntity
  8
0
 62
7
100
AcDbSpline
 70
8
 71
3
 72
8
 73
4
 74
0
 40
0
 40
0
 40
0
 40
0
 40
1
 40
1
 40
1
 40
1
 10
310.750000
 20
75.740157
 30
0.0
 10
310.750000
 20
76.706157
 30
0.0
 10
311.533500
 20
77.490157
 30
0.0
 10
312.500000
 20
77.490157
 30
0.0
  0
SPLINE
  5
1b6
100
AcDbEntity
  8
0
 62
7
100
AcDbSpline
 70
8
 71
3
 72
8
 73
4
 74
0
 40
0
 40
0
 40
0
 40
0
 40
1
 40
1
 40
1
 40
1
 10
312.500000
 20
77.490157
 30
0.0
 10
313.466500
 20
77.490157
 30
0.0
 10
314.250000
 20
76.706157
 30
0.0
 10
314.250000
 20
75.740157
 30
0.0
  0
SPLINE
  5
1b7
100
AcDbEntity
  8
0
 62
7
100
AcDbSpline
 70
8
 71
3
 72
8
 73
4
 74
0
 40
0
 40
0
 40
0
 40
0
 40
1
 40
1
 40
1
 40
1
 10
369.250000
 20
-0.759843
 30
0.0
 10
369.250000
 20
-2.002443
 30
0.0
 10
368.242600
 20
-3.009843
 30
0.0
 10
367.000000
 20
-3.009843
 30
0.0
  0
SPLINE
  5
1b8
100
AcDbEntity
  8
0
 62
7
100
AcDbSpline
 70
8
 71
3
 72
8
 73
4
 74
0
 40
0
 40
0
 40
0
 40
0
 40
1
 40
1
 40
1
 40
1
 10
367.000000
 20
-3.009843
 30
0.0
 10
365.757400
 20
-3.009843
 30
0.0
 10
364.750000
 20
-2.002443
 30
0.0
 10
364.750000
 20
-0.759843
 30
0.0
  0
SPLINE
  5
1b9
100
AcDbEntity
  8
0
 62
7
100
AcDbSpline
 70
8
 71
3
 72
8
 73
4
 74
0
 40
0
 40
0
 40
0
 40
0
 40
1
 40
1
 40
1
 40
1
 10
364.750000
 20
-0.759843
 30
0.0
 10
364.750000
 20
0.482757
 30
0.0
 10
365.757400
 20
1.490157
 30
0.0
 10
367.000000
 20
1.490157
 30
0.0
  0
SPLINE
  5
1ba
100
AcDbEntity
  8
0
 62
7
100
AcDbSpline
 70
8
 71
3
 72
8
 73
4
 74
0
 40
0
 40
0
 40
0
 40
0
 40
1
 40
1
 40
1
 40
1
 10
367.000000
 20
1.490157
 30
0.0
 10
368.242600
 20
1.490157
 30
0.0
 10
369.250000
 20
0.482757
 30
0.0
 10
369.250000
 20
-0.759843
 30
0.0
  0
SPLINE
  5
1bb
100
AcDbEntity
  8
0
 62
7
100
AcDbSpline
 70
8
 71
3
 72
8
 73
4
 74
0
 40
0
 40
0
 40
0
 40
0
 40
1
 40
1
 40
1
 40
1
 10
424.250000
 20
-226.759843
 30
0.0
 10
424.250000
 20
-228.002843
 30
0.0
 10
423.243000
 20
-229.009843
 30
0.0
 10
422.000000
 20
-229.009843
 30
0.0
  0
SPLINE
  5
1bc
100
AcDbEntity
  8
0
 62
7
100
AcDbSpline
 70
8
 71
3
 72
8
 73
4
 74
0
 40
0
 40
0
 40
0
 40
0
 40
1
 40
1
 40
1
 40
1
 10
422.000000
 20
-229.009843
 30
0.0
 10
420.757000
 20
-229.009843
 30
0.0
 10
419.750000
 20
-228.002843
 30
0.0
 10
419.750000
 20
-226.759843
 30
0.0
  0
SPLINE
  5
1bd
100
AcDbEntity
  8
0
 62
7
100
AcDbSpline
 70
8
 71
3
 72
8
 73
4
 74
0
 40
0
 40
0
 40
0
 40
0
 40
1
 40
1
 40
1
 40
1
 10
419.750000
 20
-226.759843
 30
0.0
 10
419.750000
 20
-225.516843
 30
0.0
 10
420.757000
 20
-224.509843
 30
0.0
 10
422.000000
 20
-224.509843
 30
0.0
  0
SPLINE
  5
1be
100
AcDbEntity
  8
0
 62
7
100
AcDbSpline
 70
8
 71
3
 72
8
 73
4
 74
0
 40
0
 40
0
 40
0
 40
0
 40
1
 40
1
 40
1
 40
1
 10
422.000000
 20
-224.509843
 30
0.0
 10
423.243000
 20
-224.509843
 30
0.0
 10
424.250000
 20
-225.516843
 30
0.0
 10
424.250000
 20
-226.759843
 30
0.0
  0
SPLINE
  5
1bf
100
AcDbEntity
  8
0
 62
7
100
AcDbSpline
 70
8
 71
3
 72
8
 73
4
 74
0
 40
0
 40
0
 40
0
 40
0
 40
1
 40
1
 40
1
 40
1
 10
369.250000
 20
-126.759843
 30
0.0
 10
369.250000
 20
-128.002443
 30
0.0
 10
368.242600
 20
-129.009843
 30
0.0
 10
367.000000
 20
-129.009843
 30
0.0
  0
SPLINE
  5
1c0
100
AcDbEntity
  8
0
 62
7
100
AcDbSpline
 70
8
 71
3
 72
8
 73
4
 74
0
 40
0
 40
0
 40
0
 40
0
 40
1
 40
1
 40
1
 40
1
 10
367.000000
 20
-129.009843
 30
0.0
 10
365.757400
 20
-129.009843
 30
0.0
 10
364.750000
 20
-128.002443
 30
0.0
 10
364.750000
 20
-126.759843
 30
0.0
  0
SPLINE
  5
1c1
100
AcDbEntity
  8
0
 62
7
100
AcDbSpline
 70
8
 71
3
 72
8
 73
4
 74
0
 40
0
 40
0
 40
0
 40
0
 40
1
 40
1
 40
1
 40
1
 10
364.750000
 20
-126.759843
 30
0.0
 10
364.750000
 20
-125.517243
 30
0.0
 10
365.757400
 20
-124.509843
 30
0.0
 10
367.000000
 20
-124.509843
 30
0.0
  0
SPLINE
  5
1c2
100
AcDbEntity
  8
0
 62
7
100
AcDbSpline
 70
8
 71
3
 72
8
 73
4
 74
0
 40
0
 40
0
 40
0
 40
0
 40
1
 40
1
 40
1
 40
1
 10
367.000000
 20
-124.509843
 30
0.0
 10
368.242600
 20
-124.509843
 30
0.0
 10
369.250000
 20
-125.517243
 30
0.0
 10
369.250000
 20
-126.759843
 30
0.0
  0
SPLINE
  5
1c3
100
AcDbEntity
  8
0
 62
7
100
AcDbSpline
 70
8
 71
3
 72
8
 73
4
 74
0
 40
0
 40
0
 40
0
 40
0
 40
1
 40
1
 40
1
 40
1
 10
229.250000
 20
-126.759843
 30
0.0
 10
229.250000
 20
-128.002443
 30
0.0
 10
228.242600
 20
-129.009843
 30
0.0
 10
227.000000
 20
-129.009843
 30
0.0
  0
SPLINE
  5
1c4
100
AcDbEntity
  8
0
 62
7
100
AcDbSpline
 70
8
 71
3
 72
8
 73
4
 74
0
 40
0
 40
0
 40
0
 40
0
 40
1
 40
1
 40
1
 40
1
 10
227.000000
 20
-129.009843
 30
0.0
 10
225.757400
 20
-129.009843
 30
0.0
 10
224.750000
 20
-128.002443
 30
0.0
 10
224.750000
 20
-126.759843
 30
0.0
  0
SPLINE
  5
1c5
100
AcDbEntity
  8
0
 62
7
100
AcDbSpline
 70
8
 71
3
 72
8
 73
4
 74
0
 40
0
 40
0
 40
0
 40
0
 40
1
 40
1
 40
1
 40
1
 10
224.750000
 20
-126.759843
 30
0.0
 10
224.750000
 20
-125.517243
 30
0.0
 10
225.757400
 20
-124.509843
 30
0.0
 10
227.000000
 20
-124.509843
 30
0.0
  0
SPLINE
  5
1c6
100
AcDbEntity
  8
0
 62
7
100
AcDbSpline
 70
8
 71
3
 72
8
 73
4
 74
0
 40
0
 40
0
 40
0
 40
0
 40
1
 40
1
 40
1
 40
1
 10
227.000000
 20
-124.509843
 30
0.0
 10
228.242600
 20
-124.509843
 30
0.0
 10
229.250000
 20
-125.517243
 30
0.0
 10
229.250000
 20
-126.759843
 30
0.0
  0
SPLINE
  5
1c7
100
AcDbEntity
  8
0
 62
7
100
AcDbSpline
 70
8
 71
3
 72
8
 73
4
 74
0
 40
0
 40
0
 40
0
 40
0
 40
1
 40
1
 40
1
 40
1
 10
229.250000
 20
-0.759843
 30
0.0
 10
229.250000
 20
-2.002443
 30
0.0
 10
228.242600
 20
-3.009843
 30
0.0
 10
227.000000
 20
-3.009843
 30
0.0
  0
SPLINE
  5
1c8
100
AcDbEntity
  8
0
 62
7
100
AcDbSpline
 70
8
 71
3
 72
8
 73
4
 74
0
 40
0
 40
0
 40
0
 40
0
 40
1
 40
1
 40
1
 40
1
 10
227.000000
 20
-3.009843
 30
0.0
 10
225.757400
 20
-3.009843
 30
0.0
 10
224.750000
 20
-2.002443
 30
0.0
 10
224.750000
 20
-0.759843
 30
0.0
  0
SPLINE
  5
1c9
100
AcDbEntity
  8
0
 62
7
100
AcDbSpline
 70
8
 71
3
 72
8
 73
4
 74
0
 40
0
 40
0
 40
0
 40
0
 40
1
 40
1
 40
1
 40
1
 10
224.750000
 20
-0.759843
 30
0.0
 10
224.750000
 20
0.482757
 30
0.0
 10
225.757400
 20
1.490157
 30
0.0
 10
227.000000
 20
1.490157
 30
0.0
  0
SPLINE
  5
1ca
100
AcDbEntity
  8
0
 62
7
100
AcDbSpline
 70
8
 71
3
 72
8
 73
4
 74
0
 40
0
 40
0
 40
0
 40
0
 40
1
 40
1
 40
1
 40
1
 10
227.000000
 20
1.490157
 30
0.0
 10
228.242600
 20
1.490157
 30
0.0
 10
229.250000
 20
0.482757
 30
0.0
 10
229.250000
 20
-0.759843
 30
0.0
  0
SPLINE
  5
1cb
100
AcDbEntity
  8
0
 62
7
100
AcDbSpline
 70
8
 71
3
 72
8
 73
4
 74
0
 40
0
 40
0
 40
0
 40
0
 40
1
 40
1
 40
1
 40
1
 10
144.250000
 20
-126.759843
 30
0.0
 10
144.250000
 20
-128.002443
 30
0.0
 10
143.243000
 20
-129.009843
 30
0.0
 10
142.000000
 20
-129.009843
 30
0.0
  0
SPLINE
  5
1cc
100
AcDbEntity
  8
0
 62
7
100
AcDbSpline
 70
8
 71
3
 72
8
 73
4
 74
0
 40
0
 40
0
 40
0
 40
0
 40
1
 40
1
 40
1
 40
1
 10
142.000000
 20
-129.009843
 30
0.0
 10
140.757000
 20
-129.009843
 30
0.0
 10
139.750000
 20
-128.002443
 30
0.0
 10
139.750000
 20
-126.759843
 30
0.0
  0
SPLINE
  5
1cd
100
AcDbEntity
  8
0
 62
7
100
AcDbSpline
 70
8
 71
3
 72
8
 73
4
 74
0
 40
0
 40
0
 40
0
 40
0
 40
1
 40
1
 40
1
 40
1
 10
139.750000
 20
-126.759843
 30
0.0
 10
139.750000
 20
-125.517243
 30
0.0
 10
140.757000
 20
-124.509843
 30
0.0
 10
142.000000
 20
-124.509843
 30
0.0
  0
SPLINE
  5
1ce
100
AcDbEntity
  8
0
 62
7
100
AcDbSpline
 70
8
 71
3
 72
8
 73
4
 74
0
 40
0
 40
0
 40
0
 40
0
 40
1
 40
1
 40
1
 40
1
 10
142.000000
 20
-124.509843
 30
0.0
 10
143.243000
 20
-124.509843
 30
0.0
 10
144.250000
 20
-125.517243
 30
0.0
 10
144.250000
 20
-126.759843
 30
0.0
  0
SPLINE
  5
1cf
100
AcDbEntity
  8
0
 62
7
100
AcDbSpline
 70
8
 71
3
 72
8
 73
4
 74
0
 40
0
 40
0
 40
0
 40
0
 40
1
 40
1
 40
1
 40
1
 10
144.250000
 20
-0.759843
 30
0.0
 10
144.250000
 20
-2.002443
 30
0.0
 10
143.243000
 20
-3.009843
 30
0.0
 10
142.000000
 20
-3.009843
 30
0.0
  0
SPLINE
  5
1d0
100
AcDbEntity
  8
0
 62
7
100
AcDbSpline
 70
8
 71
3
 72
8
 73
4
 74
0
 40
0
 40
0
 40
0
 40
0
 40
1
 40
1
 40
1
 40
1
 10
142.000000
 20
-3.009843
 30
0.0
 10
140.757000
 20
-3.009843
 30
0.0
 10
139.750000
 20
-2.002443
 30
0.0
 10
139.750000
 20
-0.759843
 30
0.0
  0
SPLINE
  5
1d1
100
AcDbEntity
  8
0
 62
7
100
AcDbSpline
 70
8
 71
3
 72
8
 73
4
 74
0
 40
0
 40
0
 40
0
 40
0
 40
1
 40
1
 40
1
 40
1
 10
139.750000
 20
-0.759843
 30
0.0
 10
139.750000
 20
0.482757
 30
0.0
 10
140.757000
 20
1.490157
 30
0.0
 10
142.000000
 20
1.490157
 30
0.0
  0
SPLINE
  5
1d2
100
AcDbEntity
  8
0
 62
7
100
AcDbSpline
 70
8
 71
3
 72
8
 73
4
 74
0
 40
0
 40
0
 40
0
 40
0
 40
1
 40
1
 40
1
 40
1
 10
142.000000
 20
1.490157
 30
0.0
 10
143.243000
 20
1.490157
 30
0.0
 10
144.250000
 20
0.482757
 30
0.0
 10
144.250000
 20
-0.759843
 30
0.0
  0
SPLINE
  5
1d3
100
AcDbEntity
  8
0
 62
7
100
AcDbSpline
 70
8
 71
3
 72
8
 73
4
 74
0
 40
0
 40
0
 40
0
 40
0
 40
1
 40
1
 40
1
 40
1
 10
142.500000
 20
-201.759843
 30
0.0
 10
142.500000
 20
-204.797843
 30
0.0
 10
140.038000
 20
-207.259843
 30
0.0
 10
137.000000
 20
-207.259843
 30
0.0
  0
SPLINE
  5
1d4
100
AcDbEntity
  8
0
 62
7
100
AcDbSpline
 70
8
 71
3
 72
8
 73
4
 74
0
 40
0
 40
0
 40
0
 40
0
 40
1
 40
1
 40
1
 40
1
 10
137.000000
 20
-207.259843
 30
0.0
 10
133.962000
 20
-207.259843
 30
0.0
 10
131.500000
 20
-204.797843
 30
0.0
 10
131.500000
 20
-201.759843
 30
0.0
  0
SPLINE
  5
1d5
100
AcDbEntity
  8
0
 62
7
100
AcDbSpline
 70
8
 71
3
 72
8
 73
4
 74
0
 40
0
 40
0
 40
0
 40
0
 40
1
 40
1
 40
1
 40
1
 10
131.500000
 20
-201.759843
 30
0.0
 10
131.500000
 20
-198.721843
 30
0.0
 10
133.962000
 20
-196.259843
 30
0.0
 10
137.000000
 20
-196.259843
 30
0.0
  0
SPLINE
  5
1d6
100
AcDbEntity
  8
0
 62
7
100
AcDbSpline
 70
8
 71
3
 72
8
 73
4
 74
0
 40
0
 40
0
 40
0
 40
0
 40
1
 40
1
 40
1
 40
1
 10
137.000000
 20
-196.259843
 30
0.0
 10
140.038000
 20
-196.259843
 30
0.0
 10
142.500000
 20
-198.721843
 30
0.0
 10
142.500000
 20
-201.759843
 30
0.0
  0
SPLINE
  5
1d7
100
AcDbEntity
  8
0
 62
7
100
AcDbSpline
 70
8
 71
3
 72
8
 73
4
 74
0
 40
0
 40
0
 40
0
 40
0
 40
1
 40
1
 40
1
 40
1
 10
174.250000
 20
-226.759843
 30
0.0
 10
174.250000
 20
-228.002843
 30
0.0
 10
173.243000
 20
-229.009843
 30
0.0
 10
172.000000
 20
-229.009843
 30
0.0
  0
SPLINE
  5
1d8
100
AcDbEntity
  8
0
 62
7
100
AcDbSpline
 70
8
 71
3
 72
8
 73
4
 74
0
 40
0
 40
0
 40
0
 40
0
 40
1
 40
1
 40
1
 40
1
 10
172.000000
 20
-229.009843
 30
0.0
 10
170.757000
 20
-229.009843
 30
0.0
 10
169.750000
 20
-228.002843
 30
0.0
 10
169.750000
 20
-226.759843
 30
0.0
  0
SPLINE
  5
1d9
100
AcDbEntity
  8
0
 62
7
100
AcDbSpline
 70
8
 71
3
 72
8
 73
4
 74
0
 40
0
 40
0
 40
0
 40
0
 40
1
 40
1
 40
1
 40
1
 10
169.750000
 20
-226.759843
 30
0.0
 10
169.750000
 20
-225.516843
 30
0.0
 10
170.757000
 20
-224.509843
 30
0.0
 10
172.000000
 20
-224.509843
 30
0.0
  0
SPLINE
  5
1da
100
AcDbEntity
  8
0
 62
7
100
AcDbSpline
 70
8
 71
3
 72
8
 73
4
 74
0
 40
0
 40
0
 40
0
 40
0
 40
1
 40
1
 40
1
 40
1
 10
172.000000
 20
-224.509843
 30
0.0
 10
173.243000
 20
-224.509843
 30
0.0
 10
174.250000
 20
-225.516843
 30
0.0
 10
174.250000
 20
-226.759843
 30
0.0
  0
SPLINE
  5
1db
100
AcDbEntity
  8
0
 62
7
100
AcDbSpline
 70
8
 71
3
 72
8
 73
4
 74
0
 40
0
 40
0
 40
0
 40
0
 40
1
 40
1
 40
1
 40
1
 10
454.250000
 20
-0.759843
 30
0.0
 10
454.250000
 20
-2.002443
 30
0.0
 10
453.243000
 20
-3.009843
 30
0.0
 10
452.000000
 20
-3.009843
 30
0.0
  0
SPLINE
  5
1dc
100
AcDbEntity
  8
0
 62
7
100
AcDbSpline
 70
8
 71
3
 72
8
 73
4
 74
0
 40
0
 40
0
 40
0
 40
0
 40
1
 40
1
 40
1
 40
1
 10
452.000000
 20
-3.009843
 30
0.0
 10
450.757000
 20
-3.009843
 30
0.0
 10
449.750000
 20
-2.002443
 30
0.0
 10
449.750000
 20
-0.759843
 30
0.0
  0
SPLINE
  5
1dd
100
AcDbEntity
  8
0
 62
7
100
AcDbSpline
 70
8
 71
3
 72
8
 73
4
 74
0
 40
0
 40
0
 40
0
 40
0
 40
1
 40
1
 40
1
 40
1
 10
449.750000
 20
-0.759843
 30
0.0
 10
449.750000
 20
0.482757
 30
0.0
 10
450.757000
 20
1.490157
 30
0.0
 10
452.000000
 20
1.490157
 30
0.0
  0
SPLINE
  5
1de
100
AcDbEntity
  8
0
 62
7
100
AcDbSpline
 70
8
 71
3
 72
8
 73
4
 74
0
 40
0
 40
0
 40
0
 40
0
 40
1
 40
1
 40
1
 40
1
 10
452.000000
 20
1.490157
 30
0.0
 10
453.243000
 20
1.490157
 30
0.0
 10
454.250000
 20
0.482757
 30
0.0
 10
454.250000
 20
-0.759843
 30
0.0
  0
SPLINE
  5
1df
100
AcDbEntity
  8
0
 62
7
100
AcDbSpline
 70
8
 71
3
 72
8
 73
4
 74
0
 40
0
 40
0
 40
0
 40
0
 40
1
 40
1
 40
1
 40
1
 10
454.250000
 20
-126.759843
 30
0.0
 10
454.250000
 20
-128.002443
 30
0.0
 10
453.243000
 20
-129.009843
 30
0.0
 10
452.000000
 20
-129.009843
 30
0.0
  0
SPLINE
  5
1e0
100
AcDbEntity
  8
0
 62
7
100
AcDbSpline
 70
8
 71
3
 72
8
 73
4
 74
0
 40
0
 40
0
 40
0
 40
0
 40
1
 40
1
 40
1
 40
1
 10
452.000000
 20
-129.009843
 30
0.0
 10
450.757000
 20
-129.009843
 30
0.0
 10
449.750000
 20
-128.002443
 30
0.0
 10
449.750000
 20
-126.759843
 30
0.0
  0
SPLINE
  5
1e1
100
AcDbEntity
  8
0
 62
7
100
AcDbSpline
 70
8
 71
3
 72
8
 73
4
 74
0
 40
0
 40
0
 40
0
 40
0
 40
1
 40
1
 40
1
 40
1
 10
449.750000
 20
-126.759843
 30
0.0
 10
449.750000
 20
-125.517243
 30
0.0
 10
450.757000
 20
-124.509843
 30
0.0
 10
452.000000
 20
-124.509843
 30
0.0
  0
SPLINE
  5
1e2
100
AcDbEntity
  8
0
 62
7
100
AcDbSpline
 70
8
 71
3
 72
8
 73
4
 74
0
 40
0
 40
0
 40
0
 40
0
 40
1
 40
1
 40
1
 40
1
 10
452.000000
 20
-124.509843
 30
0.0
 10
453.243000
 20
-124.509843
 30
0.0
 10
454.250000
 20
-125.517243
 30
0.0
 10
454.250000
 20
-126.759843
 30
0.0
  0
SPLINE
  5
1e3
100
AcDbEntity
  8
0
 62
7
100
AcDbSpline
 70
8
 71
3
 72
8
 73
4
 74
0
 40
0
 40
0
 40
0
 40
0
 40
1
 40
1
 40
1
 40
1
 10
462.500000
 20
-201.759843
 30
0.0
 10
462.500000
 20
-204.797843
 30
0.0
 10
460.038000
 20
-207.259843
 30
0.0
 10
457.000000
 20
-207.259843
 30
0.0
  0
SPLINE
  5
1e4
100
AcDbEntity
  8
0
 62
7
100
AcDbSpline
 70
8
 71
3
 72
8
 73
4
 74
0
 40
0
 40
0
 40
0
 40
0
 40
1
 40
1
 40
1
 40
1
 10
457.000000
 20
-207.259843
 30
0.0
 10
453.962000
 20
-207.259843
 30
0.0
 10
451.500000
 20
-204.797843
 30
0.0
 10
451.500000
 20
-201.759843
 30
0.0
  0
SPLINE
  5
1e5
100
AcDbEntity
  8
0
 62
7
100
AcDbSpline
 70
8
 71
3
 72
8
 73
4
 74
0
 40
0
 40
0
 40
0
 40
0
 40
1
 40
1
 40
1
 40
1
 10
451.500000
 20
-201.759843
 30
0.0
 10
451.500000
 20
-198.721843
 30
0.0
 10
453.962000
 20
-196.259843
 30
0.0
 10
457.000000
 20
-196.259843
 30
0.0
  0
SPLINE
  5
1e6
100
AcDbEntity
  8
0
 62
7
100
AcDbSpline
 70
8
 71
3
 72
8
 73
4
 74
0
 40
0
 40
0
 40
0
 40
0
 40
1
 40
1
 40
1
 40
1
 10
457.000000
 20
-196.259843
 30
0.0
 10
460.038000
 20
-196.259843
 30
0.0
 10
462.500000
 20
-198.721843
 30
0.0
 10
462.500000
 20
-201.759843
 30
0.0
  0
SPLINE
  5
1e7
100
AcDbEntity
  8
0
 62
7
100
AcDbSpline
 70
8
 71
3
 72
8
 73
4
 74
0
 40
0
 40
0
 40
0
 40
0
 40
1
 40
1
 40
1
 40
1
 10
114.250000
 20
63.240157
 30
0.0
 10
114.250000
 20
61.997157
 30
0.0
 10
113.243000
 20
60.990157
 30
0.0
 10
112.000000
 20
60.990157
 30
0.0
  0
SPLINE
  5
1e8
100
AcDbEntity
  8
0
 62
7
100
AcDbSpline
 70
8
 71
3
 72
8
 73
4
 74
0
 40
0
 40
0
 40
0
 40
0
 40
1
 40
1
 40
1
 40
1
 10
112.000000
 20
60.990157
 30
0.0
 10
110.757000
 20
60.990157
 30
0.0
 10
109.750000
 20
61.997157
 30
0.0
 10
109.750000
 20
63.240157
 30
0.0
  0
SPLINE
  5
1e9
100
AcDbEntity
  8
0
 62
7
100
AcDbSpline
 70
8
 71
3
 72
8
 73
4
 74
0
 40
0
 40
0
 40
0
 40
0
 40
1
 40
1
 40
1
 40
1
 10
109.750000
 20
63.240157
 30
0.0
 10
109.750000
 20
64.483157
 30
0.0
 10
110.757000
 20
65.490157
 30
0.0
 10
112.000000
 20
65.490157
 30
0.0
  0
SPLINE
  5
1ea
100
AcDbEntity
  8
0
 62
7
100
AcDbSpline
 70
8
 71
3
 72
8
 73
4
 74
0
 40
0
 40
0
 40
0
 40
0
 40
1
 40
1
 40
1
 40
1
 10
112.000000
 20
65.490157
 30
0.0
 10
113.243000
 20
65.490157
 30
0.0
 10
114.250000
 20
64.483157
 30
0.0
 10
114.250000
 20
63.240157
 30
0.0
  0
SPLINE
  5
1eb
100
AcDbEntity
  8
0
 62
7
100
AcDbSpline
 70
8
 71
3
 72
8
 73
4
 74
0
 40
0
 40
0
 40
0
 40
0
 40
1
 40
1
 40
1
 40
1
 10
114.250000
 20
-166.759843
 30
0.0
 10
114.250000
 20
-168.002843
 30
0.0
 10
113.243000
 20
-169.009843
 30
0.0
 10
112.000000
 20
-169.009843
 30
0.0
  0
SPLINE
  5
1ec
100
AcDbEntity
  8
0
 62
7
100
AcDbSpline
 70
8
 71
3
 72
8
 73
4
 74
0
 40
0
 40
0
 40
0
 40
0
 40
1
 40
1
 40
1
 40
1
 10
112.000000
 20
-169.009843
 30
0.0
 10
110.757000
 20
-169.009843
 30
0.0
 10
109.750000
 20
-168.002843
 30
0.0
 10
109.750000
 20
-166.759843
 30
0.0
  0
SPLINE
  5
1ed
100
AcDbEntity
  8
0
 62
7
100
AcDbSpline
 70
8
 71
3
 72
8
 73
4
 74
0
 40
0
 40
0
 40
0
 40
0
 40
1
 40
1
 40
1
 40
1
 10
109.750000
 20
-166.759843
 30
0.0
 10
109.750000
 20
-165.516843
 30
0.0
 10
110.757000
 20
-164.509843
 30
0.0
 10
112.000000
 20
-164.509843
 30
0.0
  0
SPLINE
  5
1ee
100
AcDbEntity
  8
0
 62
7
100
AcDbSpline
 70
8
 71
3
 72
8
 73
4
 74
0
 40
0
 40
0
 40
0
 40
0
 40
1
 40
1
 40
1
 40
1
 10
112.000000
 20
-164.509843
 30
0.0
 10
113.243000
 20
-164.509843
 30
0.0
 10
114.250000
 20
-165.516843
 30
0.0
 10
114.250000
 20
-166.759843
 30
0.0
  0
SPLINE
  5
1ef
100
AcDbEntity
  8
0
 62
7
100
AcDbSpline
 70
8
 71
3
 72
8
 73
4
 74
0
 40
0
 40
0
 40
0
 40
0
 40
1
 40
1
 40
1
 40
1
 10
424.250000
 20
123.240157
 30
0.0
 10
424.250000
 20
121.997157
 30
0.0
 10
423.243000
 20
120.990157
 30
0.0
 10
422.000000
 20
120.990157
 30
0.0
  0
SPLINE
  5
1f0
100
AcDbEntity
  8
0
 62
7
100
AcDbSpline
 70
8
 71
3
 72
8
 73
4
 74
0
 40
0
 40
0
 40
0
 40
0
 40
1
 40
1
 40
1
 40
1
 10
422.000000
 20
120.990157
 30
0.0
 10
420.757000
 20
120.990157
 30
0.0
 10
419.750000
 20
121.997157
 30
0.0
 10
419.750000
 20
123.240157
 30
0.0
  0
SPLINE
  5
1f1
100
AcDbEntity
  8
0
 62
7
100
AcDbSpline
 70
8
 71
3
 72
8
 73
4
 74
0
 40
0
 40
0
 40
0
 40
0
 40
1
 40
1
 40
1
 40
1
 10
419.750000
 20
123.240157
 30
0.0
 10
419.750000
 20
124.483157
 30
0.0
 10
420.757000
 20
125.490157
 30
0.0
 10
422.000000
 20
125.490157
 30
0.0
  0
SPLINE
  5
1f2
100
AcDbEntity
  8
0
 62
7
100
AcDbSpline
 70
8
 71
3
 72
8
 73
4
 74
0
 40
0
 40
0
 40
0
 40
0
 40
1
 40
1
 40
1
 40
1
 10
422.000000
 20
125.490157
 30
0.0
 10
423.243000
 20
125.490157
 30
0.0
 10
424.250000
 20
124.483157
 30
0.0
 10
424.250000
 20
123.240157
 30
0.0
  0
SPLINE
  5
1f3
100
AcDbEntity
  8
0
 62
7
100
AcDbSpline
 70
8
 71
3
 72
8
 73
4
 74
0
 40
0
 40
0
 40
0
 40
0
 40
1
 40
1
 40
1
 40
1
 10
283.250000
 20
106.740157
 30
0.0
 10
283.250000
 20
105.774157
 30
0.0
 10
282.466500
 20
104.990157
 30
0.0
 10
281.500000
 20
104.990157
 30
0.0
  0
SPLINE
  5
1f4
100
AcDbEntity
  8
0
 62
7
100
AcDbSpline
 70
8
 71
3
 72
8
 73
4
 74
0
 40
0
 40
0
 40
0
 40
0
 40
1
 40
1
 40
1
 40
1
 10
281.500000
 20
104.990157
 30
0.0
 10
280.533500
 20
104.990157
 30
0.0
 10
279.750000
 20
105.774157
 30
0.0
 10
279.750000
 20
106.740157
 30
0.0
  0
SPLINE
  5
1f5
100
AcDbEntity
  8
0
 62
7
100
AcDbSpline
 70
8
 71
3
 72
8
 73
4
 74
0
 40
0
 40
0
 40
0
 40
0
 40
1
 40
1
 40
1
 40
1
 10
279.750000
 20
106.740157
 30
0.0
 10
279.750000
 20
107.706157
 30
0.0
 10
280.533500
 20
108.490157
 30
0.0
 10
281.500000
 20
108.490157
 30
0.0
  0
SPLINE
  5
1f6
100
AcDbEntity
  8
0
 62
7
100
AcDbSpline
 70
8
 71
3
 72
8
 73
4
 74
0
 40
0
 40
0
 40
0
 40
0
 40
1
 40
1
 40
1
 40
1
 10
281.500000
 20
108.490157
 30
0.0
 10
282.466500
 20
108.490157
 30
0.0
 10
283.250000
 20
107.706157
 30
0.0
 10
283.250000
 20
106.740157
 30
0.0
  0
SPLINE
  5
1f7
100
AcDbEntity
  8
0
 62
7
100
AcDbSpline
 70
8
 71
3
 72
8
 73
4
 74
0
 40
0
 40
0
 40
0
 40
0
 40
1
 40
1
 40
1
 40
1
 10
314.250000
 20
106.740157
 30
0.0
 10
314.250000
 20
105.774157
 30
0.0
 10
313.466500
 20
104.990157
 30
0.0
 10
312.500000
 20
104.990157
 30
0.0
  0
SPLINE
  5
1f8
100
AcDbEntity
  8
0
 62
7
100
AcDbSpline
 70
8
 71
3
 72
8
 73
4
 74
0
 40
0
 40
0
 40
0
 40
0
 40
1
 40
1
 40
1
 40
1
 10
312.500000
 20
104.990157
 30
0.0
 10
311.533500
 20
104.990157
 30
0.0
 10
310.750000
 20
105.774157
 30
0.0
 10
310.750000
 20
106.740157
 30
0.0
  0
SPLINE
  5
1f9
100
AcDbEntity
  8
0
 62
7
100
AcDbSpline
 70
8
 71
3
 72
8
 73
4
 74
0
 40
0
 40
0
 40
0
 40
0
 40
1
 40
1
 40
1
 40
1
 10
310.750000
 20
106.740157
 30
0.0
 10
310.750000
 20
107.706157
 30
0.0
 10
311.533500
 20
108.490157
 30
0.0
 10
312.500000
 20
108.490157
 30
0.0
  0
SPLINE
  5
1fa
100
AcDbEntity
  8
0
 62
7
100
AcDbSpline
 70
8
 71
3
 72
8
 73
4
 74
0
 40
0
 40
0
 40
0
 40
0
 40
1
 40
1
 40
1
 40
1
 10
312.500000
 20
108.490157
 30
0.0
 10
313.466500
 20
108.490157
 30
0.0
 10
314.250000
 20
107.706157
 30
0.0
 10
314.250000
 20
106.740157
 30
0.0
  0
SPLINE
  5
1fb
100
AcDbEntity
  8
0
 62
7
100
AcDbSpline
 70
8
 71
3
 72
8
 73
4
 74
0
 40
0
 40
0
 40
0
 40
0
 40
1
 40
1
 40
1
 40
1
 10
299.250000
 20
123.240157
 30
0.0
 10
299.250000
 20
121.997157
 30
0.0
 10
298.242640
 20
120.990157
 30
0.0
 10
297.000000
 20
120.990157
 30
0.0
  0
SPLINE
  5
1fc
100
AcDbEntity
  8
0
 62
7
100
AcDbSpline
 70
8
 71
3
 72
8
 73
4
 74
0
 40
0
 40
0
 40
0
 40
0
 40
1
 40
1
 40
1
 40
1
 10
297.000000
 20
120.990157
 30
0.0
 10
295.757360
 20
120.990157
 30
0.0
 10
294.750000
 20
121.997157
 30
0.0
 10
294.750000
 20
123.240157
 30
0.0
  0
SPLINE
  5
1fd
100
AcDbEntity
  8
0
 62
7
100
AcDbSpline
 70
8
 71
3
 72
8
 73
4
 74
0
 40
0
 40
0
 40
0
 40
0
 40
1
 40
1
 40
1
 40
1
 10
294.750000
 20
123.240157
 30
0.0
 10
294.750000
 20
124.483157
 30
0.0
 10
295.757360
 20
125.490157
 30
0.0
 10
297.000000
 20
125.490157
 30
0.0
  0
SPLINE
  5
1fe
100
AcDbEntity
  8
0
 62
7
100
AcDbSpline
 70
8
 71
3
 72
8
 73
4
 74
0
 40
0
 40
0
 40
0
 40
0
 40
1
 40
1
 40
1
 40
1
 10
297.000000
 20
125.490157
 30
0.0
 10
298.242640
 20
125.490157
 30
0.0
 10
299.250000
 20
124.483157
 30
0.0
 10
299.250000
 20
123.240157
 30
0.0
  0
SPLINE
  5
1ff
100
AcDbEntity
  8
0
 62
7
100
AcDbSpline
 70
8
 71
3
 72
8
 73
4
 74
0
 40
0
 40
0
 40
0
 40
0
 40
1
 40
1
 40
1
 40
1
 10
309.000000
 20
91.240157
 30
0.0
 10
309.000000
 20
84.613157
 30
0.0
 10
303.627420
 20
79.240157
 30
0.0
 10
297.000000
 20
79.240157
 30
0.0
  0
SPLINE
  5
200
100
AcDbEntity
  8
0
 62
7
100
AcDbSpline
 70
8
 71
3
 72
8
 73
4
 74
0
 40
0
 40
0
 40
0
 40
0
 40
1
 40
1
 40
1
 40
1
 10
297.000000
 20
79.240157
 30
0.0
 10
290.372580
 20
79.240157
 30
0.0
 10
285.000000
 20
84.613157
 30
0.0
 10
285.000000
 20
91.240157
 30
0.0
  0
SPLINE
  5
201
100
AcDbEntity
  8
0
 62
7
100
AcDbSpline
 70
8
 71
3
 72
8
 73
4
 74
0
 40
0
 40
0
 40
0
 40
0
 40
1
 40
1
 40
1
 40
1
 10
285.000000
 20
91.240157
 30
0.0
 10
285.000000
 20
97.867157
 30
0.0
 10
290.372580
 20
103.240157
 30
0.0
 10
297.000000
 20
103.240157
 30
0.0
  0
SPLINE
  5
202
100
AcDbEntity
  8
0
 62
7
100
AcDbSpline
 70
8
 71
3
 72
8
 73
4
 74
0
 40
0
 40
0
 40
0
 40
0
 40
1
 40
1
 40
1
 40
1
 10
297.000000
 20
103.240157
 30
0.0
 10
303.627420
 20
103.240157
 30
0.0
 10
309.000000
 20
97.867157
 30
0.0
 10
309.000000
 20
91.240157
 30
0.0
  0
SPLINE
  5
203
100
AcDbEntity
  8
0
 62
7
100
AcDbSpline
 70
8
 71
3
 72
8
 73
4
 74
0
 40
0
 40
0
 40
0
 40
0
 40
1
 40
1
 40
1
 40
1
 10
158.000000
 20
106.240157
 30
0.0
 10
158.000000
 20
103.202157
 30
0.0
 10
155.538000
 20
100.740157
 30
0.0
 10
152.500000
 20
100.740157
 30
0.0
  0
SPLINE
  5
204
100
AcDbEntity
  8
0
 62
7
100
AcDbSpline
 70
8
 71
3
 72
8
 73
4
 74
0
 40
0
 40
0
 40
0
 40
0
 40
1
 40
1
 40
1
 40
1
 10
152.500000
 20
100.740157
 30
0.0
 10
149.462000
 20
100.740157
 30
0.0
 10
147.000000
 20
103.202157
 30
0.0
 10
147.000000
 20
106.240157
 30
0.0
  0
SPLINE
  5
205
100
AcDbEntity
  8
0
 62
7
100
AcDbSpline
 70
8
 71
3
 72
8
 73
4
 74
0
 40
0
 40
0
 40
0
 40
0
 40
1
 40
1
 40
1
 40
1
 10
147.000000
 20
106.240157
 30
0.0
 10
147.000000
 20
109.278157
 30
0.0
 10
149.462000
 20
111.740157
 30
0.0
 10
152.500000
 20
111.740157
 30
0.0
  0
SPLINE
  5
206
100
AcDbEntity
  8
0
 62
7
100
AcDbSpline
 70
8
 71
3
 72
8
 73
4
 74
0
 40
0
 40
0
 40
0
 40
0
 40
1
 40
1
 40
1
 40
1
 10
152.500000
 20
111.740157
 30
0.0
 10
155.538000
 20
111.740157
 30
0.0
 10
158.000000
 20
109.278157
 30
0.0
 10
158.000000
 20
106.240157
 30
0.0
  0
SPLINE
  5
207
100
AcDbEntity
  8
0
 62
7
100
AcDbSpline
 70
8
 71
3
 72
8
 73
4
 74
0
 40
0
 40
0
 40
0
 40
0
 40
1
 40
1
 40
1
 40
1
 10
174.250000
 20
123.240157
 30
0.0
 10
174.250000
 20
121.997157
 30
0.0
 10
173.243000
 20
120.990157
 30
0.0
 10
172.000000
 20
120.990157
 30
0.0
  0
SPLINE
  5
208
100
AcDbEntity
  8
0
 62
7
100
AcDbSpline
 70
8
 71
3
 72
8
 73
4
 74
0
 40
0
 40
0
 40
0
 40
0
 40
1
 40
1
 40
1
 40
1
 10
172.000000
 20
120.990157
 30
0.0
 10
170.757000
 20
120.990157
 30
0.0
 10
169.750000
 20
121.997157
 30
0.0
 10
169.750000
 20
123.240157
 30
0.0
  0
SPLINE
  5
209
100
AcDbEntity
  8
0
 62
7
100
AcDbSpline
 70
8
 71
3
 72
8
 73
4
 74
0
 40
0
 40
0
 40
0
 40
0
 40
1
 40
1
 40
1
 40
1
 10
169.750000
 20
123.240157
 30
0.0
 10
169.750000
 20
124.483157
 30
0.0
 10
170.757000
 20
125.490157
 30
0.0
 10
172.000000
 20
125.490157
 30
0.0
  0
SPLINE
  5
20a
100
AcDbEntity
  8
0
 62
7
100
AcDbSpline
 70
8
 71
3
 72
8
 73
4
 74
0
 40
0
 40
0
 40
0
 40
0
 40
1
 40
1
 40
1
 40
1
 10
172.000000
 20
125.490157
 30
0.0
 10
173.243000
 20
125.490157
 30
0.0
 10
174.250000
 20
124.483157
 30
0.0
 10
174.250000
 20
123.240157
 30
0.0
  0
SPLINE
  5
20b
100
AcDbEntity
  8
0
 62
7
100
AcDbSpline
 70
8
 71
3
 72
8
 73
4
 74
0
 40
0
 40
0
 40
0
 40
0
 40
1
 40
1
 40
1
 40
1
 10
447.000000
 20
106.240157
 30
0.0
 10
447.000000
 20
103.202157
 30
0.0
 10
444.538000
 20
100.740157
 30
0.0
 10
441.500000
 20
100.740157
 30
0.0
  0
SPLINE
  5
20c
100
AcDbEntity
  8
0
 62
7
100
AcDbSpline
 70
8
 71
3
 72
8
 73
4
 74
0
 40
0
 40
0
 40
0
 40
0
 40
1
 40
1
 40
1
 40
1
 10
441.500000
 20
100.740157
 30
0.0
 10
438.462000
 20
100.740157
 30
0.0
 10
436.000000
 20
103.202157
 30
0.0
 10
436.000000
 20
106.240157
 30
0.0
  0
SPLINE
  5
20d
100
AcDbEntity
  8
0
 62
7
100
AcDbSpline
 70
8
 71
3
 72
8
 73
4
 74
0
 40
0
 40
0
 40
0
 40
0
 40
1
 40
1
 40
1
 40
1
 10
436.000000
 20
106.240157
 30
0.0
 10
436.000000
 20
109.278157
 30
0.0
 10
438.462000
 20
111.740157
 30
0.0
 10
441.500000
 20
111.740157
 30
0.0
  0
SPLINE
  5
20e
100
AcDbEntity
  8
0
 62
7
100
AcDbSpline
 70
8
 71
3
 72
8
 73
4
 74
0
 40
0
 40
0
 40
0
 40
0
 40
1
 40
1
 40
1
 40
1
 10
441.500000
 20
111.740157
 30
0.0
 10
444.538000
 20
111.740157
 30
0.0
 10
447.000000
 20
109.278157
 30
0.0
 10
447.000000
 20
106.240157
 30
0.0
  0
SPLINE
  5
20f
100
AcDbEntity
  8
0
 62
7
100
AcDbSpline
 70
8
 71
3
 72
8
 73
4
 74
0
 40
0
 40
0
 40
0
 40
0
 40
1
 40
1
 40
1
 40
1
 10
142.500000
 20
98.240157
 30
0.0
 10
142.500000
 20
95.202157
 30
0.0
 10
140.038000
 20
92.740157
 30
0.0
 10
137.000000
 20
92.740157
 30
0.0
  0
SPLINE
  5
210
100
AcDbEntity
  8
0
 62
7
100
AcDbSpline
 70
8
 71
3
 72
8
 73
4
 74
0
 40
0
 40
0
 40
0
 40
0
 40
1
 40
1
 40
1
 40
1
 10
137.000000
 20
92.740157
 30
0.0
 10
133.962000
 20
92.740157
 30
0.0
 10
131.500000
 20
95.202157
 30
0.0
 10
131.500000
 20
98.240157
 30
0.0
  0
SPLINE
  5
211
100
AcDbEntity
  8
0
 62
7
100
AcDbSpline
 70
8
 71
3
 72
8
 73
4
 74
0
 40
0
 40
0
 40
0
 40
0
 40
1
 40
1
 40
1
 40
1
 10
131.500000
 20
98.240157
 30
0.0
 10
131.500000
 20
101.278157
 30
0.0
 10
133.962000
 20
103.740157
 30
0.0
 10
137.000000
 20
103.740157
 30
0.0
  0
SPLINE
  5
212
100
AcDbEntity
  8
0
 62
7
100
AcDbSpline
 70
8
 71
3
 72
8
 73
4
 74
0
 40
0
 40
0
 40
0
 40
0
 40
1
 40
1
 40
1
 40
1
 10
137.000000
 20
103.740157
 30
0.0
 10
140.038000
 20
103.740157
 30
0.0
 10
142.500000
 20
101.278157
 30
0.0
 10
142.500000
 20
98.240157
 30
0.0
  0
SPLINE
  5
213
100
AcDbEntity
  8
0
 62
7
100
AcDbSpline
 70
8
 71
3
 72
8
 73
4
 74
0
 40
0
 40
0
 40
0
 40
0
 40
1
 40
1
 40
1
 40
1
 10
462.500000
 20
98.240157
 30
0.0
 10
462.500000
 20
95.202157
 30
0.0
 10
460.038000
 20
92.740157
 30
0.0
 10
457.000000
 20
92.740157
 30
0.0
  0
SPLINE
  5
214
100
AcDbEntity
  8
0
 62
7
100
AcDbSpline
 70
8
 71
3
 72
8
 73
4
 74
0
 40
0
 40
0
 40
0
 40
0
 40
1
 40
1
 40
1
 40
1
 10
457.000000
 20
92.740157
 30
0.0
 10
453.962000
 20
92.740157
 30
0.0
 10
451.500000
 20
95.202157
 30
0.0
 10
451.500000
 20
98.240157
 30
0.0
  0
SPLINE
  5
215
100
AcDbEntity
  8
0
 62
7
100
AcDbSpline
 70
8
 71
3
 72
8
 73
4
 74
0
 40
0
 40
0
 40
0
 40
0
 40
1
 40
1
 40
1
 40
1
 10
451.500000
 20
98.240157
 30
0.0
 10
451.500000
 20
101.278157
 30
0.0
 10
453.962000
 20
103.740157
 30
0.0
 10
457.000000
 20
103.740157
 30
0.0
  0
SPLINE
  5
216
100
AcDbEntity
  8
0
 62
7
100
AcDbSpline
 70
8
 71
3
 72
8
 73
4
 74
0
 40
0
 40
0
 40
0
 40
0
 40
1
 40
1
 40
1
 40
1
 10
457.000000
 20
103.740157
 30
0.0
 10
460.038000
 20
103.740157
 30
0.0
 10
462.500000
 20
101.278157
 30
0.0
 10
462.500000
 20
98.240157
 30
0.0
  0
SPLINE
  5
217
100
AcDbEntity
  8
0
 62
7
100
AcDbSpline
 70
8
 71
3
 72
8
 73
4
 74
0
 40
0
 40
0
 40
0
 40
0
 40
1
 40
1
 40
1
 40
1
 10
484.250000
 20
63.240157
 30
0.0
 10
484.250000
 20
61.997157
 30
0.0
 10
483.243000
 20
60.990157
 30
0.0
 10
482.000000
 20
60.990157
 30
0.0
  0
SPLINE
  5
218
100
AcDbEntity
  8
0
 62
7
100
AcDbSpline
 70
8
 71
3
 72
8
 73
4
 74
0
 40
0
 40
0
 40
0
 40
0
 40
1
 40
1
 40
1
 40
1
 10
482.000000
 20
60.990157
 30
0.0
 10
480.757000
 20
60.990157
 30
0.0
 10
479.750000
 20
61.997157
 30
0.0
 10
479.750000
 20
63.240157
 30
0.0
  0
SPLINE
  5
219
100
AcDbEntity
  8
0
 62
7
100
AcDbSpline
 70
8
 71
3
 72
8
 73
4
 74
0
 40
0
 40
0
 40
0
 40
0
 40
1
 40
1
 40
1
 40
1
 10
479.750000
 20
63.240157
 30
0.0
 10
479.750000
 20
64.483157
 30
0.0
 10
480.757000
 20
65.490157
 30
0.0
 10
482.000000
 20
65.490157
 30
0.0
  0
SPLINE
  5
21a
100
AcDbEntity
  8
0
 62
7
100
AcDbSpline
 70
8
 71
3
 72
8
 73
4
 74
0
 40
0
 40
0
 40
0
 40
0
 40
1
 40
1
 40
1
 40
1
 10
482.000000
 20
65.490157
 30
0.0
 10
483.243000
 20
65.490157
 30
0.0
 10
484.250000
 20
64.483157
 30
0.0
 10
484.250000
 20
63.240157
 30
0.0
  0
SPLINE
  5
21b
100
AcDbEntity
  8
0
 62
7
100
AcDbSpline
 70
8
 71
3
 72
8
 73
4
 74
0
 40
0
 40
0
 40
0
 40
0
 40
1
 40
1
 40
1
 40
1
 10
484.250000
 20
-166.759843
 30
0.0
 10
484.250000
 20
-168.002843
 30
0.0
 10
483.243000
 20
-169.009843
 30
0.0
 10
482.000000
 20
-169.009843
 30
0.0
  0
SPLINE
  5
21c
100
AcDbEntity
  8
0
 62
7
100
AcDbSpline
 70
8
 71
3
 72
8
 73
4
 74
0
 40
0
 40
0
 40
0
 40
0
 40
1
 40
1
 40
1
 40
1
 10
482.000000
 20
-169.009843
 30
0.0
 10
480.757000
 20
-169.009843
 30
0.0
 10
479.750000
 20
-168.002843
 30
0.0
 10
479.750000
 20
-166.759843
 30
0.0
  0
SPLINE
  5
21d
100
AcDbEntity
  8
0
 62
7
100
AcDbSpline
 70
8
 71
3
 72
8
 73
4
 74
0
 40
0
 40
0
 40
0
 40
0
 40
1
 40
1
 40
1
 40
1
 10
479.750000
 20
-166.759843
 30
0.0
 10
479.750000
 20
-165.516843
 30
0.0
 10
480.757000
 20
-164.509843
 30
0.0
 10
482.000000
 20
-164.509843
 30
0.0
  0
SPLINE
  5
21e
100
AcDbEntity
  8
0
 62
7
100
AcDbSpline
 70
8
 71
3
 72
8
 73
4
 74
0
 40
0
 40
0
 40
0
 40
0
 40
1
 40
1
 40
1
 40
1
 10
482.000000
 20
-164.509843
 30
0.0
 10
483.243000
 20
-164.509843
 30
0.0
 10
484.250000
 20
-165.516843
 30
0.0
 10
484.250000
 20
-166.759843
 30
0.0
  0
LWPOLYLINE
  5
21f
100
AcDbEntity
  8
0
 62
7
100
AcDbPolyline
 90
2
 70
0
 10
249.000000
 20
74.240157
 30
0.0
 10
225.000000
 20
74.240157
 30
0.0
  0
LWPOLYLINE
  5
220
100
AcDbEntity
  8
0
 62
7
100
AcDbPolyline
 90
2
 70
0
 10
468.000000
 20
105.040157
 30
0.0
 10
468.000000
 20
113.440157
 30
0.0
  0
LWPOLYLINE
  5
221
100
AcDbEntity
  8
0
 62
7
100
AcDbPolyline
 90
2
 70
0
 10
472.200000
 20
109.240157
 30
0.0
 10
463.800000
 20
109.240157
 30
0.0
  0
LWPOLYLINE
  5
222
100
AcDbEntity
  8
0
 62
7
100
AcDbPolyline
 90
2
 70
0
 10
369.000000
 20
101.040157
 30
0.0
 10
369.000000
 20
109.440157
 30
0.0
  0
LWPOLYLINE
  5
223
100
AcDbEntity
  8
0
 62
7
100
AcDbPolyline
 90
2
 70
0
 10
373.200000
 20
105.240157
 30
0.0
 10
364.800000
 20
105.240157
 30
0.0
  0
LWPOLYLINE
  5
224
100
AcDbEntity
  8
0
 62
7
100
AcDbPolyline
 90
2
 70
0
 10
468.000000
 20
-216.959843
 30
0.0
 10
468.000000
 20
-208.559843
 30
0.0
  0
LWPOLYLINE
  5
225
100
AcDbEntity
  8
0
 62
7
100
AcDbPolyline
 90
2
 70
0
 10
472.200000
 20
-212.759843
 30
0.0
 10
463.800000
 20
-212.759843
 30
0.0
  0
LWPOLYLINE
  5
226
100
AcDbEntity
  8
0
 62
7
100
AcDbPolyline
 90
2
 70
0
 10
369.000000
 20
73.040157
 30
0.0
 10
369.000000
 20
81.440157
 30
0.0
  0
LWPOLYLINE
  5
227
100
AcDbEntity
  8
0
 62
7
100
AcDbPolyline
 90
2
 70
0
 10
373.200000
 20
77.240157
 30
0.0
 10
364.800000
 20
77.240157
 30
0.0
  0
LWPOLYLINE
  5
228
100
AcDbEntity
  8
0
 62
7
100
AcDbPolyline
 90
2
 70
0
 10
345.000000
 20
73.040157
 30
0.0
 10
345.000000
 20
81.440157
 30
0.0
  0
LWPOLYLINE
  5
229
100
AcDbEntity
  8
0
 62
7
100
AcDbPolyline
 90
2
 70
0
 10
349.200000
 20
77.240157
 30
0.0
 10
340.800000
 20
77.240157
 30
0.0
  0
LWPOLYLINE
  5
22a
100
AcDbEntity
  8
0
 62
7
100
AcDbPolyline
 90
2
 70
0
 10
126.000000
 20
-216.959843
 30
0.0
 10
126.000000
 20
-208.559843
 30
0.0
  0
LWPOLYLINE
  5
22b
100
AcDbEntity
  8
0
 62
7
100
AcDbPolyline
 90
2
 70
0
 10
130.200000
 20
-212.759843
 30
0.0
 10
121.800000
 20
-212.759843
 30
0.0
  0
LWPOLYLINE
  5
22c
100
AcDbEntity
  8
0
 62
7
100
AcDbPolyline
 90
2
 70
0
 10
345.000000
 20
101.040157
 30
0.0
 10
345.000000
 20
109.440157
 30
0.0
  0
LWPOLYLINE
  5
22d
100
AcDbEntity
  8
0
 62
7
100
AcDbPolyline
 90
2
 70
0
 10
349.200000
 20
105.240157
 30
0.0
 10
340.800000
 20
105.240157
 30
0.0
  0
LWPOLYLINE
  5
22e
100
AcDbEntity
  8
0
 62
7
100
AcDbPolyline
 90
2
 70
0
 10
126.000000
 20
105.040157
 30
0.0
 10
126.000000
 20
113.440157
 30
0.0
  0
LWPOLYLINE
  5
22f
100
AcDbEntity
  8
0
 62
7
100
AcDbPolyline
 90
2
 70
0
 10
130.200000
 20
109.240157
 30
0.0
 10
121.800000
 20
109.240157
 30
0.0
  0
LWPOLYLINE
  5
230
100
AcDbEntity
  8
0
 62
7
100
AcDbPolyline
 90
2
 70
0
 10
249.000000
 20
101.040157
 30
0.0
 10
249.000000
 20
109.440157
 30
0.0
  0
LWPOLYLINE
  5
231
100
AcDbEntity
  8
0
 62
7
100
AcDbPolyline
 90
2
 70
0
 10
253.200000
 20
105.240157
 30
0.0
 10
244.800000
 20
105.240157
 30
0.0
  0
LWPOLYLINE
  5
232
100
AcDbEntity
  8
0
 62
7
100
AcDbPolyline
 90
2
 70
0
 10
225.000000
 20
101.040157
 30
0.0
 10
225.000000
 20
109.440157
 30
0.0
  0
LWPOLYLINE
  5
233
100
AcDbEntity
  8
0
 62
7
100
AcDbPolyline
 90
2
 70
0
 10
229.200000
 20
105.240157
 30
0.0
 10
220.800000
 20
105.240157
 30
0.0
  0
LWPOLYLINE
  5
234
100
AcDbEntity
  8
0
 62
7
100
AcDbPolyline
 90
2
 70
0
 10
249.000000
 20
73.040157
 30
0.0
 10
249.000000
 20
81.440157
 30
0.0
  0
LWPOLYLINE
  5
235
100
AcDbEntity
  8
0
 62
7
100
AcDbPolyline
 90
2
 70
0
 10
253.200000
 20
77.240157
 30
0.0
 10
244.800000
 20
77.240157
 30
0.0
  0
LWPOLYLINE
  5
236
100
AcDbEntity
  8
0
 62
7
100
AcDbPolyline
 90
2
 70
0
 10
225.000000
 20
73.040157
 30
0.0
 10
225.000000
 20
81.440157
 30
0.0
  0
LWPOLYLINE
  5
237
100
AcDbEntity
  8
0
 62
7
100
AcDbPolyline
 90
2
 70
0
 10
229.200000
 20
77.240157
 30
0.0
 10
220.800000
 20
77.240157
 30
0.0
  0
LWPOLYLINE
  5
238
100
AcDbEntity
  8
0
 62
7
100
AcDbPolyline
 90
2
 70
0
 10
281.500000
 20
71.540157
 30
0.0
 10
281.500000
 20
79.940157
 30
0.0
  0
LWPOLYLINE
  5
239
100
AcDbEntity
  8
0
 62
7
100
AcDbPolyline
 90
2
 70
0
 10
285.700000
 20
75.740157
 30
0.0
 10
277.300000
 20
75.740157
 30
0.0
  0
LWPOLYLINE
  5
23a
100
AcDbEntity
  8
0
 62
7
100
AcDbPolyline
 90
2
 70
0
 10
312.500000
 20
71.540157
 30
0.0
 10
312.500000
 20
79.940157
 30
0.0
  0
LWPOLYLINE
  5
23b
100
AcDbEntity
  8
0
 62
7
100
AcDbPolyline
 90
2
 70
0
 10
316.700000
 20
75.740157
 30
0.0
 10
308.300000
 20
75.740157
 30
0.0
  0
LWPOLYLINE
  5
23c
100
AcDbEntity
  8
0
 62
7
100
AcDbPolyline
 90
2
 70
0
 10
367.000000
 20
-4.959843
 30
0.0
 10
367.000000
 20
3.440157
 30
0.0
  0
LWPOLYLINE
  5
23d
100
AcDbEntity
  8
0
 62
7
100
AcDbPolyline
 90
2
 70
0
 10
371.200000
 20
-0.759843
 30
0.0
 10
362.800000
 20
-0.759843
 30
0.0
  0
LWPOLYLINE
  5
23e
100
AcDbEntity
  8
0
 62
7
100
AcDbPolyline
 90
2
 70
0
 10
422.000000
 20
-230.959843
 30
0.0
 10
422.000000
 20
-222.559843
 30
0.0
  0
LWPOLYLINE
  5
23f
100
AcDbEntity
  8
0
 62
7
100
AcDbPolyline
 90
2
 70
0
 10
426.200000
 20
-226.759843
 30
0.0
 10
417.800000
 20
-226.759843
 30
0.0
  0
LWPOLYLINE
  5
240
100
AcDbEntity
  8
0
 62
7
100
AcDbPolyline
 90
2
 70
0
 10
367.000000
 20
-130.959843
 30
0.0
 10
367.000000
 20
-122.559843
 30
0.0
  0
LWPOLYLINE
  5
241
100
AcDbEntity
  8
0
 62
7
100
AcDbPolyline
 90
2
 70
0
 10
371.200000
 20
-126.759843
 30
0.0
 10
362.800000
 20
-126.759843
 30
0.0
  0
LWPOLYLINE
  5
242
100
AcDbEntity
  8
0
 62
7
100
AcDbPolyline
 90
2
 70
0
 10
227.000000
 20
-130.959843
 30
0.0
 10
227.000000
 20
-122.559843
 30
0.0
  0
LWPOLYLINE
  5
243
100
AcDbEntity
  8
0
 62
7
100
AcDbPolyline
 90
2
 70
0
 10
231.200000
 20
-126.759843
 30
0.0
 10
222.800000
 20
-126.759843
 30
0.0
  0
LWPOLYLINE
  5
244
100
AcDbEntity
  8
0
 62
7
100
AcDbPolyline
 90
2
 70
0
 10
227.000000
 20
-4.959843
 30
0.0
 10
227.000000
 20
3.440157
 30
0.0
  0
LWPOLYLINE
  5
245
100
AcDbEntity
  8
0
 62
7
100
AcDbPolyline
 90
2
 70
0
 10
231.200000
 20
-0.759843
 30
0.0
 10
222.800000
 20
-0.759843
 30
0.0
  0
LWPOLYLINE
  5
246
100
AcDbEntity
  8
0
 62
7
100
AcDbPolyline
 90
2
 70
0
 10
142.000000
 20
-130.959843
 30
0.0
 10
142.000000
 20
-122.559843
 30
0.0
  0
LWPOLYLINE
  5
247
100
AcDbEntity
  8
0
 62
7
100
AcDbPolyline
 90
2
 70
0
 10
146.200000
 20
-126.759843
 30
0.0
 10
137.800000
 20
-126.759843
 30
0.0
  0
LWPOLYLINE
  5
248
100
AcDbEntity
  8
0
 62
7
100
AcDbPolyline
 90
2
 70
0
 10
142.000000
 20
-4.959843
 30
0.0
 10
142.000000
 20
3.440157
 30
0.0
  0
LWPOLYLINE
  5
249
100
AcDbEntity
  8
0
 62
7
100
AcDbPolyline
 90
2
 70
0
 10
146.200000
 20
-0.759843
 30
0.0
 10
137.800000
 20
-0.759843
 30
0.0
  0
LWPOLYLINE
  5
24a
100
AcDbEntity
  8
0
 62
7
100
AcDbPolyline
 90
2
 70
0
 10
137.000000
 20
-205.959843
 30
0.0
 10
137.000000
 20
-197.559843
 30
0.0
  0
LWPOLYLINE
  5
24b
100
AcDbEntity
  8
0
 62
7
100
AcDbPolyline
 90
2
 70
0
 10
141.200000
 20
-201.759843
 30
0.0
 10
132.800000
 20
-201.759843
 30
0.0
  0
LWPOLYLINE
  5
24c
100
AcDbEntity
  8
0
 62
7
100
AcDbPolyline
 90
2
 70
0
 10
172.000000
 20
-230.959843
 30
0.0
 10
172.000000
 20
-222.559843
 30
0.0
  0
LWPOLYLINE
  5
24d
100
AcDbEntity
  8
0
 62
7
100
AcDbPolyline
 90
2
 70
0
 10
176.200000
 20
-226.759843
 30
0.0
 10
167.800000
 20
-226.759843
 30
0.0
  0
LWPOLYLINE
  5
24e
100
AcDbEntity
  8
0
 62
7
100
AcDbPolyline
 90
2
 70
0
 10
452.000000
 20
-4.959843
 30
0.0
 10
452.000000
 20
3.440157
 30
0.0
  0
LWPOLYLINE
  5
24f
100
AcDbEntity
  8
0
 62
7
100
AcDbPolyline
 90
2
 70
0
 10
456.200000
 20
-0.759843
 30
0.0
 10
447.800000
 20
-0.759843
 30
0.0
  0
LWPOLYLINE
  5
250
100
AcDbEntity
  8
0
 62
7
100
AcDbPolyline
 90
2
 70
0
 10
452.000000
 20
-130.959843
 30
0.0
 10
452.000000
 20
-122.559843
 30
0.0
  0
LWPOLYLINE
  5
251
100
AcDbEntity
  8
0
 62
7
100
AcDbPolyline
 90
2
 70
0
 10
456.200000
 20
-126.759843
 30
0.0
 10
447.800000
 20
-126.759843
 30
0.0
  0
LWPOLYLINE
  5
252
100
AcDbEntity
  8
0
 62
7
100
AcDbPolyline
 90
2
 70
0
 10
457.000000
 20
-205.959843
 30
0.0
 10
457.000000
 20
-197.559843
 30
0.0
  0
LWPOLYLINE
  5
253
100
AcDbEntity
  8
0
 62
7
100
AcDbPolyline
 90
2
 70
0
 10
461.200000
 20
-201.759843
 30
0.0
 10
452.800000
 20
-201.759843
 30
0.0
  0
LWPOLYLINE
  5
254
100
AcDbEntity
  8
0
 62
7
100
AcDbPolyline
 90
2
 70
0
 10
112.000000
 20
59.040157
 30
0.0
 10
112.000000
 20
67.440157
 30
0.0
  0
LWPOLYLINE
  5
255
100
AcDbEntity
  8
0
 62
7
100
AcDbPolyline
 90
2
 70
0
 10
116.200000
 20
63.240157
 30
0.0
 10
107.800000
 20
63.240157
 30
0.0
  0
LWPOLYLINE
  5
256
100
AcDbEntity
  8
0
 62
7
100
AcDbPolyline
 90
2
 70
0
 10
112.000000
 20
-170.959843
 30
0.0
 10
112.000000
 20
-162.559843
 30
0.0
  0
LWPOLYLINE
  5
257
100
AcDbEntity
  8
0
 62
7
100
AcDbPolyline
 90
2
 70
0
 10
116.200000
 20
-166.759843
 30
0.0
 10
107.800000
 20
-166.759843
 30
0.0
  0
LWPOLYLINE
  5
258
100
AcDbEntity
  8
0
 62
7
100
AcDbPolyline
 90
2
 70
0
 10
422.000000
 20
119.040157
 30
0.0
 10
422.000000
 20
127.440157
 30
0.0
  0
LWPOLYLINE
  5
259
100
AcDbEntity
  8
0
 62
7
100
AcDbPolyline
 90
2
 70
0
 10
426.200000
 20
123.240157
 30
0.0
 10
417.800000
 20
123.240157
 30
0.0
  0
LWPOLYLINE
  5
25a
100
AcDbEntity
  8
0
 62
7
100
AcDbPolyline
 90
2
 70
0
 10
281.500000
 20
102.540157
 30
0.0
 10
281.500000
 20
110.940157
 30
0.0
  0
LWPOLYLINE
  5
25b
100
AcDbEntity
  8
0
 62
7
100
AcDbPolyline
 90
2
 70
0
 10
285.700000
 20
106.740157
 30
0.0
 10
277.300000
 20
106.740157
 30
0.0
  0
LWPOLYLINE
  5
25c
100
AcDbEntity
  8
0
 62
7
100
AcDbPolyline
 90
2
 70
0
 10
312.500000
 20
102.540157
 30
0.0
 10
312.500000
 20
110.940157
 30
0.0
  0
LWPOLYLINE
  5
25d
100
AcDbEntity
  8
0
 62
7
100
AcDbPolyline
 90
2
 70
0
 10
316.700000
 20
106.740157
 30
0.0
 10
308.300000
 20
106.740157
 30
0.0
  0
LWPOLYLINE
  5
25e
100
AcDbEntity
  8
0
 62
7
100
AcDbPolyline
 90
2
 70
0
 10
297.000000
 20
119.040157
 30
0.0
 10
297.000000
 20
127.440157
 30
0.0
  0
LWPOLYLINE
  5
25f
100
AcDbEntity
  8
0
 62
7
100
AcDbPolyline
 90
2
 70
0
 10
301.200000
 20
123.240157
 30
0.0
 10
292.800000
 20
123.240157
 30
0.0
  0
LWPOLYLINE
  5
260
100
AcDbEntity
  8
0
 62
7
100
AcDbPolyline
 90
2
 70
0
 10
297.000000
 20
87.040157
 30
0.0
 10
297.000000
 20
95.440157
 30
0.0
  0
LWPOLYLINE
  5
261
100
AcDbEntity
  8
0
 62
7
100
AcDbPolyline
 90
2
 70
0
 10
301.200000
 20
91.240157
 30
0.0
 10
292.800000
 20
91.240157
 30
0.0
  0
LWPOLYLINE
  5
262
100
AcDbEntity
  8
0
 62
7
100
AcDbPolyline
 90
2
 70
0
 10
152.500000
 20
102.040157
 30
0.0
 10
152.500000
 20
110.440157
 30
0.0
  0
LWPOLYLINE
  5
263
100
AcDbEntity
  8
0
 62
7
100
AcDbPolyline
 90
2
 70
0
 10
156.700000
 20
106.240157
 30
0.0
 10
148.300000
 20
106.240157
 30
0.0
  0
LWPOLYLINE
  5
264
100
AcDbEntity
  8
0
 62
7
100
AcDbPolyline
 90
2
 70
0
 10
172.000000
 20
119.040157
 30
0.0
 10
172.000000
 20
127.440157
 30
0.0
  0
LWPOLYLINE
  5
265
100
AcDbEntity
  8
0
 62
7
100
AcDbPolyline
 90
2
 70
0
 10
176.200000
 20
123.240157
 30
0.0
 10
167.800000
 20
123.240157
 30
0.0
  0
LWPOLYLINE
  5
266
100
AcDbEntity
  8
0
 62
7
100
AcDbPolyline
 90
2
 70
0
 10
441.500000
 20
102.040157
 30
0.0
 10
441.500000
 20
110.440157
 30
0.0
  0
LWPOLYLINE
  5
267
100
AcDbEntity
  8
0
 62
7
100
AcDbPolyline
 90
2
 70
0
 10
445.700000
 20
106.240157
 30
0.0
 10
437.300000
 20
106.240157
 30
0.0
  0
LWPOLYLINE
  5
268
100
AcDbEntity
  8
0
 62
7
100
AcDbPolyline
 90
2
 70
0
 10
137.000000
 20
94.040157
 30
0.0
 10
137.000000
 20
102.440157
 30
0.0
  0
LWPOLYLINE
  5
269
100
AcDbEntity
  8
0
 62
7
100
AcDbPolyline
 90
2
 70
0
 10
141.200000
 20
98.240157
 30
0.0
 10
132.800000
 20
98.240157
 30
0.0
  0
LWPOLYLINE
  5
26a
100
AcDbEntity
  8
0
 62
7
100
AcDbPolyline
 90
2
 70
0
 10
457.000000
 20
94.040157
 30
0.0
 10
457.000000
 20
102.440157
 30
0.0
  0
LWPOLYLINE
  5
26b
100
AcDbEntity
  8
0
 62
7
100
AcDbPolyline
 90
2
 70
0
 10
461.200000
 20
98.240157
 30
0.0
 10
452.800000
 20
98.240157
 30
0.0
  0
LWPOLYLINE
  5
26c
100
AcDbEntity
  8
0
 62
7
100
AcDbPolyline
 90
2
 70
0
 10
482.000000
 20
59.040157
 30
0.0
 10
482.000000
 20
67.440157
 30
0.0
  0
LWPOLYLINE
  5
26d
100
AcDbEntity
  8
0
 62
7
100
AcDbPolyline
 90
2
 70
0
 10
486.200000
 20
63.240157
 30
0.0
 10
477.800000
 20
63.240157
 30
0.0
  0
LWPOLYLINE
  5
26e
100
AcDbEntity
  8
0
 62
7
100
AcDbPolyline
 90
2
 70
0
 10
482.000000
 20
-170.959843
 30
0.0
 10
482.000000
 20
-162.559843
 30
0.0
  0
LWPOLYLINE
  5
26f
100
AcDbEntity
  8
0
 62
7
100
AcDbPolyline
 90
2
 70
0
 10
486.200000
 20
-166.759843
 30
0.0
 10
477.800000
 20
-166.759843
 30
0.0
  0
ENDSEC
  0
SECTION
  2
OBJECTS
  0
DICTIONARY
  5
C
330
0
100
AcDbDictionary
  3
ACAD_GROUP
350
D
  3
ACAD_MLINESTYLE
350
17
  0
DICTIONARY
  5
D
330
C
100
AcDbDictionary
  0
DICTIONARY
  5
1A
330
C
100
AcDbDictionary
  0
DICTIONARY
  5
17
330
C
100
AcDbDictionary
  3
STANDARD
350
18
  0
DICTIONARY
  5
19
330
C
100
AcDbDictionary
  0
ENDSEC
  0
EOF
