  0
SECTION
  2
HEADER
  9
$ACADVER
  1
AC1014
  9
$HANDSEED
  5
FFFF
  9
$MEASUREMENT
 70
     1
  0
ENDSEC
  0
SECTION
  2
TABLES
  0
TABLE
  2
VPORT
  5
8
330
0
100
AcDbSymbolTable
 70
     4
  0
VPORT
  5
2E
330
8
100
AcDbSymbolTableRecord
100
AcDbViewportTableRecord
  2
*ACTIVE
 70
     0
 10
0.0
 20
0.0
 11
1.0
 21
1.0
 12
210.0
 22
148.5
 13
0.0
 23
0.0
 14
10.0
 24
10.0
 15
10.0
 25
10.0
 16
0.0
 26
0.0
 36
1.0
 17
0.0
 27
0.0
 37
0.0
 40
341.0
 41
1.24
 42
50.0
 43
0.0
 44
0.0
 50
0.0
 51
0.0
 71
     0
 72
   100
 73
     1
 74
     3
 75
     0
 76
     0
 77
     0
 78
     0
  0
ENDTAB
  0
TABLE
  2
LTYPE
  5
5
330
0
100
AcDbSymbolTable
 70
     1
  0
LTYPE
  5
14
330
5
100
AcDbSymbolTableRecord
100
AcDbLinetypeTableRecord
  2
BYBLOCK
 70
     0
  3

 72
    65
 73
     0
 40
0.0
  0
LTYPE
  5
15
330
5
100
AcDbSymbolTableRecord
100
AcDbLinetypeTableRecord
  2
BYLAYER
 70
     0
  3

 72
    65
 73
     0
 40
0.0
  0
LTYPE
  5
16
330
5
100
AcDbSymbolTableRecord
100
AcDbLinetypeTableRecord
  2
CONTINUOUS
 70
     0
  3
Solid line
 72
    65
 73
     0
 40
0.0
  0
ENDTAB
  0
TABLE
  2
LAYER
  5
2
100
AcDbSymbolTable
 70
1
  0
LAYER
  5
50
100
AcDbSymbolTableRecord
100
AcDbLayerTableRecord
  2
0
 70
0
  6
CONTINUOUS
  0
ENDTAB
  0
TABLE
  2
STYLE
  5
3
330
0
100
AcDbSymbolTable
 70
     1
  0
STYLE
  5
11
330
3
100
AcDbSymbolTableRecord
100
AcDbTextStyleTableRecord
  2
STANDARD
 70
     0
 40
0.0
 41
1.0
 50
0.0
 71
     0
 42
2.5
  3
txt
  4

  0
ENDTAB
  0
TABLE
  2
VIEW
  5
6
330
0
100
AcDbSymbolTable
 70
     0
  0
ENDTAB
  0
TABLE
  2
UCS
  5
7
330
0
100
AcDbSymbolTable
 70
     0
  0
ENDTAB
  0
TABLE
  2
APPID
  5
9
330
0
100
AcDbSymbolTable
 70
     2
  0
APPID
  5
12
330
9
100
AcDbSymbolTableRecord
100
AcDbRegAppTableRecord
  2
ACAD
 70
     0
  0
ENDTAB
  0
TABLE
  2
DIMSTYLE
  5
A
330
0
100
AcDbSymbolTable
 70
     1
  0
DIMSTYLE
105
27
330
A
100
AcDbSymbolTableRecord
100
AcDbDimStyleTableRecord
  2
ISO-25
 70
     0
  3

  4

  5

  6

  7

 40
1.0
 41
2.5
 42
0.625
 43
3.75
 44
1.25
 45
0.0
 46
0.0
 47
0.0
 48
0.0
140
2.5
141
2.5
142
0.0
143
0.03937007874016
144
1.0
145
0.0
146
1.0
147
0.625
 71
     0
 72
     0
 73
     0
 74
     0
 75
     0
 76
     0
 77
     1
 78
     8
170
     0
171
     3
172
     1
173
     0
174
     0
175
     0
176
     0
177
     0
178
     0
270
     2
271
     2
272
     2
273
     2
274
     3
340
11
275
     0
280
     0
281
     0
282
     0
283
     0
284
     8
285
     0
286
     0
287
     3
288
     0
  0
ENDTAB
  0
TABLE
  2
BLOCK_RECORD
  5
1
330
0
100
AcDbSymbolTable
 70
     1
  0
BLOCK_RECORD
  5
1F
330
1
100
AcDbSymbolTableRecord
100
AcDbBlockTableRecord
  2
*MODEL_SPACE
  0
BLOCK_RECORD
  5
1B
330
1
100
AcDbSymbolTableRecord
100
AcDbBlockTableRecord
  2
*PAPER_SPACE
  0
ENDTAB
  0
ENDSEC
  0
SECTION
  2
BLOCKS
  0
BLOCK
  5
20
330
1F
100
AcDbEntity
  8
0
100
AcDbBlockBegin
  2
*MODEL_SPACE
 70
     0
 10
0.0
 20
0.0
 30
0.0
  3
*MODEL_SPACE
  1

  0
ENDBLK
  5
21
330
1F
100
AcDbEntity
  8
0
100
AcDbBlockEnd
  0
BLOCK
  5
1C
330
1B
100
AcDbEntity
 67
     1
  8
0
100
AcDbBlockBegin
  2
*PAPER_SPACE
  1

  0
ENDBLK
  5
1D
330
1B
100
AcDbEntity
 67
     1
  8
0
100
AcDbBlockEnd
  0
ENDSEC
  0
SECTION
  2
ENTITIES
  0
LWPOLYLINE
  5
100
100
AcDbEntity
  8
0
 62
7
100
AcDbPolyline
 90
4
 70
1
 10
507.000000
 20
122.240157
 30
0.0
 10
507.000000
 20
-224.759843
 30
0.0
 10
87.000000
 20
-224.759843
 30
0.0
 10
87.000000
 20
122.240157
 30
0.0
  0
SPLINE
  5
101
100
AcDbEntity
  8
0
 62
7
100
AcDbSpline
 70
8
 71
3
 72
8
 73
4
 74
0
 40
0
 40
0
 40
0
 40
0
 40
1
 40
1
 40
1
 40
1
 10
384.500000
 20
-184.259843
 30
0.0
 10
384.500000
 20
-190.886843
 30
0.0
 10
379.127400
 20
-196.259843
 30
0.0
 10
372.500000
 20
-196.259843
 30
0.0
  0
SPLINE
  5
102
100
AcDbEntity
  8
0
 62
7
100
AcDbSpline
 70
8
 71
3
 72
8
 73
4
 74
0
 40
0
 40
0
 40
0
 40
0
 40
1
 40
1
 40
1
 40
1
 10
372.500000
 20
-196.259843
 30
0.0
 10
365.872600
 20
-196.259843
 30
0.0
 10
360.500000
 20
-190.886843
 30
0.0
 10
360.500000
 20
-184.259843
 30
0.0
  0
SPLINE
  5
103
100
AcDbEntity
  8
0
 62
7
100
AcDbSpline
 70
8
 71
3
 72
8
 73
4
 74
0
 40
0
 40
0
 40
0
 40
0
 40
1
 40
1
 40
1
 40
1
 10
360.500000
 20
-184.259843
 30
0.0
 10
360.500000
 20
-177.632843
 30
0.0
 10
365.872600
 20
-172.259843
 30
0.0
 10
372.500000
 20
-172.259843
 30
0.0
  0
SPLINE
  5
104
100
AcDbEntity
  8
0
 62
7
100
AcDbSpline
 70
8
 71
3
 72
8
 73
4
 74
0
 40
0
 40
0
 40
0
 40
0
 40
1
 40
1
 40
1
 40
1
 10
372.500000
 20
-172.259843
 30
0.0
 10
379.127400
 20
-172.259843
 30
0.0
 10
384.500000
 20
-177.632843
 30
0.0
 10
384.500000
 20
-184.259843
 30
0.0
  0
SPLINE
  5
105
100
AcDbEntity
  8
0
 62
7
100
AcDbSpline
 70
8
 71
3
 72
8
 73
4
 74
0
 40
0
 40
0
 40
0
 40
0
 40
1
 40
1
 40
1
 40
1
 10
448.000000
 20
-187.759843
 30
0.0
 10
449.657000
 20
-187.759843
 30
0.0
 10
451.000000
 20
-189.102843
 30
0.0
 10
451.000000
 20
-190.759843
 30
0.0
  0
SPLINE
  5
106
100
AcDbEntity
  8
0
 62
7
100
AcDbSpline
 70
8
 71
3
 72
8
 73
4
 74
0
 40
0
 40
0
 40
0
 40
0
 40
1
 40
1
 40
1
 40
1
 10
451.000000
 20
-190.759843
 30
0.0
 10
451.000000
 20
-192.416843
 30
0.0
 10
449.657000
 20
-193.759843
 30
0.0
 10
448.000000
 20
-193.759843
 30
0.0
  0
LWPOLYLINE
  5
107
100
AcDbEntity
  8
0
 62
7
100
AcDbPolyline
 90
4
 70
1
 10
196.000000
 20
79.240157
 30
0.0
 10
196.000000
 20
108.240157
 30
0.0
 10
147.000000
 20
108.240157
 30
0.0
 10
147.000000
 20
79.240157
 30
0.0
  0
SPLINE
  5
108
100
AcDbEntity
  8
0
 62
7
100
AcDbSpline
 70
8
 71
3
 72
8
 73
4
 74
0
 40
0
 40
0
 40
0
 40
0
 40
1
 40
1
 40
1
 40
1
 10
423.000000
 20
-193.759843
 30
0.0
 10
421.343000
 20
-193.759843
 30
0.0
 10
420.000000
 20
-192.416843
 30
0.0
 10
420.000000
 20
-190.759843
 30
0.0
  0
SPLINE
  5
109
100
AcDbEntity
  8
0
 62
7
100
AcDbSpline
 70
8
 71
3
 72
8
 73
4
 74
0
 40
0
 40
0
 40
0
 40
0
 40
1
 40
1
 40
1
 40
1
 10
420.000000
 20
-190.759843
 30
0.0
 10
420.000000
 20
-189.102843
 30
0.0
 10
421.343000
 20
-187.759843
 30
0.0
 10
423.000000
 20
-187.759843
 30
0.0
  0
LWPOLYLINE
  5
10a
100
AcDbEntity
  8
0
 62
7
100
AcDbPolyline
 90
3
 70
0
 10
448.000000
 20
-193.759843
 30
0.0
 10
423.000000
 20
-193.759843
 30
0.0
 10
423.000000
 20
-193.759843
 30
0.0
  0
SPLINE
  5
10b
100
AcDbEntity
  8
0
 62
7
100
AcDbSpline
 70
8
 71
3
 72
8
 73
4
 74
0
 40
0
 40
0
 40
0
 40
0
 40
1
 40
1
 40
1
 40
1
 10
448.000000
 20
-174.759843
 30
0.0
 10
449.657000
 20
-174.759843
 30
0.0
 10
451.000000
 20
-176.102843
 30
0.0
 10
451.000000
 20
-177.759843
 30
0.0
  0
SPLINE
  5
10c
100
AcDbEntity
  8
0
 62
7
100
AcDbSpline
 70
8
 71
3
 72
8
 73
4
 74
0
 40
0
 40
0
 40
0
 40
0
 40
1
 40
1
 40
1
 40
1
 10
451.000000
 20
-177.759843
 30
0.0
 10
451.000000
 20
-179.416843
 30
0.0
 10
449.657000
 20
-180.759843
 30
0.0
 10
448.000000
 20
-180.759843
 30
0.0
  0
LWPOLYLINE
  5
10d
100
AcDbEntity
  8
0
 62
7
100
AcDbPolyline
 90
3
 70
0
 10
423.000000
 20
-187.759843
 30
0.0
 10
423.000000
 20
-187.759843
 30
0.0
 10
448.000000
 20
-187.759843
 30
0.0
  0
SPLINE
  5
10e
100
AcDbEntity
  8
0
 62
7
100
AcDbSpline
 70
8
 71
3
 72
8
 73
4
 74
0
 40
0
 40
0
 40
0
 40
0
 40
1
 40
1
 40
1
 40
1
 10
423.000000
 20
-180.759843
 30
0.0
 10
421.343000
 20
-180.759843
 30
0.0
 10
420.000000
 20
-179.416843
 30
0.0
 10
420.000000
 20
-177.759843
 30
0.0
  0
SPLINE
  5
10f
100
AcDbEntity
  8
0
 62
7
100
AcDbSpline
 70
8
 71
3
 72
8
 73
4
 74
0
 40
0
 40
0
 40
0
 40
0
 40
1
 40
1
 40
1
 40
1
 10
420.000000
 20
-177.759843
 30
0.0
 10
420.000000
 20
-176.102843
 30
0.0
 10
421.343000
 20
-174.759843
 30
0.0
 10
423.000000
 20
-174.759843
 30
0.0
  0
LWPOLYLINE
  5
110
100
AcDbEntity
  8
0
 62
7
100
AcDbPolyline
 90
4
 70
0
 10
448.000000
 20
-180.759843
 30
0.0
 10
448.000000
 20
-180.759843
 30
0.0
 10
423.000000
 20
-180.759843
 30
0.0
 10
423.000000
 20
-180.759843
 30
0.0
  0
LWPOLYLINE
  5
111
100
AcDbEntity
  8
0
 62
7
100
AcDbPolyline
 90
3
 70
0
 10
423.000000
 20
-174.759843
 30
0.0
 10
423.000000
 20
-174.759843
 30
0.0
 10
448.000000
 20
-174.759843
 30
0.0
  0
SPLINE
  5
112
100
AcDbEntity
  8
0
 62
7
100
AcDbSpline
 70
8
 71
3
 72
8
 73
4
 74
0
 40
0
 40
0
 40
0
 40
0
 40
1
 40
1
 40
1
 40
1
 10
113.000000
 20
78.740157
 30
0.0
 10
113.000000
 20
77.635157
 30
0.0
 10
112.105000
 20
76.740157
 30
0.0
 10
111.000000
 20
76.740157
 30
0.0
  0
SPLINE
  5
113
100
AcDbEntity
  8
0
 62
7
100
AcDbSpline
 70
8
 71
3
 72
8
 73
4
 74
0
 40
0
 40
0
 40
0
 40
0
 40
1
 40
1
 40
1
 40
1
 10
111.000000
 20
76.740157
 30
0.0
 10
109.895000
 20
76.740157
 30
0.0
 10
109.000000
 20
77.635157
 30
0.0
 10
109.000000
 20
78.740157
 30
0.0
  0
SPLINE
  5
114
100
AcDbEntity
  8
0
 62
7
100
AcDbSpline
 70
8
 71
3
 72
8
 73
4
 74
0
 40
0
 40
0
 40
0
 40
0
 40
1
 40
1
 40
1
 40
1
 10
109.000000
 20
78.740157
 30
0.0
 10
109.000000
 20
79.845157
 30
0.0
 10
109.895000
 20
80.740157
 30
0.0
 10
111.000000
 20
80.740157
 30
0.0
  0
SPLINE
  5
115
100
AcDbEntity
  8
0
 62
7
100
AcDbSpline
 70
8
 71
3
 72
8
 73
4
 74
0
 40
0
 40
0
 40
0
 40
0
 40
1
 40
1
 40
1
 40
1
 10
111.000000
 20
80.740157
 30
0.0
 10
112.105000
 20
80.740157
 30
0.0
 10
113.000000
 20
79.845157
 30
0.0
 10
113.000000
 20
78.740157
 30
0.0
  0
SPLINE
  5
116
100
AcDbEntity
  8
0
 62
7
100
AcDbSpline
 70
8
 71
3
 72
8
 73
4
 74
0
 40
0
 40
0
 40
0
 40
0
 40
1
 40
1
 40
1
 40
1
 10
173.500000
 20
73.740157
 30
0.0
 10
173.500000
 20
72.635157
 30
0.0
 10
172.605000
 20
71.740157
 30
0.0
 10
171.500000
 20
71.740157
 30
0.0
  0
SPLINE
  5
117
100
AcDbEntity
  8
0
 62
7
100
AcDbSpline
 70
8
 71
3
 72
8
 73
4
 74
0
 40
0
 40
0
 40
0
 40
0
 40
1
 40
1
 40
1
 40
1
 10
171.500000
 20
71.740157
 30
0.0
 10
170.395000
 20
71.740157
 30
0.0
 10
169.500000
 20
72.635157
 30
0.0
 10
169.500000
 20
73.740157
 30
0.0
  0
SPLINE
  5
118
100
AcDbEntity
  8
0
 62
7
100
AcDbSpline
 70
8
 71
3
 72
8
 73
4
 74
0
 40
0
 40
0
 40
0
 40
0
 40
1
 40
1
 40
1
 40
1
 10
169.500000
 20
73.740157
 30
0.0
 10
169.500000
 20
74.845157
 30
0.0
 10
170.395000
 20
75.740157
 30
0.0
 10
171.500000
 20
75.740157
 30
0.0
  0
SPLINE
  5
119
100
AcDbEntity
  8
0
 62
7
100
AcDbSpline
 70
8
 71
3
 72
8
 73
4
 74
0
 40
0
 40
0
 40
0
 40
0
 40
1
 40
1
 40
1
 40
1
 10
171.500000
 20
75.740157
 30
0.0
 10
172.605000
 20
75.740157
 30
0.0
 10
173.500000
 20
74.845157
 30
0.0
 10
173.500000
 20
73.740157
 30
0.0
  0
SPLINE
  5
11a
100
AcDbEntity
  8
0
 62
7
100
AcDbSpline
 70
8
 71
3
 72
8
 73
4
 74
0
 40
0
 40
0
 40
0
 40
0
 40
1
 40
1
 40
1
 40
1
 10
113.000000
 20
108.740157
 30
0.0
 10
113.000000
 20
107.635157
 30
0.0
 10
112.105000
 20
106.740157
 30
0.0
 10
111.000000
 20
106.740157
 30
0.0
  0
SPLINE
  5
11b
100
AcDbEntity
  8
0
 62
7
100
AcDbSpline
 70
8
 71
3
 72
8
 73
4
 74
0
 40
0
 40
0
 40
0
 40
0
 40
1
 40
1
 40
1
 40
1
 10
111.000000
 20
106.740157
 30
0.0
 10
109.895000
 20
106.740157
 30
0.0
 10
109.000000
 20
107.635157
 30
0.0
 10
109.000000
 20
108.740157
 30
0.0
  0
SPLINE
  5
11c
100
AcDbEntity
  8
0
 62
7
100
AcDbSpline
 70
8
 71
3
 72
8
 73
4
 74
0
 40
0
 40
0
 40
0
 40
0
 40
1
 40
1
 40
1
 40
1
 10
109.000000
 20
108.740157
 30
0.0
 10
109.000000
 20
109.845157
 30
0.0
 10
109.895000
 20
110.740157
 30
0.0
 10
111.000000
 20
110.740157
 30
0.0
  0
SPLINE
  5
11d
100
AcDbEntity
  8
0
 62
7
100
AcDbSpline
 70
8
 71
3
 72
8
 73
4
 74
0
 40
0
 40
0
 40
0
 40
0
 40
1
 40
1
 40
1
 40
1
 10
111.000000
 20
110.740157
 30
0.0
 10
112.105000
 20
110.740157
 30
0.0
 10
113.000000
 20
109.845157
 30
0.0
 10
113.000000
 20
108.740157
 30
0.0
  0
SPLINE
  5
11e
100
AcDbEntity
  8
0
 62
7
100
AcDbSpline
 70
8
 71
3
 72
8
 73
4
 74
0
 40
0
 40
0
 40
0
 40
0
 40
1
 40
1
 40
1
 40
1
 10
359.000000
 20
-199.759843
 30
0.0
 10
359.000000
 20
-200.864843
 30
0.0
 10
358.104600
 20
-201.759843
 30
0.0
 10
357.000000
 20
-201.759843
 30
0.0
  0
SPLINE
  5
11f
100
AcDbEntity
  8
0
 62
7
100
AcDbSpline
 70
8
 71
3
 72
8
 73
4
 74
0
 40
0
 40
0
 40
0
 40
0
 40
1
 40
1
 40
1
 40
1
 10
357.000000
 20
-201.759843
 30
0.0
 10
355.895400
 20
-201.759843
 30
0.0
 10
355.000000
 20
-200.864843
 30
0.0
 10
355.000000
 20
-199.759843
 30
0.0
  0
SPLINE
  5
120
100
AcDbEntity
  8
0
 62
7
100
AcDbSpline
 70
8
 71
3
 72
8
 73
4
 74
0
 40
0
 40
0
 40
0
 40
0
 40
1
 40
1
 40
1
 40
1
 10
355.000000
 20
-199.759843
 30
0.0
 10
355.000000
 20
-198.654843
 30
0.0
 10
355.895400
 20
-197.759843
 30
0.0
 10
357.000000
 20
-197.759843
 30
0.0
  0
SPLINE
  5
121
100
AcDbEntity
  8
0
 62
7
100
AcDbSpline
 70
8
 71
3
 72
8
 73
4
 74
0
 40
0
 40
0
 40
0
 40
0
 40
1
 40
1
 40
1
 40
1
 10
357.000000
 20
-197.759843
 30
0.0
 10
358.104600
 20
-197.759843
 30
0.0
 10
359.000000
 20
-198.654843
 30
0.0
 10
359.000000
 20
-199.759843
 30
0.0
  0
SPLINE
  5
122
100
AcDbEntity
  8
0
 62
7
100
AcDbSpline
 70
8
 71
3
 72
8
 73
4
 74
0
 40
0
 40
0
 40
0
 40
0
 40
1
 40
1
 40
1
 40
1
 10
390.000000
 20
-199.759843
 30
0.0
 10
390.000000
 20
-200.864843
 30
0.0
 10
389.104600
 20
-201.759843
 30
0.0
 10
388.000000
 20
-201.759843
 30
0.0
  0
SPLINE
  5
123
100
AcDbEntity
  8
0
 62
7
100
AcDbSpline
 70
8
 71
3
 72
8
 73
4
 74
0
 40
0
 40
0
 40
0
 40
0
 40
1
 40
1
 40
1
 40
1
 10
388.000000
 20
-201.759843
 30
0.0
 10
386.895400
 20
-201.759843
 30
0.0
 10
386.000000
 20
-200.864843
 30
0.0
 10
386.000000
 20
-199.759843
 30
0.0
  0
SPLINE
  5
124
100
AcDbEntity
  8
0
 62
7
100
AcDbSpline
 70
8
 71
3
 72
8
 73
4
 74
0
 40
0
 40
0
 40
0
 40
0
 40
1
 40
1
 40
1
 40
1
 10
386.000000
 20
-199.759843
 30
0.0
 10
386.000000
 20
-198.654843
 30
0.0
 10
386.895400
 20
-197.759843
 30
0.0
 10
388.000000
 20
-197.759843
 30
0.0
  0
SPLINE
  5
125
100
AcDbEntity
  8
0
 62
7
100
AcDbSpline
 70
8
 71
3
 72
8
 73
4
 74
0
 40
0
 40
0
 40
0
 40
0
 40
1
 40
1
 40
1
 40
1
 10
388.000000
 20
-197.759843
 30
0.0
 10
389.104600
 20
-197.759843
 30
0.0
 10
390.000000
 20
-198.654843
 30
0.0
 10
390.000000
 20
-199.759843
 30
0.0
  0
SPLINE
  5
126
100
AcDbEntity
  8
0
 62
7
100
AcDbSpline
 70
8
 71
3
 72
8
 73
4
 74
0
 40
0
 40
0
 40
0
 40
0
 40
1
 40
1
 40
1
 40
1
 10
359.000000
 20
-168.759843
 30
0.0
 10
359.000000
 20
-169.864843
 30
0.0
 10
358.104600
 20
-170.759843
 30
0.0
 10
357.000000
 20
-170.759843
 30
0.0
  0
SPLINE
  5
127
100
AcDbEntity
  8
0
 62
7
100
AcDbSpline
 70
8
 71
3
 72
8
 73
4
 74
0
 40
0
 40
0
 40
0
 40
0
 40
1
 40
1
 40
1
 40
1
 10
357.000000
 20
-170.759843
 30
0.0
 10
355.895400
 20
-170.759843
 30
0.0
 10
355.000000
 20
-169.864843
 30
0.0
 10
355.000000
 20
-168.759843
 30
0.0
  0
SPLINE
  5
128
100
AcDbEntity
  8
0
 62
7
100
AcDbSpline
 70
8
 71
3
 72
8
 73
4
 74
0
 40
0
 40
0
 40
0
 40
0
 40
1
 40
1
 40
1
 40
1
 10
355.000000
 20
-168.759843
 30
0.0
 10
355.000000
 20
-167.654843
 30
0.0
 10
355.895400
 20
-166.759843
 30
0.0
 10
357.000000
 20
-166.759843
 30
0.0
  0
SPLINE
  5
129
100
AcDbEntity
  8
0
 62
7
100
AcDbSpline
 70
8
 71
3
 72
8
 73
4
 74
0
 40
0
 40
0
 40
0
 40
0
 40
1
 40
1
 40
1
 40
1
 10
357.000000
 20
-166.759843
 30
0.0
 10
358.104600
 20
-166.759843
 30
0.0
 10
359.000000
 20
-167.654843
 30
0.0
 10
359.000000
 20
-168.759843
 30
0.0
  0
SPLINE
  5
12a
100
AcDbEntity
  8
0
 62
7
100
AcDbSpline
 70
8
 71
3
 72
8
 73
4
 74
0
 40
0
 40
0
 40
0
 40
0
 40
1
 40
1
 40
1
 40
1
 10
173.500000
 20
113.740157
 30
0.0
 10
173.500000
 20
112.635157
 30
0.0
 10
172.605000
 20
111.740157
 30
0.0
 10
171.500000
 20
111.740157
 30
0.0
  0
SPLINE
  5
12b
100
AcDbEntity
  8
0
 62
7
100
AcDbSpline
 70
8
 71
3
 72
8
 73
4
 74
0
 40
0
 40
0
 40
0
 40
0
 40
1
 40
1
 40
1
 40
1
 10
171.500000
 20
111.740157
 30
0.0
 10
170.395000
 20
111.740157
 30
0.0
 10
169.500000
 20
112.635157
 30
0.0
 10
169.500000
 20
113.740157
 30
0.0
  0
SPLINE
  5
12c
100
AcDbEntity
  8
0
 62
7
100
AcDbSpline
 70
8
 71
3
 72
8
 73
4
 74
0
 40
0
 40
0
 40
0
 40
0
 40
1
 40
1
 40
1
 40
1
 10
169.500000
 20
113.740157
 30
0.0
 10
169.500000
 20
114.845157
 30
0.0
 10
170.395000
 20
115.740157
 30
0.0
 10
171.500000
 20
115.740157
 30
0.0
  0
SPLINE
  5
12d
100
AcDbEntity
  8
0
 62
7
100
AcDbSpline
 70
8
 71
3
 72
8
 73
4
 74
0
 40
0
 40
0
 40
0
 40
0
 40
1
 40
1
 40
1
 40
1
 10
171.500000
 20
115.740157
 30
0.0
 10
172.605000
 20
115.740157
 30
0.0
 10
173.500000
 20
114.845157
 30
0.0
 10
173.500000
 20
113.740157
 30
0.0
  0
SPLINE
  5
12e
100
AcDbEntity
  8
0
 62
7
100
AcDbSpline
 70
8
 71
3
 72
8
 73
4
 74
0
 40
0
 40
0
 40
0
 40
0
 40
1
 40
1
 40
1
 40
1
 10
390.000000
 20
-168.759843
 30
0.0
 10
390.000000
 20
-169.864843
 30
0.0
 10
389.104600
 20
-170.759843
 30
0.0
 10
388.000000
 20
-170.759843
 30
0.0
  0
SPLINE
  5
12f
100
AcDbEntity
  8
0
 62
7
100
AcDbSpline
 70
8
 71
3
 72
8
 73
4
 74
0
 40
0
 40
0
 40
0
 40
0
 40
1
 40
1
 40
1
 40
1
 10
388.000000
 20
-170.759843
 30
0.0
 10
386.895400
 20
-170.759843
 30
0.0
 10
386.000000
 20
-169.864843
 30
0.0
 10
386.000000
 20
-168.759843
 30
0.0
  0
SPLINE
  5
130
100
AcDbEntity
  8
0
 62
7
100
AcDbSpline
 70
8
 71
3
 72
8
 73
4
 74
0
 40
0
 40
0
 40
0
 40
0
 40
1
 40
1
 40
1
 40
1
 10
386.000000
 20
-168.759843
 30
0.0
 10
386.000000
 20
-167.654843
 30
0.0
 10
386.895400
 20
-166.759843
 30
0.0
 10
388.000000
 20
-166.759843
 30
0.0
  0
SPLINE
  5
131
100
AcDbEntity
  8
0
 62
7
100
AcDbSpline
 70
8
 71
3
 72
8
 73
4
 74
0
 40
0
 40
0
 40
0
 40
0
 40
1
 40
1
 40
1
 40
1
 10
388.000000
 20
-166.759843
 30
0.0
 10
389.104600
 20
-166.759843
 30
0.0
 10
390.000000
 20
-167.654843
 30
0.0
 10
390.000000
 20
-168.759843
 30
0.0
  0
SPLINE
  5
132
100
AcDbEntity
  8
0
 62
7
100
AcDbSpline
 70
8
 71
3
 72
8
 73
4
 74
0
 40
0
 40
0
 40
0
 40
0
 40
1
 40
1
 40
1
 40
1
 10
133.750000
 20
77.240157
 30
0.0
 10
133.750000
 20
76.274157
 30
0.0
 10
132.966000
 20
75.490157
 30
0.0
 10
132.000000
 20
75.490157
 30
0.0
  0
SPLINE
  5
133
100
AcDbEntity
  8
0
 62
7
100
AcDbSpline
 70
8
 71
3
 72
8
 73
4
 74
0
 40
0
 40
0
 40
0
 40
0
 40
1
 40
1
 40
1
 40
1
 10
132.000000
 20
75.490157
 30
0.0
 10
131.034000
 20
75.490157
 30
0.0
 10
130.250000
 20
76.274157
 30
0.0
 10
130.250000
 20
77.240157
 30
0.0
  0
SPLINE
  5
134
100
AcDbEntity
  8
0
 62
7
100
AcDbSpline
 70
8
 71
3
 72
8
 73
4
 74
0
 40
0
 40
0
 40
0
 40
0
 40
1
 40
1
 40
1
 40
1
 10
130.250000
 20
77.240157
 30
0.0
 10
130.250000
 20
78.206157
 30
0.0
 10
131.034000
 20
78.990157
 30
0.0
 10
132.000000
 20
78.990157
 30
0.0
  0
SPLINE
  5
135
100
AcDbEntity
  8
0
 62
7
100
AcDbSpline
 70
8
 71
3
 72
8
 73
4
 74
0
 40
0
 40
0
 40
0
 40
0
 40
1
 40
1
 40
1
 40
1
 10
132.000000
 20
78.990157
 30
0.0
 10
132.966000
 20
78.990157
 30
0.0
 10
133.750000
 20
78.206157
 30
0.0
 10
133.750000
 20
77.240157
 30
0.0
  0
SPLINE
  5
136
100
AcDbEntity
  8
0
 62
7
100
AcDbSpline
 70
8
 71
3
 72
8
 73
4
 74
0
 40
0
 40
0
 40
0
 40
0
 40
1
 40
1
 40
1
 40
1
 10
498.750000
 20
77.240157
 30
0.0
 10
498.750000
 20
76.274157
 30
0.0
 10
497.966000
 20
75.490157
 30
0.0
 10
497.000000
 20
75.490157
 30
0.0
  0
SPLINE
  5
137
100
AcDbEntity
  8
0
 62
7
100
AcDbSpline
 70
8
 71
3
 72
8
 73
4
 74
0
 40
0
 40
0
 40
0
 40
0
 40
1
 40
1
 40
1
 40
1
 10
497.000000
 20
75.490157
 30
0.0
 10
496.034000
 20
75.490157
 30
0.0
 10
495.250000
 20
76.274157
 30
0.0
 10
495.250000
 20
77.240157
 30
0.0
  0
SPLINE
  5
138
100
AcDbEntity
  8
0
 62
7
100
AcDbSpline
 70
8
 71
3
 72
8
 73
4
 74
0
 40
0
 40
0
 40
0
 40
0
 40
1
 40
1
 40
1
 40
1
 10
495.250000
 20
77.240157
 30
0.0
 10
495.250000
 20
78.206157
 30
0.0
 10
496.034000
 20
78.990157
 30
0.0
 10
497.000000
 20
78.990157
 30
0.0
  0
SPLINE
  5
139
100
AcDbEntity
  8
0
 62
7
100
AcDbSpline
 70
8
 71
3
 72
8
 73
4
 74
0
 40
0
 40
0
 40
0
 40
0
 40
1
 40
1
 40
1
 40
1
 10
497.000000
 20
78.990157
 30
0.0
 10
497.966000
 20
78.990157
 30
0.0
 10
498.750000
 20
78.206157
 30
0.0
 10
498.750000
 20
77.240157
 30
0.0
  0
SPLINE
  5
13a
100
AcDbEntity
  8
0
 62
7
100
AcDbSpline
 70
8
 71
3
 72
8
 73
4
 74
0
 40
0
 40
0
 40
0
 40
0
 40
1
 40
1
 40
1
 40
1
 10
498.750000
 20
-179.759843
 30
0.0
 10
498.750000
 20
-180.725843
 30
0.0
 10
497.966000
 20
-181.509843
 30
0.0
 10
497.000000
 20
-181.509843
 30
0.0
  0
SPLINE
  5
13b
100
AcDbEntity
  8
0
 62
7
100
AcDbSpline
 70
8
 71
3
 72
8
 73
4
 74
0
 40
0
 40
0
 40
0
 40
0
 40
1
 40
1
 40
1
 40
1
 10
497.000000
 20
-181.509843
 30
0.0
 10
496.034000
 20
-181.509843
 30
0.0
 10
495.250000
 20
-180.725843
 30
0.0
 10
495.250000
 20
-179.759843
 30
0.0
  0
SPLINE
  5
13c
100
AcDbEntity
  8
0
 62
7
100
AcDbSpline
 70
8
 71
3
 72
8
 73
4
 74
0
 40
0
 40
0
 40
0
 40
0
 40
1
 40
1
 40
1
 40
1
 10
495.250000
 20
-179.759843
 30
0.0
 10
495.250000
 20
-178.793843
 30
0.0
 10
496.034000
 20
-178.009843
 30
0.0
 10
497.000000
 20
-178.009843
 30
0.0
  0
SPLINE
  5
13d
100
AcDbEntity
  8
0
 62
7
100
AcDbSpline
 70
8
 71
3
 72
8
 73
4
 74
0
 40
0
 40
0
 40
0
 40
0
 40
1
 40
1
 40
1
 40
1
 10
497.000000
 20
-178.009843
 30
0.0
 10
497.966000
 20
-178.009843
 30
0.0
 10
498.750000
 20
-178.793843
 30
0.0
 10
498.750000
 20
-179.759843
 30
0.0
  0
SPLINE
  5
13e
100
AcDbEntity
  8
0
 62
7
100
AcDbSpline
 70
8
 71
3
 72
8
 73
4
 74
0
 40
0
 40
0
 40
0
 40
0
 40
1
 40
1
 40
1
 40
1
 10
133.750000
 20
-179.759843
 30
0.0
 10
133.750000
 20
-180.725843
 30
0.0
 10
132.966000
 20
-181.509843
 30
0.0
 10
132.000000
 20
-181.509843
 30
0.0
  0
SPLINE
  5
13f
100
AcDbEntity
  8
0
 62
7
100
AcDbSpline
 70
8
 71
3
 72
8
 73
4
 74
0
 40
0
 40
0
 40
0
 40
0
 40
1
 40
1
 40
1
 40
1
 10
132.000000
 20
-181.509843
 30
0.0
 10
131.034000
 20
-181.509843
 30
0.0
 10
130.250000
 20
-180.725843
 30
0.0
 10
130.250000
 20
-179.759843
 30
0.0
  0
SPLINE
  5
140
100
AcDbEntity
  8
0
 62
7
100
AcDbSpline
 70
8
 71
3
 72
8
 73
4
 74
0
 40
0
 40
0
 40
0
 40
0
 40
1
 40
1
 40
1
 40
1
 10
130.250000
 20
-179.759843
 30
0.0
 10
130.250000
 20
-178.793843
 30
0.0
 10
131.034000
 20
-178.009843
 30
0.0
 10
132.000000
 20
-178.009843
 30
0.0
  0
SPLINE
  5
141
100
AcDbEntity
  8
0
 62
7
100
AcDbSpline
 70
8
 71
3
 72
8
 73
4
 74
0
 40
0
 40
0
 40
0
 40
0
 40
1
 40
1
 40
1
 40
1
 10
132.000000
 20
-178.009843
 30
0.0
 10
132.966000
 20
-178.009843
 30
0.0
 10
133.750000
 20
-178.793843
 30
0.0
 10
133.750000
 20
-179.759843
 30
0.0
  0
LWPOLYLINE
  5
142
100
AcDbEntity
  8
0
 62
7
100
AcDbPolyline
 90
4
 70
1
 10
117.500000
 20
87.240157
 30
0.0
 10
117.500000
 20
100.240157
 30
0.0
 10
104.500000
 20
100.240157
 30
0.0
 10
104.500000
 20
87.240157
 30
0.0
  0
LWPOLYLINE
  5
143
100
AcDbEntity
  8
0
 62
7
100
AcDbPolyline
 90
2
 70
0
 10
87.000000
 20
-224.759843
 30
0.0
 10
87.000000
 20
122.240157
 30
0.0
  0
LWPOLYLINE
  5
144
100
AcDbEntity
  8
0
 62
7
100
AcDbPolyline
 90
2
 70
0
 10
507.000000
 20
-224.759843
 30
0.0
 10
87.000000
 20
-224.759843
 30
0.0
  0
SPLINE
  5
145
100
AcDbEntity
  8
0
 62
7
100
AcDbSpline
 70
8
 71
3
 72
8
 73
4
 74
0
 40
0
 40
0
 40
0
 40
0
 40
1
 40
1
 40
1
 40
1
 10
390.000000
 20
-168.759843
 30
0.0
 10
390.000000
 20
-169.864843
 30
0.0
 10
389.104600
 20
-170.759843
 30
0.0
 10
388.000000
 20
-170.759843
 30
0.0
  0
SPLINE
  5
146
100
AcDbEntity
  8
0
 62
7
100
AcDbSpline
 70
8
 71
3
 72
8
 73
4
 74
0
 40
0
 40
0
 40
0
 40
0
 40
1
 40
1
 40
1
 40
1
 10
388.000000
 20
-170.759843
 30
0.0
 10
386.895400
 20
-170.759843
 30
0.0
 10
386.000000
 20
-169.864843
 30
0.0
 10
386.000000
 20
-168.759843
 30
0.0
  0
SPLINE
  5
147
100
AcDbEntity
  8
0
 62
7
100
AcDbSpline
 70
8
 71
3
 72
8
 73
4
 74
0
 40
0
 40
0
 40
0
 40
0
 40
1
 40
1
 40
1
 40
1
 10
386.000000
 20
-168.759843
 30
0.0
 10
386.000000
 20
-167.654843
 30
0.0
 10
386.895400
 20
-166.759843
 30
0.0
 10
388.000000
 20
-166.759843
 30
0.0
  0
SPLINE
  5
148
100
AcDbEntity
  8
0
 62
7
100
AcDbSpline
 70
8
 71
3
 72
8
 73
4
 74
0
 40
0
 40
0
 40
0
 40
0
 40
1
 40
1
 40
1
 40
1
 10
388.000000
 20
-166.759843
 30
0.0
 10
389.104600
 20
-166.759843
 30
0.0
 10
390.000000
 20
-167.654843
 30
0.0
 10
390.000000
 20
-168.759843
 30
0.0
  0
SPLINE
  5
149
100
AcDbEntity
  8
0
 62
7
100
AcDbSpline
 70
8
 71
3
 72
8
 73
4
 74
0
 40
0
 40
0
 40
0
 40
0
 40
1
 40
1
 40
1
 40
1
 10
359.000000
 20
-168.759843
 30
0.0
 10
359.000000
 20
-169.864843
 30
0.0
 10
358.104600
 20
-170.759843
 30
0.0
 10
357.000000
 20
-170.759843
 30
0.0
  0
SPLINE
  5
14a
100
AcDbEntity
  8
0
 62
7
100
AcDbSpline
 70
8
 71
3
 72
8
 73
4
 74
0
 40
0
 40
0
 40
0
 40
0
 40
1
 40
1
 40
1
 40
1
 10
357.000000
 20
-170.759843
 30
0.0
 10
355.895400
 20
-170.759843
 30
0.0
 10
355.000000
 20
-169.864843
 30
0.0
 10
355.000000
 20
-168.759843
 30
0.0
  0
SPLINE
  5
14b
100
AcDbEntity
  8
0
 62
7
100
AcDbSpline
 70
8
 71
3
 72
8
 73
4
 74
0
 40
0
 40
0
 40
0
 40
0
 40
1
 40
1
 40
1
 40
1
 10
355.000000
 20
-168.759843
 30
0.0
 10
355.000000
 20
-167.654843
 30
0.0
 10
355.895400
 20
-166.759843
 30
0.0
 10
357.000000
 20
-166.759843
 30
0.0
  0
SPLINE
  5
14c
100
AcDbEntity
  8
0
 62
7
100
AcDbSpline
 70
8
 71
3
 72
8
 73
4
 74
0
 40
0
 40
0
 40
0
 40
0
 40
1
 40
1
 40
1
 40
1
 10
357.000000
 20
-166.759843
 30
0.0
 10
358.104600
 20
-166.759843
 30
0.0
 10
359.000000
 20
-167.654843
 30
0.0
 10
359.000000
 20
-168.759843
 30
0.0
  0
SPLINE
  5
14d
100
AcDbEntity
  8
0
 62
7
100
AcDbSpline
 70
8
 71
3
 72
8
 73
4
 74
0
 40
0
 40
0
 40
0
 40
0
 40
1
 40
1
 40
1
 40
1
 10
133.750000
 20
-179.759843
 30
0.0
 10
133.750000
 20
-180.725843
 30
0.0
 10
132.966000
 20
-181.509843
 30
0.0
 10
132.000000
 20
-181.509843
 30
0.0
  0
SPLINE
  5
14e
100
AcDbEntity
  8
0
 62
7
100
AcDbSpline
 70
8
 71
3
 72
8
 73
4
 74
0
 40
0
 40
0
 40
0
 40
0
 40
1
 40
1
 40
1
 40
1
 10
132.000000
 20
-181.509843
 30
0.0
 10
131.034000
 20
-181.509843
 30
0.0
 10
130.250000
 20
-180.725843
 30
0.0
 10
130.250000
 20
-179.759843
 30
0.0
  0
SPLINE
  5
14f
100
AcDbEntity
  8
0
 62
7
100
AcDbSpline
 70
8
 71
3
 72
8
 73
4
 74
0
 40
0
 40
0
 40
0
 40
0
 40
1
 40
1
 40
1
 40
1
 10
130.250000
 20
-179.759843
 30
0.0
 10
130.250000
 20
-178.793843
 30
0.0
 10
131.034000
 20
-178.009843
 30
0.0
 10
132.000000
 20
-178.009843
 30
0.0
  0
SPLINE
  5
150
100
AcDbEntity
  8
0
 62
7
100
AcDbSpline
 70
8
 71
3
 72
8
 73
4
 74
0
 40
0
 40
0
 40
0
 40
0
 40
1
 40
1
 40
1
 40
1
 10
132.000000
 20
-178.009843
 30
0.0
 10
132.966000
 20
-178.009843
 30
0.0
 10
133.750000
 20
-178.793843
 30
0.0
 10
133.750000
 20
-179.759843
 30
0.0
  0
SPLINE
  5
151
100
AcDbEntity
  8
0
 62
7
100
AcDbSpline
 70
8
 71
3
 72
8
 73
4
 74
0
 40
0
 40
0
 40
0
 40
0
 40
1
 40
1
 40
1
 40
1
 10
113.000000
 20
78.740157
 30
0.0
 10
113.000000
 20
77.635157
 30
0.0
 10
112.105000
 20
76.740157
 30
0.0
 10
111.000000
 20
76.740157
 30
0.0
  0
SPLINE
  5
152
100
AcDbEntity
  8
0
 62
7
100
AcDbSpline
 70
8
 71
3
 72
8
 73
4
 74
0
 40
0
 40
0
 40
0
 40
0
 40
1
 40
1
 40
1
 40
1
 10
111.000000
 20
76.740157
 30
0.0
 10
109.895000
 20
76.740157
 30
0.0
 10
109.000000
 20
77.635157
 30
0.0
 10
109.000000
 20
78.740157
 30
0.0
  0
SPLINE
  5
153
100
AcDbEntity
  8
0
 62
7
100
AcDbSpline
 70
8
 71
3
 72
8
 73
4
 74
0
 40
0
 40
0
 40
0
 40
0
 40
1
 40
1
 40
1
 40
1
 10
109.000000
 20
78.740157
 30
0.0
 10
109.000000
 20
79.845157
 30
0.0
 10
109.895000
 20
80.740157
 30
0.0
 10
111.000000
 20
80.740157
 30
0.0
  0
SPLINE
  5
154
100
AcDbEntity
  8
0
 62
7
100
AcDbSpline
 70
8
 71
3
 72
8
 73
4
 74
0
 40
0
 40
0
 40
0
 40
0
 40
1
 40
1
 40
1
 40
1
 10
111.000000
 20
80.740157
 30
0.0
 10
112.105000
 20
80.740157
 30
0.0
 10
113.000000
 20
79.845157
 30
0.0
 10
113.000000
 20
78.740157
 30
0.0
  0
SPLINE
  5
155
100
AcDbEntity
  8
0
 62
7
100
AcDbSpline
 70
8
 71
3
 72
8
 73
4
 74
0
 40
0
 40
0
 40
0
 40
0
 40
1
 40
1
 40
1
 40
1
 10
133.750000
 20
77.240157
 30
0.0
 10
133.750000
 20
76.274157
 30
0.0
 10
132.966000
 20
75.490157
 30
0.0
 10
132.000000
 20
75.490157
 30
0.0
  0
SPLINE
  5
156
100
AcDbEntity
  8
0
 62
7
100
AcDbSpline
 70
8
 71
3
 72
8
 73
4
 74
0
 40
0
 40
0
 40
0
 40
0
 40
1
 40
1
 40
1
 40
1
 10
132.000000
 20
75.490157
 30
0.0
 10
131.034000
 20
75.490157
 30
0.0
 10
130.250000
 20
76.274157
 30
0.0
 10
130.250000
 20
77.240157
 30
0.0
  0
SPLINE
  5
157
100
AcDbEntity
  8
0
 62
7
100
AcDbSpline
 70
8
 71
3
 72
8
 73
4
 74
0
 40
0
 40
0
 40
0
 40
0
 40
1
 40
1
 40
1
 40
1
 10
130.250000
 20
77.240157
 30
0.0
 10
130.250000
 20
78.206157
 30
0.0
 10
131.034000
 20
78.990157
 30
0.0
 10
132.000000
 20
78.990157
 30
0.0
  0
SPLINE
  5
158
100
AcDbEntity
  8
0
 62
7
100
AcDbSpline
 70
8
 71
3
 72
8
 73
4
 74
0
 40
0
 40
0
 40
0
 40
0
 40
1
 40
1
 40
1
 40
1
 10
132.000000
 20
78.990157
 30
0.0
 10
132.966000
 20
78.990157
 30
0.0
 10
133.750000
 20
78.206157
 30
0.0
 10
133.750000
 20
77.240157
 30
0.0
  0
SPLINE
  5
159
100
AcDbEntity
  8
0
 62
7
100
AcDbSpline
 70
8
 71
3
 72
8
 73
4
 74
0
 40
0
 40
0
 40
0
 40
0
 40
1
 40
1
 40
1
 40
1
 10
113.000000
 20
108.740157
 30
0.0
 10
113.000000
 20
107.635157
 30
0.0
 10
112.105000
 20
106.740157
 30
0.0
 10
111.000000
 20
106.740157
 30
0.0
  0
SPLINE
  5
15a
100
AcDbEntity
  8
0
 62
7
100
AcDbSpline
 70
8
 71
3
 72
8
 73
4
 74
0
 40
0
 40
0
 40
0
 40
0
 40
1
 40
1
 40
1
 40
1
 10
111.000000
 20
106.740157
 30
0.0
 10
109.895000
 20
106.740157
 30
0.0
 10
109.000000
 20
107.635157
 30
0.0
 10
109.000000
 20
108.740157
 30
0.0
  0
SPLINE
  5
15b
100
AcDbEntity
  8
0
 62
7
100
AcDbSpline
 70
8
 71
3
 72
8
 73
4
 74
0
 40
0
 40
0
 40
0
 40
0
 40
1
 40
1
 40
1
 40
1
 10
109.000000
 20
108.740157
 30
0.0
 10
109.000000
 20
109.845157
 30
0.0
 10
109.895000
 20
110.740157
 30
0.0
 10
111.000000
 20
110.740157
 30
0.0
  0
SPLINE
  5
15c
100
AcDbEntity
  8
0
 62
7
100
AcDbSpline
 70
8
 71
3
 72
8
 73
4
 74
0
 40
0
 40
0
 40
0
 40
0
 40
1
 40
1
 40
1
 40
1
 10
111.000000
 20
110.740157
 30
0.0
 10
112.105000
 20
110.740157
 30
0.0
 10
113.000000
 20
109.845157
 30
0.0
 10
113.000000
 20
108.740157
 30
0.0
  0
SPLINE
  5
15d
100
AcDbEntity
  8
0
 62
7
100
AcDbSpline
 70
8
 71
3
 72
8
 73
4
 74
0
 40
0
 40
0
 40
0
 40
0
 40
1
 40
1
 40
1
 40
1
 10
173.500000
 20
73.740157
 30
0.0
 10
173.500000
 20
72.635157
 30
0.0
 10
172.605000
 20
71.740157
 30
0.0
 10
171.500000
 20
71.740157
 30
0.0
  0
SPLINE
  5
15e
100
AcDbEntity
  8
0
 62
7
100
AcDbSpline
 70
8
 71
3
 72
8
 73
4
 74
0
 40
0
 40
0
 40
0
 40
0
 40
1
 40
1
 40
1
 40
1
 10
171.500000
 20
71.740157
 30
0.0
 10
170.395000
 20
71.740157
 30
0.0
 10
169.500000
 20
72.635157
 30
0.0
 10
169.500000
 20
73.740157
 30
0.0
  0
SPLINE
  5
15f
100
AcDbEntity
  8
0
 62
7
100
AcDbSpline
 70
8
 71
3
 72
8
 73
4
 74
0
 40
0
 40
0
 40
0
 40
0
 40
1
 40
1
 40
1
 40
1
 10
169.500000
 20
73.740157
 30
0.0
 10
169.500000
 20
74.845157
 30
0.0
 10
170.395000
 20
75.740157
 30
0.0
 10
171.500000
 20
75.740157
 30
0.0
  0
SPLINE
  5
160
100
AcDbEntity
  8
0
 62
7
100
AcDbSpline
 70
8
 71
3
 72
8
 73
4
 74
0
 40
0
 40
0
 40
0
 40
0
 40
1
 40
1
 40
1
 40
1
 10
171.500000
 20
75.740157
 30
0.0
 10
172.605000
 20
75.740157
 30
0.0
 10
173.500000
 20
74.845157
 30
0.0
 10
173.500000
 20
73.740157
 30
0.0
  0
LWPOLYLINE
  5
161
100
AcDbEntity
  8
0
 62
7
100
AcDbPolyline
 90
3
 70
0
 10
87.000000
 20
122.240157
 30
0.0
 10
507.000000
 20
122.240157
 30
0.0
 10
507.000000
 20
-224.759843
 30
0.0
  0
LWPOLYLINE
  5
162
100
AcDbEntity
  8
0
 62
7
100
AcDbPolyline
 90
2
 70
0
 10
147.000000
 20
79.240157
 30
0.0
 10
196.000000
 20
79.240157
 30
0.0
  0
LWPOLYLINE
  5
163
100
AcDbEntity
  8
0
 62
7
100
AcDbPolyline
 90
2
 70
0
 10
147.000000
 20
108.240157
 30
0.0
 10
147.000000
 20
79.240157
 30
0.0
  0
LWPOLYLINE
  5
164
100
AcDbEntity
  8
0
 62
7
100
AcDbPolyline
 90
2
 70
0
 10
196.000000
 20
108.240157
 30
0.0
 10
147.000000
 20
108.240157
 30
0.0
  0
SPLINE
  5
165
100
AcDbEntity
  8
0
 62
7
100
AcDbSpline
 70
8
 71
3
 72
8
 73
4
 74
0
 40
0
 40
0
 40
0
 40
0
 40
1
 40
1
 40
1
 40
1
 10
448.000000
 20
-174.759843
 30
0.0
 10
449.657000
 20
-174.759843
 30
0.0
 10
451.000000
 20
-176.102843
 30
0.0
 10
451.000000
 20
-177.759843
 30
0.0
  0
SPLINE
  5
166
100
AcDbEntity
  8
0
 62
7
100
AcDbSpline
 70
8
 71
3
 72
8
 73
4
 74
0
 40
0
 40
0
 40
0
 40
0
 40
1
 40
1
 40
1
 40
1
 10
451.000000
 20
-177.759843
 30
0.0
 10
451.000000
 20
-179.416843
 30
0.0
 10
449.657000
 20
-180.759843
 30
0.0
 10
448.000000
 20
-180.759843
 30
0.0
  0
LWPOLYLINE
  5
167
100
AcDbEntity
  8
0
 62
7
100
AcDbPolyline
 90
2
 70
0
 10
196.000000
 20
79.240157
 30
0.0
 10
196.000000
 20
108.240157
 30
0.0
  0
LWPOLYLINE
  5
168
100
AcDbEntity
  8
0
 62
7
100
AcDbPolyline
 90
2
 70
0
 10
448.000000
 20
-174.759843
 30
0.0
 10
423.000000
 20
-174.759843
 30
0.0
  0
SPLINE
  5
169
100
AcDbEntity
  8
0
 62
7
100
AcDbSpline
 70
8
 71
3
 72
8
 73
4
 74
0
 40
0
 40
0
 40
0
 40
0
 40
1
 40
1
 40
1
 40
1
 10
423.000000
 20
-180.759843
 30
0.0
 10
421.343000
 20
-180.759843
 30
0.0
 10
420.000000
 20
-179.416843
 30
0.0
 10
420.000000
 20
-177.759843
 30
0.0
  0
SPLINE
  5
16a
100
AcDbEntity
  8
0
 62
7
100
AcDbSpline
 70
8
 71
3
 72
8
 73
4
 74
0
 40
0
 40
0
 40
0
 40
0
 40
1
 40
1
 40
1
 40
1
 10
420.000000
 20
-177.759843
 30
0.0
 10
420.000000
 20
-176.102843
 30
0.0
 10
421.343000
 20
-174.759843
 30
0.0
 10
423.000000
 20
-174.759843
 30
0.0
  0
SPLINE
  5
16b
100
AcDbEntity
  8
0
 62
7
100
AcDbSpline
 70
8
 71
3
 72
8
 73
4
 74
0
 40
0
 40
0
 40
0
 40
0
 40
1
 40
1
 40
1
 40
1
 10
359.000000
 20
-199.759843
 30
0.0
 10
359.000000
 20
-200.864843
 30
0.0
 10
358.104600
 20
-201.759843
 30
0.0
 10
357.000000
 20
-201.759843
 30
0.0
  0
SPLINE
  5
16c
100
AcDbEntity
  8
0
 62
7
100
AcDbSpline
 70
8
 71
3
 72
8
 73
4
 74
0
 40
0
 40
0
 40
0
 40
0
 40
1
 40
1
 40
1
 40
1
 10
357.000000
 20
-201.759843
 30
0.0
 10
355.895400
 20
-201.759843
 30
0.0
 10
355.000000
 20
-200.864843
 30
0.0
 10
355.000000
 20
-199.759843
 30
0.0
  0
SPLINE
  5
16d
100
AcDbEntity
  8
0
 62
7
100
AcDbSpline
 70
8
 71
3
 72
8
 73
4
 74
0
 40
0
 40
0
 40
0
 40
0
 40
1
 40
1
 40
1
 40
1
 10
355.000000
 20
-199.759843
 30
0.0
 10
355.000000
 20
-198.654843
 30
0.0
 10
355.895400
 20
-197.759843
 30
0.0
 10
357.000000
 20
-197.759843
 30
0.0
  0
SPLINE
  5
16e
100
AcDbEntity
  8
0
 62
7
100
AcDbSpline
 70
8
 71
3
 72
8
 73
4
 74
0
 40
0
 40
0
 40
0
 40
0
 40
1
 40
1
 40
1
 40
1
 10
357.000000
 20
-197.759843
 30
0.0
 10
358.104600
 20
-197.759843
 30
0.0
 10
359.000000
 20
-198.654843
 30
0.0
 10
359.000000
 20
-199.759843
 30
0.0
  0
SPLINE
  5
16f
100
AcDbEntity
  8
0
 62
7
100
AcDbSpline
 70
8
 71
3
 72
8
 73
4
 74
0
 40
0
 40
0
 40
0
 40
0
 40
1
 40
1
 40
1
 40
1
 10
390.000000
 20
-199.759843
 30
0.0
 10
390.000000
 20
-200.864843
 30
0.0
 10
389.104600
 20
-201.759843
 30
0.0
 10
388.000000
 20
-201.759843
 30
0.0
  0
SPLINE
  5
170
100
AcDbEntity
  8
0
 62
7
100
AcDbSpline
 70
8
 71
3
 72
8
 73
4
 74
0
 40
0
 40
0
 40
0
 40
0
 40
1
 40
1
 40
1
 40
1
 10
388.000000
 20
-201.759843
 30
0.0
 10
386.895400
 20
-201.759843
 30
0.0
 10
386.000000
 20
-200.864843
 30
0.0
 10
386.000000
 20
-199.759843
 30
0.0
  0
SPLINE
  5
171
100
AcDbEntity
  8
0
 62
7
100
AcDbSpline
 70
8
 71
3
 72
8
 73
4
 74
0
 40
0
 40
0
 40
0
 40
0
 40
1
 40
1
 40
1
 40
1
 10
386.000000
 20
-199.759843
 30
0.0
 10
386.000000
 20
-198.654843
 30
0.0
 10
386.895400
 20
-197.759843
 30
0.0
 10
388.000000
 20
-197.759843
 30
0.0
  0
SPLINE
  5
172
100
AcDbEntity
  8
0
 62
7
100
AcDbSpline
 70
8
 71
3
 72
8
 73
4
 74
0
 40
0
 40
0
 40
0
 40
0
 40
1
 40
1
 40
1
 40
1
 10
388.000000
 20
-197.759843
 30
0.0
 10
389.104600
 20
-197.759843
 30
0.0
 10
390.000000
 20
-198.654843
 30
0.0
 10
390.000000
 20
-199.759843
 30
0.0
  0
SPLINE
  5
173
100
AcDbEntity
  8
0
 62
7
100
AcDbSpline
 70
8
 71
3
 72
8
 73
4
 74
0
 40
0
 40
0
 40
0
 40
0
 40
1
 40
1
 40
1
 40
1
 10
384.500000
 20
-184.259843
 30
0.0
 10
384.500000
 20
-190.886843
 30
0.0
 10
379.127400
 20
-196.259843
 30
0.0
 10
372.500000
 20
-196.259843
 30
0.0
  0
SPLINE
  5
174
100
AcDbEntity
  8
0
 62
7
100
AcDbSpline
 70
8
 71
3
 72
8
 73
4
 74
0
 40
0
 40
0
 40
0
 40
0
 40
1
 40
1
 40
1
 40
1
 10
372.500000
 20
-196.259843
 30
0.0
 10
365.872600
 20
-196.259843
 30
0.0
 10
360.500000
 20
-190.886843
 30
0.0
 10
360.500000
 20
-184.259843
 30
0.0
  0
SPLINE
  5
175
100
AcDbEntity
  8
0
 62
7
100
AcDbSpline
 70
8
 71
3
 72
8
 73
4
 74
0
 40
0
 40
0
 40
0
 40
0
 40
1
 40
1
 40
1
 40
1
 10
360.500000
 20
-184.259843
 30
0.0
 10
360.500000
 20
-177.632843
 30
0.0
 10
365.872600
 20
-172.259843
 30
0.0
 10
372.500000
 20
-172.259843
 30
0.0
  0
SPLINE
  5
176
100
AcDbEntity
  8
0
 62
7
100
AcDbSpline
 70
8
 71
3
 72
8
 73
4
 74
0
 40
0
 40
0
 40
0
 40
0
 40
1
 40
1
 40
1
 40
1
 10
372.500000
 20
-172.259843
 30
0.0
 10
379.127400
 20
-172.259843
 30
0.0
 10
384.500000
 20
-177.632843
 30
0.0
 10
384.500000
 20
-184.259843
 30
0.0
  0
SPLINE
  5
177
100
AcDbEntity
  8
0
 62
7
100
AcDbSpline
 70
8
 71
3
 72
8
 73
4
 74
0
 40
0
 40
0
 40
0
 40
0
 40
1
 40
1
 40
1
 40
1
 10
448.000000
 20
-187.759843
 30
0.0
 10
449.657000
 20
-187.759843
 30
0.0
 10
451.000000
 20
-189.102843
 30
0.0
 10
451.000000
 20
-190.759843
 30
0.0
  0
SPLINE
  5
178
100
AcDbEntity
  8
0
 62
7
100
AcDbSpline
 70
8
 71
3
 72
8
 73
4
 74
0
 40
0
 40
0
 40
0
 40
0
 40
1
 40
1
 40
1
 40
1
 10
451.000000
 20
-190.759843
 30
0.0
 10
451.000000
 20
-192.416843
 30
0.0
 10
449.657000
 20
-193.759843
 30
0.0
 10
448.000000
 20
-193.759843
 30
0.0
  0
LWPOLYLINE
  5
179
100
AcDbEntity
  8
0
 62
7
100
AcDbPolyline
 90
2
 70
0
 10
448.000000
 20
-180.759843
 30
0.0
 10
423.000000
 20
-180.759843
 30
0.0
  0
LWPOLYLINE
  5
17a
100
AcDbEntity
  8
0
 62
7
100
AcDbPolyline
 90
2
 70
0
 10
448.000000
 20
-187.759843
 30
0.0
 10
423.000000
 20
-187.759843
 30
0.0
  0
SPLINE
  5
17b
100
AcDbEntity
  8
0
 62
7
100
AcDbSpline
 70
8
 71
3
 72
8
 73
4
 74
0
 40
0
 40
0
 40
0
 40
0
 40
1
 40
1
 40
1
 40
1
 10
423.000000
 20
-193.759843
 30
0.0
 10
421.343000
 20
-193.759843
 30
0.0
 10
420.000000
 20
-192.416843
 30
0.0
 10
420.000000
 20
-190.759843
 30
0.0
  0
SPLINE
  5
17c
100
AcDbEntity
  8
0
 62
7
100
AcDbSpline
 70
8
 71
3
 72
8
 73
4
 74
0
 40
0
 40
0
 40
0
 40
0
 40
1
 40
1
 40
1
 40
1
 10
420.000000
 20
-190.759843
 30
0.0
 10
420.000000
 20
-189.102843
 30
0.0
 10
421.343000
 20
-187.759843
 30
0.0
 10
423.000000
 20
-187.759843
 30
0.0
  0
LWPOLYLINE
  5
17d
100
AcDbEntity
  8
0
 62
7
100
AcDbPolyline
 90
2
 70
0
 10
448.000000
 20
-193.759843
 30
0.0
 10
423.000000
 20
-193.759843
 30
0.0
  0
LWPOLYLINE
  5
17e
100
AcDbEntity
  8
0
 62
7
100
AcDbPolyline
 90
2
 70
0
 10
104.500000
 20
87.240157
 30
0.0
 10
117.500000
 20
87.240157
 30
0.0
  0
LWPOLYLINE
  5
17f
100
AcDbEntity
  8
0
 62
7
100
AcDbPolyline
 90
2
 70
0
 10
104.500000
 20
100.240157
 30
0.0
 10
104.500000
 20
87.240157
 30
0.0
  0
LWPOLYLINE
  5
180
100
AcDbEntity
  8
0
 62
7
100
AcDbPolyline
 90
2
 70
0
 10
117.500000
 20
100.240157
 30
0.0
 10
104.500000
 20
100.240157
 30
0.0
  0
SPLINE
  5
181
100
AcDbEntity
  8
0
 62
7
100
AcDbSpline
 70
8
 71
3
 72
8
 73
4
 74
0
 40
0
 40
0
 40
0
 40
0
 40
1
 40
1
 40
1
 40
1
 10
173.500000
 20
113.740157
 30
0.0
 10
173.500000
 20
112.635157
 30
0.0
 10
172.605000
 20
111.740157
 30
0.0
 10
171.500000
 20
111.740157
 30
0.0
  0
SPLINE
  5
182
100
AcDbEntity
  8
0
 62
7
100
AcDbSpline
 70
8
 71
3
 72
8
 73
4
 74
0
 40
0
 40
0
 40
0
 40
0
 40
1
 40
1
 40
1
 40
1
 10
171.500000
 20
111.740157
 30
0.0
 10
170.395000
 20
111.740157
 30
0.0
 10
169.500000
 20
112.635157
 30
0.0
 10
169.500000
 20
113.740157
 30
0.0
  0
SPLINE
  5
183
100
AcDbEntity
  8
0
 62
7
100
AcDbSpline
 70
8
 71
3
 72
8
 73
4
 74
0
 40
0
 40
0
 40
0
 40
0
 40
1
 40
1
 40
1
 40
1
 10
169.500000
 20
113.740157
 30
0.0
 10
169.500000
 20
114.845157
 30
0.0
 10
170.395000
 20
115.740157
 30
0.0
 10
171.500000
 20
115.740157
 30
0.0
  0
SPLINE
  5
184
100
AcDbEntity
  8
0
 62
7
100
AcDbSpline
 70
8
 71
3
 72
8
 73
4
 74
0
 40
0
 40
0
 40
0
 40
0
 40
1
 40
1
 40
1
 40
1
 10
171.500000
 20
115.740157
 30
0.0
 10
172.605000
 20
115.740157
 30
0.0
 10
173.500000
 20
114.845157
 30
0.0
 10
173.500000
 20
113.740157
 30
0.0
  0
SPLINE
  5
185
100
AcDbEntity
  8
0
 62
7
100
AcDbSpline
 70
8
 71
3
 72
8
 73
4
 74
0
 40
0
 40
0
 40
0
 40
0
 40
1
 40
1
 40
1
 40
1
 10
498.750000
 20
-179.759843
 30
0.0
 10
498.750000
 20
-180.725843
 30
0.0
 10
497.966000
 20
-181.509843
 30
0.0
 10
497.000000
 20
-181.509843
 30
0.0
  0
SPLINE
  5
186
100
AcDbEntity
  8
0
 62
7
100
AcDbSpline
 70
8
 71
3
 72
8
 73
4
 74
0
 40
0
 40
0
 40
0
 40
0
 40
1
 40
1
 40
1
 40
1
 10
497.000000
 20
-181.509843
 30
0.0
 10
496.034000
 20
-181.509843
 30
0.0
 10
495.250000
 20
-180.725843
 30
0.0
 10
495.250000
 20
-179.759843
 30
0.0
  0
SPLINE
  5
187
100
AcDbEntity
  8
0
 62
7
100
AcDbSpline
 70
8
 71
3
 72
8
 73
4
 74
0
 40
0
 40
0
 40
0
 40
0
 40
1
 40
1
 40
1
 40
1
 10
495.250000
 20
-179.759843
 30
0.0
 10
495.250000
 20
-178.793843
 30
0.0
 10
496.034000
 20
-178.009843
 30
0.0
 10
497.000000
 20
-178.009843
 30
0.0
  0
SPLINE
  5
188
100
AcDbEntity
  8
0
 62
7
100
AcDbSpline
 70
8
 71
3
 72
8
 73
4
 74
0
 40
0
 40
0
 40
0
 40
0
 40
1
 40
1
 40
1
 40
1
 10
497.000000
 20
-178.009843
 30
0.0
 10
497.966000
 20
-178.009843
 30
0.0
 10
498.750000
 20
-178.793843
 30
0.0
 10
498.750000
 20
-179.759843
 30
0.0
  0
SPLINE
  5
189
100
AcDbEntity
  8
0
 62
7
100
AcDbSpline
 70
8
 71
3
 72
8
 73
4
 74
0
 40
0
 40
0
 40
0
 40
0
 40
1
 40
1
 40
1
 40
1
 10
498.750000
 20
77.240157
 30
0.0
 10
498.750000
 20
76.274157
 30
0.0
 10
497.966000
 20
75.490157
 30
0.0
 10
497.000000
 20
75.490157
 30
0.0
  0
SPLINE
  5
18a
100
AcDbEntity
  8
0
 62
7
100
AcDbSpline
 70
8
 71
3
 72
8
 73
4
 74
0
 40
0
 40
0
 40
0
 40
0
 40
1
 40
1
 40
1
 40
1
 10
497.000000
 20
75.490157
 30
0.0
 10
496.034000
 20
75.490157
 30
0.0
 10
495.250000
 20
76.274157
 30
0.0
 10
495.250000
 20
77.240157
 30
0.0
  0
SPLINE
  5
18b
100
AcDbEntity
  8
0
 62
7
100
AcDbSpline
 70
8
 71
3
 72
8
 73
4
 74
0
 40
0
 40
0
 40
0
 40
0
 40
1
 40
1
 40
1
 40
1
 10
495.250000
 20
77.240157
 30
0.0
 10
495.250000
 20
78.206157
 30
0.0
 10
496.034000
 20
78.990157
 30
0.0
 10
497.000000
 20
78.990157
 30
0.0
  0
SPLINE
  5
18c
100
AcDbEntity
  8
0
 62
7
100
AcDbSpline
 70
8
 71
3
 72
8
 73
4
 74
0
 40
0
 40
0
 40
0
 40
0
 40
1
 40
1
 40
1
 40
1
 10
497.000000
 20
78.990157
 30
0.0
 10
497.966000
 20
78.990157
 30
0.0
 10
498.750000
 20
78.206157
 30
0.0
 10
498.750000
 20
77.240157
 30
0.0
  0
LWPOLYLINE
  5
18d
100
AcDbEntity
  8
0
 62
7
100
AcDbPolyline
 90
2
 70
0
 10
117.500000
 20
87.240157
 30
0.0
 10
117.500000
 20
100.240157
 30
0.0
  0
LWPOLYLINE
  5
18e
100
AcDbEntity
  8
0
 62
7
100
AcDbPolyline
 90
2
 70
0
 10
388.000000
 20
-172.959843
 30
0.0
 10
388.000000
 20
-164.559843
 30
0.0
  0
LWPOLYLINE
  5
18f
100
AcDbEntity
  8
0
 62
7
100
AcDbPolyline
 90
2
 70
0
 10
392.200000
 20
-168.759843
 30
0.0
 10
383.800000
 20
-168.759843
 30
0.0
  0
LWPOLYLINE
  5
190
100
AcDbEntity
  8
0
 62
7
100
AcDbPolyline
 90
2
 70
0
 10
357.000000
 20
-172.959843
 30
0.0
 10
357.000000
 20
-164.559843
 30
0.0
  0
LWPOLYLINE
  5
191
100
AcDbEntity
  8
0
 62
7
100
AcDbPolyline
 90
2
 70
0
 10
361.200000
 20
-168.759843
 30
0.0
 10
352.800000
 20
-168.759843
 30
0.0
  0
LWPOLYLINE
  5
192
100
AcDbEntity
  8
0
 62
7
100
AcDbPolyline
 90
2
 70
0
 10
132.000000
 20
-183.959843
 30
0.0
 10
132.000000
 20
-175.559843
 30
0.0
  0
LWPOLYLINE
  5
193
100
AcDbEntity
  8
0
 62
7
100
AcDbPolyline
 90
2
 70
0
 10
136.200000
 20
-179.759843
 30
0.0
 10
127.800000
 20
-179.759843
 30
0.0
  0
LWPOLYLINE
  5
194
100
AcDbEntity
  8
0
 62
7
100
AcDbPolyline
 90
2
 70
0
 10
111.000000
 20
74.540157
 30
0.0
 10
111.000000
 20
82.940157
 30
0.0
  0
LWPOLYLINE
  5
195
100
AcDbEntity
  8
0
 62
7
100
AcDbPolyline
 90
2
 70
0
 10
115.200000
 20
78.740157
 30
0.0
 10
106.800000
 20
78.740157
 30
0.0
  0
LWPOLYLINE
  5
196
100
AcDbEntity
  8
0
 62
7
100
AcDbPolyline
 90
2
 70
0
 10
132.000000
 20
73.040157
 30
0.0
 10
132.000000
 20
81.440157
 30
0.0
  0
LWPOLYLINE
  5
197
100
AcDbEntity
  8
0
 62
7
100
AcDbPolyline
 90
2
 70
0
 10
136.200000
 20
77.240157
 30
0.0
 10
127.800000
 20
77.240157
 30
0.0
  0
LWPOLYLINE
  5
198
100
AcDbEntity
  8
0
 62
7
100
AcDbPolyline
 90
2
 70
0
 10
111.000000
 20
104.540157
 30
0.0
 10
111.000000
 20
112.940157
 30
0.0
  0
LWPOLYLINE
  5
199
100
AcDbEntity
  8
0
 62
7
100
AcDbPolyline
 90
2
 70
0
 10
115.200000
 20
108.740157
 30
0.0
 10
106.800000
 20
108.740157
 30
0.0
  0
LWPOLYLINE
  5
19a
100
AcDbEntity
  8
0
 62
7
100
AcDbPolyline
 90
2
 70
0
 10
171.500000
 20
69.540157
 30
0.0
 10
171.500000
 20
77.940157
 30
0.0
  0
LWPOLYLINE
  5
19b
100
AcDbEntity
  8
0
 62
7
100
AcDbPolyline
 90
2
 70
0
 10
175.700000
 20
73.740157
 30
0.0
 10
167.300000
 20
73.740157
 30
0.0
  0
LWPOLYLINE
  5
19c
100
AcDbEntity
  8
0
 62
7
100
AcDbPolyline
 90
2
 70
0
 10
448.000000
 20
-181.959843
 30
0.0
 10
448.000000
 20
-173.559843
 30
0.0
  0
LWPOLYLINE
  5
19d
100
AcDbEntity
  8
0
 62
7
100
AcDbPolyline
 90
2
 70
0
 10
452.200000
 20
-177.759843
 30
0.0
 10
443.800000
 20
-177.759843
 30
0.0
  0
LWPOLYLINE
  5
19e
100
AcDbEntity
  8
0
 62
7
100
AcDbPolyline
 90
2
 70
0
 10
423.000000
 20
-181.959843
 30
0.0
 10
423.000000
 20
-173.559843
 30
0.0
  0
LWPOLYLINE
  5
19f
100
AcDbEntity
  8
0
 62
7
100
AcDbPolyline
 90
2
 70
0
 10
427.200000
 20
-177.759843
 30
0.0
 10
418.800000
 20
-177.759843
 30
0.0
  0
LWPOLYLINE
  5
1a0
100
AcDbEntity
  8
0
 62
7
100
AcDbPolyline
 90
2
 70
0
 10
357.000000
 20
-203.959843
 30
0.0
 10
357.000000
 20
-195.559843
 30
0.0
  0
LWPOLYLINE
  5
1a1
100
AcDbEntity
  8
0
 62
7
100
AcDbPolyline
 90
2
 70
0
 10
361.200000
 20
-199.759843
 30
0.0
 10
352.800000
 20
-199.759843
 30
0.0
  0
LWPOLYLINE
  5
1a2
100
AcDbEntity
  8
0
 62
7
100
AcDbPolyline
 90
2
 70
0
 10
388.000000
 20
-203.959843
 30
0.0
 10
388.000000
 20
-195.559843
 30
0.0
  0
LWPOLYLINE
  5
1a3
100
AcDbEntity
  8
0
 62
7
100
AcDbPolyline
 90
2
 70
0
 10
392.200000
 20
-199.759843
 30
0.0
 10
383.800000
 20
-199.759843
 30
0.0
  0
LWPOLYLINE
  5
1a4
100
AcDbEntity
  8
0
 62
7
100
AcDbPolyline
 90
2
 70
0
 10
372.500000
 20
-188.459843
 30
0.0
 10
372.500000
 20
-180.059843
 30
0.0
  0
LWPOLYLINE
  5
1a5
100
AcDbEntity
  8
0
 62
7
100
AcDbPolyline
 90
2
 70
0
 10
376.700000
 20
-184.259843
 30
0.0
 10
368.300000
 20
-184.259843
 30
0.0
  0
LWPOLYLINE
  5
1a6
100
AcDbEntity
  8
0
 62
7
100
AcDbPolyline
 90
2
 70
0
 10
448.000000
 20
-194.959843
 30
0.0
 10
448.000000
 20
-186.559843
 30
0.0
  0
LWPOLYLINE
  5
1a7
100
AcDbEntity
  8
0
 62
7
100
AcDbPolyline
 90
2
 70
0
 10
452.200000
 20
-190.759843
 30
0.0
 10
443.800000
 20
-190.759843
 30
0.0
  0
LWPOLYLINE
  5
1a8
100
AcDbEntity
  8
0
 62
7
100
AcDbPolyline
 90
2
 70
0
 10
423.000000
 20
-194.959843
 30
0.0
 10
423.000000
 20
-186.559843
 30
0.0
  0
LWPOLYLINE
  5
1a9
100
AcDbEntity
  8
0
 62
7
100
AcDbPolyline
 90
2
 70
0
 10
427.200000
 20
-190.759843
 30
0.0
 10
418.800000
 20
-190.759843
 30
0.0
  0
LWPOLYLINE
  5
1aa
100
AcDbEntity
  8
0
 62
7
100
AcDbPolyline
 90
2
 70
0
 10
171.500000
 20
109.540157
 30
0.0
 10
171.500000
 20
117.940157
 30
0.0
  0
LWPOLYLINE
  5
1ab
100
AcDbEntity
  8
0
 62
7
100
AcDbPolyline
 90
2
 70
0
 10
175.700000
 20
113.740157
 30
0.0
 10
167.300000
 20
113.740157
 30
0.0
  0
LWPOLYLINE
  5
1ac
100
AcDbEntity
  8
0
 62
7
100
AcDbPolyline
 90
2
 70
0
 10
497.000000
 20
-183.959843
 30
0.0
 10
497.000000
 20
-175.559843
 30
0.0
  0
LWPOLYLINE
  5
1ad
100
AcDbEntity
  8
0
 62
7
100
AcDbPolyline
 90
2
 70
0
 10
501.200000
 20
-179.759843
 30
0.0
 10
492.800000
 20
-179.759843
 30
0.0
  0
LWPOLYLINE
  5
1ae
100
AcDbEntity
  8
0
 62
7
100
AcDbPolyline
 90
2
 70
0
 10
497.000000
 20
73.040157
 30
0.0
 10
497.000000
 20
81.440157
 30
0.0
  0
LWPOLYLINE
  5
1af
100
AcDbEntity
  8
0
 62
7
100
AcDbPolyline
 90
2
 70
0
 10
501.200000
 20
77.240157
 30
0.0
 10
492.800000
 20
77.240157
 30
0.0
  0
ENDSEC
  0
SECTION
  2
OBJECTS
  0
DICTIONARY
  5
C
330
0
100
AcDbDictionary
  3
ACAD_GROUP
350
D
  3
ACAD_MLINESTYLE
350
17
  0
DICTIONARY
  5
D
330
C
100
AcDbDictionary
  0
DICTIONARY
  5
1A
330
C
100
AcDbDictionary
  0
DICTIONARY
  5
17
330
C
100
AcDbDictionary
  3
STANDARD
350
18
  0
DICTIONARY
  5
19
330
C
100
AcDbDictionary
  0
ENDSEC
  0
EOF
