  0
SECTION
  2
HEADER
  9
$ACADVER
  1
AC1014
  9
$HANDSEED
  5
FFFF
  9
$MEASUREMENT
 70
     1
  0
ENDSEC
  0
SECTION
  2
TABLES
  0
TABLE
  2
VPORT
  5
8
330
0
100
AcDbSymbolTable
 70
     4
  0
VPORT
  5
2E
330
8
100
AcDbSymbolTableRecord
100
AcDbViewportTableRecord
  2
*ACTIVE
 70
     0
 10
0.0
 20
0.0
 11
1.0
 21
1.0
 12
210.0
 22
148.5
 13
0.0
 23
0.0
 14
10.0
 24
10.0
 15
10.0
 25
10.0
 16
0.0
 26
0.0
 36
1.0
 17
0.0
 27
0.0
 37
0.0
 40
341.0
 41
1.24
 42
50.0
 43
0.0
 44
0.0
 50
0.0
 51
0.0
 71
     0
 72
   100
 73
     1
 74
     3
 75
     0
 76
     0
 77
     0
 78
     0
  0
ENDTAB
  0
TABLE
  2
LTYPE
  5
5
330
0
100
AcDbSymbolTable
 70
     1
  0
LTYPE
  5
14
330
5
100
AcDbSymbolTableRecord
100
AcDbLinetypeTableRecord
  2
BYBLOCK
 70
     0
  3

 72
    65
 73
     0
 40
0.0
  0
LTYPE
  5
15
330
5
100
AcDbSymbolTableRecord
100
AcDbLinetypeTableRecord
  2
BYLAYER
 70
     0
  3

 72
    65
 73
     0
 40
0.0
  0
LTYPE
  5
16
330
5
100
AcDbSymbolTableRecord
100
AcDbLinetypeTableRecord
  2
CONTINUOUS
 70
     0
  3
Solid line
 72
    65
 73
     0
 40
0.0
  0
ENDTAB
  0
TABLE
  2
LAYER
  5
2
100
AcDbSymbolTable
 70
1
  0
LAYER
  5
50
100
AcDbSymbolTableRecord
100
AcDbLayerTableRecord
  2
0
 70
0
  6
CONTINUOUS
  0
ENDTAB
  0
TABLE
  2
STYLE
  5
3
330
0
100
AcDbSymbolTable
 70
     1
  0
STYLE
  5
11
330
3
100
AcDbSymbolTableRecord
100
AcDbTextStyleTableRecord
  2
STANDARD
 70
     0
 40
0.0
 41
1.0
 50
0.0
 71
     0
 42
2.5
  3
txt
  4

  0
ENDTAB
  0
TABLE
  2
VIEW
  5
6
330
0
100
AcDbSymbolTable
 70
     0
  0
ENDTAB
  0
TABLE
  2
UCS
  5
7
330
0
100
AcDbSymbolTable
 70
     0
  0
ENDTAB
  0
TABLE
  2
APPID
  5
9
330
0
100
AcDbSymbolTable
 70
     2
  0
APPID
  5
12
330
9
100
AcDbSymbolTableRecord
100
AcDbRegAppTableRecord
  2
ACAD
 70
     0
  0
ENDTAB
  0
TABLE
  2
DIMSTYLE
  5
A
330
0
100
AcDbSymbolTable
 70
     1
  0
DIMSTYLE
105
27
330
A
100
AcDbSymbolTableRecord
100
AcDbDimStyleTableRecord
  2
ISO-25
 70
     0
  3

  4

  5

  6

  7

 40
1.0
 41
2.5
 42
0.625
 43
3.75
 44
1.25
 45
0.0
 46
0.0
 47
0.0
 48
0.0
140
2.5
141
2.5
142
0.0
143
0.03937007874016
144
1.0
145
0.0
146
1.0
147
0.625
 71
     0
 72
     0
 73
     0
 74
     0
 75
     0
 76
     0
 77
     1
 78
     8
170
     0
171
     3
172
     1
173
     0
174
     0
175
     0
176
     0
177
     0
178
     0
270
     2
271
     2
272
     2
273
     2
274
     3
340
11
275
     0
280
     0
281
     0
282
     0
283
     0
284
     8
285
     0
286
     0
287
     3
288
     0
  0
ENDTAB
  0
TABLE
  2
BLOCK_RECORD
  5
1
330
0
100
AcDbSymbolTable
 70
     1
  0
BLOCK_RECORD
  5
1F
330
1
100
AcDbSymbolTableRecord
100
AcDbBlockTableRecord
  2
*MODEL_SPACE
  0
BLOCK_RECORD
  5
1B
330
1
100
AcDbSymbolTableRecord
100
AcDbBlockTableRecord
  2
*PAPER_SPACE
  0
ENDTAB
  0
ENDSEC
  0
SECTION
  2
BLOCKS
  0
BLOCK
  5
20
330
1F
100
AcDbEntity
  8
0
100
AcDbBlockBegin
  2
*MODEL_SPACE
 70
     0
 10
0.0
 20
0.0
 30
0.0
  3
*MODEL_SPACE
  1

  0
ENDBLK
  5
21
330
1F
100
AcDbEntity
  8
0
100
AcDbBlockEnd
  0
BLOCK
  5
1C
330
1B
100
AcDbEntity
 67
     1
  8
0
100
AcDbBlockBegin
  2
*PAPER_SPACE
  1

  0
ENDBLK
  5
1D
330
1B
100
AcDbEntity
 67
     1
  8
0
100
AcDbBlockEnd
  0
ENDSEC
  0
SECTION
  2
ENTITIES
  0
SPLINE
  5
100
100
AcDbEntity
  8
0
 62
7
100
AcDbSpline
 70
8
 71
3
 72
8
 73
4
 74
0
 40
0
 40
0
 40
0
 40
0
 40
1
 40
1
 40
1
 40
1
 10
80.000000
 20
-146.748031
 30
0.0
 10
80.000000
 20
-151.995031
 30
0.0
 10
84.253000
 20
-156.248031
 30
0.0
 10
89.500000
 20
-156.248031
 30
0.0
  0
LWPOLYLINE
  5
101
100
AcDbEntity
  8
0
 62
7
100
AcDbPolyline
 90
2
 70
0
 10
80.000000
 20
74.251969
 30
0.0
 10
80.000000
 20
-146.748031
 30
0.0
  0
SPLINE
  5
102
100
AcDbEntity
  8
0
 62
7
100
AcDbSpline
 70
8
 71
3
 72
8
 73
4
 74
0
 40
0
 40
0
 40
0
 40
0
 40
1
 40
1
 40
1
 40
1
 10
330.500000
 20
-156.248031
 30
0.0
 10
335.747000
 20
-156.248031
 30
0.0
 10
340.000000
 20
-151.995031
 30
0.0
 10
340.000000
 20
-146.748031
 30
0.0
  0
LWPOLYLINE
  5
103
100
AcDbEntity
  8
0
 62
7
100
AcDbPolyline
 90
2
 70
0
 10
89.500000
 20
-156.248031
 30
0.0
 10
330.500000
 20
-156.248031
 30
0.0
  0
SPLINE
  5
104
100
AcDbEntity
  8
0
 62
7
100
AcDbSpline
 70
8
 71
3
 72
8
 73
4
 74
0
 40
0
 40
0
 40
0
 40
0
 40
1
 40
1
 40
1
 40
1
 10
340.000000
 20
74.251969
 30
0.0
 10
340.000000
 20
79.498969
 30
0.0
 10
335.747000
 20
83.751969
 30
0.0
 10
330.500000
 20
83.751969
 30
0.0
  0
LWPOLYLINE
  5
105
100
AcDbEntity
  8
0
 62
7
100
AcDbPolyline
 90
2
 70
0
 10
340.000000
 20
-146.748031
 30
0.0
 10
340.000000
 20
74.251969
 30
0.0
  0
SPLINE
  5
106
100
AcDbEntity
  8
0
 62
7
100
AcDbSpline
 70
8
 71
3
 72
8
 73
4
 74
0
 40
0
 40
0
 40
0
 40
0
 40
1
 40
1
 40
1
 40
1
 10
89.500000
 20
83.751969
 30
0.0
 10
84.253000
 20
83.751969
 30
0.0
 10
80.000000
 20
79.498969
 30
0.0
 10
80.000000
 20
74.251969
 30
0.0
  0
SPLINE
  5
107
100
AcDbEntity
  8
0
 62
7
100
AcDbSpline
 70
8
 71
3
 72
8
 73
4
 74
0
 40
0
 40
0
 40
0
 40
0
 40
1
 40
1
 40
1
 40
1
 10
142.100000
 20
71.501969
 30
0.0
 10
142.100000
 20
70.341969
 30
0.0
 10
141.159800
 20
69.401969
 30
0.0
 10
140.000000
 20
69.401969
 30
0.0
  0
SPLINE
  5
108
100
AcDbEntity
  8
0
 62
7
100
AcDbSpline
 70
8
 71
3
 72
8
 73
4
 74
0
 40
0
 40
0
 40
0
 40
0
 40
1
 40
1
 40
1
 40
1
 10
140.000000
 20
69.401969
 30
0.0
 10
138.840200
 20
69.401969
 30
0.0
 10
137.900000
 20
70.341969
 30
0.0
 10
137.900000
 20
71.501969
 30
0.0
  0
SPLINE
  5
109
100
AcDbEntity
  8
0
 62
7
100
AcDbSpline
 70
8
 71
3
 72
8
 73
4
 74
0
 40
0
 40
0
 40
0
 40
0
 40
1
 40
1
 40
1
 40
1
 10
137.900000
 20
71.501969
 30
0.0
 10
137.900000
 20
72.661969
 30
0.0
 10
138.840200
 20
73.601969
 30
0.0
 10
140.000000
 20
73.601969
 30
0.0
  0
SPLINE
  5
10a
100
AcDbEntity
  8
0
 62
7
100
AcDbSpline
 70
8
 71
3
 72
8
 73
4
 74
0
 40
0
 40
0
 40
0
 40
0
 40
1
 40
1
 40
1
 40
1
 10
140.000000
 20
73.601969
 30
0.0
 10
141.159800
 20
73.601969
 30
0.0
 10
142.100000
 20
72.661969
 30
0.0
 10
142.100000
 20
71.501969
 30
0.0
  0
SPLINE
  5
10b
100
AcDbEntity
  8
0
 62
7
100
AcDbSpline
 70
8
 71
3
 72
8
 73
4
 74
0
 40
0
 40
0
 40
0
 40
0
 40
1
 40
1
 40
1
 40
1
 10
307.100000
 20
71.501969
 30
0.0
 10
307.100000
 20
70.341969
 30
0.0
 10
306.159800
 20
69.401969
 30
0.0
 10
305.000000
 20
69.401969
 30
0.0
  0
SPLINE
  5
10c
100
AcDbEntity
  8
0
 62
7
100
AcDbSpline
 70
8
 71
3
 72
8
 73
4
 74
0
 40
0
 40
0
 40
0
 40
0
 40
1
 40
1
 40
1
 40
1
 10
305.000000
 20
69.401969
 30
0.0
 10
303.840200
 20
69.401969
 30
0.0
 10
302.900000
 20
70.341969
 30
0.0
 10
302.900000
 20
71.501969
 30
0.0
  0
SPLINE
  5
10d
100
AcDbEntity
  8
0
 62
7
100
AcDbSpline
 70
8
 71
3
 72
8
 73
4
 74
0
 40
0
 40
0
 40
0
 40
0
 40
1
 40
1
 40
1
 40
1
 10
302.900000
 20
71.501969
 30
0.0
 10
302.900000
 20
72.661969
 30
0.0
 10
303.840200
 20
73.601969
 30
0.0
 10
305.000000
 20
73.601969
 30
0.0
  0
SPLINE
  5
10e
100
AcDbEntity
  8
0
 62
7
100
AcDbSpline
 70
8
 71
3
 72
8
 73
4
 74
0
 40
0
 40
0
 40
0
 40
0
 40
1
 40
1
 40
1
 40
1
 10
305.000000
 20
73.601969
 30
0.0
 10
306.159800
 20
73.601969
 30
0.0
 10
307.100000
 20
72.661969
 30
0.0
 10
307.100000
 20
71.501969
 30
0.0
  0
SPLINE
  5
10f
100
AcDbEntity
  8
0
 62
7
100
AcDbSpline
 70
8
 71
3
 72
8
 73
4
 74
0
 40
0
 40
0
 40
0
 40
0
 40
1
 40
1
 40
1
 40
1
 10
282.100000
 20
71.501969
 30
0.0
 10
282.100000
 20
70.341969
 30
0.0
 10
281.159800
 20
69.401969
 30
0.0
 10
280.000000
 20
69.401969
 30
0.0
  0
SPLINE
  5
110
100
AcDbEntity
  8
0
 62
7
100
AcDbSpline
 70
8
 71
3
 72
8
 73
4
 74
0
 40
0
 40
0
 40
0
 40
0
 40
1
 40
1
 40
1
 40
1
 10
280.000000
 20
69.401969
 30
0.0
 10
278.840200
 20
69.401969
 30
0.0
 10
277.900000
 20
70.341969
 30
0.0
 10
277.900000
 20
71.501969
 30
0.0
  0
SPLINE
  5
111
100
AcDbEntity
  8
0
 62
7
100
AcDbSpline
 70
8
 71
3
 72
8
 73
4
 74
0
 40
0
 40
0
 40
0
 40
0
 40
1
 40
1
 40
1
 40
1
 10
277.900000
 20
71.501969
 30
0.0
 10
277.900000
 20
72.661969
 30
0.0
 10
278.840200
 20
73.601969
 30
0.0
 10
280.000000
 20
73.601969
 30
0.0
  0
SPLINE
  5
112
100
AcDbEntity
  8
0
 62
7
100
AcDbSpline
 70
8
 71
3
 72
8
 73
4
 74
0
 40
0
 40
0
 40
0
 40
0
 40
1
 40
1
 40
1
 40
1
 10
280.000000
 20
73.601969
 30
0.0
 10
281.159800
 20
73.601969
 30
0.0
 10
282.100000
 20
72.661969
 30
0.0
 10
282.100000
 20
71.501969
 30
0.0
  0
SPLINE
  5
113
100
AcDbEntity
  8
0
 62
7
100
AcDbSpline
 70
8
 71
3
 72
8
 73
4
 74
0
 40
0
 40
0
 40
0
 40
0
 40
1
 40
1
 40
1
 40
1
 10
117.100000
 20
71.501969
 30
0.0
 10
117.100000
 20
70.341969
 30
0.0
 10
116.159800
 20
69.401969
 30
0.0
 10
115.000000
 20
69.401969
 30
0.0
  0
SPLINE
  5
114
100
AcDbEntity
  8
0
 62
7
100
AcDbSpline
 70
8
 71
3
 72
8
 73
4
 74
0
 40
0
 40
0
 40
0
 40
0
 40
1
 40
1
 40
1
 40
1
 10
115.000000
 20
69.401969
 30
0.0
 10
113.840200
 20
69.401969
 30
0.0
 10
112.900000
 20
70.341969
 30
0.0
 10
112.900000
 20
71.501969
 30
0.0
  0
SPLINE
  5
115
100
AcDbEntity
  8
0
 62
7
100
AcDbSpline
 70
8
 71
3
 72
8
 73
4
 74
0
 40
0
 40
0
 40
0
 40
0
 40
1
 40
1
 40
1
 40
1
 10
112.900000
 20
71.501969
 30
0.0
 10
112.900000
 20
72.661969
 30
0.0
 10
113.840200
 20
73.601969
 30
0.0
 10
115.000000
 20
73.601969
 30
0.0
  0
SPLINE
  5
116
100
AcDbEntity
  8
0
 62
7
100
AcDbSpline
 70
8
 71
3
 72
8
 73
4
 74
0
 40
0
 40
0
 40
0
 40
0
 40
1
 40
1
 40
1
 40
1
 10
115.000000
 20
73.601969
 30
0.0
 10
116.159800
 20
73.601969
 30
0.0
 10
117.100000
 20
72.661969
 30
0.0
 10
117.100000
 20
71.501969
 30
0.0
  0
SPLINE
  5
117
100
AcDbEntity
  8
0
 62
7
100
AcDbSpline
 70
8
 71
3
 72
8
 73
4
 74
0
 40
0
 40
0
 40
0
 40
0
 40
1
 40
1
 40
1
 40
1
 10
231.000000
 20
-148.248031
 30
0.0
 10
231.000000
 20
-149.353031
 30
0.0
 10
230.104600
 20
-150.248031
 30
0.0
 10
229.000000
 20
-150.248031
 30
0.0
  0
SPLINE
  5
118
100
AcDbEntity
  8
0
 62
7
100
AcDbSpline
 70
8
 71
3
 72
8
 73
4
 74
0
 40
0
 40
0
 40
0
 40
0
 40
1
 40
1
 40
1
 40
1
 10
229.000000
 20
-150.248031
 30
0.0
 10
227.895400
 20
-150.248031
 30
0.0
 10
227.000000
 20
-149.353031
 30
0.0
 10
227.000000
 20
-148.248031
 30
0.0
  0
SPLINE
  5
119
100
AcDbEntity
  8
0
 62
7
100
AcDbSpline
 70
8
 71
3
 72
8
 73
4
 74
0
 40
0
 40
0
 40
0
 40
0
 40
1
 40
1
 40
1
 40
1
 10
227.000000
 20
-148.248031
 30
0.0
 10
227.000000
 20
-147.143031
 30
0.0
 10
227.895400
 20
-146.248031
 30
0.0
 10
229.000000
 20
-146.248031
 30
0.0
  0
SPLINE
  5
11a
100
AcDbEntity
  8
0
 62
7
100
AcDbSpline
 70
8
 71
3
 72
8
 73
4
 74
0
 40
0
 40
0
 40
0
 40
0
 40
1
 40
1
 40
1
 40
1
 10
229.000000
 20
-146.248031
 30
0.0
 10
230.104600
 20
-146.248031
 30
0.0
 10
231.000000
 20
-147.143031
 30
0.0
 10
231.000000
 20
-148.248031
 30
0.0
  0
SPLINE
  5
11b
100
AcDbEntity
  8
0
 62
7
100
AcDbSpline
 70
8
 71
3
 72
8
 73
4
 74
0
 40
0
 40
0
 40
0
 40
0
 40
1
 40
1
 40
1
 40
1
 10
193.000000
 20
-148.248031
 30
0.0
 10
193.000000
 20
-149.353031
 30
0.0
 10
192.104600
 20
-150.248031
 30
0.0
 10
191.000000
 20
-150.248031
 30
0.0
  0
SPLINE
  5
11c
100
AcDbEntity
  8
0
 62
7
100
AcDbSpline
 70
8
 71
3
 72
8
 73
4
 74
0
 40
0
 40
0
 40
0
 40
0
 40
1
 40
1
 40
1
 40
1
 10
191.000000
 20
-150.248031
 30
0.0
 10
189.895400
 20
-150.248031
 30
0.0
 10
189.000000
 20
-149.353031
 30
0.0
 10
189.000000
 20
-148.248031
 30
0.0
  0
SPLINE
  5
11d
100
AcDbEntity
  8
0
 62
7
100
AcDbSpline
 70
8
 71
3
 72
8
 73
4
 74
0
 40
0
 40
0
 40
0
 40
0
 40
1
 40
1
 40
1
 40
1
 10
189.000000
 20
-148.248031
 30
0.0
 10
189.000000
 20
-147.143031
 30
0.0
 10
189.895400
 20
-146.248031
 30
0.0
 10
191.000000
 20
-146.248031
 30
0.0
  0
SPLINE
  5
11e
100
AcDbEntity
  8
0
 62
7
100
AcDbSpline
 70
8
 71
3
 72
8
 73
4
 74
0
 40
0
 40
0
 40
0
 40
0
 40
1
 40
1
 40
1
 40
1
 10
191.000000
 20
-146.248031
 30
0.0
 10
192.104600
 20
-146.248031
 30
0.0
 10
193.000000
 20
-147.143031
 30
0.0
 10
193.000000
 20
-148.248031
 30
0.0
  0
LWPOLYLINE
  5
11f
100
AcDbEntity
  8
0
 62
7
100
AcDbPolyline
 90
2
 70
0
 10
330.500000
 20
83.751969
 30
0.0
 10
89.500000
 20
83.751969
 30
0.0
  0
SPLINE
  5
120
100
AcDbEntity
  8
0
 62
7
100
AcDbSpline
 70
8
 71
3
 72
8
 73
4
 74
0
 40
0
 40
0
 40
0
 40
0
 40
1
 40
1
 40
1
 40
1
 10
80.000000
 20
74.251969
 30
0.0
 10
80.000000
 20
79.498969
 30
0.0
 10
84.253000
 20
83.751969
 30
0.0
 10
89.500000
 20
83.751969
 30
0.0
  0
SPLINE
  5
121
100
AcDbEntity
  8
0
 62
7
100
AcDbSpline
 70
8
 71
3
 72
8
 73
4
 74
0
 40
0
 40
0
 40
0
 40
0
 40
1
 40
1
 40
1
 40
1
 10
80.000000
 20
-146.748031
 30
0.0
 10
80.000000
 20
-151.995031
 30
0.0
 10
84.253000
 20
-156.248031
 30
0.0
 10
89.500000
 20
-156.248031
 30
0.0
  0
LWPOLYLINE
  5
122
100
AcDbEntity
  8
0
 62
7
100
AcDbPolyline
 90
2
 70
0
 10
80.000000
 20
74.251969
 30
0.0
 10
80.000000
 20
-146.748031
 30
0.0
  0
LWPOLYLINE
  5
123
100
AcDbEntity
  8
0
 62
7
100
AcDbPolyline
 90
2
 70
0
 10
330.500000
 20
83.751969
 30
0.0
 10
89.500000
 20
83.751969
 30
0.0
  0
SPLINE
  5
124
100
AcDbEntity
  8
0
 62
7
100
AcDbSpline
 70
8
 71
3
 72
8
 73
4
 74
0
 40
0
 40
0
 40
0
 40
0
 40
1
 40
1
 40
1
 40
1
 10
330.500000
 20
83.751969
 30
0.0
 10
335.747000
 20
83.751969
 30
0.0
 10
340.000000
 20
79.498969
 30
0.0
 10
340.000000
 20
74.251969
 30
0.0
  0
SPLINE
  5
125
100
AcDbEntity
  8
0
 62
7
100
AcDbSpline
 70
8
 71
3
 72
8
 73
4
 74
0
 40
0
 40
0
 40
0
 40
0
 40
1
 40
1
 40
1
 40
1
 10
330.500000
 20
-156.248031
 30
0.0
 10
335.747000
 20
-156.248031
 30
0.0
 10
340.000000
 20
-151.995031
 30
0.0
 10
340.000000
 20
-146.748031
 30
0.0
  0
LWPOLYLINE
  5
126
100
AcDbEntity
  8
0
 62
7
100
AcDbPolyline
 90
2
 70
0
 10
89.500000
 20
-156.248031
 30
0.0
 10
330.500000
 20
-156.248031
 30
0.0
  0
SPLINE
  5
127
100
AcDbEntity
  8
0
 62
7
100
AcDbSpline
 70
8
 71
3
 72
8
 73
4
 74
0
 40
0
 40
0
 40
0
 40
0
 40
1
 40
1
 40
1
 40
1
 10
307.100000
 20
71.501969
 30
0.0
 10
307.100000
 20
70.341969
 30
0.0
 10
306.159800
 20
69.401969
 30
0.0
 10
305.000000
 20
69.401969
 30
0.0
  0
SPLINE
  5
128
100
AcDbEntity
  8
0
 62
7
100
AcDbSpline
 70
8
 71
3
 72
8
 73
4
 74
0
 40
0
 40
0
 40
0
 40
0
 40
1
 40
1
 40
1
 40
1
 10
305.000000
 20
69.401969
 30
0.0
 10
303.840200
 20
69.401969
 30
0.0
 10
302.900000
 20
70.341969
 30
0.0
 10
302.900000
 20
71.501969
 30
0.0
  0
SPLINE
  5
129
100
AcDbEntity
  8
0
 62
7
100
AcDbSpline
 70
8
 71
3
 72
8
 73
4
 74
0
 40
0
 40
0
 40
0
 40
0
 40
1
 40
1
 40
1
 40
1
 10
302.900000
 20
71.501969
 30
0.0
 10
302.900000
 20
72.661969
 30
0.0
 10
303.840200
 20
73.601969
 30
0.0
 10
305.000000
 20
73.601969
 30
0.0
  0
SPLINE
  5
12a
100
AcDbEntity
  8
0
 62
7
100
AcDbSpline
 70
8
 71
3
 72
8
 73
4
 74
0
 40
0
 40
0
 40
0
 40
0
 40
1
 40
1
 40
1
 40
1
 10
305.000000
 20
73.601969
 30
0.0
 10
306.159800
 20
73.601969
 30
0.0
 10
307.100000
 20
72.661969
 30
0.0
 10
307.100000
 20
71.501969
 30
0.0
  0
SPLINE
  5
12b
100
AcDbEntity
  8
0
 62
7
100
AcDbSpline
 70
8
 71
3
 72
8
 73
4
 74
0
 40
0
 40
0
 40
0
 40
0
 40
1
 40
1
 40
1
 40
1
 10
282.100000
 20
71.501969
 30
0.0
 10
282.100000
 20
70.341969
 30
0.0
 10
281.159800
 20
69.401969
 30
0.0
 10
280.000000
 20
69.401969
 30
0.0
  0
SPLINE
  5
12c
100
AcDbEntity
  8
0
 62
7
100
AcDbSpline
 70
8
 71
3
 72
8
 73
4
 74
0
 40
0
 40
0
 40
0
 40
0
 40
1
 40
1
 40
1
 40
1
 10
280.000000
 20
69.401969
 30
0.0
 10
278.840200
 20
69.401969
 30
0.0
 10
277.900000
 20
70.341969
 30
0.0
 10
277.900000
 20
71.501969
 30
0.0
  0
SPLINE
  5
12d
100
AcDbEntity
  8
0
 62
7
100
AcDbSpline
 70
8
 71
3
 72
8
 73
4
 74
0
 40
0
 40
0
 40
0
 40
0
 40
1
 40
1
 40
1
 40
1
 10
277.900000
 20
71.501969
 30
0.0
 10
277.900000
 20
72.661969
 30
0.0
 10
278.840200
 20
73.601969
 30
0.0
 10
280.000000
 20
73.601969
 30
0.0
  0
SPLINE
  5
12e
100
AcDbEntity
  8
0
 62
7
100
AcDbSpline
 70
8
 71
3
 72
8
 73
4
 74
0
 40
0
 40
0
 40
0
 40
0
 40
1
 40
1
 40
1
 40
1
 10
280.000000
 20
73.601969
 30
0.0
 10
281.159800
 20
73.601969
 30
0.0
 10
282.100000
 20
72.661969
 30
0.0
 10
282.100000
 20
71.501969
 30
0.0
  0
SPLINE
  5
12f
100
AcDbEntity
  8
0
 62
7
100
AcDbSpline
 70
8
 71
3
 72
8
 73
4
 74
0
 40
0
 40
0
 40
0
 40
0
 40
1
 40
1
 40
1
 40
1
 10
231.000000
 20
-148.248031
 30
0.0
 10
231.000000
 20
-149.353031
 30
0.0
 10
230.104600
 20
-150.248031
 30
0.0
 10
229.000000
 20
-150.248031
 30
0.0
  0
SPLINE
  5
130
100
AcDbEntity
  8
0
 62
7
100
AcDbSpline
 70
8
 71
3
 72
8
 73
4
 74
0
 40
0
 40
0
 40
0
 40
0
 40
1
 40
1
 40
1
 40
1
 10
229.000000
 20
-150.248031
 30
0.0
 10
227.895400
 20
-150.248031
 30
0.0
 10
227.000000
 20
-149.353031
 30
0.0
 10
227.000000
 20
-148.248031
 30
0.0
  0
SPLINE
  5
131
100
AcDbEntity
  8
0
 62
7
100
AcDbSpline
 70
8
 71
3
 72
8
 73
4
 74
0
 40
0
 40
0
 40
0
 40
0
 40
1
 40
1
 40
1
 40
1
 10
227.000000
 20
-148.248031
 30
0.0
 10
227.000000
 20
-147.143031
 30
0.0
 10
227.895400
 20
-146.248031
 30
0.0
 10
229.000000
 20
-146.248031
 30
0.0
  0
SPLINE
  5
132
100
AcDbEntity
  8
0
 62
7
100
AcDbSpline
 70
8
 71
3
 72
8
 73
4
 74
0
 40
0
 40
0
 40
0
 40
0
 40
1
 40
1
 40
1
 40
1
 10
229.000000
 20
-146.248031
 30
0.0
 10
230.104600
 20
-146.248031
 30
0.0
 10
231.000000
 20
-147.143031
 30
0.0
 10
231.000000
 20
-148.248031
 30
0.0
  0
SPLINE
  5
133
100
AcDbEntity
  8
0
 62
7
100
AcDbSpline
 70
8
 71
3
 72
8
 73
4
 74
0
 40
0
 40
0
 40
0
 40
0
 40
1
 40
1
 40
1
 40
1
 10
193.000000
 20
-148.248031
 30
0.0
 10
193.000000
 20
-149.353031
 30
0.0
 10
192.104600
 20
-150.248031
 30
0.0
 10
191.000000
 20
-150.248031
 30
0.0
  0
SPLINE
  5
134
100
AcDbEntity
  8
0
 62
7
100
AcDbSpline
 70
8
 71
3
 72
8
 73
4
 74
0
 40
0
 40
0
 40
0
 40
0
 40
1
 40
1
 40
1
 40
1
 10
191.000000
 20
-150.248031
 30
0.0
 10
189.895400
 20
-150.248031
 30
0.0
 10
189.000000
 20
-149.353031
 30
0.0
 10
189.000000
 20
-148.248031
 30
0.0
  0
SPLINE
  5
135
100
AcDbEntity
  8
0
 62
7
100
AcDbSpline
 70
8
 71
3
 72
8
 73
4
 74
0
 40
0
 40
0
 40
0
 40
0
 40
1
 40
1
 40
1
 40
1
 10
189.000000
 20
-148.248031
 30
0.0
 10
189.000000
 20
-147.143031
 30
0.0
 10
189.895400
 20
-146.248031
 30
0.0
 10
191.000000
 20
-146.248031
 30
0.0
  0
SPLINE
  5
136
100
AcDbEntity
  8
0
 62
7
100
AcDbSpline
 70
8
 71
3
 72
8
 73
4
 74
0
 40
0
 40
0
 40
0
 40
0
 40
1
 40
1
 40
1
 40
1
 10
191.000000
 20
-146.248031
 30
0.0
 10
192.104600
 20
-146.248031
 30
0.0
 10
193.000000
 20
-147.143031
 30
0.0
 10
193.000000
 20
-148.248031
 30
0.0
  0
SPLINE
  5
137
100
AcDbEntity
  8
0
 62
7
100
AcDbSpline
 70
8
 71
3
 72
8
 73
4
 74
0
 40
0
 40
0
 40
0
 40
0
 40
1
 40
1
 40
1
 40
1
 10
117.100000
 20
71.501969
 30
0.0
 10
117.100000
 20
70.341969
 30
0.0
 10
116.159800
 20
69.401969
 30
0.0
 10
115.000000
 20
69.401969
 30
0.0
  0
SPLINE
  5
138
100
AcDbEntity
  8
0
 62
7
100
AcDbSpline
 70
8
 71
3
 72
8
 73
4
 74
0
 40
0
 40
0
 40
0
 40
0
 40
1
 40
1
 40
1
 40
1
 10
115.000000
 20
69.401969
 30
0.0
 10
113.840200
 20
69.401969
 30
0.0
 10
112.900000
 20
70.341969
 30
0.0
 10
112.900000
 20
71.501969
 30
0.0
  0
SPLINE
  5
139
100
AcDbEntity
  8
0
 62
7
100
AcDbSpline
 70
8
 71
3
 72
8
 73
4
 74
0
 40
0
 40
0
 40
0
 40
0
 40
1
 40
1
 40
1
 40
1
 10
112.900000
 20
71.501969
 30
0.0
 10
112.900000
 20
72.661969
 30
0.0
 10
113.840200
 20
73.601969
 30
0.0
 10
115.000000
 20
73.601969
 30
0.0
  0
SPLINE
  5
13a
100
AcDbEntity
  8
0
 62
7
100
AcDbSpline
 70
8
 71
3
 72
8
 73
4
 74
0
 40
0
 40
0
 40
0
 40
0
 40
1
 40
1
 40
1
 40
1
 10
115.000000
 20
73.601969
 30
0.0
 10
116.159800
 20
73.601969
 30
0.0
 10
117.100000
 20
72.661969
 30
0.0
 10
117.100000
 20
71.501969
 30
0.0
  0
SPLINE
  5
13b
100
AcDbEntity
  8
0
 62
7
100
AcDbSpline
 70
8
 71
3
 72
8
 73
4
 74
0
 40
0
 40
0
 40
0
 40
0
 40
1
 40
1
 40
1
 40
1
 10
142.100000
 20
71.501969
 30
0.0
 10
142.100000
 20
70.341969
 30
0.0
 10
141.159800
 20
69.401969
 30
0.0
 10
140.000000
 20
69.401969
 30
0.0
  0
SPLINE
  5
13c
100
AcDbEntity
  8
0
 62
7
100
AcDbSpline
 70
8
 71
3
 72
8
 73
4
 74
0
 40
0
 40
0
 40
0
 40
0
 40
1
 40
1
 40
1
 40
1
 10
140.000000
 20
69.401969
 30
0.0
 10
138.840200
 20
69.401969
 30
0.0
 10
137.900000
 20
70.341969
 30
0.0
 10
137.900000
 20
71.501969
 30
0.0
  0
SPLINE
  5
13d
100
AcDbEntity
  8
0
 62
7
100
AcDbSpline
 70
8
 71
3
 72
8
 73
4
 74
0
 40
0
 40
0
 40
0
 40
0
 40
1
 40
1
 40
1
 40
1
 10
137.900000
 20
71.501969
 30
0.0
 10
137.900000
 20
72.661969
 30
0.0
 10
138.840200
 20
73.601969
 30
0.0
 10
140.000000
 20
73.601969
 30
0.0
  0
SPLINE
  5
13e
100
AcDbEntity
  8
0
 62
7
100
AcDbSpline
 70
8
 71
3
 72
8
 73
4
 74
0
 40
0
 40
0
 40
0
 40
0
 40
1
 40
1
 40
1
 40
1
 10
140.000000
 20
73.601969
 30
0.0
 10
141.159800
 20
73.601969
 30
0.0
 10
142.100000
 20
72.661969
 30
0.0
 10
142.100000
 20
71.501969
 30
0.0
  0
LWPOLYLINE
  5
13f
100
AcDbEntity
  8
0
 62
7
100
AcDbPolyline
 90
2
 70
0
 10
340.000000
 20
-146.748031
 30
0.0
 10
340.000000
 20
74.251969
 30
0.0
  0
LWPOLYLINE
  5
140
100
AcDbEntity
  8
0
 62
7
100
AcDbPolyline
 90
2
 70
0
 10
89.500000
 20
70.051969
 30
0.0
 10
89.500000
 20
78.451969
 30
0.0
  0
LWPOLYLINE
  5
141
100
AcDbEntity
  8
0
 62
7
100
AcDbPolyline
 90
2
 70
0
 10
93.700000
 20
74.251969
 30
0.0
 10
85.300000
 20
74.251969
 30
0.0
  0
LWPOLYLINE
  5
142
100
AcDbEntity
  8
0
 62
7
100
AcDbPolyline
 90
2
 70
0
 10
89.500000
 20
-150.948031
 30
0.0
 10
89.500000
 20
-142.548031
 30
0.0
  0
LWPOLYLINE
  5
143
100
AcDbEntity
  8
0
 62
7
100
AcDbPolyline
 90
2
 70
0
 10
93.700000
 20
-146.748031
 30
0.0
 10
85.300000
 20
-146.748031
 30
0.0
  0
LWPOLYLINE
  5
144
100
AcDbEntity
  8
0
 62
7
100
AcDbPolyline
 90
2
 70
0
 10
330.500000
 20
70.051969
 30
0.0
 10
330.500000
 20
78.451969
 30
0.0
  0
LWPOLYLINE
  5
145
100
AcDbEntity
  8
0
 62
7
100
AcDbPolyline
 90
2
 70
0
 10
334.700000
 20
74.251969
 30
0.0
 10
326.300000
 20
74.251969
 30
0.0
  0
LWPOLYLINE
  5
146
100
AcDbEntity
  8
0
 62
7
100
AcDbPolyline
 90
2
 70
0
 10
330.500000
 20
-150.948031
 30
0.0
 10
330.500000
 20
-142.548031
 30
0.0
  0
LWPOLYLINE
  5
147
100
AcDbEntity
  8
0
 62
7
100
AcDbPolyline
 90
2
 70
0
 10
334.700000
 20
-146.748031
 30
0.0
 10
326.300000
 20
-146.748031
 30
0.0
  0
LWPOLYLINE
  5
148
100
AcDbEntity
  8
0
 62
7
100
AcDbPolyline
 90
2
 70
0
 10
305.000000
 20
67.301969
 30
0.0
 10
305.000000
 20
75.701969
 30
0.0
  0
LWPOLYLINE
  5
149
100
AcDbEntity
  8
0
 62
7
100
AcDbPolyline
 90
2
 70
0
 10
309.200000
 20
71.501969
 30
0.0
 10
300.800000
 20
71.501969
 30
0.0
  0
LWPOLYLINE
  5
14a
100
AcDbEntity
  8
0
 62
7
100
AcDbPolyline
 90
2
 70
0
 10
280.000000
 20
67.301969
 30
0.0
 10
280.000000
 20
75.701969
 30
0.0
  0
LWPOLYLINE
  5
14b
100
AcDbEntity
  8
0
 62
7
100
AcDbPolyline
 90
2
 70
0
 10
284.200000
 20
71.501969
 30
0.0
 10
275.800000
 20
71.501969
 30
0.0
  0
LWPOLYLINE
  5
14c
100
AcDbEntity
  8
0
 62
7
100
AcDbPolyline
 90
2
 70
0
 10
229.000000
 20
-152.448031
 30
0.0
 10
229.000000
 20
-144.048031
 30
0.0
  0
LWPOLYLINE
  5
14d
100
AcDbEntity
  8
0
 62
7
100
AcDbPolyline
 90
2
 70
0
 10
233.200000
 20
-148.248031
 30
0.0
 10
224.800000
 20
-148.248031
 30
0.0
  0
LWPOLYLINE
  5
14e
100
AcDbEntity
  8
0
 62
7
100
AcDbPolyline
 90
2
 70
0
 10
191.000000
 20
-152.448031
 30
0.0
 10
191.000000
 20
-144.048031
 30
0.0
  0
LWPOLYLINE
  5
14f
100
AcDbEntity
  8
0
 62
7
100
AcDbPolyline
 90
2
 70
0
 10
195.200000
 20
-148.248031
 30
0.0
 10
186.800000
 20
-148.248031
 30
0.0
  0
LWPOLYLINE
  5
150
100
AcDbEntity
  8
0
 62
7
100
AcDbPolyline
 90
2
 70
0
 10
115.000000
 20
67.301969
 30
0.0
 10
115.000000
 20
75.701969
 30
0.0
  0
LWPOLYLINE
  5
151
100
AcDbEntity
  8
0
 62
7
100
AcDbPolyline
 90
2
 70
0
 10
119.200000
 20
71.501969
 30
0.0
 10
110.800000
 20
71.501969
 30
0.0
  0
LWPOLYLINE
  5
152
100
AcDbEntity
  8
0
 62
7
100
AcDbPolyline
 90
2
 70
0
 10
140.000000
 20
67.301969
 30
0.0
 10
140.000000
 20
75.701969
 30
0.0
  0
LWPOLYLINE
  5
153
100
AcDbEntity
  8
0
 62
7
100
AcDbPolyline
 90
2
 70
0
 10
144.200000
 20
71.501969
 30
0.0
 10
135.800000
 20
71.501969
 30
0.0
  0
ENDSEC
  0
SECTION
  2
OBJECTS
  0
DICTIONARY
  5
C
330
0
100
AcDbDictionary
  3
ACAD_GROUP
350
D
  3
ACAD_MLINESTYLE
350
17
  0
DICTIONARY
  5
D
330
C
100
AcDbDictionary
  0
DICTIONARY
  5
1A
330
C
100
AcDbDictionary
  0
DICTIONARY
  5
17
330
C
100
AcDbDictionary
  3
STANDARD
350
18
  0
DICTIONARY
  5
19
330
C
100
AcDbDictionary
  0
ENDSEC
  0
EOF
