<?xml version="1.0" encoding="UTF-8" standalone="no"?>
<svg width="420mm" height="297mm"
 viewBox="0 0 4200 2970"
 xmlns="http://www.w3.org/2000/svg" xmlns:xlink="http://www.w3.org/1999/xlink"  version="1.2" baseProfile="tiny">
<title>FreeCAD SVG Export</title>
<desc>Drawing page: Page exported from FreeCAD document: Corelia_0_Door_LEGD30311</desc>
<defs>
</defs>
<g fill="none" stroke="black" stroke-width="1" fill-rule="evenodd" stroke-linecap="square" stroke-linejoin="bevel" >

<g fill="none" stroke="#000000" stroke-opacity="1" stroke-width="1" stroke-linecap="square" stroke-linejoin="bevel" transform="matrix(1,0,0,1,0,0)"
font-family="MS Shell Dlg 2" font-size="29.1042" font-weight="400" font-style="normal" 
>
</g>

<g fill="none" stroke="#000000" stroke-opacity="1" stroke-width="1" stroke-linecap="square" stroke-linejoin="bevel" transform="matrix(1,0,0,1,0,2970)"
font-family="MS Shell Dlg 2" font-size="29.1042" font-weight="400" font-style="normal" 
>
</g>

<g fill="none" stroke="#000000" stroke-opacity="1" stroke-width="1" stroke-linecap="square" stroke-linejoin="bevel" transform="matrix(1,0,0,1,0,2970)"
font-family="MS Shell Dlg 2" font-size="29.1042" font-weight="400" font-style="normal" 
>
</g>

<g fill="none" stroke="#000000" stroke-opacity="1" stroke-width="1" stroke-linecap="square" stroke-linejoin="bevel" transform="matrix(2.82258,0,0,2.82319,0,0)"
font-family="MS Shell Dlg 2" font-size="29.1042" font-weight="400" font-style="normal" 
>
</g>

<g fill="none" stroke="#000000" stroke-opacity="1" stroke-width="1" stroke-linecap="square" stroke-linejoin="bevel" transform="matrix(2.82258,0,0,2.82319,0,0)"
font-family="MS Shell Dlg 2" font-size="29.1042" font-weight="400" font-style="normal" 
>
</g>

<g fill="none" stroke="#000000" stroke-opacity="1" stroke-width="1" stroke-linecap="square" stroke-linejoin="bevel" transform="matrix(2.82258,0,0,2.82319,0,0)"
font-family="MS Shell Dlg 2" font-size="29.1042" font-weight="400" font-style="normal" 
>
</g>

<g fill="none" stroke="#000000" stroke-opacity="1" stroke-width="1" stroke-linecap="square" stroke-linejoin="bevel" transform="matrix(2.82258,0,0,2.82319,0,0)"
font-family="MS Shell Dlg 2" font-size="29.1042" font-weight="400" font-style="normal" 
>
</g>

<g fill="none" stroke="#000000" stroke-opacity="1" stroke-width="1" stroke-linecap="square" stroke-linejoin="bevel" transform="matrix(1,0,0,1,0,0)"
font-family="MS Shell Dlg 2" font-size="29.1042" font-weight="400" font-style="normal" 
>
</g>

<g fill="none" stroke="#000000" stroke-opacity="1" stroke-width="1" stroke-linecap="square" stroke-linejoin="bevel" transform="matrix(2.82258,0,0,2.82319,0,0)"
font-family="MS Shell Dlg 2" font-size="29.1042" font-weight="400" font-style="normal" 
>
</g>

<g fill="none" stroke="#000000" stroke-opacity="1" stroke-width="1" stroke-linecap="square" stroke-linejoin="bevel" transform="matrix(1,0,0,1,2100,1485)"
font-family="MS Shell Dlg 2" font-size="29.1042" font-weight="400" font-style="normal" 
>
</g>

<g fill="none" stroke="#000000" stroke-opacity="1" stroke-width="1" stroke-linecap="square" stroke-linejoin="bevel" transform="matrix(1,0,0,1,2100,1485)"
font-family="MS Shell Dlg 2" font-size="29.1042" font-weight="400" font-style="normal" 
>
</g>

<g fill="none" stroke="#000000" stroke-opacity="1" stroke-width="1" stroke-linecap="square" stroke-linejoin="bevel" transform="matrix(1,0,0,1,2096,2702.5)"
font-family="MS Shell Dlg 2" font-size="29.1042" font-weight="400" font-style="normal" 
>
</g>

<g fill="none" stroke="#000000" stroke-opacity="1" stroke-width="1" stroke-linecap="square" stroke-linejoin="bevel" transform="matrix(0.353,0,0,0.353,2088,2755.36)"
font-family="MS Shell Dlg 2" font-size="29.1042" font-weight="400" font-style="normal" 
>
</g>

<g fill="none" stroke="#000000" stroke-opacity="1" stroke-width="1" stroke-linecap="square" stroke-linejoin="bevel" transform="matrix(0.353,0,0,0.353,2088,2755.36)"
font-family="MS Shell Dlg 2" font-size="29.1042" font-weight="400" font-style="normal" 
>
</g>

<g fill="none" stroke="#000000" stroke-opacity="1" stroke-width="1" stroke-linecap="square" stroke-linejoin="bevel" transform="matrix(0.353,0,0,0.353,2088,2755.36)"
font-family="MS Shell Dlg 2" font-size="29.1042" font-weight="400" font-style="normal" 
>
</g>

<g fill="none" stroke="#000000" stroke-opacity="1" stroke-width="1" stroke-linecap="square" stroke-linejoin="bevel" transform="matrix(0.353,0,0,0.353,2088,2755.36)"
font-family="MS Shell Dlg 2" font-size="29.1042" font-weight="400" font-style="normal" 
>
</g>

<g fill="none" stroke="#000000" stroke-opacity="1" stroke-width="1" stroke-linecap="square" stroke-linejoin="bevel" transform="matrix(1,0,0,1,0,0)"
font-family="MS Shell Dlg 2" font-size="29.1042" font-weight="400" font-style="normal" 
>
</g>

<g fill="none" stroke="#000000" stroke-opacity="1" stroke-width="1" stroke-linecap="square" stroke-linejoin="bevel" transform="matrix(0.353,0,0,0.353,2088,2755.36)"
font-family="MS Shell Dlg 2" font-size="29.1042" font-weight="400" font-style="normal" 
>
</g>

<g fill="none" stroke="#000000" stroke-opacity="1" stroke-width="1" stroke-linecap="square" stroke-linejoin="bevel" transform="matrix(0.353,0,0,0.353,2088,2755.36)"
font-family="MS Shell Dlg 2" font-size="29.1042" font-weight="400" font-style="normal" 
>
</g>

<g fill="none" stroke="#000000" stroke-opacity="1" stroke-width="1" stroke-linecap="square" stroke-linejoin="bevel" transform="matrix(1,0,0,1,2096,2702.5)"
font-family="MS Shell Dlg 2" font-size="29.1042" font-weight="400" font-style="normal" 
>
</g>

<g fill="none" stroke="#000000" stroke-opacity="1" stroke-width="1" stroke-linecap="square" stroke-linejoin="bevel" transform="matrix(1,0,0,1,2100,1485)"
font-family="MS Shell Dlg 2" font-size="29.1042" font-weight="400" font-style="normal" 
>
</g>

<g fill="#ffffff" fill-opacity="1" stroke="none" transform="matrix(1,0,0,1,2100,1485)"
font-family="MS Shell Dlg 2" font-size="29.1042" font-weight="400" font-style="normal" 
>
<path vector-effect="non-scaling-stroke" fill-rule="evenodd" d="M-1300,-1105 L-1300,1105 C-1300,1157.47 -1257.47,1200 -1205,1200 L1205,1200 C1257.47,1200 1300,1157.47 1300,1105 L1300,-1105 C1300,-1157.47 1257.47,-1200 1205,-1200 L-1205,-1200 C-1257.47,-1200 -1300,-1157.47 -1300,-1105 "/>
</g>

<g fill="none" stroke="#000000" stroke-opacity="1" stroke-width="1" stroke-linecap="square" stroke-linejoin="bevel" transform="matrix(1,0,0,1,2100,1485)"
font-family="MS Shell Dlg 2" font-size="29.1042" font-weight="400" font-style="normal" 
>
</g>

<g fill="none" stroke="#000000" stroke-opacity="1" stroke-width="1" stroke-linecap="square" stroke-linejoin="bevel" transform="matrix(1,0,0,1,2100,1485)"
font-family="MS Shell Dlg 2" font-size="29.1042" font-weight="400" font-style="normal" 
>
</g>

<g fill="none" stroke="#000000" stroke-opacity="1" stroke-width="1" stroke-linecap="square" stroke-linejoin="bevel" transform="matrix(1,0,0,1,2100,1485)"
font-family="MS Shell Dlg 2" font-size="29.1042" font-weight="400" font-style="normal" 
>
</g>

<g fill="none" stroke="#000000" stroke-opacity="1" stroke-width="1" stroke-linecap="square" stroke-linejoin="bevel" transform="matrix(1,0,0,1,0,0)"
font-family="MS Shell Dlg 2" font-size="29.1042" font-weight="400" font-style="normal" 
>
</g>

<g fill="none" stroke="#000000" stroke-opacity="1" stroke-width="1" stroke-linecap="square" stroke-linejoin="bevel" transform="matrix(1,0,0,1,2100,1485)"
font-family="MS Shell Dlg 2" font-size="29.1042" font-weight="400" font-style="normal" 
>
</g>

<g fill="none" stroke="#000000" stroke-opacity="1" stroke-width="1" stroke-linecap="square" stroke-linejoin="bevel" transform="matrix(1,0,0,1,2100,1485)"
font-family="MS Shell Dlg 2" font-size="29.1042" font-weight="400" font-style="normal" 
>
</g>

<g fill="#ffffff" fill-opacity="1" stroke="none" transform="matrix(1,0,0,1,2100,1485)"
font-family="MS Shell Dlg 2" font-size="29.1042" font-weight="400" font-style="normal" 
>
<path vector-effect="non-scaling-stroke" fill-rule="evenodd" d="M971,-1027.5 C971,-1015.9 961.598,-1006.5 950,-1006.5 C938.402,-1006.5 929,-1015.9 929,-1027.5 C929,-1039.1 938.402,-1048.5 950,-1048.5 C961.598,-1048.5 971,-1039.1 971,-1027.5 "/>
</g>

<g fill="none" stroke="#000000" stroke-opacity="1" stroke-width="1" stroke-linecap="square" stroke-linejoin="bevel" transform="matrix(1,0,0,1,2100,1485)"
font-family="MS Shell Dlg 2" font-size="29.1042" font-weight="400" font-style="normal" 
>
</g>

<g fill="none" stroke="#000000" stroke-opacity="1" stroke-width="1" stroke-linecap="square" stroke-linejoin="bevel" transform="matrix(1,0,0,1,2100,1485)"
font-family="MS Shell Dlg 2" font-size="29.1042" font-weight="400" font-style="normal" 
>
</g>

<g fill="none" stroke="#000000" stroke-opacity="1" stroke-width="1" stroke-linecap="square" stroke-linejoin="bevel" transform="matrix(1,0,0,1,2100,1485)"
font-family="MS Shell Dlg 2" font-size="29.1042" font-weight="400" font-style="normal" 
>
</g>

<g fill="none" stroke="#000000" stroke-opacity="1" stroke-width="1" stroke-linecap="square" stroke-linejoin="bevel" transform="matrix(1,0,0,1,0,0)"
font-family="MS Shell Dlg 2" font-size="29.1042" font-weight="400" font-style="normal" 
>
</g>

<g fill="none" stroke="#000000" stroke-opacity="1" stroke-width="1" stroke-linecap="square" stroke-linejoin="bevel" transform="matrix(1,0,0,1,2100,1485)"
font-family="MS Shell Dlg 2" font-size="29.1042" font-weight="400" font-style="normal" 
>
</g>

<g fill="none" stroke="#000000" stroke-opacity="1" stroke-width="1" stroke-linecap="square" stroke-linejoin="bevel" transform="matrix(1,0,0,1,2100,1485)"
font-family="MS Shell Dlg 2" font-size="29.1042" font-weight="400" font-style="normal" 
>
</g>

<g fill="#ffffff" fill-opacity="1" stroke="none" transform="matrix(1,0,0,1,2100,1485)"
font-family="MS Shell Dlg 2" font-size="29.1042" font-weight="400" font-style="normal" 
>
<path vector-effect="non-scaling-stroke" fill-rule="evenodd" d="M691,-1027.5 C691,-1015.9 681.598,-1006.5 670,-1006.5 C658.402,-1006.5 649,-1015.9 649,-1027.5 C649,-1039.1 658.402,-1048.5 670,-1048.5 C681.598,-1048.5 691,-1039.1 691,-1027.5 "/>
</g>

<g fill="none" stroke="#000000" stroke-opacity="1" stroke-width="1" stroke-linecap="square" stroke-linejoin="bevel" transform="matrix(1,0,0,1,2100,1485)"
font-family="MS Shell Dlg 2" font-size="29.1042" font-weight="400" font-style="normal" 
>
</g>

<g fill="none" stroke="#000000" stroke-opacity="1" stroke-width="1" stroke-linecap="square" stroke-linejoin="bevel" transform="matrix(1,0,0,1,2100,1485)"
font-family="MS Shell Dlg 2" font-size="29.1042" font-weight="400" font-style="normal" 
>
</g>

<g fill="none" stroke="#000000" stroke-opacity="1" stroke-width="1" stroke-linecap="square" stroke-linejoin="bevel" transform="matrix(1,0,0,1,2100,1485)"
font-family="MS Shell Dlg 2" font-size="29.1042" font-weight="400" font-style="normal" 
>
</g>

<g fill="none" stroke="#000000" stroke-opacity="1" stroke-width="1" stroke-linecap="square" stroke-linejoin="bevel" transform="matrix(1,0,0,1,0,0)"
font-family="MS Shell Dlg 2" font-size="29.1042" font-weight="400" font-style="normal" 
>
</g>

<g fill="none" stroke="#000000" stroke-opacity="1" stroke-width="1" stroke-linecap="square" stroke-linejoin="bevel" transform="matrix(1,0,0,1,2100,1485)"
font-family="MS Shell Dlg 2" font-size="29.1042" font-weight="400" font-style="normal" 
>
</g>

<g fill="none" stroke="#000000" stroke-opacity="1" stroke-width="1" stroke-linecap="square" stroke-linejoin="bevel" transform="matrix(1,0,0,1,2100,1485)"
font-family="MS Shell Dlg 2" font-size="29.1042" font-weight="400" font-style="normal" 
>
</g>

<g fill="#ffffff" fill-opacity="1" stroke="none" transform="matrix(1,0,0,1,2100,1485)"
font-family="MS Shell Dlg 2" font-size="29.1042" font-weight="400" font-style="normal" 
>
<path vector-effect="non-scaling-stroke" fill-rule="evenodd" d="M-649,-1027.5 C-649,-1015.9 -658.402,-1006.5 -670,-1006.5 C-681.598,-1006.5 -691,-1015.9 -691,-1027.5 C-691,-1039.1 -681.598,-1048.5 -670,-1048.5 C-658.402,-1048.5 -649,-1039.1 -649,-1027.5 "/>
</g>

<g fill="none" stroke="#000000" stroke-opacity="1" stroke-width="1" stroke-linecap="square" stroke-linejoin="bevel" transform="matrix(1,0,0,1,2100,1485)"
font-family="MS Shell Dlg 2" font-size="29.1042" font-weight="400" font-style="normal" 
>
</g>

<g fill="none" stroke="#000000" stroke-opacity="1" stroke-width="1" stroke-linecap="square" stroke-linejoin="bevel" transform="matrix(1,0,0,1,2100,1485)"
font-family="MS Shell Dlg 2" font-size="29.1042" font-weight="400" font-style="normal" 
>
</g>

<g fill="none" stroke="#000000" stroke-opacity="1" stroke-width="1" stroke-linecap="square" stroke-linejoin="bevel" transform="matrix(1,0,0,1,2100,1485)"
font-family="MS Shell Dlg 2" font-size="29.1042" font-weight="400" font-style="normal" 
>
</g>

<g fill="none" stroke="#000000" stroke-opacity="1" stroke-width="1" stroke-linecap="square" stroke-linejoin="bevel" transform="matrix(1,0,0,1,0,0)"
font-family="MS Shell Dlg 2" font-size="29.1042" font-weight="400" font-style="normal" 
>
</g>

<g fill="none" stroke="#000000" stroke-opacity="1" stroke-width="1" stroke-linecap="square" stroke-linejoin="bevel" transform="matrix(1,0,0,1,2100,1485)"
font-family="MS Shell Dlg 2" font-size="29.1042" font-weight="400" font-style="normal" 
>
</g>

<g fill="none" stroke="#000000" stroke-opacity="1" stroke-width="1" stroke-linecap="square" stroke-linejoin="bevel" transform="matrix(1,0,0,1,2100,1485)"
font-family="MS Shell Dlg 2" font-size="29.1042" font-weight="400" font-style="normal" 
>
</g>

<g fill="#ffffff" fill-opacity="1" stroke="none" transform="matrix(1,0,0,1,2100,1485)"
font-family="MS Shell Dlg 2" font-size="29.1042" font-weight="400" font-style="normal" 
>
<path vector-effect="non-scaling-stroke" fill-rule="evenodd" d="M-929,-1027.5 C-929,-1015.9 -938.402,-1006.5 -950,-1006.5 C-961.598,-1006.5 -971,-1015.9 -971,-1027.5 C-971,-1039.1 -961.598,-1048.5 -950,-1048.5 C-938.402,-1048.5 -929,-1039.1 -929,-1027.5 "/>
</g>

<g fill="none" stroke="#000000" stroke-opacity="1" stroke-width="1" stroke-linecap="square" stroke-linejoin="bevel" transform="matrix(1,0,0,1,2100,1485)"
font-family="MS Shell Dlg 2" font-size="29.1042" font-weight="400" font-style="normal" 
>
</g>

<g fill="none" stroke="#000000" stroke-opacity="1" stroke-width="1" stroke-linecap="square" stroke-linejoin="bevel" transform="matrix(1,0,0,1,2100,1485)"
font-family="MS Shell Dlg 2" font-size="29.1042" font-weight="400" font-style="normal" 
>
</g>

<g fill="none" stroke="#000000" stroke-opacity="1" stroke-width="1" stroke-linecap="square" stroke-linejoin="bevel" transform="matrix(1,0,0,1,2100,1485)"
font-family="MS Shell Dlg 2" font-size="29.1042" font-weight="400" font-style="normal" 
>
</g>

<g fill="none" stroke="#000000" stroke-opacity="1" stroke-width="1" stroke-linecap="square" stroke-linejoin="bevel" transform="matrix(1,0,0,1,0,0)"
font-family="MS Shell Dlg 2" font-size="29.1042" font-weight="400" font-style="normal" 
>
</g>

<g fill="none" stroke="#000000" stroke-opacity="1" stroke-width="1" stroke-linecap="square" stroke-linejoin="bevel" transform="matrix(1,0,0,1,2100,1485)"
font-family="MS Shell Dlg 2" font-size="29.1042" font-weight="400" font-style="normal" 
>
</g>

<g fill="none" stroke="#000000" stroke-opacity="1" stroke-width="1" stroke-linecap="square" stroke-linejoin="bevel" transform="matrix(1,0,0,1,2100,1485)"
font-family="MS Shell Dlg 2" font-size="29.1042" font-weight="400" font-style="normal" 
>
</g>

<g fill="#ffffff" fill-opacity="1" stroke="none" transform="matrix(1,0,0,1,2100,1485)"
font-family="MS Shell Dlg 2" font-size="29.1042" font-weight="400" font-style="normal" 
>
<path vector-effect="non-scaling-stroke" fill-rule="evenodd" d="M210,1120 C210,1131.05 201.046,1140 190,1140 C178.954,1140 170,1131.05 170,1120 C170,1108.95 178.954,1100 190,1100 C201.046,1100 210,1108.95 210,1120 "/>
</g>

<g fill="none" stroke="#000000" stroke-opacity="1" stroke-width="1" stroke-linecap="square" stroke-linejoin="bevel" transform="matrix(1,0,0,1,2100,1485)"
font-family="MS Shell Dlg 2" font-size="29.1042" font-weight="400" font-style="normal" 
>
</g>

<g fill="none" stroke="#000000" stroke-opacity="1" stroke-width="1" stroke-linecap="square" stroke-linejoin="bevel" transform="matrix(1,0,0,1,2100,1485)"
font-family="MS Shell Dlg 2" font-size="29.1042" font-weight="400" font-style="normal" 
>
</g>

<g fill="none" stroke="#000000" stroke-opacity="1" stroke-width="1" stroke-linecap="square" stroke-linejoin="bevel" transform="matrix(1,0,0,1,2100,1485)"
font-family="MS Shell Dlg 2" font-size="29.1042" font-weight="400" font-style="normal" 
>
</g>

<g fill="none" stroke="#000000" stroke-opacity="1" stroke-width="1" stroke-linecap="square" stroke-linejoin="bevel" transform="matrix(1,0,0,1,0,0)"
font-family="MS Shell Dlg 2" font-size="29.1042" font-weight="400" font-style="normal" 
>
</g>

<g fill="none" stroke="#000000" stroke-opacity="1" stroke-width="1" stroke-linecap="square" stroke-linejoin="bevel" transform="matrix(1,0,0,1,2100,1485)"
font-family="MS Shell Dlg 2" font-size="29.1042" font-weight="400" font-style="normal" 
>
</g>

<g fill="none" stroke="#000000" stroke-opacity="1" stroke-width="1" stroke-linecap="square" stroke-linejoin="bevel" transform="matrix(1,0,0,1,2100,1485)"
font-family="MS Shell Dlg 2" font-size="29.1042" font-weight="400" font-style="normal" 
>
</g>

<g fill="#ffffff" fill-opacity="1" stroke="none" transform="matrix(1,0,0,1,2100,1485)"
font-family="MS Shell Dlg 2" font-size="29.1042" font-weight="400" font-style="normal" 
>
<path vector-effect="non-scaling-stroke" fill-rule="evenodd" d="M-170,1120 C-170,1131.05 -178.954,1140 -190,1140 C-201.046,1140 -210,1131.05 -210,1120 C-210,1108.95 -201.046,1100 -190,1100 C-178.954,1100 -170,1108.95 -170,1120 "/>
</g>

<g fill="none" stroke="#000000" stroke-opacity="1" stroke-width="1" stroke-linecap="square" stroke-linejoin="bevel" transform="matrix(1,0,0,1,2100,1485)"
font-family="MS Shell Dlg 2" font-size="29.1042" font-weight="400" font-style="normal" 
>
</g>

<g fill="none" stroke="#000000" stroke-opacity="1" stroke-width="1" stroke-linecap="square" stroke-linejoin="bevel" transform="matrix(1,0,0,1,2100,1485)"
font-family="MS Shell Dlg 2" font-size="29.1042" font-weight="400" font-style="normal" 
>
</g>

<g fill="none" stroke="#000000" stroke-opacity="1" stroke-width="1" stroke-linecap="square" stroke-linejoin="bevel" transform="matrix(1,0,0,1,2100,1485)"
font-family="MS Shell Dlg 2" font-size="29.1042" font-weight="400" font-style="normal" 
>
</g>

<g fill="none" stroke="#000000" stroke-opacity="1" stroke-width="1" stroke-linecap="square" stroke-linejoin="bevel" transform="matrix(1,0,0,1,0,0)"
font-family="MS Shell Dlg 2" font-size="29.1042" font-weight="400" font-style="normal" 
>
</g>

<g fill="none" stroke="#000000" stroke-opacity="1" stroke-width="1" stroke-linecap="square" stroke-linejoin="bevel" transform="matrix(1,0,0,1,2100,1485)"
font-family="MS Shell Dlg 2" font-size="29.1042" font-weight="400" font-style="normal" 
>
</g>

<g fill="none" stroke="#000000" stroke-opacity="1" stroke-width="1" stroke-linecap="square" stroke-linejoin="bevel" transform="matrix(1,0,0,1,2100,1485)"
font-family="MS Shell Dlg 2" font-size="29.1042" font-weight="400" font-style="normal" 
>
</g>

<g fill="none" stroke="#000000" stroke-opacity="1" stroke-width="7" stroke-linecap="round" stroke-linejoin="bevel" transform="matrix(1,0,0,1,2100,1485)"
font-family="MS Shell Dlg 2" font-size="29.1042" font-weight="400" font-style="normal" 
>
<path vector-effect="none" fill-rule="evenodd" d="M-1300,-1105 L-1300,1105"/>
</g>

<g fill="none" stroke="#000000" stroke-opacity="1" stroke-width="1" stroke-linecap="square" stroke-linejoin="bevel" transform="matrix(1,0,0,1,2100,1485)"
font-family="MS Shell Dlg 2" font-size="29.1042" font-weight="400" font-style="normal" 
>
</g>

<g fill="none" stroke="#000000" stroke-opacity="1" stroke-width="1" stroke-linecap="square" stroke-linejoin="bevel" transform="matrix(1,0,0,1,2100,1485)"
font-family="MS Shell Dlg 2" font-size="29.1042" font-weight="400" font-style="normal" 
>
</g>

<g fill="none" stroke="#000000" stroke-opacity="1" stroke-width="7" stroke-linecap="round" stroke-linejoin="bevel" transform="matrix(1,0,0,1,2100,1485)"
font-family="MS Shell Dlg 2" font-size="29.1042" font-weight="400" font-style="normal" 
>
<path vector-effect="none" fill-rule="evenodd" d="M-1300,-1105 C-1300,-1157.47 -1257.47,-1200 -1205,-1200 "/>
</g>

<g fill="none" stroke="#000000" stroke-opacity="1" stroke-width="1" stroke-linecap="square" stroke-linejoin="bevel" transform="matrix(1,0,0,1,2100,1485)"
font-family="MS Shell Dlg 2" font-size="29.1042" font-weight="400" font-style="normal" 
>
</g>

<g fill="none" stroke="#000000" stroke-opacity="1" stroke-width="1" stroke-linecap="square" stroke-linejoin="bevel" transform="matrix(1,0,0,1,2100,1485)"
font-family="MS Shell Dlg 2" font-size="29.1042" font-weight="400" font-style="normal" 
>
</g>

<g fill="none" stroke="#000000" stroke-opacity="1" stroke-width="7" stroke-linecap="round" stroke-linejoin="bevel" transform="matrix(1,0,0,1,2100,1485)"
font-family="MS Shell Dlg 2" font-size="29.1042" font-weight="400" font-style="normal" 
>
<path vector-effect="none" fill-rule="evenodd" d="M-1300,1105 C-1300,1157.47 -1257.47,1200 -1205,1200 "/>
</g>

<g fill="none" stroke="#000000" stroke-opacity="1" stroke-width="1" stroke-linecap="square" stroke-linejoin="bevel" transform="matrix(1,0,0,1,2100,1485)"
font-family="MS Shell Dlg 2" font-size="29.1042" font-weight="400" font-style="normal" 
>
</g>

<g fill="none" stroke="#000000" stroke-opacity="1" stroke-width="1" stroke-linecap="square" stroke-linejoin="bevel" transform="matrix(1,0,0,1,2100,1485)"
font-family="MS Shell Dlg 2" font-size="29.1042" font-weight="400" font-style="normal" 
>
</g>

<g fill="none" stroke="#000000" stroke-opacity="1" stroke-width="7" stroke-linecap="round" stroke-linejoin="bevel" transform="matrix(1,0,0,1,2100,1485)"
font-family="MS Shell Dlg 2" font-size="29.1042" font-weight="400" font-style="normal" 
>
<path vector-effect="none" fill-rule="evenodd" d="M1205,-1200 L-1205,-1200"/>
</g>

<g fill="none" stroke="#000000" stroke-opacity="1" stroke-width="1" stroke-linecap="square" stroke-linejoin="bevel" transform="matrix(1,0,0,1,2100,1485)"
font-family="MS Shell Dlg 2" font-size="29.1042" font-weight="400" font-style="normal" 
>
</g>

<g fill="none" stroke="#000000" stroke-opacity="1" stroke-width="1" stroke-linecap="square" stroke-linejoin="bevel" transform="matrix(1,0,0,1,2100,1485)"
font-family="MS Shell Dlg 2" font-size="29.1042" font-weight="400" font-style="normal" 
>
</g>

<g fill="none" stroke="#000000" stroke-opacity="1" stroke-width="7" stroke-linecap="round" stroke-linejoin="bevel" transform="matrix(1,0,0,1,2100,1485)"
font-family="MS Shell Dlg 2" font-size="29.1042" font-weight="400" font-style="normal" 
>
<path vector-effect="none" fill-rule="evenodd" d="M-1205,1200 L1205,1200"/>
</g>

<g fill="none" stroke="#000000" stroke-opacity="1" stroke-width="1" stroke-linecap="square" stroke-linejoin="bevel" transform="matrix(1,0,0,1,2100,1485)"
font-family="MS Shell Dlg 2" font-size="29.1042" font-weight="400" font-style="normal" 
>
</g>

<g fill="none" stroke="#000000" stroke-opacity="1" stroke-width="1" stroke-linecap="square" stroke-linejoin="bevel" transform="matrix(1,0,0,1,2100,1485)"
font-family="MS Shell Dlg 2" font-size="29.1042" font-weight="400" font-style="normal" 
>
</g>

<g fill="none" stroke="#000000" stroke-opacity="1" stroke-width="7" stroke-linecap="round" stroke-linejoin="bevel" transform="matrix(1,0,0,1,2100,1485)"
font-family="MS Shell Dlg 2" font-size="29.1042" font-weight="400" font-style="normal" 
>
<path vector-effect="none" fill-rule="evenodd" d="M1205,-1200 C1257.47,-1200 1300,-1157.47 1300,-1105 "/>
</g>

<g fill="none" stroke="#000000" stroke-opacity="1" stroke-width="1" stroke-linecap="square" stroke-linejoin="bevel" transform="matrix(1,0,0,1,2100,1485)"
font-family="MS Shell Dlg 2" font-size="29.1042" font-weight="400" font-style="normal" 
>
</g>

<g fill="none" stroke="#000000" stroke-opacity="1" stroke-width="1" stroke-linecap="square" stroke-linejoin="bevel" transform="matrix(1,0,0,1,2100,1485)"
font-family="MS Shell Dlg 2" font-size="29.1042" font-weight="400" font-style="normal" 
>
</g>

<g fill="none" stroke="#000000" stroke-opacity="1" stroke-width="7" stroke-linecap="round" stroke-linejoin="bevel" transform="matrix(1,0,0,1,2100,1485)"
font-family="MS Shell Dlg 2" font-size="29.1042" font-weight="400" font-style="normal" 
>
<path vector-effect="none" fill-rule="evenodd" d="M1205,1200 C1257.47,1200 1300,1157.47 1300,1105 "/>
</g>

<g fill="none" stroke="#000000" stroke-opacity="1" stroke-width="1" stroke-linecap="square" stroke-linejoin="bevel" transform="matrix(1,0,0,1,2100,1485)"
font-family="MS Shell Dlg 2" font-size="29.1042" font-weight="400" font-style="normal" 
>
</g>

<g fill="none" stroke="#000000" stroke-opacity="1" stroke-width="1" stroke-linecap="square" stroke-linejoin="bevel" transform="matrix(1,0,0,1,2100,1485)"
font-family="MS Shell Dlg 2" font-size="29.1042" font-weight="400" font-style="normal" 
>
</g>

<g fill="none" stroke="#000000" stroke-opacity="1" stroke-width="7" stroke-linecap="round" stroke-linejoin="bevel" transform="matrix(1,0,0,1,2100,1485)"
font-family="MS Shell Dlg 2" font-size="29.1042" font-weight="400" font-style="normal" 
>
<path vector-effect="none" fill-rule="evenodd" d="M1300,1105 L1300,-1105"/>
</g>

<g fill="none" stroke="#000000" stroke-opacity="1" stroke-width="1" stroke-linecap="square" stroke-linejoin="bevel" transform="matrix(1,0,0,1,2100,1485)"
font-family="MS Shell Dlg 2" font-size="29.1042" font-weight="400" font-style="normal" 
>
</g>

<g fill="none" stroke="#000000" stroke-opacity="1" stroke-width="1" stroke-linecap="square" stroke-linejoin="bevel" transform="matrix(1,0,0,1,2100,1485)"
font-family="MS Shell Dlg 2" font-size="29.1042" font-weight="400" font-style="normal" 
>
</g>

<g fill="none" stroke="#000000" stroke-opacity="1" stroke-width="7" stroke-linecap="round" stroke-linejoin="bevel" transform="matrix(1,0,0,1,2100,1485)"
font-family="MS Shell Dlg 2" font-size="29.1042" font-weight="400" font-style="normal" 
>
<path vector-effect="none" fill-rule="evenodd" d="M971,-1027.5 C971,-1015.9 961.598,-1006.5 950,-1006.5 C938.402,-1006.5 929,-1015.9 929,-1027.5 C929,-1039.1 938.402,-1048.5 950,-1048.5 C961.598,-1048.5 971,-1039.1 971,-1027.5 "/>
</g>

<g fill="none" stroke="#000000" stroke-opacity="1" stroke-width="1" stroke-linecap="square" stroke-linejoin="bevel" transform="matrix(1,0,0,1,2100,1485)"
font-family="MS Shell Dlg 2" font-size="29.1042" font-weight="400" font-style="normal" 
>
</g>

<g fill="none" stroke="#000000" stroke-opacity="1" stroke-width="1" stroke-linecap="square" stroke-linejoin="bevel" transform="matrix(1,0,0,1,2100,1485)"
font-family="MS Shell Dlg 2" font-size="29.1042" font-weight="400" font-style="normal" 
>
</g>

<g fill="none" stroke="#000000" stroke-opacity="1" stroke-width="7" stroke-linecap="round" stroke-linejoin="bevel" transform="matrix(1,0,0,1,2100,1485)"
font-family="MS Shell Dlg 2" font-size="29.1042" font-weight="400" font-style="normal" 
>
<path vector-effect="none" fill-rule="evenodd" d="M691,-1027.5 C691,-1015.9 681.598,-1006.5 670,-1006.5 C658.402,-1006.5 649,-1015.9 649,-1027.5 C649,-1039.1 658.402,-1048.5 670,-1048.5 C681.598,-1048.5 691,-1039.1 691,-1027.5 "/>
</g>

<g fill="none" stroke="#000000" stroke-opacity="1" stroke-width="1" stroke-linecap="square" stroke-linejoin="bevel" transform="matrix(1,0,0,1,2100,1485)"
font-family="MS Shell Dlg 2" font-size="29.1042" font-weight="400" font-style="normal" 
>
</g>

<g fill="none" stroke="#000000" stroke-opacity="1" stroke-width="1" stroke-linecap="square" stroke-linejoin="bevel" transform="matrix(1,0,0,1,2100,1485)"
font-family="MS Shell Dlg 2" font-size="29.1042" font-weight="400" font-style="normal" 
>
</g>

<g fill="none" stroke="#000000" stroke-opacity="1" stroke-width="7" stroke-linecap="round" stroke-linejoin="bevel" transform="matrix(1,0,0,1,2100,1485)"
font-family="MS Shell Dlg 2" font-size="29.1042" font-weight="400" font-style="normal" 
>
<path vector-effect="none" fill-rule="evenodd" d="M210,1120 C210,1131.05 201.046,1140 190,1140 C178.954,1140 170,1131.05 170,1120 C170,1108.95 178.954,1100 190,1100 C201.046,1100 210,1108.95 210,1120 "/>
</g>

<g fill="none" stroke="#000000" stroke-opacity="1" stroke-width="1" stroke-linecap="square" stroke-linejoin="bevel" transform="matrix(1,0,0,1,2100,1485)"
font-family="MS Shell Dlg 2" font-size="29.1042" font-weight="400" font-style="normal" 
>
</g>

<g fill="none" stroke="#000000" stroke-opacity="1" stroke-width="1" stroke-linecap="square" stroke-linejoin="bevel" transform="matrix(1,0,0,1,2100,1485)"
font-family="MS Shell Dlg 2" font-size="29.1042" font-weight="400" font-style="normal" 
>
</g>

<g fill="none" stroke="#000000" stroke-opacity="1" stroke-width="7" stroke-linecap="round" stroke-linejoin="bevel" transform="matrix(1,0,0,1,2100,1485)"
font-family="MS Shell Dlg 2" font-size="29.1042" font-weight="400" font-style="normal" 
>
<path vector-effect="none" fill-rule="evenodd" d="M-170,1120 C-170,1131.05 -178.954,1140 -190,1140 C-201.046,1140 -210,1131.05 -210,1120 C-210,1108.95 -201.046,1100 -190,1100 C-178.954,1100 -170,1108.95 -170,1120 "/>
</g>

<g fill="none" stroke="#000000" stroke-opacity="1" stroke-width="1" stroke-linecap="square" stroke-linejoin="bevel" transform="matrix(1,0,0,1,2100,1485)"
font-family="MS Shell Dlg 2" font-size="29.1042" font-weight="400" font-style="normal" 
>
</g>

<g fill="none" stroke="#000000" stroke-opacity="1" stroke-width="1" stroke-linecap="square" stroke-linejoin="bevel" transform="matrix(1,0,0,1,2100,1485)"
font-family="MS Shell Dlg 2" font-size="29.1042" font-weight="400" font-style="normal" 
>
</g>

<g fill="none" stroke="#000000" stroke-opacity="1" stroke-width="7" stroke-linecap="round" stroke-linejoin="bevel" transform="matrix(1,0,0,1,2100,1485)"
font-family="MS Shell Dlg 2" font-size="29.1042" font-weight="400" font-style="normal" 
>
<path vector-effect="none" fill-rule="evenodd" d="M-929,-1027.5 C-929,-1015.9 -938.402,-1006.5 -950,-1006.5 C-961.598,-1006.5 -971,-1015.9 -971,-1027.5 C-971,-1039.1 -961.598,-1048.5 -950,-1048.5 C-938.402,-1048.5 -929,-1039.1 -929,-1027.5 "/>
</g>

<g fill="none" stroke="#000000" stroke-opacity="1" stroke-width="1" stroke-linecap="square" stroke-linejoin="bevel" transform="matrix(1,0,0,1,2100,1485)"
font-family="MS Shell Dlg 2" font-size="29.1042" font-weight="400" font-style="normal" 
>
</g>

<g fill="none" stroke="#000000" stroke-opacity="1" stroke-width="1" stroke-linecap="square" stroke-linejoin="bevel" transform="matrix(1,0,0,1,2100,1485)"
font-family="MS Shell Dlg 2" font-size="29.1042" font-weight="400" font-style="normal" 
>
</g>

<g fill="none" stroke="#000000" stroke-opacity="1" stroke-width="7" stroke-linecap="round" stroke-linejoin="bevel" transform="matrix(1,0,0,1,2100,1485)"
font-family="MS Shell Dlg 2" font-size="29.1042" font-weight="400" font-style="normal" 
>
<path vector-effect="none" fill-rule="evenodd" d="M-649,-1027.5 C-649,-1015.9 -658.402,-1006.5 -670,-1006.5 C-681.598,-1006.5 -691,-1015.9 -691,-1027.5 C-691,-1039.1 -681.598,-1048.5 -670,-1048.5 C-658.402,-1048.5 -649,-1039.1 -649,-1027.5 "/>
</g>

<g fill="none" stroke="#000000" stroke-opacity="1" stroke-width="1" stroke-linecap="square" stroke-linejoin="bevel" transform="matrix(1,0,0,1,2100,1485)"
font-family="MS Shell Dlg 2" font-size="29.1042" font-weight="400" font-style="normal" 
>
</g>

<g fill="none" stroke="#000000" stroke-opacity="1" stroke-width="1" stroke-linecap="square" stroke-linejoin="bevel" transform="matrix(1,0,0,1,895,380)"
font-family="MS Shell Dlg 2" font-size="29.1042" font-weight="400" font-style="normal" 
>
</g>

<g fill="#000000" fill-opacity="1" stroke="#000000" stroke-opacity="1" stroke-width="3.5" stroke-linecap="round" stroke-linejoin="bevel" transform="matrix(1,0,0,1,895,380)"
font-family="MS Shell Dlg 2" font-size="29.1042" font-weight="400" font-style="normal" 
>
<path vector-effect="none" fill-rule="evenodd" d="M0,42 L0,-42 M42,0 L-42,0"/>
</g>

<g fill="none" stroke="#000000" stroke-opacity="1" stroke-width="1" stroke-linecap="square" stroke-linejoin="bevel" transform="matrix(1,0,0,1,895,380)"
font-family="MS Shell Dlg 2" font-size="29.1042" font-weight="400" font-style="normal" 
>
</g>

<g fill="none" stroke="#000000" stroke-opacity="1" stroke-width="1" stroke-linecap="square" stroke-linejoin="bevel" transform="matrix(1,0,0,1,895,2590)"
font-family="MS Shell Dlg 2" font-size="29.1042" font-weight="400" font-style="normal" 
>
</g>

<g fill="#000000" fill-opacity="1" stroke="#000000" stroke-opacity="1" stroke-width="3.5" stroke-linecap="round" stroke-linejoin="bevel" transform="matrix(1,0,0,1,895,2590)"
font-family="MS Shell Dlg 2" font-size="29.1042" font-weight="400" font-style="normal" 
>
<path vector-effect="none" fill-rule="evenodd" d="M0,42 L0,-42 M42,0 L-42,0"/>
</g>

<g fill="none" stroke="#000000" stroke-opacity="1" stroke-width="1" stroke-linecap="square" stroke-linejoin="bevel" transform="matrix(1,0,0,1,895,2590)"
font-family="MS Shell Dlg 2" font-size="29.1042" font-weight="400" font-style="normal" 
>
</g>

<g fill="none" stroke="#000000" stroke-opacity="1" stroke-width="1" stroke-linecap="square" stroke-linejoin="bevel" transform="matrix(1,0,0,1,3305,380)"
font-family="MS Shell Dlg 2" font-size="29.1042" font-weight="400" font-style="normal" 
>
</g>

<g fill="#000000" fill-opacity="1" stroke="#000000" stroke-opacity="1" stroke-width="3.5" stroke-linecap="round" stroke-linejoin="bevel" transform="matrix(1,0,0,1,3305,380)"
font-family="MS Shell Dlg 2" font-size="29.1042" font-weight="400" font-style="normal" 
>
<path vector-effect="none" fill-rule="evenodd" d="M0,42 L0,-42 M42,0 L-42,0"/>
</g>

<g fill="none" stroke="#000000" stroke-opacity="1" stroke-width="1" stroke-linecap="square" stroke-linejoin="bevel" transform="matrix(1,0,0,1,3305,380)"
font-family="MS Shell Dlg 2" font-size="29.1042" font-weight="400" font-style="normal" 
>
</g>

<g fill="none" stroke="#000000" stroke-opacity="1" stroke-width="1" stroke-linecap="square" stroke-linejoin="bevel" transform="matrix(1,0,0,1,3305,2590)"
font-family="MS Shell Dlg 2" font-size="29.1042" font-weight="400" font-style="normal" 
>
</g>

<g fill="#000000" fill-opacity="1" stroke="#000000" stroke-opacity="1" stroke-width="3.5" stroke-linecap="round" stroke-linejoin="bevel" transform="matrix(1,0,0,1,3305,2590)"
font-family="MS Shell Dlg 2" font-size="29.1042" font-weight="400" font-style="normal" 
>
<path vector-effect="none" fill-rule="evenodd" d="M0,42 L0,-42 M42,0 L-42,0"/>
</g>

<g fill="none" stroke="#000000" stroke-opacity="1" stroke-width="1" stroke-linecap="square" stroke-linejoin="bevel" transform="matrix(1,0,0,1,3305,2590)"
font-family="MS Shell Dlg 2" font-size="29.1042" font-weight="400" font-style="normal" 
>
</g>

<g fill="none" stroke="#000000" stroke-opacity="1" stroke-width="1" stroke-linecap="square" stroke-linejoin="bevel" transform="matrix(1,0,0,1,3050,457.5)"
font-family="MS Shell Dlg 2" font-size="29.1042" font-weight="400" font-style="normal" 
>
</g>

<g fill="#000000" fill-opacity="1" stroke="#000000" stroke-opacity="1" stroke-width="3.5" stroke-linecap="round" stroke-linejoin="bevel" transform="matrix(1,0,0,1,3050,457.5)"
font-family="MS Shell Dlg 2" font-size="29.1042" font-weight="400" font-style="normal" 
>
<path vector-effect="none" fill-rule="evenodd" d="M0,42 L0,-42 M42,0 L-42,0"/>
</g>

<g fill="none" stroke="#000000" stroke-opacity="1" stroke-width="1" stroke-linecap="square" stroke-linejoin="bevel" transform="matrix(1,0,0,1,3050,457.5)"
font-family="MS Shell Dlg 2" font-size="29.1042" font-weight="400" font-style="normal" 
>
</g>

<g fill="none" stroke="#000000" stroke-opacity="1" stroke-width="1" stroke-linecap="square" stroke-linejoin="bevel" transform="matrix(1,0,0,1,2770,457.5)"
font-family="MS Shell Dlg 2" font-size="29.1042" font-weight="400" font-style="normal" 
>
</g>

<g fill="#000000" fill-opacity="1" stroke="#000000" stroke-opacity="1" stroke-width="3.5" stroke-linecap="round" stroke-linejoin="bevel" transform="matrix(1,0,0,1,2770,457.5)"
font-family="MS Shell Dlg 2" font-size="29.1042" font-weight="400" font-style="normal" 
>
<path vector-effect="none" fill-rule="evenodd" d="M0,42 L0,-42 M42,0 L-42,0"/>
</g>

<g fill="none" stroke="#000000" stroke-opacity="1" stroke-width="1" stroke-linecap="square" stroke-linejoin="bevel" transform="matrix(1,0,0,1,2770,457.5)"
font-family="MS Shell Dlg 2" font-size="29.1042" font-weight="400" font-style="normal" 
>
</g>

<g fill="none" stroke="#000000" stroke-opacity="1" stroke-width="1" stroke-linecap="square" stroke-linejoin="bevel" transform="matrix(1,0,0,1,2290,2605)"
font-family="MS Shell Dlg 2" font-size="29.1042" font-weight="400" font-style="normal" 
>
</g>

<g fill="#000000" fill-opacity="1" stroke="#000000" stroke-opacity="1" stroke-width="3.5" stroke-linecap="round" stroke-linejoin="bevel" transform="matrix(1,0,0,1,2290,2605)"
font-family="MS Shell Dlg 2" font-size="29.1042" font-weight="400" font-style="normal" 
>
<path vector-effect="none" fill-rule="evenodd" d="M0,42 L0,-42 M42,0 L-42,0"/>
</g>

<g fill="none" stroke="#000000" stroke-opacity="1" stroke-width="1" stroke-linecap="square" stroke-linejoin="bevel" transform="matrix(1,0,0,1,2290,2605)"
font-family="MS Shell Dlg 2" font-size="29.1042" font-weight="400" font-style="normal" 
>
</g>

<g fill="none" stroke="#000000" stroke-opacity="1" stroke-width="1" stroke-linecap="square" stroke-linejoin="bevel" transform="matrix(1,0,0,1,1910,2605)"
font-family="MS Shell Dlg 2" font-size="29.1042" font-weight="400" font-style="normal" 
>
</g>

<g fill="#000000" fill-opacity="1" stroke="#000000" stroke-opacity="1" stroke-width="3.5" stroke-linecap="round" stroke-linejoin="bevel" transform="matrix(1,0,0,1,1910,2605)"
font-family="MS Shell Dlg 2" font-size="29.1042" font-weight="400" font-style="normal" 
>
<path vector-effect="none" fill-rule="evenodd" d="M0,42 L0,-42 M42,0 L-42,0"/>
</g>

<g fill="none" stroke="#000000" stroke-opacity="1" stroke-width="1" stroke-linecap="square" stroke-linejoin="bevel" transform="matrix(1,0,0,1,1910,2605)"
font-family="MS Shell Dlg 2" font-size="29.1042" font-weight="400" font-style="normal" 
>
</g>

<g fill="none" stroke="#000000" stroke-opacity="1" stroke-width="1" stroke-linecap="square" stroke-linejoin="bevel" transform="matrix(1,0,0,1,1150,457.5)"
font-family="MS Shell Dlg 2" font-size="29.1042" font-weight="400" font-style="normal" 
>
</g>

<g fill="#000000" fill-opacity="1" stroke="#000000" stroke-opacity="1" stroke-width="3.5" stroke-linecap="round" stroke-linejoin="bevel" transform="matrix(1,0,0,1,1150,457.5)"
font-family="MS Shell Dlg 2" font-size="29.1042" font-weight="400" font-style="normal" 
>
<path vector-effect="none" fill-rule="evenodd" d="M0,42 L0,-42 M42,0 L-42,0"/>
</g>

<g fill="none" stroke="#000000" stroke-opacity="1" stroke-width="1" stroke-linecap="square" stroke-linejoin="bevel" transform="matrix(1,0,0,1,1150,457.5)"
font-family="MS Shell Dlg 2" font-size="29.1042" font-weight="400" font-style="normal" 
>
</g>

<g fill="none" stroke="#000000" stroke-opacity="1" stroke-width="1" stroke-linecap="square" stroke-linejoin="bevel" transform="matrix(1,0,0,1,1430,457.5)"
font-family="MS Shell Dlg 2" font-size="29.1042" font-weight="400" font-style="normal" 
>
</g>

<g fill="#000000" fill-opacity="1" stroke="#000000" stroke-opacity="1" stroke-width="3.5" stroke-linecap="round" stroke-linejoin="bevel" transform="matrix(1,0,0,1,1430,457.5)"
font-family="MS Shell Dlg 2" font-size="29.1042" font-weight="400" font-style="normal" 
>
<path vector-effect="none" fill-rule="evenodd" d="M0,42 L0,-42 M42,0 L-42,0"/>
</g>

<g fill="none" stroke="#000000" stroke-opacity="1" stroke-width="1" stroke-linecap="square" stroke-linejoin="bevel" transform="matrix(1,0,0,1,1430,457.5)"
font-family="MS Shell Dlg 2" font-size="29.1042" font-weight="400" font-style="normal" 
>
</g>

<g fill="none" stroke="#000000" stroke-opacity="1" stroke-width="1" stroke-linecap="square" stroke-linejoin="bevel" transform="matrix(1,0,0,1,0,0)"
font-family="MS Shell Dlg 2" font-size="29.1042" font-weight="400" font-style="normal" 
>
</g>
</g>
</svg>
