<?xml version="1.0" encoding="UTF-8" standalone="no"?>
<svg width="297mm" height="210mm"
 viewBox="0 0 2970 2100"
 xmlns="http://www.w3.org/2000/svg" xmlns:xlink="http://www.w3.org/1999/xlink"  version="1.2" baseProfile="tiny">
<title>FreeCAD SVG Export</title>
<desc>Drawing page: Page exported from FreeCAD document: Corelia_0_Electronics_HMI_plate</desc>
<defs>
</defs>
<g fill="none" stroke="black" stroke-width="1" fill-rule="evenodd" stroke-linecap="square" stroke-linejoin="bevel" >

<g fill="none" stroke="#000000" stroke-opacity="1" stroke-width="1" stroke-linecap="square" stroke-linejoin="bevel" transform="matrix(1,0,0,1,0,0)"
font-family="Ubuntu" font-size="38.8056" font-weight="400" font-style="normal" 
>
</g>

<g fill="none" stroke="#000000" stroke-opacity="1" stroke-width="1" stroke-linecap="square" stroke-linejoin="bevel" transform="matrix(1,0,0,1,0,2100)"
font-family="Ubuntu" font-size="38.8056" font-weight="400" font-style="normal" 
>
</g>

<g fill="none" stroke="#000000" stroke-opacity="1" stroke-width="1" stroke-linecap="square" stroke-linejoin="bevel" transform="matrix(1,0,0,1,0,2100)"
font-family="Ubuntu" font-size="38.8056" font-weight="400" font-style="normal" 
>
</g>

<g fill="none" stroke="#000000" stroke-opacity="1" stroke-width="1" stroke-linecap="square" stroke-linejoin="bevel" transform="matrix(2.82319,0,0,2.82258,0,0)"
font-family="Ubuntu" font-size="38.8056" font-weight="400" font-style="normal" 
>
</g>

<g fill="none" stroke="#000000" stroke-opacity="1" stroke-width="1" stroke-linecap="square" stroke-linejoin="bevel" transform="matrix(2.82319,0,0,2.82258,0,0)"
font-family="Ubuntu" font-size="38.8056" font-weight="400" font-style="normal" 
>
</g>

<g fill="none" stroke="#000000" stroke-opacity="1" stroke-width="1" stroke-linecap="square" stroke-linejoin="bevel" transform="matrix(2.82319,0,0,2.82258,0,0)"
font-family="Ubuntu" font-size="38.8056" font-weight="400" font-style="normal" 
>
</g>

<g fill="none" stroke="#000000" stroke-opacity="1" stroke-width="1" stroke-linecap="square" stroke-linejoin="bevel" transform="matrix(2.82319,0,0,2.82258,0,0)"
font-family="Ubuntu" font-size="38.8056" font-weight="400" font-style="normal" 
>
</g>

<g fill="none" stroke="#000000" stroke-opacity="1" stroke-width="1" stroke-linecap="square" stroke-linejoin="bevel" transform="matrix(1,0,0,1,0,0)"
font-family="Ubuntu" font-size="38.8056" font-weight="400" font-style="normal" 
>
</g>

<g fill="none" stroke="#000000" stroke-opacity="1" stroke-width="1" stroke-linecap="square" stroke-linejoin="bevel" transform="matrix(2.82319,0,0,2.82258,0,0)"
font-family="Ubuntu" font-size="38.8056" font-weight="400" font-style="normal" 
>
</g>

<g fill="none" stroke="#000000" stroke-opacity="1" stroke-width="1" stroke-linecap="square" stroke-linejoin="bevel" transform="matrix(1,0,0,1,1485,1050)"
font-family="Ubuntu" font-size="38.8056" font-weight="400" font-style="normal" 
>
</g>

<g fill="none" stroke="#000000" stroke-opacity="1" stroke-width="1" stroke-linecap="square" stroke-linejoin="bevel" transform="matrix(1,0,0,1,1485,1050)"
font-family="Ubuntu" font-size="38.8056" font-weight="400" font-style="normal" 
>
</g>

<g fill="none" stroke="#000000" stroke-opacity="1" stroke-width="1" stroke-linecap="square" stroke-linejoin="bevel" transform="matrix(1,0,0,1,1481,1287.5)"
font-family="Ubuntu" font-size="38.8056" font-weight="400" font-style="normal" 
>
</g>

<g fill="none" stroke="#000000" stroke-opacity="1" stroke-width="1" stroke-linecap="square" stroke-linejoin="bevel" transform="matrix(0.353,0,0,0.353,1473,1340.36)"
font-family="Ubuntu" font-size="38.8056" font-weight="400" font-style="normal" 
>
</g>

<g fill="none" stroke="#000000" stroke-opacity="1" stroke-width="1" stroke-linecap="square" stroke-linejoin="bevel" transform="matrix(0.353,0,0,0.353,1473,1340.36)"
font-family="Ubuntu" font-size="38.8056" font-weight="400" font-style="normal" 
>
</g>

<g fill="none" stroke="#000000" stroke-opacity="1" stroke-width="1" stroke-linecap="square" stroke-linejoin="bevel" transform="matrix(0.353,0,0,0.353,1473,1340.36)"
font-family="Ubuntu" font-size="38.8056" font-weight="400" font-style="normal" 
>
</g>

<g fill="none" stroke="#000000" stroke-opacity="1" stroke-width="1" stroke-linecap="square" stroke-linejoin="bevel" transform="matrix(0.353,0,0,0.353,1473,1340.36)"
font-family="Ubuntu" font-size="38.8056" font-weight="400" font-style="normal" 
>
</g>

<g fill="none" stroke="#000000" stroke-opacity="1" stroke-width="1" stroke-linecap="square" stroke-linejoin="bevel" transform="matrix(1,0,0,1,0,0)"
font-family="Ubuntu" font-size="38.8056" font-weight="400" font-style="normal" 
>
</g>

<g fill="none" stroke="#000000" stroke-opacity="1" stroke-width="1" stroke-linecap="square" stroke-linejoin="bevel" transform="matrix(0.353,0,0,0.353,1473,1340.36)"
font-family="Ubuntu" font-size="38.8056" font-weight="400" font-style="normal" 
>
</g>

<g fill="none" stroke="#000000" stroke-opacity="1" stroke-width="1" stroke-linecap="square" stroke-linejoin="bevel" transform="matrix(0.353,0,0,0.353,1473,1340.36)"
font-family="Ubuntu" font-size="38.8056" font-weight="400" font-style="normal" 
>
</g>

<g fill="none" stroke="#000000" stroke-opacity="1" stroke-width="1" stroke-linecap="square" stroke-linejoin="bevel" transform="matrix(1,0,0,1,1481,1287.5)"
font-family="Ubuntu" font-size="38.8056" font-weight="400" font-style="normal" 
>
</g>

<g fill="none" stroke="#000000" stroke-opacity="1" stroke-width="1" stroke-linecap="square" stroke-linejoin="bevel" transform="matrix(1,0,0,1,1485,1050)"
font-family="Ubuntu" font-size="38.8056" font-weight="400" font-style="normal" 
>
</g>

<g fill="#ffffff" fill-opacity="1" stroke="none" transform="matrix(1,0,0,1,1485,1050)"
font-family="Ubuntu" font-size="38.8056" font-weight="400" font-style="normal" 
>
<path vector-effect="non-scaling-stroke" fill-rule="evenodd" d="M193,-200 L193,-220 L680,-220 L680,220 L-680,220 L-680,-220 L-247,-220 L-247,-200 C-247,-188.954 -238.046,-180 -227,-180 L173,-180 C184.046,-180 193,-188.954 193,-200 "/>
</g>

<g fill="none" stroke="#000000" stroke-opacity="1" stroke-width="1" stroke-linecap="square" stroke-linejoin="bevel" transform="matrix(1,0,0,1,1485,1050)"
font-family="Ubuntu" font-size="38.8056" font-weight="400" font-style="normal" 
>
</g>

<g fill="none" stroke="#000000" stroke-opacity="1" stroke-width="1" stroke-linecap="square" stroke-linejoin="bevel" transform="matrix(1,0,0,1,1485,1050)"
font-family="Ubuntu" font-size="38.8056" font-weight="400" font-style="normal" 
>
</g>

<g fill="none" stroke="#000000" stroke-opacity="1" stroke-width="1" stroke-linecap="square" stroke-linejoin="bevel" transform="matrix(1,0,0,1,1485,1050)"
font-family="Ubuntu" font-size="38.8056" font-weight="400" font-style="normal" 
>
</g>

<g fill="none" stroke="#000000" stroke-opacity="1" stroke-width="1" stroke-linecap="square" stroke-linejoin="bevel" transform="matrix(1,0,0,1,0,0)"
font-family="Ubuntu" font-size="38.8056" font-weight="400" font-style="normal" 
>
</g>

<g fill="none" stroke="#000000" stroke-opacity="1" stroke-width="1" stroke-linecap="square" stroke-linejoin="bevel" transform="matrix(1,0,0,1,1485,1050)"
font-family="Ubuntu" font-size="38.8056" font-weight="400" font-style="normal" 
>
</g>

<g fill="none" stroke="#000000" stroke-opacity="1" stroke-width="1" stroke-linecap="square" stroke-linejoin="bevel" transform="matrix(1,0,0,1,1485,1050)"
font-family="Ubuntu" font-size="38.8056" font-weight="400" font-style="normal" 
>
</g>

<g fill="#ffffff" fill-opacity="1" stroke="none" transform="matrix(1,0,0,1,1485,1050)"
font-family="Ubuntu" font-size="38.8056" font-weight="400" font-style="normal" 
>
<path vector-effect="non-scaling-stroke" fill-rule="evenodd" d="M642.5,0 C642.5,6.90356 636.904,12.5 630,12.5 C623.096,12.5 617.5,6.90356 617.5,0 C617.5,-6.90356 623.096,-12.5 630,-12.5 C636.904,-12.5 642.5,-6.90356 642.5,0 "/>
</g>

<g fill="none" stroke="#000000" stroke-opacity="1" stroke-width="1" stroke-linecap="square" stroke-linejoin="bevel" transform="matrix(1,0,0,1,1485,1050)"
font-family="Ubuntu" font-size="38.8056" font-weight="400" font-style="normal" 
>
</g>

<g fill="none" stroke="#000000" stroke-opacity="1" stroke-width="1" stroke-linecap="square" stroke-linejoin="bevel" transform="matrix(1,0,0,1,1485,1050)"
font-family="Ubuntu" font-size="38.8056" font-weight="400" font-style="normal" 
>
</g>

<g fill="none" stroke="#000000" stroke-opacity="1" stroke-width="1" stroke-linecap="square" stroke-linejoin="bevel" transform="matrix(1,0,0,1,1485,1050)"
font-family="Ubuntu" font-size="38.8056" font-weight="400" font-style="normal" 
>
</g>

<g fill="none" stroke="#000000" stroke-opacity="1" stroke-width="1" stroke-linecap="square" stroke-linejoin="bevel" transform="matrix(1,0,0,1,0,0)"
font-family="Ubuntu" font-size="38.8056" font-weight="400" font-style="normal" 
>
</g>

<g fill="none" stroke="#000000" stroke-opacity="1" stroke-width="1" stroke-linecap="square" stroke-linejoin="bevel" transform="matrix(1,0,0,1,1485,1050)"
font-family="Ubuntu" font-size="38.8056" font-weight="400" font-style="normal" 
>
</g>

<g fill="none" stroke="#000000" stroke-opacity="1" stroke-width="1" stroke-linecap="square" stroke-linejoin="bevel" transform="matrix(1,0,0,1,1485,1050)"
font-family="Ubuntu" font-size="38.8056" font-weight="400" font-style="normal" 
>
</g>

<g fill="#ffffff" fill-opacity="1" stroke="none" transform="matrix(1,0,0,1,1485,1050)"
font-family="Ubuntu" font-size="38.8056" font-weight="400" font-style="normal" 
>
<path vector-effect="non-scaling-stroke" fill-rule="evenodd" d="M-617.5,0 C-617.5,6.90356 -623.096,12.5 -630,12.5 C-636.904,12.5 -642.5,6.90356 -642.5,0 C-642.5,-6.90356 -636.904,-12.5 -630,-12.5 C-623.096,-12.5 -617.5,-6.90356 -617.5,0 "/>
</g>

<g fill="none" stroke="#000000" stroke-opacity="1" stroke-width="1" stroke-linecap="square" stroke-linejoin="bevel" transform="matrix(1,0,0,1,1485,1050)"
font-family="Ubuntu" font-size="38.8056" font-weight="400" font-style="normal" 
>
</g>

<g fill="none" stroke="#000000" stroke-opacity="1" stroke-width="1" stroke-linecap="square" stroke-linejoin="bevel" transform="matrix(1,0,0,1,1485,1050)"
font-family="Ubuntu" font-size="38.8056" font-weight="400" font-style="normal" 
>
</g>

<g fill="none" stroke="#000000" stroke-opacity="1" stroke-width="1" stroke-linecap="square" stroke-linejoin="bevel" transform="matrix(1,0,0,1,1485,1050)"
font-family="Ubuntu" font-size="38.8056" font-weight="400" font-style="normal" 
>
</g>

<g fill="none" stroke="#000000" stroke-opacity="1" stroke-width="1" stroke-linecap="square" stroke-linejoin="bevel" transform="matrix(1,0,0,1,0,0)"
font-family="Ubuntu" font-size="38.8056" font-weight="400" font-style="normal" 
>
</g>

<g fill="none" stroke="#000000" stroke-opacity="1" stroke-width="1" stroke-linecap="square" stroke-linejoin="bevel" transform="matrix(1,0,0,1,1485,1050)"
font-family="Ubuntu" font-size="38.8056" font-weight="400" font-style="normal" 
>
</g>

<g fill="none" stroke="#000000" stroke-opacity="1" stroke-width="1" stroke-linecap="square" stroke-linejoin="bevel" transform="matrix(1,0,0,1,1485,1050)"
font-family="Ubuntu" font-size="38.8056" font-weight="400" font-style="normal" 
>
</g>

<g fill="none" stroke="#000000" stroke-opacity="1" stroke-width="7" stroke-linecap="round" stroke-linejoin="bevel" transform="matrix(1,0,0,1,1485,1050)"
font-family="Ubuntu" font-size="38.8056" font-weight="400" font-style="normal" 
>
<path vector-effect="none" fill-rule="evenodd" d="M193,-200 L193,-220"/>
</g>

<g fill="none" stroke="#000000" stroke-opacity="1" stroke-width="1" stroke-linecap="square" stroke-linejoin="bevel" transform="matrix(1,0,0,1,1485,1050)"
font-family="Ubuntu" font-size="38.8056" font-weight="400" font-style="normal" 
>
</g>

<g fill="none" stroke="#000000" stroke-opacity="1" stroke-width="1" stroke-linecap="square" stroke-linejoin="bevel" transform="matrix(1,0,0,1,1485,1050)"
font-family="Ubuntu" font-size="38.8056" font-weight="400" font-style="normal" 
>
</g>

<g fill="none" stroke="#000000" stroke-opacity="1" stroke-width="7" stroke-linecap="round" stroke-linejoin="bevel" transform="matrix(1,0,0,1,1485,1050)"
font-family="Ubuntu" font-size="38.8056" font-weight="400" font-style="normal" 
>
<path vector-effect="none" fill-rule="evenodd" d="M193,-200 C193,-188.954 184.046,-180 173,-180 "/>
</g>

<g fill="none" stroke="#000000" stroke-opacity="1" stroke-width="1" stroke-linecap="square" stroke-linejoin="bevel" transform="matrix(1,0,0,1,1485,1050)"
font-family="Ubuntu" font-size="38.8056" font-weight="400" font-style="normal" 
>
</g>

<g fill="none" stroke="#000000" stroke-opacity="1" stroke-width="1" stroke-linecap="square" stroke-linejoin="bevel" transform="matrix(1,0,0,1,1485,1050)"
font-family="Ubuntu" font-size="38.8056" font-weight="400" font-style="normal" 
>
</g>

<g fill="none" stroke="#000000" stroke-opacity="1" stroke-width="7" stroke-linecap="round" stroke-linejoin="bevel" transform="matrix(1,0,0,1,1485,1050)"
font-family="Ubuntu" font-size="38.8056" font-weight="400" font-style="normal" 
>
<path vector-effect="none" fill-rule="evenodd" d="M193,-220 L680,-220"/>
</g>

<g fill="none" stroke="#000000" stroke-opacity="1" stroke-width="1" stroke-linecap="square" stroke-linejoin="bevel" transform="matrix(1,0,0,1,1485,1050)"
font-family="Ubuntu" font-size="38.8056" font-weight="400" font-style="normal" 
>
</g>

<g fill="none" stroke="#000000" stroke-opacity="1" stroke-width="1" stroke-linecap="square" stroke-linejoin="bevel" transform="matrix(1,0,0,1,1485,1050)"
font-family="Ubuntu" font-size="38.8056" font-weight="400" font-style="normal" 
>
</g>

<g fill="none" stroke="#000000" stroke-opacity="1" stroke-width="7" stroke-linecap="round" stroke-linejoin="bevel" transform="matrix(1,0,0,1,1485,1050)"
font-family="Ubuntu" font-size="38.8056" font-weight="400" font-style="normal" 
>
<path vector-effect="none" fill-rule="evenodd" d="M-227,-180 L173,-180"/>
</g>

<g fill="none" stroke="#000000" stroke-opacity="1" stroke-width="1" stroke-linecap="square" stroke-linejoin="bevel" transform="matrix(1,0,0,1,1485,1050)"
font-family="Ubuntu" font-size="38.8056" font-weight="400" font-style="normal" 
>
</g>

<g fill="none" stroke="#000000" stroke-opacity="1" stroke-width="1" stroke-linecap="square" stroke-linejoin="bevel" transform="matrix(1,0,0,1,1485,1050)"
font-family="Ubuntu" font-size="38.8056" font-weight="400" font-style="normal" 
>
</g>

<g fill="none" stroke="#000000" stroke-opacity="1" stroke-width="7" stroke-linecap="round" stroke-linejoin="bevel" transform="matrix(1,0,0,1,1485,1050)"
font-family="Ubuntu" font-size="38.8056" font-weight="400" font-style="normal" 
>
<path vector-effect="none" fill-rule="evenodd" d="M680,-220 L680,220"/>
</g>

<g fill="none" stroke="#000000" stroke-opacity="1" stroke-width="1" stroke-linecap="square" stroke-linejoin="bevel" transform="matrix(1,0,0,1,1485,1050)"
font-family="Ubuntu" font-size="38.8056" font-weight="400" font-style="normal" 
>
</g>

<g fill="none" stroke="#000000" stroke-opacity="1" stroke-width="1" stroke-linecap="square" stroke-linejoin="bevel" transform="matrix(1,0,0,1,1485,1050)"
font-family="Ubuntu" font-size="38.8056" font-weight="400" font-style="normal" 
>
</g>

<g fill="none" stroke="#000000" stroke-opacity="1" stroke-width="7" stroke-linecap="round" stroke-linejoin="bevel" transform="matrix(1,0,0,1,1485,1050)"
font-family="Ubuntu" font-size="38.8056" font-weight="400" font-style="normal" 
>
<path vector-effect="none" fill-rule="evenodd" d="M-227,-180 C-238.046,-180 -247,-188.954 -247,-200 "/>
</g>

<g fill="none" stroke="#000000" stroke-opacity="1" stroke-width="1" stroke-linecap="square" stroke-linejoin="bevel" transform="matrix(1,0,0,1,1485,1050)"
font-family="Ubuntu" font-size="38.8056" font-weight="400" font-style="normal" 
>
</g>

<g fill="none" stroke="#000000" stroke-opacity="1" stroke-width="1" stroke-linecap="square" stroke-linejoin="bevel" transform="matrix(1,0,0,1,1485,1050)"
font-family="Ubuntu" font-size="38.8056" font-weight="400" font-style="normal" 
>
</g>

<g fill="none" stroke="#000000" stroke-opacity="1" stroke-width="7" stroke-linecap="round" stroke-linejoin="bevel" transform="matrix(1,0,0,1,1485,1050)"
font-family="Ubuntu" font-size="38.8056" font-weight="400" font-style="normal" 
>
<path vector-effect="none" fill-rule="evenodd" d="M680,220 L-680,220"/>
</g>

<g fill="none" stroke="#000000" stroke-opacity="1" stroke-width="1" stroke-linecap="square" stroke-linejoin="bevel" transform="matrix(1,0,0,1,1485,1050)"
font-family="Ubuntu" font-size="38.8056" font-weight="400" font-style="normal" 
>
</g>

<g fill="none" stroke="#000000" stroke-opacity="1" stroke-width="1" stroke-linecap="square" stroke-linejoin="bevel" transform="matrix(1,0,0,1,1485,1050)"
font-family="Ubuntu" font-size="38.8056" font-weight="400" font-style="normal" 
>
</g>

<g fill="none" stroke="#000000" stroke-opacity="1" stroke-width="7" stroke-linecap="round" stroke-linejoin="bevel" transform="matrix(1,0,0,1,1485,1050)"
font-family="Ubuntu" font-size="38.8056" font-weight="400" font-style="normal" 
>
<path vector-effect="none" fill-rule="evenodd" d="M-247,-220 L-247,-200"/>
</g>

<g fill="none" stroke="#000000" stroke-opacity="1" stroke-width="1" stroke-linecap="square" stroke-linejoin="bevel" transform="matrix(1,0,0,1,1485,1050)"
font-family="Ubuntu" font-size="38.8056" font-weight="400" font-style="normal" 
>
</g>

<g fill="none" stroke="#000000" stroke-opacity="1" stroke-width="1" stroke-linecap="square" stroke-linejoin="bevel" transform="matrix(1,0,0,1,1485,1050)"
font-family="Ubuntu" font-size="38.8056" font-weight="400" font-style="normal" 
>
</g>

<g fill="none" stroke="#000000" stroke-opacity="1" stroke-width="7" stroke-linecap="round" stroke-linejoin="bevel" transform="matrix(1,0,0,1,1485,1050)"
font-family="Ubuntu" font-size="38.8056" font-weight="400" font-style="normal" 
>
<path vector-effect="none" fill-rule="evenodd" d="M-680,220 L-680,-220"/>
</g>

<g fill="none" stroke="#000000" stroke-opacity="1" stroke-width="1" stroke-linecap="square" stroke-linejoin="bevel" transform="matrix(1,0,0,1,1485,1050)"
font-family="Ubuntu" font-size="38.8056" font-weight="400" font-style="normal" 
>
</g>

<g fill="none" stroke="#000000" stroke-opacity="1" stroke-width="1" stroke-linecap="square" stroke-linejoin="bevel" transform="matrix(1,0,0,1,1485,1050)"
font-family="Ubuntu" font-size="38.8056" font-weight="400" font-style="normal" 
>
</g>

<g fill="none" stroke="#000000" stroke-opacity="1" stroke-width="7" stroke-linecap="round" stroke-linejoin="bevel" transform="matrix(1,0,0,1,1485,1050)"
font-family="Ubuntu" font-size="38.8056" font-weight="400" font-style="normal" 
>
<path vector-effect="none" fill-rule="evenodd" d="M-680,-220 L-247,-220"/>
</g>

<g fill="none" stroke="#000000" stroke-opacity="1" stroke-width="1" stroke-linecap="square" stroke-linejoin="bevel" transform="matrix(1,0,0,1,1485,1050)"
font-family="Ubuntu" font-size="38.8056" font-weight="400" font-style="normal" 
>
</g>

<g fill="none" stroke="#000000" stroke-opacity="1" stroke-width="1" stroke-linecap="square" stroke-linejoin="bevel" transform="matrix(1,0,0,1,1485,1050)"
font-family="Ubuntu" font-size="38.8056" font-weight="400" font-style="normal" 
>
</g>

<g fill="none" stroke="#000000" stroke-opacity="1" stroke-width="7" stroke-linecap="round" stroke-linejoin="bevel" transform="matrix(1,0,0,1,1485,1050)"
font-family="Ubuntu" font-size="38.8056" font-weight="400" font-style="normal" 
>
<path vector-effect="none" fill-rule="evenodd" d="M-617.5,0 C-617.5,6.90356 -623.096,12.5 -630,12.5 C-636.904,12.5 -642.5,6.90356 -642.5,0 C-642.5,-6.90356 -636.904,-12.5 -630,-12.5 C-623.096,-12.5 -617.5,-6.90356 -617.5,0 "/>
</g>

<g fill="none" stroke="#000000" stroke-opacity="1" stroke-width="1" stroke-linecap="square" stroke-linejoin="bevel" transform="matrix(1,0,0,1,1485,1050)"
font-family="Ubuntu" font-size="38.8056" font-weight="400" font-style="normal" 
>
</g>

<g fill="none" stroke="#000000" stroke-opacity="1" stroke-width="1" stroke-linecap="square" stroke-linejoin="bevel" transform="matrix(1,0,0,1,1485,1050)"
font-family="Ubuntu" font-size="38.8056" font-weight="400" font-style="normal" 
>
</g>

<g fill="none" stroke="#000000" stroke-opacity="1" stroke-width="7" stroke-linecap="round" stroke-linejoin="bevel" transform="matrix(1,0,0,1,1485,1050)"
font-family="Ubuntu" font-size="38.8056" font-weight="400" font-style="normal" 
>
<path vector-effect="none" fill-rule="evenodd" d="M642.5,0 C642.5,6.90356 636.904,12.5 630,12.5 C623.096,12.5 617.5,6.90356 617.5,0 C617.5,-6.90356 623.096,-12.5 630,-12.5 C636.904,-12.5 642.5,-6.90356 642.5,0 "/>
</g>

<g fill="none" stroke="#000000" stroke-opacity="1" stroke-width="1" stroke-linecap="square" stroke-linejoin="bevel" transform="matrix(1,0,0,1,1485,1050)"
font-family="Ubuntu" font-size="38.8056" font-weight="400" font-style="normal" 
>
</g>

<g fill="none" stroke="#000000" stroke-opacity="1" stroke-width="1" stroke-linecap="square" stroke-linejoin="bevel" transform="matrix(1,0,0,1,1658,850)"
font-family="Ubuntu" font-size="38.8056" font-weight="400" font-style="normal" 
>
</g>

<g fill="#000000" fill-opacity="1" stroke="#000000" stroke-opacity="1" stroke-width="3.5" stroke-linecap="round" stroke-linejoin="bevel" transform="matrix(1,0,0,1,1658,850)"
font-family="Ubuntu" font-size="38.8056" font-weight="400" font-style="normal" 
>
<path vector-effect="none" fill-rule="evenodd" d="M0,42 L0,-42 M42,0 L-42,0"/>
</g>

<g fill="none" stroke="#000000" stroke-opacity="1" stroke-width="1" stroke-linecap="square" stroke-linejoin="bevel" transform="matrix(1,0,0,1,1658,850)"
font-family="Ubuntu" font-size="38.8056" font-weight="400" font-style="normal" 
>
</g>

<g fill="none" stroke="#000000" stroke-opacity="1" stroke-width="1" stroke-linecap="square" stroke-linejoin="bevel" transform="matrix(1,0,0,1,1258,850)"
font-family="Ubuntu" font-size="38.8056" font-weight="400" font-style="normal" 
>
</g>

<g fill="#000000" fill-opacity="1" stroke="#000000" stroke-opacity="1" stroke-width="3.5" stroke-linecap="round" stroke-linejoin="bevel" transform="matrix(1,0,0,1,1258,850)"
font-family="Ubuntu" font-size="38.8056" font-weight="400" font-style="normal" 
>
<path vector-effect="none" fill-rule="evenodd" d="M0,42 L0,-42 M42,0 L-42,0"/>
</g>

<g fill="none" stroke="#000000" stroke-opacity="1" stroke-width="1" stroke-linecap="square" stroke-linejoin="bevel" transform="matrix(1,0,0,1,1258,850)"
font-family="Ubuntu" font-size="38.8056" font-weight="400" font-style="normal" 
>
</g>

<g fill="none" stroke="#000000" stroke-opacity="1" stroke-width="1" stroke-linecap="square" stroke-linejoin="bevel" transform="matrix(1,0,0,1,855,1050)"
font-family="Ubuntu" font-size="38.8056" font-weight="400" font-style="normal" 
>
</g>

<g fill="#000000" fill-opacity="1" stroke="#000000" stroke-opacity="1" stroke-width="3.5" stroke-linecap="round" stroke-linejoin="bevel" transform="matrix(1,0,0,1,855,1050)"
font-family="Ubuntu" font-size="38.8056" font-weight="400" font-style="normal" 
>
<path vector-effect="none" fill-rule="evenodd" d="M0,42 L0,-42 M42,0 L-42,0"/>
</g>

<g fill="none" stroke="#000000" stroke-opacity="1" stroke-width="1" stroke-linecap="square" stroke-linejoin="bevel" transform="matrix(1,0,0,1,855,1050)"
font-family="Ubuntu" font-size="38.8056" font-weight="400" font-style="normal" 
>
</g>

<g fill="none" stroke="#000000" stroke-opacity="1" stroke-width="1" stroke-linecap="square" stroke-linejoin="bevel" transform="matrix(1,0,0,1,2115,1050)"
font-family="Ubuntu" font-size="38.8056" font-weight="400" font-style="normal" 
>
</g>

<g fill="#000000" fill-opacity="1" stroke="#000000" stroke-opacity="1" stroke-width="3.5" stroke-linecap="round" stroke-linejoin="bevel" transform="matrix(1,0,0,1,2115,1050)"
font-family="Ubuntu" font-size="38.8056" font-weight="400" font-style="normal" 
>
<path vector-effect="none" fill-rule="evenodd" d="M0,42 L0,-42 M42,0 L-42,0"/>
</g>

<g fill="none" stroke="#000000" stroke-opacity="1" stroke-width="1" stroke-linecap="square" stroke-linejoin="bevel" transform="matrix(1,0,0,1,2115,1050)"
font-family="Ubuntu" font-size="38.8056" font-weight="400" font-style="normal" 
>
</g>

<g fill="none" stroke="#000000" stroke-opacity="1" stroke-width="1" stroke-linecap="square" stroke-linejoin="bevel" transform="matrix(1,0,0,1,0,0)"
font-family="Ubuntu" font-size="38.8056" font-weight="400" font-style="normal" 
>
</g>
</g>
</svg>
