  0
SECTION
  2
HEADER
  9
$ACADVER
  1
AC1014
  9
$HANDSEED
  5
FFFF
  9
$MEASUREMENT
 70
     1
  0
ENDSEC
  0
SECTION
  2
TABLES
  0
TABLE
  2
VPORT
  5
8
330
0
100
AcDbSymbolTable
 70
     4
  0
VPORT
  5
2E
330
8
100
AcDbSymbolTableRecord
100
AcDbViewportTableRecord
  2
*ACTIVE
 70
     0
 10
0.0
 20
0.0
 11
1.0
 21
1.0
 12
210.0
 22
148.5
 13
0.0
 23
0.0
 14
10.0
 24
10.0
 15
10.0
 25
10.0
 16
0.0
 26
0.0
 36
1.0
 17
0.0
 27
0.0
 37
0.0
 40
341.0
 41
1.24
 42
50.0
 43
0.0
 44
0.0
 50
0.0
 51
0.0
 71
     0
 72
   100
 73
     1
 74
     3
 75
     0
 76
     0
 77
     0
 78
     0
  0
ENDTAB
  0
TABLE
  2
LTYPE
  5
5
330
0
100
AcDbSymbolTable
 70
     1
  0
LTYPE
  5
14
330
5
100
AcDbSymbolTableRecord
100
AcDbLinetypeTableRecord
  2
BYBLOCK
 70
     0
  3

 72
    65
 73
     0
 40
0.0
  0
LTYPE
  5
15
330
5
100
AcDbSymbolTableRecord
100
AcDbLinetypeTableRecord
  2
BYLAYER
 70
     0
  3

 72
    65
 73
     0
 40
0.0
  0
LTYPE
  5
16
330
5
100
AcDbSymbolTableRecord
100
AcDbLinetypeTableRecord
  2
CONTINUOUS
 70
     0
  3
Solid line
 72
    65
 73
     0
 40
0.0
  0
ENDTAB
  0
TABLE
  2
LAYER
  5
2
100
AcDbSymbolTable
 70
1
  0
LAYER
  5
50
100
AcDbSymbolTableRecord
100
AcDbLayerTableRecord
  2
0
 70
0
  6
CONTINUOUS
  0
ENDTAB
  0
TABLE
  2
STYLE
  5
3
330
0
100
AcDbSymbolTable
 70
     1
  0
STYLE
  5
11
330
3
100
AcDbSymbolTableRecord
100
AcDbTextStyleTableRecord
  2
STANDARD
 70
     0
 40
0.0
 41
1.0
 50
0.0
 71
     0
 42
2.5
  3
txt
  4

  0
ENDTAB
  0
TABLE
  2
VIEW
  5
6
330
0
100
AcDbSymbolTable
 70
     0
  0
ENDTAB
  0
TABLE
  2
UCS
  5
7
330
0
100
AcDbSymbolTable
 70
     0
  0
ENDTAB
  0
TABLE
  2
APPID
  5
9
330
0
100
AcDbSymbolTable
 70
     2
  0
APPID
  5
12
330
9
100
AcDbSymbolTableRecord
100
AcDbRegAppTableRecord
  2
ACAD
 70
     0
  0
ENDTAB
  0
TABLE
  2
DIMSTYLE
  5
A
330
0
100
AcDbSymbolTable
 70
     1
  0
DIMSTYLE
105
27
330
A
100
AcDbSymbolTableRecord
100
AcDbDimStyleTableRecord
  2
ISO-25
 70
     0
  3

  4

  5

  6

  7

 40
1.0
 41
2.5
 42
0.625
 43
3.75
 44
1.25
 45
0.0
 46
0.0
 47
0.0
 48
0.0
140
2.5
141
2.5
142
0.0
143
0.03937007874016
144
1.0
145
0.0
146
1.0
147
0.625
 71
     0
 72
     0
 73
     0
 74
     0
 75
     0
 76
     0
 77
     1
 78
     8
170
     0
171
     3
172
     1
173
     0
174
     0
175
     0
176
     0
177
     0
178
     0
270
     2
271
     2
272
     2
273
     2
274
     3
340
11
275
     0
280
     0
281
     0
282
     0
283
     0
284
     8
285
     0
286
     0
287
     3
288
     0
  0
ENDTAB
  0
TABLE
  2
BLOCK_RECORD
  5
1
330
0
100
AcDbSymbolTable
 70
     1
  0
BLOCK_RECORD
  5
1F
330
1
100
AcDbSymbolTableRecord
100
AcDbBlockTableRecord
  2
*MODEL_SPACE
  0
BLOCK_RECORD
  5
1B
330
1
100
AcDbSymbolTableRecord
100
AcDbBlockTableRecord
  2
*PAPER_SPACE
  0
ENDTAB
  0
ENDSEC
  0
SECTION
  2
BLOCKS
  0
BLOCK
  5
20
330
1F
100
AcDbEntity
  8
0
100
AcDbBlockBegin
  2
*MODEL_SPACE
 70
     0
 10
0.0
 20
0.0
 30
0.0
  3
*MODEL_SPACE
  1

  0
ENDBLK
  5
21
330
1F
100
AcDbEntity
  8
0
100
AcDbBlockEnd
  0
BLOCK
  5
1C
330
1B
100
AcDbEntity
 67
     1
  8
0
100
AcDbBlockBegin
  2
*PAPER_SPACE
  1

  0
ENDBLK
  5
1D
330
1B
100
AcDbEntity
 67
     1
  8
0
100
AcDbBlockEnd
  0
ENDSEC
  0
SECTION
  2
ENTITIES
  0
LWPOLYLINE
  5
100
100
AcDbEntity
  8
0
 62
7
100
AcDbPolyline
 90
4
 70
1
 10
507.000000
 20
-224.759843
 30
0.0
 10
507.000000
 20
122.240157
 30
0.0
 10
87.000000
 20
122.240157
 30
0.0
 10
87.000000
 20
-224.759843
 30
0.0
  0
SPLINE
  5
101
100
AcDbEntity
  8
0
 62
7
100
AcDbSpline
 70
8
 71
3
 72
8
 73
4
 74
0
 40
0
 40
0
 40
0
 40
0
 40
1
 40
1
 40
1
 40
1
 10
453.000000
 20
59.240157
 30
0.0
 10
453.000000
 20
64.763157
 30
0.0
 10
448.523000
 20
69.240157
 30
0.0
 10
443.000000
 20
69.240157
 30
0.0
  0
LWPOLYLINE
  5
102
100
AcDbEntity
  8
0
 62
7
100
AcDbPolyline
 90
2
 70
0
 10
453.000000
 20
-161.759843
 30
0.0
 10
453.000000
 20
59.240157
 30
0.0
  0
SPLINE
  5
103
100
AcDbEntity
  8
0
 62
7
100
AcDbSpline
 70
8
 71
3
 72
8
 73
4
 74
0
 40
0
 40
0
 40
0
 40
0
 40
1
 40
1
 40
1
 40
1
 10
202.000000
 20
69.240157
 30
0.0
 10
196.477000
 20
69.240157
 30
0.0
 10
192.000000
 20
64.763157
 30
0.0
 10
192.000000
 20
59.240157
 30
0.0
  0
LWPOLYLINE
  5
104
100
AcDbEntity
  8
0
 62
7
100
AcDbPolyline
 90
2
 70
0
 10
443.000000
 20
69.240157
 30
0.0
 10
202.000000
 20
69.240157
 30
0.0
  0
SPLINE
  5
105
100
AcDbEntity
  8
0
 62
7
100
AcDbSpline
 70
8
 71
3
 72
8
 73
4
 74
0
 40
0
 40
0
 40
0
 40
0
 40
1
 40
1
 40
1
 40
1
 10
192.000000
 20
-161.759843
 30
0.0
 10
192.000000
 20
-167.282843
 30
0.0
 10
196.477000
 20
-171.759843
 30
0.0
 10
202.000000
 20
-171.759843
 30
0.0
  0
LWPOLYLINE
  5
106
100
AcDbEntity
  8
0
 62
7
100
AcDbPolyline
 90
2
 70
0
 10
192.000000
 20
59.240157
 30
0.0
 10
192.000000
 20
-161.759843
 30
0.0
  0
SPLINE
  5
107
100
AcDbEntity
  8
0
 62
7
100
AcDbSpline
 70
8
 71
3
 72
8
 73
4
 74
0
 40
0
 40
0
 40
0
 40
0
 40
1
 40
1
 40
1
 40
1
 10
443.000000
 20
-171.759843
 30
0.0
 10
448.523000
 20
-171.759843
 30
0.0
 10
453.000000
 20
-167.282843
 30
0.0
 10
453.000000
 20
-161.759843
 30
0.0
  0
LWPOLYLINE
  5
108
100
AcDbEntity
  8
0
 62
7
100
AcDbPolyline
 90
2
 70
0
 10
202.000000
 20
-171.759843
 30
0.0
 10
443.000000
 20
-171.759843
 30
0.0
  0
LWPOLYLINE
  5
109
100
AcDbEntity
  8
0
 62
7
100
AcDbPolyline
 90
4
 70
1
 10
121.400000
 20
-55.509843
 30
0.0
 10
121.400000
 20
-78.009843
 30
0.0
 10
106.400000
 20
-78.009843
 30
0.0
 10
106.400000
 20
-55.509843
 30
0.0
  0
LWPOLYLINE
  5
10a
100
AcDbEntity
  8
0
 62
7
100
AcDbPolyline
 90
4
 70
1
 10
179.400000
 20
-25.009843
 30
0.0
 10
179.400000
 20
-47.509843
 30
0.0
 10
164.400000
 20
-47.509843
 30
0.0
 10
164.400000
 20
-25.009843
 30
0.0
  0
LWPOLYLINE
  5
10b
100
AcDbEntity
  8
0
 62
7
100
AcDbPolyline
 90
4
 70
1
 10
121.400000
 20
-25.009843
 30
0.0
 10
121.400000
 20
-47.509843
 30
0.0
 10
106.400000
 20
-47.509843
 30
0.0
 10
106.400000
 20
-25.009843
 30
0.0
  0
SPLINE
  5
10c
100
AcDbEntity
  8
0
 62
7
100
AcDbSpline
 70
8
 71
3
 72
8
 73
4
 74
0
 40
0
 40
0
 40
0
 40
0
 40
1
 40
1
 40
1
 40
1
 10
257.600000
 20
86.490157
 30
0.0
 10
257.600000
 20
85.330157
 30
0.0
 10
256.659800
 20
84.390157
 30
0.0
 10
255.500000
 20
84.390157
 30
0.0
  0
SPLINE
  5
10d
100
AcDbEntity
  8
0
 62
7
100
AcDbSpline
 70
8
 71
3
 72
8
 73
4
 74
0
 40
0
 40
0
 40
0
 40
0
 40
1
 40
1
 40
1
 40
1
 10
255.500000
 20
84.390157
 30
0.0
 10
254.340200
 20
84.390157
 30
0.0
 10
253.400000
 20
85.330157
 30
0.0
 10
253.400000
 20
86.490157
 30
0.0
  0
SPLINE
  5
10e
100
AcDbEntity
  8
0
 62
7
100
AcDbSpline
 70
8
 71
3
 72
8
 73
4
 74
0
 40
0
 40
0
 40
0
 40
0
 40
1
 40
1
 40
1
 40
1
 10
253.400000
 20
86.490157
 30
0.0
 10
253.400000
 20
87.650157
 30
0.0
 10
254.340200
 20
88.590157
 30
0.0
 10
255.500000
 20
88.590157
 30
0.0
  0
SPLINE
  5
10f
100
AcDbEntity
  8
0
 62
7
100
AcDbSpline
 70
8
 71
3
 72
8
 73
4
 74
0
 40
0
 40
0
 40
0
 40
0
 40
1
 40
1
 40
1
 40
1
 10
255.500000
 20
88.590157
 30
0.0
 10
256.659800
 20
88.590157
 30
0.0
 10
257.600000
 20
87.650157
 30
0.0
 10
257.600000
 20
86.490157
 30
0.0
  0
SPLINE
  5
110
100
AcDbEntity
  8
0
 62
7
100
AcDbSpline
 70
8
 71
3
 72
8
 73
4
 74
0
 40
0
 40
0
 40
0
 40
0
 40
1
 40
1
 40
1
 40
1
 10
229.600000
 20
86.490157
 30
0.0
 10
229.600000
 20
85.330157
 30
0.0
 10
228.659800
 20
84.390157
 30
0.0
 10
227.500000
 20
84.390157
 30
0.0
  0
SPLINE
  5
111
100
AcDbEntity
  8
0
 62
7
100
AcDbSpline
 70
8
 71
3
 72
8
 73
4
 74
0
 40
0
 40
0
 40
0
 40
0
 40
1
 40
1
 40
1
 40
1
 10
227.500000
 20
84.390157
 30
0.0
 10
226.340200
 20
84.390157
 30
0.0
 10
225.400000
 20
85.330157
 30
0.0
 10
225.400000
 20
86.490157
 30
0.0
  0
SPLINE
  5
112
100
AcDbEntity
  8
0
 62
7
100
AcDbSpline
 70
8
 71
3
 72
8
 73
4
 74
0
 40
0
 40
0
 40
0
 40
0
 40
1
 40
1
 40
1
 40
1
 10
225.400000
 20
86.490157
 30
0.0
 10
225.400000
 20
87.650157
 30
0.0
 10
226.340200
 20
88.590157
 30
0.0
 10
227.500000
 20
88.590157
 30
0.0
  0
SPLINE
  5
113
100
AcDbEntity
  8
0
 62
7
100
AcDbSpline
 70
8
 71
3
 72
8
 73
4
 74
0
 40
0
 40
0
 40
0
 40
0
 40
1
 40
1
 40
1
 40
1
 10
227.500000
 20
88.590157
 30
0.0
 10
228.659800
 20
88.590157
 30
0.0
 10
229.600000
 20
87.650157
 30
0.0
 10
229.600000
 20
86.490157
 30
0.0
  0
SPLINE
  5
114
100
AcDbEntity
  8
0
 62
7
100
AcDbSpline
 70
8
 71
3
 72
8
 73
4
 74
0
 40
0
 40
0
 40
0
 40
0
 40
1
 40
1
 40
1
 40
1
 10
419.600000
 20
86.490157
 30
0.0
 10
419.600000
 20
85.330157
 30
0.0
 10
418.660000
 20
84.390157
 30
0.0
 10
417.500000
 20
84.390157
 30
0.0
  0
SPLINE
  5
115
100
AcDbEntity
  8
0
 62
7
100
AcDbSpline
 70
8
 71
3
 72
8
 73
4
 74
0
 40
0
 40
0
 40
0
 40
0
 40
1
 40
1
 40
1
 40
1
 10
417.500000
 20
84.390157
 30
0.0
 10
416.340000
 20
84.390157
 30
0.0
 10
415.400000
 20
85.330157
 30
0.0
 10
415.400000
 20
86.490157
 30
0.0
  0
SPLINE
  5
116
100
AcDbEntity
  8
0
 62
7
100
AcDbSpline
 70
8
 71
3
 72
8
 73
4
 74
0
 40
0
 40
0
 40
0
 40
0
 40
1
 40
1
 40
1
 40
1
 10
415.400000
 20
86.490157
 30
0.0
 10
415.400000
 20
87.650157
 30
0.0
 10
416.340000
 20
88.590157
 30
0.0
 10
417.500000
 20
88.590157
 30
0.0
  0
SPLINE
  5
117
100
AcDbEntity
  8
0
 62
7
100
AcDbSpline
 70
8
 71
3
 72
8
 73
4
 74
0
 40
0
 40
0
 40
0
 40
0
 40
1
 40
1
 40
1
 40
1
 10
417.500000
 20
88.590157
 30
0.0
 10
418.660000
 20
88.590157
 30
0.0
 10
419.600000
 20
87.650157
 30
0.0
 10
419.600000
 20
86.490157
 30
0.0
  0
SPLINE
  5
118
100
AcDbEntity
  8
0
 62
7
100
AcDbSpline
 70
8
 71
3
 72
8
 73
4
 74
0
 40
0
 40
0
 40
0
 40
0
 40
1
 40
1
 40
1
 40
1
 10
391.600000
 20
86.490157
 30
0.0
 10
391.600000
 20
85.330157
 30
0.0
 10
390.659800
 20
84.390157
 30
0.0
 10
389.500000
 20
84.390157
 30
0.0
  0
SPLINE
  5
119
100
AcDbEntity
  8
0
 62
7
100
AcDbSpline
 70
8
 71
3
 72
8
 73
4
 74
0
 40
0
 40
0
 40
0
 40
0
 40
1
 40
1
 40
1
 40
1
 10
389.500000
 20
84.390157
 30
0.0
 10
388.340200
 20
84.390157
 30
0.0
 10
387.400000
 20
85.330157
 30
0.0
 10
387.400000
 20
86.490157
 30
0.0
  0
SPLINE
  5
11a
100
AcDbEntity
  8
0
 62
7
100
AcDbSpline
 70
8
 71
3
 72
8
 73
4
 74
0
 40
0
 40
0
 40
0
 40
0
 40
1
 40
1
 40
1
 40
1
 10
387.400000
 20
86.490157
 30
0.0
 10
387.400000
 20
87.650157
 30
0.0
 10
388.340200
 20
88.590157
 30
0.0
 10
389.500000
 20
88.590157
 30
0.0
  0
SPLINE
  5
11b
100
AcDbEntity
  8
0
 62
7
100
AcDbSpline
 70
8
 71
3
 72
8
 73
4
 74
0
 40
0
 40
0
 40
0
 40
0
 40
1
 40
1
 40
1
 40
1
 10
389.500000
 20
88.590157
 30
0.0
 10
390.659800
 20
88.590157
 30
0.0
 10
391.600000
 20
87.650157
 30
0.0
 10
391.600000
 20
86.490157
 30
0.0
  0
SPLINE
  5
11c
100
AcDbEntity
  8
0
 62
7
100
AcDbSpline
 70
8
 71
3
 72
8
 73
4
 74
0
 40
0
 40
0
 40
0
 40
0
 40
1
 40
1
 40
1
 40
1
 10
343.500000
 20
-181.759843
 30
0.0
 10
343.500000
 20
-182.864843
 30
0.0
 10
342.604600
 20
-183.759843
 30
0.0
 10
341.500000
 20
-183.759843
 30
0.0
  0
SPLINE
  5
11d
100
AcDbEntity
  8
0
 62
7
100
AcDbSpline
 70
8
 71
3
 72
8
 73
4
 74
0
 40
0
 40
0
 40
0
 40
0
 40
1
 40
1
 40
1
 40
1
 10
341.500000
 20
-183.759843
 30
0.0
 10
340.395400
 20
-183.759843
 30
0.0
 10
339.500000
 20
-182.864843
 30
0.0
 10
339.500000
 20
-181.759843
 30
0.0
  0
SPLINE
  5
11e
100
AcDbEntity
  8
0
 62
7
100
AcDbSpline
 70
8
 71
3
 72
8
 73
4
 74
0
 40
0
 40
0
 40
0
 40
0
 40
1
 40
1
 40
1
 40
1
 10
339.500000
 20
-181.759843
 30
0.0
 10
339.500000
 20
-180.654843
 30
0.0
 10
340.395400
 20
-179.759843
 30
0.0
 10
341.500000
 20
-179.759843
 30
0.0
  0
SPLINE
  5
11f
100
AcDbEntity
  8
0
 62
7
100
AcDbSpline
 70
8
 71
3
 72
8
 73
4
 74
0
 40
0
 40
0
 40
0
 40
0
 40
1
 40
1
 40
1
 40
1
 10
341.500000
 20
-179.759843
 30
0.0
 10
342.604600
 20
-179.759843
 30
0.0
 10
343.500000
 20
-180.654843
 30
0.0
 10
343.500000
 20
-181.759843
 30
0.0
  0
SPLINE
  5
120
100
AcDbEntity
  8
0
 62
7
100
AcDbSpline
 70
8
 71
3
 72
8
 73
4
 74
0
 40
0
 40
0
 40
0
 40
0
 40
1
 40
1
 40
1
 40
1
 10
305.500000
 20
-181.759843
 30
0.0
 10
305.500000
 20
-182.864843
 30
0.0
 10
304.604570
 20
-183.759843
 30
0.0
 10
303.500000
 20
-183.759843
 30
0.0
  0
SPLINE
  5
121
100
AcDbEntity
  8
0
 62
7
100
AcDbSpline
 70
8
 71
3
 72
8
 73
4
 74
0
 40
0
 40
0
 40
0
 40
0
 40
1
 40
1
 40
1
 40
1
 10
303.500000
 20
-183.759843
 30
0.0
 10
302.395430
 20
-183.759843
 30
0.0
 10
301.500000
 20
-182.864843
 30
0.0
 10
301.500000
 20
-181.759843
 30
0.0
  0
SPLINE
  5
122
100
AcDbEntity
  8
0
 62
7
100
AcDbSpline
 70
8
 71
3
 72
8
 73
4
 74
0
 40
0
 40
0
 40
0
 40
0
 40
1
 40
1
 40
1
 40
1
 10
301.500000
 20
-181.759843
 30
0.0
 10
301.500000
 20
-180.654843
 30
0.0
 10
302.395430
 20
-179.759843
 30
0.0
 10
303.500000
 20
-179.759843
 30
0.0
  0
SPLINE
  5
123
100
AcDbEntity
  8
0
 62
7
100
AcDbSpline
 70
8
 71
3
 72
8
 73
4
 74
0
 40
0
 40
0
 40
0
 40
0
 40
1
 40
1
 40
1
 40
1
 10
303.500000
 20
-179.759843
 30
0.0
 10
304.604570
 20
-179.759843
 30
0.0
 10
305.500000
 20
-180.654843
 30
0.0
 10
305.500000
 20
-181.759843
 30
0.0
  0
SPLINE
  5
124
100
AcDbEntity
  8
0
 62
7
100
AcDbSpline
 70
8
 71
3
 72
8
 73
4
 74
0
 40
0
 40
0
 40
0
 40
0
 40
1
 40
1
 40
1
 40
1
 10
133.750000
 20
-171.259843
 30
0.0
 10
133.750000
 20
-172.225843
 30
0.0
 10
132.966000
 20
-173.009843
 30
0.0
 10
132.000000
 20
-173.009843
 30
0.0
  0
SPLINE
  5
125
100
AcDbEntity
  8
0
 62
7
100
AcDbSpline
 70
8
 71
3
 72
8
 73
4
 74
0
 40
0
 40
0
 40
0
 40
0
 40
1
 40
1
 40
1
 40
1
 10
132.000000
 20
-173.009843
 30
0.0
 10
131.034000
 20
-173.009843
 30
0.0
 10
130.250000
 20
-172.225843
 30
0.0
 10
130.250000
 20
-171.259843
 30
0.0
  0
SPLINE
  5
126
100
AcDbEntity
  8
0
 62
7
100
AcDbSpline
 70
8
 71
3
 72
8
 73
4
 74
0
 40
0
 40
0
 40
0
 40
0
 40
1
 40
1
 40
1
 40
1
 10
130.250000
 20
-171.259843
 30
0.0
 10
130.250000
 20
-170.293843
 30
0.0
 10
131.034000
 20
-169.509843
 30
0.0
 10
132.000000
 20
-169.509843
 30
0.0
  0
SPLINE
  5
127
100
AcDbEntity
  8
0
 62
7
100
AcDbSpline
 70
8
 71
3
 72
8
 73
4
 74
0
 40
0
 40
0
 40
0
 40
0
 40
1
 40
1
 40
1
 40
1
 10
132.000000
 20
-169.509843
 30
0.0
 10
132.966000
 20
-169.509843
 30
0.0
 10
133.750000
 20
-170.293843
 30
0.0
 10
133.750000
 20
-171.259843
 30
0.0
  0
SPLINE
  5
128
100
AcDbEntity
  8
0
 62
7
100
AcDbSpline
 70
8
 71
3
 72
8
 73
4
 74
0
 40
0
 40
0
 40
0
 40
0
 40
1
 40
1
 40
1
 40
1
 10
133.750000
 20
68.740157
 30
0.0
 10
133.750000
 20
67.774157
 30
0.0
 10
132.966000
 20
66.990157
 30
0.0
 10
132.000000
 20
66.990157
 30
0.0
  0
SPLINE
  5
129
100
AcDbEntity
  8
0
 62
7
100
AcDbSpline
 70
8
 71
3
 72
8
 73
4
 74
0
 40
0
 40
0
 40
0
 40
0
 40
1
 40
1
 40
1
 40
1
 10
132.000000
 20
66.990157
 30
0.0
 10
131.034000
 20
66.990157
 30
0.0
 10
130.250000
 20
67.774157
 30
0.0
 10
130.250000
 20
68.740157
 30
0.0
  0
SPLINE
  5
12a
100
AcDbEntity
  8
0
 62
7
100
AcDbSpline
 70
8
 71
3
 72
8
 73
4
 74
0
 40
0
 40
0
 40
0
 40
0
 40
1
 40
1
 40
1
 40
1
 10
130.250000
 20
68.740157
 30
0.0
 10
130.250000
 20
69.706157
 30
0.0
 10
131.034000
 20
70.490157
 30
0.0
 10
132.000000
 20
70.490157
 30
0.0
  0
SPLINE
  5
12b
100
AcDbEntity
  8
0
 62
7
100
AcDbSpline
 70
8
 71
3
 72
8
 73
4
 74
0
 40
0
 40
0
 40
0
 40
0
 40
1
 40
1
 40
1
 40
1
 10
132.000000
 20
70.490157
 30
0.0
 10
132.966000
 20
70.490157
 30
0.0
 10
133.750000
 20
69.706157
 30
0.0
 10
133.750000
 20
68.740157
 30
0.0
  0
SPLINE
  5
12c
100
AcDbEntity
  8
0
 62
7
100
AcDbSpline
 70
8
 71
3
 72
8
 73
4
 74
0
 40
0
 40
0
 40
0
 40
0
 40
1
 40
1
 40
1
 40
1
 10
183.750000
 20
-7.259843
 30
0.0
 10
183.750000
 20
-8.226343
 30
0.0
 10
182.966000
 20
-9.009843
 30
0.0
 10
182.000000
 20
-9.009843
 30
0.0
  0
SPLINE
  5
12d
100
AcDbEntity
  8
0
 62
7
100
AcDbSpline
 70
8
 71
3
 72
8
 73
4
 74
0
 40
0
 40
0
 40
0
 40
0
 40
1
 40
1
 40
1
 40
1
 10
182.000000
 20
-9.009843
 30
0.0
 10
181.034000
 20
-9.009843
 30
0.0
 10
180.250000
 20
-8.226343
 30
0.0
 10
180.250000
 20
-7.259843
 30
0.0
  0
SPLINE
  5
12e
100
AcDbEntity
  8
0
 62
7
100
AcDbSpline
 70
8
 71
3
 72
8
 73
4
 74
0
 40
0
 40
0
 40
0
 40
0
 40
1
 40
1
 40
1
 40
1
 10
180.250000
 20
-7.259843
 30
0.0
 10
180.250000
 20
-6.293343
 30
0.0
 10
181.034000
 20
-5.509843
 30
0.0
 10
182.000000
 20
-5.509843
 30
0.0
  0
SPLINE
  5
12f
100
AcDbEntity
  8
0
 62
7
100
AcDbSpline
 70
8
 71
3
 72
8
 73
4
 74
0
 40
0
 40
0
 40
0
 40
0
 40
1
 40
1
 40
1
 40
1
 10
182.000000
 20
-5.509843
 30
0.0
 10
182.966000
 20
-5.509843
 30
0.0
 10
183.750000
 20
-6.293343
 30
0.0
 10
183.750000
 20
-7.259843
 30
0.0
  0
SPLINE
  5
130
100
AcDbEntity
  8
0
 62
7
100
AcDbSpline
 70
8
 71
3
 72
8
 73
4
 74
0
 40
0
 40
0
 40
0
 40
0
 40
1
 40
1
 40
1
 40
1
 10
118.750000
 20
-7.259843
 30
0.0
 10
118.750000
 20
-8.226343
 30
0.0
 10
117.966000
 20
-9.009843
 30
0.0
 10
117.000000
 20
-9.009843
 30
0.0
  0
SPLINE
  5
131
100
AcDbEntity
  8
0
 62
7
100
AcDbSpline
 70
8
 71
3
 72
8
 73
4
 74
0
 40
0
 40
0
 40
0
 40
0
 40
1
 40
1
 40
1
 40
1
 10
117.000000
 20
-9.009843
 30
0.0
 10
116.034000
 20
-9.009843
 30
0.0
 10
115.250000
 20
-8.226343
 30
0.0
 10
115.250000
 20
-7.259843
 30
0.0
  0
SPLINE
  5
132
100
AcDbEntity
  8
0
 62
7
100
AcDbSpline
 70
8
 71
3
 72
8
 73
4
 74
0
 40
0
 40
0
 40
0
 40
0
 40
1
 40
1
 40
1
 40
1
 10
115.250000
 20
-7.259843
 30
0.0
 10
115.250000
 20
-6.293343
 30
0.0
 10
116.034000
 20
-5.509843
 30
0.0
 10
117.000000
 20
-5.509843
 30
0.0
  0
SPLINE
  5
133
100
AcDbEntity
  8
0
 62
7
100
AcDbSpline
 70
8
 71
3
 72
8
 73
4
 74
0
 40
0
 40
0
 40
0
 40
0
 40
1
 40
1
 40
1
 40
1
 10
117.000000
 20
-5.509843
 30
0.0
 10
117.966000
 20
-5.509843
 30
0.0
 10
118.750000
 20
-6.293343
 30
0.0
 10
118.750000
 20
-7.259843
 30
0.0
  0
SPLINE
  5
134
100
AcDbEntity
  8
0
 62
7
100
AcDbSpline
 70
8
 71
3
 72
8
 73
4
 74
0
 40
0
 40
0
 40
0
 40
0
 40
1
 40
1
 40
1
 40
1
 10
183.750000
 20
-95.259843
 30
0.0
 10
183.750000
 20
-96.226343
 30
0.0
 10
182.966000
 20
-97.009843
 30
0.0
 10
182.000000
 20
-97.009843
 30
0.0
  0
SPLINE
  5
135
100
AcDbEntity
  8
0
 62
7
100
AcDbSpline
 70
8
 71
3
 72
8
 73
4
 74
0
 40
0
 40
0
 40
0
 40
0
 40
1
 40
1
 40
1
 40
1
 10
182.000000
 20
-97.009843
 30
0.0
 10
181.034000
 20
-97.009843
 30
0.0
 10
180.250000
 20
-96.226343
 30
0.0
 10
180.250000
 20
-95.259843
 30
0.0
  0
SPLINE
  5
136
100
AcDbEntity
  8
0
 62
7
100
AcDbSpline
 70
8
 71
3
 72
8
 73
4
 74
0
 40
0
 40
0
 40
0
 40
0
 40
1
 40
1
 40
1
 40
1
 10
180.250000
 20
-95.259843
 30
0.0
 10
180.250000
 20
-94.293343
 30
0.0
 10
181.034000
 20
-93.509843
 30
0.0
 10
182.000000
 20
-93.509843
 30
0.0
  0
SPLINE
  5
137
100
AcDbEntity
  8
0
 62
7
100
AcDbSpline
 70
8
 71
3
 72
8
 73
4
 74
0
 40
0
 40
0
 40
0
 40
0
 40
1
 40
1
 40
1
 40
1
 10
182.000000
 20
-93.509843
 30
0.0
 10
182.966000
 20
-93.509843
 30
0.0
 10
183.750000
 20
-94.293343
 30
0.0
 10
183.750000
 20
-95.259843
 30
0.0
  0
SPLINE
  5
138
100
AcDbEntity
  8
0
 62
7
100
AcDbSpline
 70
8
 71
3
 72
8
 73
4
 74
0
 40
0
 40
0
 40
0
 40
0
 40
1
 40
1
 40
1
 40
1
 10
118.750000
 20
-95.259843
 30
0.0
 10
118.750000
 20
-96.226343
 30
0.0
 10
117.966000
 20
-97.009843
 30
0.0
 10
117.000000
 20
-97.009843
 30
0.0
  0
SPLINE
  5
139
100
AcDbEntity
  8
0
 62
7
100
AcDbSpline
 70
8
 71
3
 72
8
 73
4
 74
0
 40
0
 40
0
 40
0
 40
0
 40
1
 40
1
 40
1
 40
1
 10
117.000000
 20
-97.009843
 30
0.0
 10
116.034000
 20
-97.009843
 30
0.0
 10
115.250000
 20
-96.226343
 30
0.0
 10
115.250000
 20
-95.259843
 30
0.0
  0
SPLINE
  5
13a
100
AcDbEntity
  8
0
 62
7
100
AcDbSpline
 70
8
 71
3
 72
8
 73
4
 74
0
 40
0
 40
0
 40
0
 40
0
 40
1
 40
1
 40
1
 40
1
 10
115.250000
 20
-95.259843
 30
0.0
 10
115.250000
 20
-94.293343
 30
0.0
 10
116.034000
 20
-93.509843
 30
0.0
 10
117.000000
 20
-93.509843
 30
0.0
  0
SPLINE
  5
13b
100
AcDbEntity
  8
0
 62
7
100
AcDbSpline
 70
8
 71
3
 72
8
 73
4
 74
0
 40
0
 40
0
 40
0
 40
0
 40
1
 40
1
 40
1
 40
1
 10
117.000000
 20
-93.509843
 30
0.0
 10
117.966000
 20
-93.509843
 30
0.0
 10
118.750000
 20
-94.293343
 30
0.0
 10
118.750000
 20
-95.259843
 30
0.0
  0
SPLINE
  5
13c
100
AcDbEntity
  8
0
 62
7
100
AcDbSpline
 70
8
 71
3
 72
8
 73
4
 74
0
 40
0
 40
0
 40
0
 40
0
 40
1
 40
1
 40
1
 40
1
 10
498.750000
 20
68.740157
 30
0.0
 10
498.750000
 20
67.774157
 30
0.0
 10
497.966000
 20
66.990157
 30
0.0
 10
497.000000
 20
66.990157
 30
0.0
  0
SPLINE
  5
13d
100
AcDbEntity
  8
0
 62
7
100
AcDbSpline
 70
8
 71
3
 72
8
 73
4
 74
0
 40
0
 40
0
 40
0
 40
0
 40
1
 40
1
 40
1
 40
1
 10
497.000000
 20
66.990157
 30
0.0
 10
496.034000
 20
66.990157
 30
0.0
 10
495.250000
 20
67.774157
 30
0.0
 10
495.250000
 20
68.740157
 30
0.0
  0
SPLINE
  5
13e
100
AcDbEntity
  8
0
 62
7
100
AcDbSpline
 70
8
 71
3
 72
8
 73
4
 74
0
 40
0
 40
0
 40
0
 40
0
 40
1
 40
1
 40
1
 40
1
 10
495.250000
 20
68.740157
 30
0.0
 10
495.250000
 20
69.706157
 30
0.0
 10
496.034000
 20
70.490157
 30
0.0
 10
497.000000
 20
70.490157
 30
0.0
  0
SPLINE
  5
13f
100
AcDbEntity
  8
0
 62
7
100
AcDbSpline
 70
8
 71
3
 72
8
 73
4
 74
0
 40
0
 40
0
 40
0
 40
0
 40
1
 40
1
 40
1
 40
1
 10
497.000000
 20
70.490157
 30
0.0
 10
497.966000
 20
70.490157
 30
0.0
 10
498.750000
 20
69.706157
 30
0.0
 10
498.750000
 20
68.740157
 30
0.0
  0
SPLINE
  5
140
100
AcDbEntity
  8
0
 62
7
100
AcDbSpline
 70
8
 71
3
 72
8
 73
4
 74
0
 40
0
 40
0
 40
0
 40
0
 40
1
 40
1
 40
1
 40
1
 10
498.750000
 20
-171.259843
 30
0.0
 10
498.750000
 20
-172.225843
 30
0.0
 10
497.966000
 20
-173.009843
 30
0.0
 10
497.000000
 20
-173.009843
 30
0.0
  0
SPLINE
  5
141
100
AcDbEntity
  8
0
 62
7
100
AcDbSpline
 70
8
 71
3
 72
8
 73
4
 74
0
 40
0
 40
0
 40
0
 40
0
 40
1
 40
1
 40
1
 40
1
 10
497.000000
 20
-173.009843
 30
0.0
 10
496.034000
 20
-173.009843
 30
0.0
 10
495.250000
 20
-172.225843
 30
0.0
 10
495.250000
 20
-171.259843
 30
0.0
  0
SPLINE
  5
142
100
AcDbEntity
  8
0
 62
7
100
AcDbSpline
 70
8
 71
3
 72
8
 73
4
 74
0
 40
0
 40
0
 40
0
 40
0
 40
1
 40
1
 40
1
 40
1
 10
495.250000
 20
-171.259843
 30
0.0
 10
495.250000
 20
-170.293843
 30
0.0
 10
496.034000
 20
-169.509843
 30
0.0
 10
497.000000
 20
-169.509843
 30
0.0
  0
SPLINE
  5
143
100
AcDbEntity
  8
0
 62
7
100
AcDbSpline
 70
8
 71
3
 72
8
 73
4
 74
0
 40
0
 40
0
 40
0
 40
0
 40
1
 40
1
 40
1
 40
1
 10
497.000000
 20
-169.509843
 30
0.0
 10
497.966000
 20
-169.509843
 30
0.0
 10
498.750000
 20
-170.293843
 30
0.0
 10
498.750000
 20
-171.259843
 30
0.0
  0
LWPOLYLINE
  5
144
100
AcDbEntity
  8
0
 62
7
100
AcDbPolyline
 90
4
 70
1
 10
179.400000
 20
-55.509843
 30
0.0
 10
179.400000
 20
-78.009843
 30
0.0
 10
164.400000
 20
-78.009843
 30
0.0
 10
164.400000
 20
-55.509843
 30
0.0
  0
LWPOLYLINE
  5
145
100
AcDbEntity
  8
0
 62
7
100
AcDbPolyline
 90
2
 70
0
 10
87.000000
 20
122.240157
 30
0.0
 10
87.000000
 20
-224.759843
 30
0.0
  0
LWPOLYLINE
  5
146
100
AcDbEntity
  8
0
 62
7
100
AcDbPolyline
 90
2
 70
0
 10
507.000000
 20
122.240157
 30
0.0
 10
87.000000
 20
122.240157
 30
0.0
  0
SPLINE
  5
147
100
AcDbEntity
  8
0
 62
7
100
AcDbSpline
 70
8
 71
3
 72
8
 73
4
 74
0
 40
0
 40
0
 40
0
 40
0
 40
1
 40
1
 40
1
 40
1
 10
118.750000
 20
-95.259843
 30
0.0
 10
118.750000
 20
-96.226343
 30
0.0
 10
117.966000
 20
-97.009843
 30
0.0
 10
117.000000
 20
-97.009843
 30
0.0
  0
SPLINE
  5
148
100
AcDbEntity
  8
0
 62
7
100
AcDbSpline
 70
8
 71
3
 72
8
 73
4
 74
0
 40
0
 40
0
 40
0
 40
0
 40
1
 40
1
 40
1
 40
1
 10
117.000000
 20
-97.009843
 30
0.0
 10
116.034000
 20
-97.009843
 30
0.0
 10
115.250000
 20
-96.226343
 30
0.0
 10
115.250000
 20
-95.259843
 30
0.0
  0
SPLINE
  5
149
100
AcDbEntity
  8
0
 62
7
100
AcDbSpline
 70
8
 71
3
 72
8
 73
4
 74
0
 40
0
 40
0
 40
0
 40
0
 40
1
 40
1
 40
1
 40
1
 10
115.250000
 20
-95.259843
 30
0.0
 10
115.250000
 20
-94.293343
 30
0.0
 10
116.034000
 20
-93.509843
 30
0.0
 10
117.000000
 20
-93.509843
 30
0.0
  0
SPLINE
  5
14a
100
AcDbEntity
  8
0
 62
7
100
AcDbSpline
 70
8
 71
3
 72
8
 73
4
 74
0
 40
0
 40
0
 40
0
 40
0
 40
1
 40
1
 40
1
 40
1
 10
117.000000
 20
-93.509843
 30
0.0
 10
117.966000
 20
-93.509843
 30
0.0
 10
118.750000
 20
-94.293343
 30
0.0
 10
118.750000
 20
-95.259843
 30
0.0
  0
LWPOLYLINE
  5
14b
100
AcDbEntity
  8
0
 62
7
100
AcDbPolyline
 90
3
 70
0
 10
87.000000
 20
-224.759843
 30
0.0
 10
507.000000
 20
-224.759843
 30
0.0
 10
507.000000
 20
122.240157
 30
0.0
  0
LWPOLYLINE
  5
14c
100
AcDbEntity
  8
0
 62
7
100
AcDbPolyline
 90
2
 70
0
 10
106.400000
 20
-55.509843
 30
0.0
 10
121.400000
 20
-55.509843
 30
0.0
  0
LWPOLYLINE
  5
14d
100
AcDbEntity
  8
0
 62
7
100
AcDbPolyline
 90
2
 70
0
 10
106.400000
 20
-78.009843
 30
0.0
 10
106.400000
 20
-55.509843
 30
0.0
  0
LWPOLYLINE
  5
14e
100
AcDbEntity
  8
0
 62
7
100
AcDbPolyline
 90
3
 70
0
 10
121.400000
 20
-55.509843
 30
0.0
 10
121.400000
 20
-78.009843
 30
0.0
 10
106.400000
 20
-78.009843
 30
0.0
  0
LWPOLYLINE
  5
14f
100
AcDbEntity
  8
0
 62
7
100
AcDbPolyline
 90
2
 70
0
 10
106.400000
 20
-25.009843
 30
0.0
 10
121.400000
 20
-25.009843
 30
0.0
  0
LWPOLYLINE
  5
150
100
AcDbEntity
  8
0
 62
7
100
AcDbPolyline
 90
2
 70
0
 10
106.400000
 20
-47.509843
 30
0.0
 10
106.400000
 20
-25.009843
 30
0.0
  0
LWPOLYLINE
  5
151
100
AcDbEntity
  8
0
 62
7
100
AcDbPolyline
 90
3
 70
0
 10
121.400000
 20
-25.009843
 30
0.0
 10
121.400000
 20
-47.509843
 30
0.0
 10
106.400000
 20
-47.509843
 30
0.0
  0
LWPOLYLINE
  5
152
100
AcDbEntity
  8
0
 62
7
100
AcDbPolyline
 90
2
 70
0
 10
164.400000
 20
-25.009843
 30
0.0
 10
179.400000
 20
-25.009843
 30
0.0
  0
LWPOLYLINE
  5
153
100
AcDbEntity
  8
0
 62
7
100
AcDbPolyline
 90
2
 70
0
 10
164.400000
 20
-47.509843
 30
0.0
 10
164.400000
 20
-25.009843
 30
0.0
  0
LWPOLYLINE
  5
154
100
AcDbEntity
  8
0
 62
7
100
AcDbPolyline
 90
3
 70
0
 10
179.400000
 20
-25.009843
 30
0.0
 10
179.400000
 20
-47.509843
 30
0.0
 10
164.400000
 20
-47.509843
 30
0.0
  0
LWPOLYLINE
  5
155
100
AcDbEntity
  8
0
 62
7
100
AcDbPolyline
 90
2
 70
0
 10
164.400000
 20
-55.509843
 30
0.0
 10
179.400000
 20
-55.509843
 30
0.0
  0
LWPOLYLINE
  5
156
100
AcDbEntity
  8
0
 62
7
100
AcDbPolyline
 90
2
 70
0
 10
164.400000
 20
-78.009843
 30
0.0
 10
164.400000
 20
-55.509843
 30
0.0
  0
SPLINE
  5
157
100
AcDbEntity
  8
0
 62
7
100
AcDbSpline
 70
8
 71
3
 72
8
 73
4
 74
0
 40
0
 40
0
 40
0
 40
0
 40
1
 40
1
 40
1
 40
1
 10
133.750000
 20
68.740157
 30
0.0
 10
133.750000
 20
67.774157
 30
0.0
 10
132.966000
 20
66.990157
 30
0.0
 10
132.000000
 20
66.990157
 30
0.0
  0
SPLINE
  5
158
100
AcDbEntity
  8
0
 62
7
100
AcDbSpline
 70
8
 71
3
 72
8
 73
4
 74
0
 40
0
 40
0
 40
0
 40
0
 40
1
 40
1
 40
1
 40
1
 10
132.000000
 20
66.990157
 30
0.0
 10
131.034000
 20
66.990157
 30
0.0
 10
130.250000
 20
67.774157
 30
0.0
 10
130.250000
 20
68.740157
 30
0.0
  0
SPLINE
  5
159
100
AcDbEntity
  8
0
 62
7
100
AcDbSpline
 70
8
 71
3
 72
8
 73
4
 74
0
 40
0
 40
0
 40
0
 40
0
 40
1
 40
1
 40
1
 40
1
 10
130.250000
 20
68.740157
 30
0.0
 10
130.250000
 20
69.706157
 30
0.0
 10
131.034000
 20
70.490157
 30
0.0
 10
132.000000
 20
70.490157
 30
0.0
  0
SPLINE
  5
15a
100
AcDbEntity
  8
0
 62
7
100
AcDbSpline
 70
8
 71
3
 72
8
 73
4
 74
0
 40
0
 40
0
 40
0
 40
0
 40
1
 40
1
 40
1
 40
1
 10
132.000000
 20
70.490157
 30
0.0
 10
132.966000
 20
70.490157
 30
0.0
 10
133.750000
 20
69.706157
 30
0.0
 10
133.750000
 20
68.740157
 30
0.0
  0
SPLINE
  5
15b
100
AcDbEntity
  8
0
 62
7
100
AcDbSpline
 70
8
 71
3
 72
8
 73
4
 74
0
 40
0
 40
0
 40
0
 40
0
 40
1
 40
1
 40
1
 40
1
 10
118.750000
 20
-7.259843
 30
0.0
 10
118.750000
 20
-8.226343
 30
0.0
 10
117.966000
 20
-9.009843
 30
0.0
 10
117.000000
 20
-9.009843
 30
0.0
  0
SPLINE
  5
15c
100
AcDbEntity
  8
0
 62
7
100
AcDbSpline
 70
8
 71
3
 72
8
 73
4
 74
0
 40
0
 40
0
 40
0
 40
0
 40
1
 40
1
 40
1
 40
1
 10
117.000000
 20
-9.009843
 30
0.0
 10
116.034000
 20
-9.009843
 30
0.0
 10
115.250000
 20
-8.226343
 30
0.0
 10
115.250000
 20
-7.259843
 30
0.0
  0
SPLINE
  5
15d
100
AcDbEntity
  8
0
 62
7
100
AcDbSpline
 70
8
 71
3
 72
8
 73
4
 74
0
 40
0
 40
0
 40
0
 40
0
 40
1
 40
1
 40
1
 40
1
 10
115.250000
 20
-7.259843
 30
0.0
 10
115.250000
 20
-6.293343
 30
0.0
 10
116.034000
 20
-5.509843
 30
0.0
 10
117.000000
 20
-5.509843
 30
0.0
  0
SPLINE
  5
15e
100
AcDbEntity
  8
0
 62
7
100
AcDbSpline
 70
8
 71
3
 72
8
 73
4
 74
0
 40
0
 40
0
 40
0
 40
0
 40
1
 40
1
 40
1
 40
1
 10
117.000000
 20
-5.509843
 30
0.0
 10
117.966000
 20
-5.509843
 30
0.0
 10
118.750000
 20
-6.293343
 30
0.0
 10
118.750000
 20
-7.259843
 30
0.0
  0
SPLINE
  5
15f
100
AcDbEntity
  8
0
 62
7
100
AcDbSpline
 70
8
 71
3
 72
8
 73
4
 74
0
 40
0
 40
0
 40
0
 40
0
 40
1
 40
1
 40
1
 40
1
 10
183.750000
 20
-95.259843
 30
0.0
 10
183.750000
 20
-96.226343
 30
0.0
 10
182.966000
 20
-97.009843
 30
0.0
 10
182.000000
 20
-97.009843
 30
0.0
  0
SPLINE
  5
160
100
AcDbEntity
  8
0
 62
7
100
AcDbSpline
 70
8
 71
3
 72
8
 73
4
 74
0
 40
0
 40
0
 40
0
 40
0
 40
1
 40
1
 40
1
 40
1
 10
182.000000
 20
-97.009843
 30
0.0
 10
181.034000
 20
-97.009843
 30
0.0
 10
180.250000
 20
-96.226343
 30
0.0
 10
180.250000
 20
-95.259843
 30
0.0
  0
SPLINE
  5
161
100
AcDbEntity
  8
0
 62
7
100
AcDbSpline
 70
8
 71
3
 72
8
 73
4
 74
0
 40
0
 40
0
 40
0
 40
0
 40
1
 40
1
 40
1
 40
1
 10
180.250000
 20
-95.259843
 30
0.0
 10
180.250000
 20
-94.293343
 30
0.0
 10
181.034000
 20
-93.509843
 30
0.0
 10
182.000000
 20
-93.509843
 30
0.0
  0
SPLINE
  5
162
100
AcDbEntity
  8
0
 62
7
100
AcDbSpline
 70
8
 71
3
 72
8
 73
4
 74
0
 40
0
 40
0
 40
0
 40
0
 40
1
 40
1
 40
1
 40
1
 10
182.000000
 20
-93.509843
 30
0.0
 10
182.966000
 20
-93.509843
 30
0.0
 10
183.750000
 20
-94.293343
 30
0.0
 10
183.750000
 20
-95.259843
 30
0.0
  0
SPLINE
  5
163
100
AcDbEntity
  8
0
 62
7
100
AcDbSpline
 70
8
 71
3
 72
8
 73
4
 74
0
 40
0
 40
0
 40
0
 40
0
 40
1
 40
1
 40
1
 40
1
 10
257.600000
 20
86.490157
 30
0.0
 10
257.600000
 20
85.330157
 30
0.0
 10
256.659800
 20
84.390157
 30
0.0
 10
255.500000
 20
84.390157
 30
0.0
  0
SPLINE
  5
164
100
AcDbEntity
  8
0
 62
7
100
AcDbSpline
 70
8
 71
3
 72
8
 73
4
 74
0
 40
0
 40
0
 40
0
 40
0
 40
1
 40
1
 40
1
 40
1
 10
255.500000
 20
84.390157
 30
0.0
 10
254.340200
 20
84.390157
 30
0.0
 10
253.400000
 20
85.330157
 30
0.0
 10
253.400000
 20
86.490157
 30
0.0
  0
SPLINE
  5
165
100
AcDbEntity
  8
0
 62
7
100
AcDbSpline
 70
8
 71
3
 72
8
 73
4
 74
0
 40
0
 40
0
 40
0
 40
0
 40
1
 40
1
 40
1
 40
1
 10
253.400000
 20
86.490157
 30
0.0
 10
253.400000
 20
87.650157
 30
0.0
 10
254.340200
 20
88.590157
 30
0.0
 10
255.500000
 20
88.590157
 30
0.0
  0
SPLINE
  5
166
100
AcDbEntity
  8
0
 62
7
100
AcDbSpline
 70
8
 71
3
 72
8
 73
4
 74
0
 40
0
 40
0
 40
0
 40
0
 40
1
 40
1
 40
1
 40
1
 10
255.500000
 20
88.590157
 30
0.0
 10
256.659800
 20
88.590157
 30
0.0
 10
257.600000
 20
87.650157
 30
0.0
 10
257.600000
 20
86.490157
 30
0.0
  0
SPLINE
  5
167
100
AcDbEntity
  8
0
 62
7
100
AcDbSpline
 70
8
 71
3
 72
8
 73
4
 74
0
 40
0
 40
0
 40
0
 40
0
 40
1
 40
1
 40
1
 40
1
 10
229.600000
 20
86.490157
 30
0.0
 10
229.600000
 20
85.330157
 30
0.0
 10
228.659800
 20
84.390157
 30
0.0
 10
227.500000
 20
84.390157
 30
0.0
  0
SPLINE
  5
168
100
AcDbEntity
  8
0
 62
7
100
AcDbSpline
 70
8
 71
3
 72
8
 73
4
 74
0
 40
0
 40
0
 40
0
 40
0
 40
1
 40
1
 40
1
 40
1
 10
227.500000
 20
84.390157
 30
0.0
 10
226.340200
 20
84.390157
 30
0.0
 10
225.400000
 20
85.330157
 30
0.0
 10
225.400000
 20
86.490157
 30
0.0
  0
SPLINE
  5
169
100
AcDbEntity
  8
0
 62
7
100
AcDbSpline
 70
8
 71
3
 72
8
 73
4
 74
0
 40
0
 40
0
 40
0
 40
0
 40
1
 40
1
 40
1
 40
1
 10
225.400000
 20
86.490157
 30
0.0
 10
225.400000
 20
87.650157
 30
0.0
 10
226.340200
 20
88.590157
 30
0.0
 10
227.500000
 20
88.590157
 30
0.0
  0
SPLINE
  5
16a
100
AcDbEntity
  8
0
 62
7
100
AcDbSpline
 70
8
 71
3
 72
8
 73
4
 74
0
 40
0
 40
0
 40
0
 40
0
 40
1
 40
1
 40
1
 40
1
 10
227.500000
 20
88.590157
 30
0.0
 10
228.659800
 20
88.590157
 30
0.0
 10
229.600000
 20
87.650157
 30
0.0
 10
229.600000
 20
86.490157
 30
0.0
  0
SPLINE
  5
16b
100
AcDbEntity
  8
0
 62
7
100
AcDbSpline
 70
8
 71
3
 72
8
 73
4
 74
0
 40
0
 40
0
 40
0
 40
0
 40
1
 40
1
 40
1
 40
1
 10
183.750000
 20
-7.259843
 30
0.0
 10
183.750000
 20
-8.226343
 30
0.0
 10
182.966000
 20
-9.009843
 30
0.0
 10
182.000000
 20
-9.009843
 30
0.0
  0
SPLINE
  5
16c
100
AcDbEntity
  8
0
 62
7
100
AcDbSpline
 70
8
 71
3
 72
8
 73
4
 74
0
 40
0
 40
0
 40
0
 40
0
 40
1
 40
1
 40
1
 40
1
 10
182.000000
 20
-9.009843
 30
0.0
 10
181.034000
 20
-9.009843
 30
0.0
 10
180.250000
 20
-8.226343
 30
0.0
 10
180.250000
 20
-7.259843
 30
0.0
  0
SPLINE
  5
16d
100
AcDbEntity
  8
0
 62
7
100
AcDbSpline
 70
8
 71
3
 72
8
 73
4
 74
0
 40
0
 40
0
 40
0
 40
0
 40
1
 40
1
 40
1
 40
1
 10
180.250000
 20
-7.259843
 30
0.0
 10
180.250000
 20
-6.293343
 30
0.0
 10
181.034000
 20
-5.509843
 30
0.0
 10
182.000000
 20
-5.509843
 30
0.0
  0
SPLINE
  5
16e
100
AcDbEntity
  8
0
 62
7
100
AcDbSpline
 70
8
 71
3
 72
8
 73
4
 74
0
 40
0
 40
0
 40
0
 40
0
 40
1
 40
1
 40
1
 40
1
 10
182.000000
 20
-5.509843
 30
0.0
 10
182.966000
 20
-5.509843
 30
0.0
 10
183.750000
 20
-6.293343
 30
0.0
 10
183.750000
 20
-7.259843
 30
0.0
  0
SPLINE
  5
16f
100
AcDbEntity
  8
0
 62
7
100
AcDbSpline
 70
8
 71
3
 72
8
 73
4
 74
0
 40
0
 40
0
 40
0
 40
0
 40
1
 40
1
 40
1
 40
1
 10
343.500000
 20
-181.759843
 30
0.0
 10
343.500000
 20
-182.864843
 30
0.0
 10
342.604600
 20
-183.759843
 30
0.0
 10
341.500000
 20
-183.759843
 30
0.0
  0
SPLINE
  5
170
100
AcDbEntity
  8
0
 62
7
100
AcDbSpline
 70
8
 71
3
 72
8
 73
4
 74
0
 40
0
 40
0
 40
0
 40
0
 40
1
 40
1
 40
1
 40
1
 10
341.500000
 20
-183.759843
 30
0.0
 10
340.395400
 20
-183.759843
 30
0.0
 10
339.500000
 20
-182.864843
 30
0.0
 10
339.500000
 20
-181.759843
 30
0.0
  0
SPLINE
  5
171
100
AcDbEntity
  8
0
 62
7
100
AcDbSpline
 70
8
 71
3
 72
8
 73
4
 74
0
 40
0
 40
0
 40
0
 40
0
 40
1
 40
1
 40
1
 40
1
 10
339.500000
 20
-181.759843
 30
0.0
 10
339.500000
 20
-180.654843
 30
0.0
 10
340.395400
 20
-179.759843
 30
0.0
 10
341.500000
 20
-179.759843
 30
0.0
  0
SPLINE
  5
172
100
AcDbEntity
  8
0
 62
7
100
AcDbSpline
 70
8
 71
3
 72
8
 73
4
 74
0
 40
0
 40
0
 40
0
 40
0
 40
1
 40
1
 40
1
 40
1
 10
341.500000
 20
-179.759843
 30
0.0
 10
342.604600
 20
-179.759843
 30
0.0
 10
343.500000
 20
-180.654843
 30
0.0
 10
343.500000
 20
-181.759843
 30
0.0
  0
SPLINE
  5
173
100
AcDbEntity
  8
0
 62
7
100
AcDbSpline
 70
8
 71
3
 72
8
 73
4
 74
0
 40
0
 40
0
 40
0
 40
0
 40
1
 40
1
 40
1
 40
1
 10
305.500000
 20
-181.759843
 30
0.0
 10
305.500000
 20
-182.864843
 30
0.0
 10
304.604570
 20
-183.759843
 30
0.0
 10
303.500000
 20
-183.759843
 30
0.0
  0
SPLINE
  5
174
100
AcDbEntity
  8
0
 62
7
100
AcDbSpline
 70
8
 71
3
 72
8
 73
4
 74
0
 40
0
 40
0
 40
0
 40
0
 40
1
 40
1
 40
1
 40
1
 10
303.500000
 20
-183.759843
 30
0.0
 10
302.395430
 20
-183.759843
 30
0.0
 10
301.500000
 20
-182.864843
 30
0.0
 10
301.500000
 20
-181.759843
 30
0.0
  0
SPLINE
  5
175
100
AcDbEntity
  8
0
 62
7
100
AcDbSpline
 70
8
 71
3
 72
8
 73
4
 74
0
 40
0
 40
0
 40
0
 40
0
 40
1
 40
1
 40
1
 40
1
 10
301.500000
 20
-181.759843
 30
0.0
 10
301.500000
 20
-180.654843
 30
0.0
 10
302.395430
 20
-179.759843
 30
0.0
 10
303.500000
 20
-179.759843
 30
0.0
  0
SPLINE
  5
176
100
AcDbEntity
  8
0
 62
7
100
AcDbSpline
 70
8
 71
3
 72
8
 73
4
 74
0
 40
0
 40
0
 40
0
 40
0
 40
1
 40
1
 40
1
 40
1
 10
303.500000
 20
-179.759843
 30
0.0
 10
304.604570
 20
-179.759843
 30
0.0
 10
305.500000
 20
-180.654843
 30
0.0
 10
305.500000
 20
-181.759843
 30
0.0
  0
SPLINE
  5
177
100
AcDbEntity
  8
0
 62
7
100
AcDbSpline
 70
8
 71
3
 72
8
 73
4
 74
0
 40
0
 40
0
 40
0
 40
0
 40
1
 40
1
 40
1
 40
1
 10
133.750000
 20
-171.259843
 30
0.0
 10
133.750000
 20
-172.225843
 30
0.0
 10
132.966000
 20
-173.009843
 30
0.0
 10
132.000000
 20
-173.009843
 30
0.0
  0
SPLINE
  5
178
100
AcDbEntity
  8
0
 62
7
100
AcDbSpline
 70
8
 71
3
 72
8
 73
4
 74
0
 40
0
 40
0
 40
0
 40
0
 40
1
 40
1
 40
1
 40
1
 10
132.000000
 20
-173.009843
 30
0.0
 10
131.034000
 20
-173.009843
 30
0.0
 10
130.250000
 20
-172.225843
 30
0.0
 10
130.250000
 20
-171.259843
 30
0.0
  0
SPLINE
  5
179
100
AcDbEntity
  8
0
 62
7
100
AcDbSpline
 70
8
 71
3
 72
8
 73
4
 74
0
 40
0
 40
0
 40
0
 40
0
 40
1
 40
1
 40
1
 40
1
 10
130.250000
 20
-171.259843
 30
0.0
 10
130.250000
 20
-170.293843
 30
0.0
 10
131.034000
 20
-169.509843
 30
0.0
 10
132.000000
 20
-169.509843
 30
0.0
  0
SPLINE
  5
17a
100
AcDbEntity
  8
0
 62
7
100
AcDbSpline
 70
8
 71
3
 72
8
 73
4
 74
0
 40
0
 40
0
 40
0
 40
0
 40
1
 40
1
 40
1
 40
1
 10
132.000000
 20
-169.509843
 30
0.0
 10
132.966000
 20
-169.509843
 30
0.0
 10
133.750000
 20
-170.293843
 30
0.0
 10
133.750000
 20
-171.259843
 30
0.0
  0
SPLINE
  5
17b
100
AcDbEntity
  8
0
 62
7
100
AcDbSpline
 70
8
 71
3
 72
8
 73
4
 74
0
 40
0
 40
0
 40
0
 40
0
 40
1
 40
1
 40
1
 40
1
 10
391.600000
 20
86.490157
 30
0.0
 10
391.600000
 20
85.330157
 30
0.0
 10
390.659800
 20
84.390157
 30
0.0
 10
389.500000
 20
84.390157
 30
0.0
  0
SPLINE
  5
17c
100
AcDbEntity
  8
0
 62
7
100
AcDbSpline
 70
8
 71
3
 72
8
 73
4
 74
0
 40
0
 40
0
 40
0
 40
0
 40
1
 40
1
 40
1
 40
1
 10
389.500000
 20
84.390157
 30
0.0
 10
388.340200
 20
84.390157
 30
0.0
 10
387.400000
 20
85.330157
 30
0.0
 10
387.400000
 20
86.490157
 30
0.0
  0
SPLINE
  5
17d
100
AcDbEntity
  8
0
 62
7
100
AcDbSpline
 70
8
 71
3
 72
8
 73
4
 74
0
 40
0
 40
0
 40
0
 40
0
 40
1
 40
1
 40
1
 40
1
 10
387.400000
 20
86.490157
 30
0.0
 10
387.400000
 20
87.650157
 30
0.0
 10
388.340200
 20
88.590157
 30
0.0
 10
389.500000
 20
88.590157
 30
0.0
  0
SPLINE
  5
17e
100
AcDbEntity
  8
0
 62
7
100
AcDbSpline
 70
8
 71
3
 72
8
 73
4
 74
0
 40
0
 40
0
 40
0
 40
0
 40
1
 40
1
 40
1
 40
1
 10
389.500000
 20
88.590157
 30
0.0
 10
390.659800
 20
88.590157
 30
0.0
 10
391.600000
 20
87.650157
 30
0.0
 10
391.600000
 20
86.490157
 30
0.0
  0
SPLINE
  5
17f
100
AcDbEntity
  8
0
 62
7
100
AcDbSpline
 70
8
 71
3
 72
8
 73
4
 74
0
 40
0
 40
0
 40
0
 40
0
 40
1
 40
1
 40
1
 40
1
 10
498.750000
 20
-171.259843
 30
0.0
 10
498.750000
 20
-172.225843
 30
0.0
 10
497.966000
 20
-173.009843
 30
0.0
 10
497.000000
 20
-173.009843
 30
0.0
  0
SPLINE
  5
180
100
AcDbEntity
  8
0
 62
7
100
AcDbSpline
 70
8
 71
3
 72
8
 73
4
 74
0
 40
0
 40
0
 40
0
 40
0
 40
1
 40
1
 40
1
 40
1
 10
497.000000
 20
-173.009843
 30
0.0
 10
496.034000
 20
-173.009843
 30
0.0
 10
495.250000
 20
-172.225843
 30
0.0
 10
495.250000
 20
-171.259843
 30
0.0
  0
SPLINE
  5
181
100
AcDbEntity
  8
0
 62
7
100
AcDbSpline
 70
8
 71
3
 72
8
 73
4
 74
0
 40
0
 40
0
 40
0
 40
0
 40
1
 40
1
 40
1
 40
1
 10
495.250000
 20
-171.259843
 30
0.0
 10
495.250000
 20
-170.293843
 30
0.0
 10
496.034000
 20
-169.509843
 30
0.0
 10
497.000000
 20
-169.509843
 30
0.0
  0
SPLINE
  5
182
100
AcDbEntity
  8
0
 62
7
100
AcDbSpline
 70
8
 71
3
 72
8
 73
4
 74
0
 40
0
 40
0
 40
0
 40
0
 40
1
 40
1
 40
1
 40
1
 10
497.000000
 20
-169.509843
 30
0.0
 10
497.966000
 20
-169.509843
 30
0.0
 10
498.750000
 20
-170.293843
 30
0.0
 10
498.750000
 20
-171.259843
 30
0.0
  0
SPLINE
  5
183
100
AcDbEntity
  8
0
 62
7
100
AcDbSpline
 70
8
 71
3
 72
8
 73
4
 74
0
 40
0
 40
0
 40
0
 40
0
 40
1
 40
1
 40
1
 40
1
 10
498.750000
 20
68.740157
 30
0.0
 10
498.750000
 20
67.774157
 30
0.0
 10
497.966000
 20
66.990157
 30
0.0
 10
497.000000
 20
66.990157
 30
0.0
  0
SPLINE
  5
184
100
AcDbEntity
  8
0
 62
7
100
AcDbSpline
 70
8
 71
3
 72
8
 73
4
 74
0
 40
0
 40
0
 40
0
 40
0
 40
1
 40
1
 40
1
 40
1
 10
497.000000
 20
66.990157
 30
0.0
 10
496.034000
 20
66.990157
 30
0.0
 10
495.250000
 20
67.774157
 30
0.0
 10
495.250000
 20
68.740157
 30
0.0
  0
SPLINE
  5
185
100
AcDbEntity
  8
0
 62
7
100
AcDbSpline
 70
8
 71
3
 72
8
 73
4
 74
0
 40
0
 40
0
 40
0
 40
0
 40
1
 40
1
 40
1
 40
1
 10
495.250000
 20
68.740157
 30
0.0
 10
495.250000
 20
69.706157
 30
0.0
 10
496.034000
 20
70.490157
 30
0.0
 10
497.000000
 20
70.490157
 30
0.0
  0
SPLINE
  5
186
100
AcDbEntity
  8
0
 62
7
100
AcDbSpline
 70
8
 71
3
 72
8
 73
4
 74
0
 40
0
 40
0
 40
0
 40
0
 40
1
 40
1
 40
1
 40
1
 10
497.000000
 20
70.490157
 30
0.0
 10
497.966000
 20
70.490157
 30
0.0
 10
498.750000
 20
69.706157
 30
0.0
 10
498.750000
 20
68.740157
 30
0.0
  0
SPLINE
  5
187
100
AcDbEntity
  8
0
 62
7
100
AcDbSpline
 70
8
 71
3
 72
8
 73
4
 74
0
 40
0
 40
0
 40
0
 40
0
 40
1
 40
1
 40
1
 40
1
 10
419.600000
 20
86.490157
 30
0.0
 10
419.600000
 20
85.330157
 30
0.0
 10
418.660000
 20
84.390157
 30
0.0
 10
417.500000
 20
84.390157
 30
0.0
  0
SPLINE
  5
188
100
AcDbEntity
  8
0
 62
7
100
AcDbSpline
 70
8
 71
3
 72
8
 73
4
 74
0
 40
0
 40
0
 40
0
 40
0
 40
1
 40
1
 40
1
 40
1
 10
417.500000
 20
84.390157
 30
0.0
 10
416.340000
 20
84.390157
 30
0.0
 10
415.400000
 20
85.330157
 30
0.0
 10
415.400000
 20
86.490157
 30
0.0
  0
SPLINE
  5
189
100
AcDbEntity
  8
0
 62
7
100
AcDbSpline
 70
8
 71
3
 72
8
 73
4
 74
0
 40
0
 40
0
 40
0
 40
0
 40
1
 40
1
 40
1
 40
1
 10
415.400000
 20
86.490157
 30
0.0
 10
415.400000
 20
87.650157
 30
0.0
 10
416.340000
 20
88.590157
 30
0.0
 10
417.500000
 20
88.590157
 30
0.0
  0
SPLINE
  5
18a
100
AcDbEntity
  8
0
 62
7
100
AcDbSpline
 70
8
 71
3
 72
8
 73
4
 74
0
 40
0
 40
0
 40
0
 40
0
 40
1
 40
1
 40
1
 40
1
 10
417.500000
 20
88.590157
 30
0.0
 10
418.660000
 20
88.590157
 30
0.0
 10
419.600000
 20
87.650157
 30
0.0
 10
419.600000
 20
86.490157
 30
0.0
  0
LWPOLYLINE
  5
18b
100
AcDbEntity
  8
0
 62
7
100
AcDbPolyline
 90
3
 70
0
 10
179.400000
 20
-55.509843
 30
0.0
 10
179.400000
 20
-78.009843
 30
0.0
 10
164.400000
 20
-78.009843
 30
0.0
  0
SPLINE
  5
18c
100
AcDbEntity
  8
0
 62
7
100
AcDbSpline
 70
8
 71
3
 72
8
 73
4
 74
0
 40
0
 40
0
 40
0
 40
0
 40
1
 40
1
 40
1
 40
1
 10
453.000000
 20
59.240157
 30
0.0
 10
453.000000
 20
64.763157
 30
0.0
 10
448.523000
 20
69.240157
 30
0.0
 10
443.000000
 20
69.240157
 30
0.0
  0
SPLINE
  5
18d
100
AcDbEntity
  8
0
 62
7
100
AcDbSpline
 70
8
 71
3
 72
8
 73
4
 74
0
 40
0
 40
0
 40
0
 40
0
 40
1
 40
1
 40
1
 40
1
 10
202.000000
 20
69.240157
 30
0.0
 10
196.477000
 20
69.240157
 30
0.0
 10
192.000000
 20
64.763157
 30
0.0
 10
192.000000
 20
59.240157
 30
0.0
  0
LWPOLYLINE
  5
18e
100
AcDbEntity
  8
0
 62
7
100
AcDbPolyline
 90
2
 70
0
 10
443.000000
 20
69.240157
 30
0.0
 10
202.000000
 20
69.240157
 30
0.0
  0
LWPOLYLINE
  5
18f
100
AcDbEntity
  8
0
 62
7
100
AcDbPolyline
 90
2
 70
0
 10
453.000000
 20
-161.759843
 30
0.0
 10
453.000000
 20
59.240157
 30
0.0
  0
SPLINE
  5
190
100
AcDbEntity
  8
0
 62
7
100
AcDbSpline
 70
8
 71
3
 72
8
 73
4
 74
0
 40
0
 40
0
 40
0
 40
0
 40
1
 40
1
 40
1
 40
1
 10
443.000000
 20
-171.759843
 30
0.0
 10
448.523000
 20
-171.759843
 30
0.0
 10
453.000000
 20
-167.282843
 30
0.0
 10
453.000000
 20
-161.759843
 30
0.0
  0
SPLINE
  5
191
100
AcDbEntity
  8
0
 62
7
100
AcDbSpline
 70
8
 71
3
 72
8
 73
4
 74
0
 40
0
 40
0
 40
0
 40
0
 40
1
 40
1
 40
1
 40
1
 10
192.000000
 20
-161.759843
 30
0.0
 10
192.000000
 20
-167.282843
 30
0.0
 10
196.477000
 20
-171.759843
 30
0.0
 10
202.000000
 20
-171.759843
 30
0.0
  0
LWPOLYLINE
  5
192
100
AcDbEntity
  8
0
 62
7
100
AcDbPolyline
 90
2
 70
0
 10
192.000000
 20
59.240157
 30
0.0
 10
192.000000
 20
-161.759843
 30
0.0
  0
LWPOLYLINE
  5
193
100
AcDbEntity
  8
0
 62
7
100
AcDbPolyline
 90
2
 70
0
 10
202.000000
 20
-171.759843
 30
0.0
 10
443.000000
 20
-171.759843
 30
0.0
  0
LWPOLYLINE
  5
194
100
AcDbEntity
  8
0
 62
7
100
AcDbPolyline
 90
2
 70
0
 10
117.000000
 20
-99.459843
 30
0.0
 10
117.000000
 20
-91.059843
 30
0.0
  0
LWPOLYLINE
  5
195
100
AcDbEntity
  8
0
 62
7
100
AcDbPolyline
 90
2
 70
0
 10
121.200000
 20
-95.259843
 30
0.0
 10
112.800000
 20
-95.259843
 30
0.0
  0
LWPOLYLINE
  5
196
100
AcDbEntity
  8
0
 62
7
100
AcDbPolyline
 90
2
 70
0
 10
132.000000
 20
64.540157
 30
0.0
 10
132.000000
 20
72.940157
 30
0.0
  0
LWPOLYLINE
  5
197
100
AcDbEntity
  8
0
 62
7
100
AcDbPolyline
 90
2
 70
0
 10
136.200000
 20
68.740157
 30
0.0
 10
127.800000
 20
68.740157
 30
0.0
  0
LWPOLYLINE
  5
198
100
AcDbEntity
  8
0
 62
7
100
AcDbPolyline
 90
2
 70
0
 10
117.000000
 20
-11.459843
 30
0.0
 10
117.000000
 20
-3.059843
 30
0.0
  0
LWPOLYLINE
  5
199
100
AcDbEntity
  8
0
 62
7
100
AcDbPolyline
 90
2
 70
0
 10
121.200000
 20
-7.259843
 30
0.0
 10
112.800000
 20
-7.259843
 30
0.0
  0
LWPOLYLINE
  5
19a
100
AcDbEntity
  8
0
 62
7
100
AcDbPolyline
 90
2
 70
0
 10
182.000000
 20
-99.459843
 30
0.0
 10
182.000000
 20
-91.059843
 30
0.0
  0
LWPOLYLINE
  5
19b
100
AcDbEntity
  8
0
 62
7
100
AcDbPolyline
 90
2
 70
0
 10
186.200000
 20
-95.259843
 30
0.0
 10
177.800000
 20
-95.259843
 30
0.0
  0
LWPOLYLINE
  5
19c
100
AcDbEntity
  8
0
 62
7
100
AcDbPolyline
 90
2
 70
0
 10
255.500000
 20
82.290157
 30
0.0
 10
255.500000
 20
90.690157
 30
0.0
  0
LWPOLYLINE
  5
19d
100
AcDbEntity
  8
0
 62
7
100
AcDbPolyline
 90
2
 70
0
 10
259.700000
 20
86.490157
 30
0.0
 10
251.300000
 20
86.490157
 30
0.0
  0
LWPOLYLINE
  5
19e
100
AcDbEntity
  8
0
 62
7
100
AcDbPolyline
 90
2
 70
0
 10
227.500000
 20
82.290157
 30
0.0
 10
227.500000
 20
90.690157
 30
0.0
  0
LWPOLYLINE
  5
19f
100
AcDbEntity
  8
0
 62
7
100
AcDbPolyline
 90
2
 70
0
 10
231.700000
 20
86.490157
 30
0.0
 10
223.300000
 20
86.490157
 30
0.0
  0
LWPOLYLINE
  5
1a0
100
AcDbEntity
  8
0
 62
7
100
AcDbPolyline
 90
2
 70
0
 10
182.000000
 20
-11.459843
 30
0.0
 10
182.000000
 20
-3.059843
 30
0.0
  0
LWPOLYLINE
  5
1a1
100
AcDbEntity
  8
0
 62
7
100
AcDbPolyline
 90
2
 70
0
 10
186.200000
 20
-7.259843
 30
0.0
 10
177.800000
 20
-7.259843
 30
0.0
  0
LWPOLYLINE
  5
1a2
100
AcDbEntity
  8
0
 62
7
100
AcDbPolyline
 90
2
 70
0
 10
341.500000
 20
-185.959843
 30
0.0
 10
341.500000
 20
-177.559843
 30
0.0
  0
LWPOLYLINE
  5
1a3
100
AcDbEntity
  8
0
 62
7
100
AcDbPolyline
 90
2
 70
0
 10
345.700000
 20
-181.759843
 30
0.0
 10
337.300000
 20
-181.759843
 30
0.0
  0
LWPOLYLINE
  5
1a4
100
AcDbEntity
  8
0
 62
7
100
AcDbPolyline
 90
2
 70
0
 10
303.500000
 20
-185.959843
 30
0.0
 10
303.500000
 20
-177.559843
 30
0.0
  0
LWPOLYLINE
  5
1a5
100
AcDbEntity
  8
0
 62
7
100
AcDbPolyline
 90
2
 70
0
 10
307.700000
 20
-181.759843
 30
0.0
 10
299.300000
 20
-181.759843
 30
0.0
  0
LWPOLYLINE
  5
1a6
100
AcDbEntity
  8
0
 62
7
100
AcDbPolyline
 90
2
 70
0
 10
132.000000
 20
-175.459843
 30
0.0
 10
132.000000
 20
-167.059843
 30
0.0
  0
LWPOLYLINE
  5
1a7
100
AcDbEntity
  8
0
 62
7
100
AcDbPolyline
 90
2
 70
0
 10
136.200000
 20
-171.259843
 30
0.0
 10
127.800000
 20
-171.259843
 30
0.0
  0
LWPOLYLINE
  5
1a8
100
AcDbEntity
  8
0
 62
7
100
AcDbPolyline
 90
2
 70
0
 10
389.500000
 20
82.290157
 30
0.0
 10
389.500000
 20
90.690157
 30
0.0
  0
LWPOLYLINE
  5
1a9
100
AcDbEntity
  8
0
 62
7
100
AcDbPolyline
 90
2
 70
0
 10
393.700000
 20
86.490157
 30
0.0
 10
385.300000
 20
86.490157
 30
0.0
  0
LWPOLYLINE
  5
1aa
100
AcDbEntity
  8
0
 62
7
100
AcDbPolyline
 90
2
 70
0
 10
497.000000
 20
-175.459843
 30
0.0
 10
497.000000
 20
-167.059843
 30
0.0
  0
LWPOLYLINE
  5
1ab
100
AcDbEntity
  8
0
 62
7
100
AcDbPolyline
 90
2
 70
0
 10
501.200000
 20
-171.259843
 30
0.0
 10
492.800000
 20
-171.259843
 30
0.0
  0
LWPOLYLINE
  5
1ac
100
AcDbEntity
  8
0
 62
7
100
AcDbPolyline
 90
2
 70
0
 10
497.000000
 20
64.540157
 30
0.0
 10
497.000000
 20
72.940157
 30
0.0
  0
LWPOLYLINE
  5
1ad
100
AcDbEntity
  8
0
 62
7
100
AcDbPolyline
 90
2
 70
0
 10
501.200000
 20
68.740157
 30
0.0
 10
492.800000
 20
68.740157
 30
0.0
  0
LWPOLYLINE
  5
1ae
100
AcDbEntity
  8
0
 62
7
100
AcDbPolyline
 90
2
 70
0
 10
417.500000
 20
82.290157
 30
0.0
 10
417.500000
 20
90.690157
 30
0.0
  0
LWPOLYLINE
  5
1af
100
AcDbEntity
  8
0
 62
7
100
AcDbPolyline
 90
2
 70
0
 10
421.700000
 20
86.490157
 30
0.0
 10
413.300000
 20
86.490157
 30
0.0
  0
LWPOLYLINE
  5
1b0
100
AcDbEntity
  8
0
 62
7
100
AcDbPolyline
 90
2
 70
0
 10
443.000000
 20
55.040157
 30
0.0
 10
443.000000
 20
63.440157
 30
0.0
  0
LWPOLYLINE
  5
1b1
100
AcDbEntity
  8
0
 62
7
100
AcDbPolyline
 90
2
 70
0
 10
447.200000
 20
59.240157
 30
0.0
 10
438.800000
 20
59.240157
 30
0.0
  0
LWPOLYLINE
  5
1b2
100
AcDbEntity
  8
0
 62
7
100
AcDbPolyline
 90
2
 70
0
 10
202.000000
 20
55.040157
 30
0.0
 10
202.000000
 20
63.440157
 30
0.0
  0
LWPOLYLINE
  5
1b3
100
AcDbEntity
  8
0
 62
7
100
AcDbPolyline
 90
2
 70
0
 10
206.200000
 20
59.240157
 30
0.0
 10
197.800000
 20
59.240157
 30
0.0
  0
LWPOLYLINE
  5
1b4
100
AcDbEntity
  8
0
 62
7
100
AcDbPolyline
 90
2
 70
0
 10
443.000000
 20
-165.959843
 30
0.0
 10
443.000000
 20
-157.559843
 30
0.0
  0
LWPOLYLINE
  5
1b5
100
AcDbEntity
  8
0
 62
7
100
AcDbPolyline
 90
2
 70
0
 10
447.200000
 20
-161.759843
 30
0.0
 10
438.800000
 20
-161.759843
 30
0.0
  0
LWPOLYLINE
  5
1b6
100
AcDbEntity
  8
0
 62
7
100
AcDbPolyline
 90
2
 70
0
 10
202.000000
 20
-165.959843
 30
0.0
 10
202.000000
 20
-157.559843
 30
0.0
  0
LWPOLYLINE
  5
1b7
100
AcDbEntity
  8
0
 62
7
100
AcDbPolyline
 90
2
 70
0
 10
206.200000
 20
-161.759843
 30
0.0
 10
197.800000
 20
-161.759843
 30
0.0
  0
SPLINE
  5
1b8
100
AcDbEntity
  8
0
 62
7
100
AcDbSpline
 70
8
 71
3
 72
8
 73
4
 74
0
 40
0
 40
0
 40
0
 40
0
 40
1
 40
1
 40
1
 40
1
 10
426.370910
 20
58.740157
 30
0.0
 10
429.408910
 20
58.740157
 30
0.0
 10
431.870910
 20
56.278157
 30
0.0
 10
431.870910
 20
53.240157
 30
0.0
  0
LWPOLYLINE
  5
1b9
100
AcDbEntity
  8
0
 62
7
100
AcDbPolyline
 90
2
 70
0
 10
217.370910
 20
58.740157
 30
0.0
 10
426.370910
 20
58.740157
 30
0.0
  0
SPLINE
  5
1ba
100
AcDbEntity
  8
0
 62
7
100
AcDbSpline
 70
8
 71
3
 72
8
 73
4
 74
0
 40
0
 40
0
 40
0
 40
0
 40
1
 40
1
 40
1
 40
1
 10
431.870910
 20
-155.759843
 30
0.0
 10
431.870910
 20
-158.797843
 30
0.0
 10
429.408910
 20
-161.259843
 30
0.0
 10
426.370910
 20
-161.259843
 30
0.0
  0
LWPOLYLINE
  5
1bb
100
AcDbEntity
  8
0
 62
7
100
AcDbPolyline
 90
2
 70
0
 10
431.870910
 20
53.240157
 30
0.0
 10
431.870910
 20
-155.759843
 30
0.0
  0
SPLINE
  5
1bc
100
AcDbEntity
  8
0
 62
7
100
AcDbSpline
 70
8
 71
3
 72
8
 73
4
 74
0
 40
0
 40
0
 40
0
 40
0
 40
1
 40
1
 40
1
 40
1
 10
217.370910
 20
-161.259843
 30
0.0
 10
214.332910
 20
-161.259843
 30
0.0
 10
211.870910
 20
-158.797843
 30
0.0
 10
211.870910
 20
-155.759843
 30
0.0
  0
LWPOLYLINE
  5
1bd
100
AcDbEntity
  8
0
 62
7
100
AcDbPolyline
 90
2
 70
0
 10
426.370910
 20
-161.259843
 30
0.0
 10
217.370910
 20
-161.259843
 30
0.0
  0
SPLINE
  5
1be
100
AcDbEntity
  8
0
 62
7
100
AcDbSpline
 70
8
 71
3
 72
8
 73
4
 74
0
 40
0
 40
0
 40
0
 40
0
 40
1
 40
1
 40
1
 40
1
 10
211.870910
 20
53.240157
 30
0.0
 10
211.870910
 20
56.278157
 30
0.0
 10
214.332910
 20
58.740157
 30
0.0
 10
217.370910
 20
58.740157
 30
0.0
  0
SPLINE
  5
1bf
100
AcDbEntity
  8
0
 62
7
100
AcDbSpline
 70
8
 71
3
 72
8
 73
4
 74
0
 40
0
 40
0
 40
0
 40
0
 40
1
 40
1
 40
1
 40
1
 10
429.570910
 20
53.240157
 30
0.0
 10
429.570910
 20
51.473157
 30
0.0
 10
428.137910
 20
50.040157
 30
0.0
 10
426.370910
 20
50.040157
 30
0.0
  0
SPLINE
  5
1c0
100
AcDbEntity
  8
0
 62
7
100
AcDbSpline
 70
8
 71
3
 72
8
 73
4
 74
0
 40
0
 40
0
 40
0
 40
0
 40
1
 40
1
 40
1
 40
1
 10
426.370910
 20
50.040157
 30
0.0
 10
424.603910
 20
50.040157
 30
0.0
 10
423.170910
 20
51.473157
 30
0.0
 10
423.170910
 20
53.240157
 30
0.0
  0
SPLINE
  5
1c1
100
AcDbEntity
  8
0
 62
7
100
AcDbSpline
 70
8
 71
3
 72
8
 73
4
 74
0
 40
0
 40
0
 40
0
 40
0
 40
1
 40
1
 40
1
 40
1
 10
423.170910
 20
53.240157
 30
0.0
 10
423.170910
 20
55.007157
 30
0.0
 10
424.603910
 20
56.440157
 30
0.0
 10
426.370910
 20
56.440157
 30
0.0
  0
SPLINE
  5
1c2
100
AcDbEntity
  8
0
 62
7
100
AcDbSpline
 70
8
 71
3
 72
8
 73
4
 74
0
 40
0
 40
0
 40
0
 40
0
 40
1
 40
1
 40
1
 40
1
 10
426.370910
 20
56.440157
 30
0.0
 10
428.137910
 20
56.440157
 30
0.0
 10
429.570910
 20
55.007157
 30
0.0
 10
429.570910
 20
53.240157
 30
0.0
  0
SPLINE
  5
1c3
100
AcDbEntity
  8
0
 62
7
100
AcDbSpline
 70
8
 71
3
 72
8
 73
4
 74
0
 40
0
 40
0
 40
0
 40
0
 40
1
 40
1
 40
1
 40
1
 10
220.570910
 20
53.240157
 30
0.0
 10
220.570910
 20
51.473157
 30
0.0
 10
219.137910
 20
50.040157
 30
0.0
 10
217.370910
 20
50.040157
 30
0.0
  0
SPLINE
  5
1c4
100
AcDbEntity
  8
0
 62
7
100
AcDbSpline
 70
8
 71
3
 72
8
 73
4
 74
0
 40
0
 40
0
 40
0
 40
0
 40
1
 40
1
 40
1
 40
1
 10
217.370910
 20
50.040157
 30
0.0
 10
215.603910
 20
50.040157
 30
0.0
 10
214.170910
 20
51.473157
 30
0.0
 10
214.170910
 20
53.240157
 30
0.0
  0
SPLINE
  5
1c5
100
AcDbEntity
  8
0
 62
7
100
AcDbSpline
 70
8
 71
3
 72
8
 73
4
 74
0
 40
0
 40
0
 40
0
 40
0
 40
1
 40
1
 40
1
 40
1
 10
214.170910
 20
53.240157
 30
0.0
 10
214.170910
 20
55.007157
 30
0.0
 10
215.603910
 20
56.440157
 30
0.0
 10
217.370910
 20
56.440157
 30
0.0
  0
SPLINE
  5
1c6
100
AcDbEntity
  8
0
 62
7
100
AcDbSpline
 70
8
 71
3
 72
8
 73
4
 74
0
 40
0
 40
0
 40
0
 40
0
 40
1
 40
1
 40
1
 40
1
 10
217.370910
 20
56.440157
 30
0.0
 10
219.137910
 20
56.440157
 30
0.0
 10
220.570910
 20
55.007157
 30
0.0
 10
220.570910
 20
53.240157
 30
0.0
  0
SPLINE
  5
1c7
100
AcDbEntity
  8
0
 62
7
100
AcDbSpline
 70
8
 71
3
 72
8
 73
4
 74
0
 40
0
 40
0
 40
0
 40
0
 40
1
 40
1
 40
1
 40
1
 10
429.570910
 20
-155.759843
 30
0.0
 10
429.570910
 20
-157.526843
 30
0.0
 10
428.137910
 20
-158.959843
 30
0.0
 10
426.370910
 20
-158.959843
 30
0.0
  0
SPLINE
  5
1c8
100
AcDbEntity
  8
0
 62
7
100
AcDbSpline
 70
8
 71
3
 72
8
 73
4
 74
0
 40
0
 40
0
 40
0
 40
0
 40
1
 40
1
 40
1
 40
1
 10
426.370910
 20
-158.959843
 30
0.0
 10
424.603910
 20
-158.959843
 30
0.0
 10
423.170910
 20
-157.526843
 30
0.0
 10
423.170910
 20
-155.759843
 30
0.0
  0
SPLINE
  5
1c9
100
AcDbEntity
  8
0
 62
7
100
AcDbSpline
 70
8
 71
3
 72
8
 73
4
 74
0
 40
0
 40
0
 40
0
 40
0
 40
1
 40
1
 40
1
 40
1
 10
423.170910
 20
-155.759843
 30
0.0
 10
423.170910
 20
-153.992843
 30
0.0
 10
424.603910
 20
-152.559843
 30
0.0
 10
426.370910
 20
-152.559843
 30
0.0
  0
SPLINE
  5
1ca
100
AcDbEntity
  8
0
 62
7
100
AcDbSpline
 70
8
 71
3
 72
8
 73
4
 74
0
 40
0
 40
0
 40
0
 40
0
 40
1
 40
1
 40
1
 40
1
 10
426.370910
 20
-152.559843
 30
0.0
 10
428.137910
 20
-152.559843
 30
0.0
 10
429.570910
 20
-153.992843
 30
0.0
 10
429.570910
 20
-155.759843
 30
0.0
  0
SPLINE
  5
1cb
100
AcDbEntity
  8
0
 62
7
100
AcDbSpline
 70
8
 71
3
 72
8
 73
4
 74
0
 40
0
 40
0
 40
0
 40
0
 40
1
 40
1
 40
1
 40
1
 10
220.570910
 20
-155.759843
 30
0.0
 10
220.570910
 20
-157.526843
 30
0.0
 10
219.137910
 20
-158.959843
 30
0.0
 10
217.370910
 20
-158.959843
 30
0.0
  0
SPLINE
  5
1cc
100
AcDbEntity
  8
0
 62
7
100
AcDbSpline
 70
8
 71
3
 72
8
 73
4
 74
0
 40
0
 40
0
 40
0
 40
0
 40
1
 40
1
 40
1
 40
1
 10
217.370910
 20
-158.959843
 30
0.0
 10
215.603910
 20
-158.959843
 30
0.0
 10
214.170910
 20
-157.526843
 30
0.0
 10
214.170910
 20
-155.759843
 30
0.0
  0
SPLINE
  5
1cd
100
AcDbEntity
  8
0
 62
7
100
AcDbSpline
 70
8
 71
3
 72
8
 73
4
 74
0
 40
0
 40
0
 40
0
 40
0
 40
1
 40
1
 40
1
 40
1
 10
214.170910
 20
-155.759843
 30
0.0
 10
214.170910
 20
-153.992843
 30
0.0
 10
215.603910
 20
-152.559843
 30
0.0
 10
217.370910
 20
-152.559843
 30
0.0
  0
SPLINE
  5
1ce
100
AcDbEntity
  8
0
 62
7
100
AcDbSpline
 70
8
 71
3
 72
8
 73
4
 74
0
 40
0
 40
0
 40
0
 40
0
 40
1
 40
1
 40
1
 40
1
 10
217.370910
 20
-152.559843
 30
0.0
 10
219.137910
 20
-152.559843
 30
0.0
 10
220.570910
 20
-153.992843
 30
0.0
 10
220.570910
 20
-155.759843
 30
0.0
  0
SPLINE
  5
1cf
100
AcDbEntity
  8
0
 62
7
100
AcDbSpline
 70
8
 71
3
 72
8
 73
4
 74
0
 40
0
 40
0
 40
0
 40
0
 40
1
 40
1
 40
1
 40
1
 10
244.620910
 20
28.740157
 30
0.0
 10
244.620910
 20
27.221357
 30
0.0
 10
243.389710
 20
25.990157
 30
0.0
 10
241.870910
 20
25.990157
 30
0.0
  0
SPLINE
  5
1d0
100
AcDbEntity
  8
0
 62
7
100
AcDbSpline
 70
8
 71
3
 72
8
 73
4
 74
0
 40
0
 40
0
 40
0
 40
0
 40
1
 40
1
 40
1
 40
1
 10
241.870910
 20
25.990157
 30
0.0
 10
240.352110
 20
25.990157
 30
0.0
 10
239.120910
 20
27.221357
 30
0.0
 10
239.120910
 20
28.740157
 30
0.0
  0
SPLINE
  5
1d1
100
AcDbEntity
  8
0
 62
7
100
AcDbSpline
 70
8
 71
3
 72
8
 73
4
 74
0
 40
0
 40
0
 40
0
 40
0
 40
1
 40
1
 40
1
 40
1
 10
239.120910
 20
28.740157
 30
0.0
 10
239.120910
 20
30.258957
 30
0.0
 10
240.352110
 20
31.490157
 30
0.0
 10
241.870910
 20
31.490157
 30
0.0
  0
SPLINE
  5
1d2
100
AcDbEntity
  8
0
 62
7
100
AcDbSpline
 70
8
 71
3
 72
8
 73
4
 74
0
 40
0
 40
0
 40
0
 40
0
 40
1
 40
1
 40
1
 40
1
 10
241.870910
 20
31.490157
 30
0.0
 10
243.389710
 20
31.490157
 30
0.0
 10
244.620910
 20
30.258957
 30
0.0
 10
244.620910
 20
28.740157
 30
0.0
  0
SPLINE
  5
1d3
100
AcDbEntity
  8
0
 62
7
100
AcDbSpline
 70
8
 71
3
 72
8
 73
4
 74
0
 40
0
 40
0
 40
0
 40
0
 40
1
 40
1
 40
1
 40
1
 10
244.620910
 20
-131.259843
 30
0.0
 10
244.620910
 20
-132.778643
 30
0.0
 10
243.389710
 20
-134.009843
 30
0.0
 10
241.870910
 20
-134.009843
 30
0.0
  0
SPLINE
  5
1d4
100
AcDbEntity
  8
0
 62
7
100
AcDbSpline
 70
8
 71
3
 72
8
 73
4
 74
0
 40
0
 40
0
 40
0
 40
0
 40
1
 40
1
 40
1
 40
1
 10
241.870910
 20
-134.009843
 30
0.0
 10
240.352110
 20
-134.009843
 30
0.0
 10
239.120910
 20
-132.778643
 30
0.0
 10
239.120910
 20
-131.259843
 30
0.0
  0
SPLINE
  5
1d5
100
AcDbEntity
  8
0
 62
7
100
AcDbSpline
 70
8
 71
3
 72
8
 73
4
 74
0
 40
0
 40
0
 40
0
 40
0
 40
1
 40
1
 40
1
 40
1
 10
239.120910
 20
-131.259843
 30
0.0
 10
239.120910
 20
-129.741043
 30
0.0
 10
240.352110
 20
-128.509843
 30
0.0
 10
241.870910
 20
-128.509843
 30
0.0
  0
SPLINE
  5
1d6
100
AcDbEntity
  8
0
 62
7
100
AcDbSpline
 70
8
 71
3
 72
8
 73
4
 74
0
 40
0
 40
0
 40
0
 40
0
 40
1
 40
1
 40
1
 40
1
 10
241.870910
 20
-128.509843
 30
0.0
 10
243.389710
 20
-128.509843
 30
0.0
 10
244.620910
 20
-129.741043
 30
0.0
 10
244.620910
 20
-131.259843
 30
0.0
  0
SPLINE
  5
1d7
100
AcDbEntity
  8
0
 62
7
100
AcDbSpline
 70
8
 71
3
 72
8
 73
4
 74
0
 40
0
 40
0
 40
0
 40
0
 40
1
 40
1
 40
1
 40
1
 10
404.620910
 20
28.740157
 30
0.0
 10
404.620910
 20
27.221357
 30
0.0
 10
403.389710
 20
25.990157
 30
0.0
 10
401.870910
 20
25.990157
 30
0.0
  0
SPLINE
  5
1d8
100
AcDbEntity
  8
0
 62
7
100
AcDbSpline
 70
8
 71
3
 72
8
 73
4
 74
0
 40
0
 40
0
 40
0
 40
0
 40
1
 40
1
 40
1
 40
1
 10
401.870910
 20
25.990157
 30
0.0
 10
400.352110
 20
25.990157
 30
0.0
 10
399.120910
 20
27.221357
 30
0.0
 10
399.120910
 20
28.740157
 30
0.0
  0
SPLINE
  5
1d9
100
AcDbEntity
  8
0
 62
7
100
AcDbSpline
 70
8
 71
3
 72
8
 73
4
 74
0
 40
0
 40
0
 40
0
 40
0
 40
1
 40
1
 40
1
 40
1
 10
399.120910
 20
28.740157
 30
0.0
 10
399.120910
 20
30.258957
 30
0.0
 10
400.352110
 20
31.490157
 30
0.0
 10
401.870910
 20
31.490157
 30
0.0
  0
SPLINE
  5
1da
100
AcDbEntity
  8
0
 62
7
100
AcDbSpline
 70
8
 71
3
 72
8
 73
4
 74
0
 40
0
 40
0
 40
0
 40
0
 40
1
 40
1
 40
1
 40
1
 10
401.870910
 20
31.490157
 30
0.0
 10
403.389710
 20
31.490157
 30
0.0
 10
404.620910
 20
30.258957
 30
0.0
 10
404.620910
 20
28.740157
 30
0.0
  0
SPLINE
  5
1db
100
AcDbEntity
  8
0
 62
7
100
AcDbSpline
 70
8
 71
3
 72
8
 73
4
 74
0
 40
0
 40
0
 40
0
 40
0
 40
1
 40
1
 40
1
 40
1
 10
404.620910
 20
-131.259843
 30
0.0
 10
404.620910
 20
-132.778643
 30
0.0
 10
403.389710
 20
-134.009843
 30
0.0
 10
401.870910
 20
-134.009843
 30
0.0
  0
SPLINE
  5
1dc
100
AcDbEntity
  8
0
 62
7
100
AcDbSpline
 70
8
 71
3
 72
8
 73
4
 74
0
 40
0
 40
0
 40
0
 40
0
 40
1
 40
1
 40
1
 40
1
 10
401.870910
 20
-134.009843
 30
0.0
 10
400.352110
 20
-134.009843
 30
0.0
 10
399.120910
 20
-132.778643
 30
0.0
 10
399.120910
 20
-131.259843
 30
0.0
  0
SPLINE
  5
1dd
100
AcDbEntity
  8
0
 62
7
100
AcDbSpline
 70
8
 71
3
 72
8
 73
4
 74
0
 40
0
 40
0
 40
0
 40
0
 40
1
 40
1
 40
1
 40
1
 10
399.120910
 20
-131.259843
 30
0.0
 10
399.120910
 20
-129.741043
 30
0.0
 10
400.352110
 20
-128.509843
 30
0.0
 10
401.870910
 20
-128.509843
 30
0.0
  0
SPLINE
  5
1de
100
AcDbEntity
  8
0
 62
7
100
AcDbSpline
 70
8
 71
3
 72
8
 73
4
 74
0
 40
0
 40
0
 40
0
 40
0
 40
1
 40
1
 40
1
 40
1
 10
401.870910
 20
-128.509843
 30
0.0
 10
403.389710
 20
-128.509843
 30
0.0
 10
404.620910
 20
-129.741043
 30
0.0
 10
404.620910
 20
-131.259843
 30
0.0
  0
LWPOLYLINE
  5
1df
100
AcDbEntity
  8
0
 62
7
100
AcDbPolyline
 90
2
 70
0
 10
211.870910
 20
-155.759843
 30
0.0
 10
211.870910
 20
53.240157
 30
0.0
  0
SPLINE
  5
1e0
100
AcDbEntity
  8
0
 62
7
100
AcDbSpline
 70
8
 71
3
 72
8
 73
4
 74
0
 40
0
 40
0
 40
0
 40
0
 40
1
 40
1
 40
1
 40
1
 10
217.370910
 20
58.740157
 30
0.0
 10
214.332910
 20
58.740157
 30
0.0
 10
211.870910
 20
56.278157
 30
0.0
 10
211.870910
 20
53.240157
 30
0.0
  0
SPLINE
  5
1e1
100
AcDbEntity
  8
0
 62
7
100
AcDbSpline
 70
8
 71
3
 72
8
 73
4
 74
0
 40
0
 40
0
 40
0
 40
0
 40
1
 40
1
 40
1
 40
1
 10
426.370910
 20
58.740157
 30
0.0
 10
429.408910
 20
58.740157
 30
0.0
 10
431.870910
 20
56.278157
 30
0.0
 10
431.870910
 20
53.240157
 30
0.0
  0
LWPOLYLINE
  5
1e2
100
AcDbEntity
  8
0
 62
7
100
AcDbPolyline
 90
2
 70
0
 10
217.370910
 20
58.740157
 30
0.0
 10
426.370910
 20
58.740157
 30
0.0
  0
LWPOLYLINE
  5
1e3
100
AcDbEntity
  8
0
 62
7
100
AcDbPolyline
 90
2
 70
0
 10
211.870910
 20
-155.759843
 30
0.0
 10
211.870910
 20
53.240157
 30
0.0
  0
SPLINE
  5
1e4
100
AcDbEntity
  8
0
 62
7
100
AcDbSpline
 70
8
 71
3
 72
8
 73
4
 74
0
 40
0
 40
0
 40
0
 40
0
 40
1
 40
1
 40
1
 40
1
 10
211.870910
 20
-155.759843
 30
0.0
 10
211.870910
 20
-158.797843
 30
0.0
 10
214.332910
 20
-161.259843
 30
0.0
 10
217.370910
 20
-161.259843
 30
0.0
  0
SPLINE
  5
1e5
100
AcDbEntity
  8
0
 62
7
100
AcDbSpline
 70
8
 71
3
 72
8
 73
4
 74
0
 40
0
 40
0
 40
0
 40
0
 40
1
 40
1
 40
1
 40
1
 10
431.870910
 20
-155.759843
 30
0.0
 10
431.870910
 20
-158.797843
 30
0.0
 10
429.408910
 20
-161.259843
 30
0.0
 10
426.370910
 20
-161.259843
 30
0.0
  0
LWPOLYLINE
  5
1e6
100
AcDbEntity
  8
0
 62
7
100
AcDbPolyline
 90
2
 70
0
 10
431.870910
 20
53.240157
 30
0.0
 10
431.870910
 20
-155.759843
 30
0.0
  0
SPLINE
  5
1e7
100
AcDbEntity
  8
0
 62
7
100
AcDbSpline
 70
8
 71
3
 72
8
 73
4
 74
0
 40
0
 40
0
 40
0
 40
0
 40
1
 40
1
 40
1
 40
1
 10
404.620910
 20
-131.259843
 30
0.0
 10
404.620910
 20
-132.778643
 30
0.0
 10
403.389710
 20
-134.009843
 30
0.0
 10
401.870910
 20
-134.009843
 30
0.0
  0
SPLINE
  5
1e8
100
AcDbEntity
  8
0
 62
7
100
AcDbSpline
 70
8
 71
3
 72
8
 73
4
 74
0
 40
0
 40
0
 40
0
 40
0
 40
1
 40
1
 40
1
 40
1
 10
401.870910
 20
-134.009843
 30
0.0
 10
400.352110
 20
-134.009843
 30
0.0
 10
399.120910
 20
-132.778643
 30
0.0
 10
399.120910
 20
-131.259843
 30
0.0
  0
SPLINE
  5
1e9
100
AcDbEntity
  8
0
 62
7
100
AcDbSpline
 70
8
 71
3
 72
8
 73
4
 74
0
 40
0
 40
0
 40
0
 40
0
 40
1
 40
1
 40
1
 40
1
 10
399.120910
 20
-131.259843
 30
0.0
 10
399.120910
 20
-129.741043
 30
0.0
 10
400.352110
 20
-128.509843
 30
0.0
 10
401.870910
 20
-128.509843
 30
0.0
  0
SPLINE
  5
1ea
100
AcDbEntity
  8
0
 62
7
100
AcDbSpline
 70
8
 71
3
 72
8
 73
4
 74
0
 40
0
 40
0
 40
0
 40
0
 40
1
 40
1
 40
1
 40
1
 10
401.870910
 20
-128.509843
 30
0.0
 10
403.389710
 20
-128.509843
 30
0.0
 10
404.620910
 20
-129.741043
 30
0.0
 10
404.620910
 20
-131.259843
 30
0.0
  0
SPLINE
  5
1eb
100
AcDbEntity
  8
0
 62
7
100
AcDbSpline
 70
8
 71
3
 72
8
 73
4
 74
0
 40
0
 40
0
 40
0
 40
0
 40
1
 40
1
 40
1
 40
1
 10
220.570910
 20
-155.759843
 30
0.0
 10
220.570910
 20
-157.526843
 30
0.0
 10
219.137910
 20
-158.959843
 30
0.0
 10
217.370910
 20
-158.959843
 30
0.0
  0
SPLINE
  5
1ec
100
AcDbEntity
  8
0
 62
7
100
AcDbSpline
 70
8
 71
3
 72
8
 73
4
 74
0
 40
0
 40
0
 40
0
 40
0
 40
1
 40
1
 40
1
 40
1
 10
217.370910
 20
-158.959843
 30
0.0
 10
215.603910
 20
-158.959843
 30
0.0
 10
214.170910
 20
-157.526843
 30
0.0
 10
214.170910
 20
-155.759843
 30
0.0
  0
SPLINE
  5
1ed
100
AcDbEntity
  8
0
 62
7
100
AcDbSpline
 70
8
 71
3
 72
8
 73
4
 74
0
 40
0
 40
0
 40
0
 40
0
 40
1
 40
1
 40
1
 40
1
 10
214.170910
 20
-155.759843
 30
0.0
 10
214.170910
 20
-153.992843
 30
0.0
 10
215.603910
 20
-152.559843
 30
0.0
 10
217.370910
 20
-152.559843
 30
0.0
  0
SPLINE
  5
1ee
100
AcDbEntity
  8
0
 62
7
100
AcDbSpline
 70
8
 71
3
 72
8
 73
4
 74
0
 40
0
 40
0
 40
0
 40
0
 40
1
 40
1
 40
1
 40
1
 10
217.370910
 20
-152.559843
 30
0.0
 10
219.137910
 20
-152.559843
 30
0.0
 10
220.570910
 20
-153.992843
 30
0.0
 10
220.570910
 20
-155.759843
 30
0.0
  0
SPLINE
  5
1ef
100
AcDbEntity
  8
0
 62
7
100
AcDbSpline
 70
8
 71
3
 72
8
 73
4
 74
0
 40
0
 40
0
 40
0
 40
0
 40
1
 40
1
 40
1
 40
1
 10
244.620910
 20
-131.259843
 30
0.0
 10
244.620910
 20
-132.778643
 30
0.0
 10
243.389710
 20
-134.009843
 30
0.0
 10
241.870910
 20
-134.009843
 30
0.0
  0
SPLINE
  5
1f0
100
AcDbEntity
  8
0
 62
7
100
AcDbSpline
 70
8
 71
3
 72
8
 73
4
 74
0
 40
0
 40
0
 40
0
 40
0
 40
1
 40
1
 40
1
 40
1
 10
241.870910
 20
-134.009843
 30
0.0
 10
240.352110
 20
-134.009843
 30
0.0
 10
239.120910
 20
-132.778643
 30
0.0
 10
239.120910
 20
-131.259843
 30
0.0
  0
SPLINE
  5
1f1
100
AcDbEntity
  8
0
 62
7
100
AcDbSpline
 70
8
 71
3
 72
8
 73
4
 74
0
 40
0
 40
0
 40
0
 40
0
 40
1
 40
1
 40
1
 40
1
 10
239.120910
 20
-131.259843
 30
0.0
 10
239.120910
 20
-129.741043
 30
0.0
 10
240.352110
 20
-128.509843
 30
0.0
 10
241.870910
 20
-128.509843
 30
0.0
  0
SPLINE
  5
1f2
100
AcDbEntity
  8
0
 62
7
100
AcDbSpline
 70
8
 71
3
 72
8
 73
4
 74
0
 40
0
 40
0
 40
0
 40
0
 40
1
 40
1
 40
1
 40
1
 10
241.870910
 20
-128.509843
 30
0.0
 10
243.389710
 20
-128.509843
 30
0.0
 10
244.620910
 20
-129.741043
 30
0.0
 10
244.620910
 20
-131.259843
 30
0.0
  0
SPLINE
  5
1f3
100
AcDbEntity
  8
0
 62
7
100
AcDbSpline
 70
8
 71
3
 72
8
 73
4
 74
0
 40
0
 40
0
 40
0
 40
0
 40
1
 40
1
 40
1
 40
1
 10
429.570910
 20
-155.759843
 30
0.0
 10
429.570910
 20
-157.526843
 30
0.0
 10
428.137910
 20
-158.959843
 30
0.0
 10
426.370910
 20
-158.959843
 30
0.0
  0
SPLINE
  5
1f4
100
AcDbEntity
  8
0
 62
7
100
AcDbSpline
 70
8
 71
3
 72
8
 73
4
 74
0
 40
0
 40
0
 40
0
 40
0
 40
1
 40
1
 40
1
 40
1
 10
426.370910
 20
-158.959843
 30
0.0
 10
424.603910
 20
-158.959843
 30
0.0
 10
423.170910
 20
-157.526843
 30
0.0
 10
423.170910
 20
-155.759843
 30
0.0
  0
SPLINE
  5
1f5
100
AcDbEntity
  8
0
 62
7
100
AcDbSpline
 70
8
 71
3
 72
8
 73
4
 74
0
 40
0
 40
0
 40
0
 40
0
 40
1
 40
1
 40
1
 40
1
 10
423.170910
 20
-155.759843
 30
0.0
 10
423.170910
 20
-153.992843
 30
0.0
 10
424.603910
 20
-152.559843
 30
0.0
 10
426.370910
 20
-152.559843
 30
0.0
  0
SPLINE
  5
1f6
100
AcDbEntity
  8
0
 62
7
100
AcDbSpline
 70
8
 71
3
 72
8
 73
4
 74
0
 40
0
 40
0
 40
0
 40
0
 40
1
 40
1
 40
1
 40
1
 10
426.370910
 20
-152.559843
 30
0.0
 10
428.137910
 20
-152.559843
 30
0.0
 10
429.570910
 20
-153.992843
 30
0.0
 10
429.570910
 20
-155.759843
 30
0.0
  0
SPLINE
  5
1f7
100
AcDbEntity
  8
0
 62
7
100
AcDbSpline
 70
8
 71
3
 72
8
 73
4
 74
0
 40
0
 40
0
 40
0
 40
0
 40
1
 40
1
 40
1
 40
1
 10
429.570910
 20
53.240157
 30
0.0
 10
429.570910
 20
51.473157
 30
0.0
 10
428.137910
 20
50.040157
 30
0.0
 10
426.370910
 20
50.040157
 30
0.0
  0
SPLINE
  5
1f8
100
AcDbEntity
  8
0
 62
7
100
AcDbSpline
 70
8
 71
3
 72
8
 73
4
 74
0
 40
0
 40
0
 40
0
 40
0
 40
1
 40
1
 40
1
 40
1
 10
426.370910
 20
50.040157
 30
0.0
 10
424.603910
 20
50.040157
 30
0.0
 10
423.170910
 20
51.473157
 30
0.0
 10
423.170910
 20
53.240157
 30
0.0
  0
SPLINE
  5
1f9
100
AcDbEntity
  8
0
 62
7
100
AcDbSpline
 70
8
 71
3
 72
8
 73
4
 74
0
 40
0
 40
0
 40
0
 40
0
 40
1
 40
1
 40
1
 40
1
 10
423.170910
 20
53.240157
 30
0.0
 10
423.170910
 20
55.007157
 30
0.0
 10
424.603910
 20
56.440157
 30
0.0
 10
426.370910
 20
56.440157
 30
0.0
  0
SPLINE
  5
1fa
100
AcDbEntity
  8
0
 62
7
100
AcDbSpline
 70
8
 71
3
 72
8
 73
4
 74
0
 40
0
 40
0
 40
0
 40
0
 40
1
 40
1
 40
1
 40
1
 10
426.370910
 20
56.440157
 30
0.0
 10
428.137910
 20
56.440157
 30
0.0
 10
429.570910
 20
55.007157
 30
0.0
 10
429.570910
 20
53.240157
 30
0.0
  0
SPLINE
  5
1fb
100
AcDbEntity
  8
0
 62
7
100
AcDbSpline
 70
8
 71
3
 72
8
 73
4
 74
0
 40
0
 40
0
 40
0
 40
0
 40
1
 40
1
 40
1
 40
1
 10
404.620910
 20
28.740157
 30
0.0
 10
404.620910
 20
27.221357
 30
0.0
 10
403.389710
 20
25.990157
 30
0.0
 10
401.870910
 20
25.990157
 30
0.0
  0
SPLINE
  5
1fc
100
AcDbEntity
  8
0
 62
7
100
AcDbSpline
 70
8
 71
3
 72
8
 73
4
 74
0
 40
0
 40
0
 40
0
 40
0
 40
1
 40
1
 40
1
 40
1
 10
401.870910
 20
25.990157
 30
0.0
 10
400.352110
 20
25.990157
 30
0.0
 10
399.120910
 20
27.221357
 30
0.0
 10
399.120910
 20
28.740157
 30
0.0
  0
SPLINE
  5
1fd
100
AcDbEntity
  8
0
 62
7
100
AcDbSpline
 70
8
 71
3
 72
8
 73
4
 74
0
 40
0
 40
0
 40
0
 40
0
 40
1
 40
1
 40
1
 40
1
 10
399.120910
 20
28.740157
 30
0.0
 10
399.120910
 20
30.258957
 30
0.0
 10
400.352110
 20
31.490157
 30
0.0
 10
401.870910
 20
31.490157
 30
0.0
  0
SPLINE
  5
1fe
100
AcDbEntity
  8
0
 62
7
100
AcDbSpline
 70
8
 71
3
 72
8
 73
4
 74
0
 40
0
 40
0
 40
0
 40
0
 40
1
 40
1
 40
1
 40
1
 10
401.870910
 20
31.490157
 30
0.0
 10
403.389710
 20
31.490157
 30
0.0
 10
404.620910
 20
30.258957
 30
0.0
 10
404.620910
 20
28.740157
 30
0.0
  0
SPLINE
  5
1ff
100
AcDbEntity
  8
0
 62
7
100
AcDbSpline
 70
8
 71
3
 72
8
 73
4
 74
0
 40
0
 40
0
 40
0
 40
0
 40
1
 40
1
 40
1
 40
1
 10
244.620910
 20
28.740157
 30
0.0
 10
244.620910
 20
27.221357
 30
0.0
 10
243.389710
 20
25.990157
 30
0.0
 10
241.870910
 20
25.990157
 30
0.0
  0
SPLINE
  5
200
100
AcDbEntity
  8
0
 62
7
100
AcDbSpline
 70
8
 71
3
 72
8
 73
4
 74
0
 40
0
 40
0
 40
0
 40
0
 40
1
 40
1
 40
1
 40
1
 10
241.870910
 20
25.990157
 30
0.0
 10
240.352110
 20
25.990157
 30
0.0
 10
239.120910
 20
27.221357
 30
0.0
 10
239.120910
 20
28.740157
 30
0.0
  0
SPLINE
  5
201
100
AcDbEntity
  8
0
 62
7
100
AcDbSpline
 70
8
 71
3
 72
8
 73
4
 74
0
 40
0
 40
0
 40
0
 40
0
 40
1
 40
1
 40
1
 40
1
 10
239.120910
 20
28.740157
 30
0.0
 10
239.120910
 20
30.258957
 30
0.0
 10
240.352110
 20
31.490157
 30
0.0
 10
241.870910
 20
31.490157
 30
0.0
  0
SPLINE
  5
202
100
AcDbEntity
  8
0
 62
7
100
AcDbSpline
 70
8
 71
3
 72
8
 73
4
 74
0
 40
0
 40
0
 40
0
 40
0
 40
1
 40
1
 40
1
 40
1
 10
241.870910
 20
31.490157
 30
0.0
 10
243.389710
 20
31.490157
 30
0.0
 10
244.620910
 20
30.258957
 30
0.0
 10
244.620910
 20
28.740157
 30
0.0
  0
SPLINE
  5
203
100
AcDbEntity
  8
0
 62
7
100
AcDbSpline
 70
8
 71
3
 72
8
 73
4
 74
0
 40
0
 40
0
 40
0
 40
0
 40
1
 40
1
 40
1
 40
1
 10
220.570910
 20
53.240157
 30
0.0
 10
220.570910
 20
51.473157
 30
0.0
 10
219.137910
 20
50.040157
 30
0.0
 10
217.370910
 20
50.040157
 30
0.0
  0
SPLINE
  5
204
100
AcDbEntity
  8
0
 62
7
100
AcDbSpline
 70
8
 71
3
 72
8
 73
4
 74
0
 40
0
 40
0
 40
0
 40
0
 40
1
 40
1
 40
1
 40
1
 10
217.370910
 20
50.040157
 30
0.0
 10
215.603910
 20
50.040157
 30
0.0
 10
214.170910
 20
51.473157
 30
0.0
 10
214.170910
 20
53.240157
 30
0.0
  0
SPLINE
  5
205
100
AcDbEntity
  8
0
 62
7
100
AcDbSpline
 70
8
 71
3
 72
8
 73
4
 74
0
 40
0
 40
0
 40
0
 40
0
 40
1
 40
1
 40
1
 40
1
 10
214.170910
 20
53.240157
 30
0.0
 10
214.170910
 20
55.007157
 30
0.0
 10
215.603910
 20
56.440157
 30
0.0
 10
217.370910
 20
56.440157
 30
0.0
  0
SPLINE
  5
206
100
AcDbEntity
  8
0
 62
7
100
AcDbSpline
 70
8
 71
3
 72
8
 73
4
 74
0
 40
0
 40
0
 40
0
 40
0
 40
1
 40
1
 40
1
 40
1
 10
217.370910
 20
56.440157
 30
0.0
 10
219.137910
 20
56.440157
 30
0.0
 10
220.570910
 20
55.007157
 30
0.0
 10
220.570910
 20
53.240157
 30
0.0
  0
LWPOLYLINE
  5
207
100
AcDbEntity
  8
0
 62
7
100
AcDbPolyline
 90
2
 70
0
 10
426.370910
 20
-161.259843
 30
0.0
 10
217.370910
 20
-161.259843
 30
0.0
  0
LWPOLYLINE
  5
208
100
AcDbEntity
  8
0
 62
7
100
AcDbPolyline
 90
2
 70
0
 10
217.370910
 20
49.040157
 30
0.0
 10
217.370910
 20
57.440157
 30
0.0
  0
LWPOLYLINE
  5
209
100
AcDbEntity
  8
0
 62
7
100
AcDbPolyline
 90
2
 70
0
 10
221.570910
 20
53.240157
 30
0.0
 10
213.170910
 20
53.240157
 30
0.0
  0
LWPOLYLINE
  5
20a
100
AcDbEntity
  8
0
 62
7
100
AcDbPolyline
 90
2
 70
0
 10
426.370910
 20
49.040157
 30
0.0
 10
426.370910
 20
57.440157
 30
0.0
  0
LWPOLYLINE
  5
20b
100
AcDbEntity
  8
0
 62
7
100
AcDbPolyline
 90
2
 70
0
 10
430.570910
 20
53.240157
 30
0.0
 10
422.170910
 20
53.240157
 30
0.0
  0
LWPOLYLINE
  5
20c
100
AcDbEntity
  8
0
 62
7
100
AcDbPolyline
 90
2
 70
0
 10
217.370910
 20
-159.959843
 30
0.0
 10
217.370910
 20
-151.559843
 30
0.0
  0
LWPOLYLINE
  5
20d
100
AcDbEntity
  8
0
 62
7
100
AcDbPolyline
 90
2
 70
0
 10
221.570910
 20
-155.759843
 30
0.0
 10
213.170910
 20
-155.759843
 30
0.0
  0
LWPOLYLINE
  5
20e
100
AcDbEntity
  8
0
 62
7
100
AcDbPolyline
 90
2
 70
0
 10
426.370910
 20
-159.959843
 30
0.0
 10
426.370910
 20
-151.559843
 30
0.0
  0
LWPOLYLINE
  5
20f
100
AcDbEntity
  8
0
 62
7
100
AcDbPolyline
 90
2
 70
0
 10
430.570910
 20
-155.759843
 30
0.0
 10
422.170910
 20
-155.759843
 30
0.0
  0
LWPOLYLINE
  5
210
100
AcDbEntity
  8
0
 62
7
100
AcDbPolyline
 90
2
 70
0
 10
401.870910
 20
-135.459843
 30
0.0
 10
401.870910
 20
-127.059843
 30
0.0
  0
LWPOLYLINE
  5
211
100
AcDbEntity
  8
0
 62
7
100
AcDbPolyline
 90
2
 70
0
 10
406.070910
 20
-131.259843
 30
0.0
 10
397.670910
 20
-131.259843
 30
0.0
  0
LWPOLYLINE
  5
212
100
AcDbEntity
  8
0
 62
7
100
AcDbPolyline
 90
2
 70
0
 10
241.870910
 20
-135.459843
 30
0.0
 10
241.870910
 20
-127.059843
 30
0.0
  0
LWPOLYLINE
  5
213
100
AcDbEntity
  8
0
 62
7
100
AcDbPolyline
 90
2
 70
0
 10
246.070910
 20
-131.259843
 30
0.0
 10
237.670910
 20
-131.259843
 30
0.0
  0
LWPOLYLINE
  5
214
100
AcDbEntity
  8
0
 62
7
100
AcDbPolyline
 90
2
 70
0
 10
401.870910
 20
24.540157
 30
0.0
 10
401.870910
 20
32.940157
 30
0.0
  0
LWPOLYLINE
  5
215
100
AcDbEntity
  8
0
 62
7
100
AcDbPolyline
 90
2
 70
0
 10
406.070910
 20
28.740157
 30
0.0
 10
397.670910
 20
28.740157
 30
0.0
  0
LWPOLYLINE
  5
216
100
AcDbEntity
  8
0
 62
7
100
AcDbPolyline
 90
2
 70
0
 10
241.870910
 20
24.540157
 30
0.0
 10
241.870910
 20
32.940157
 30
0.0
  0
LWPOLYLINE
  5
217
100
AcDbEntity
  8
0
 62
7
100
AcDbPolyline
 90
2
 70
0
 10
246.070910
 20
28.740157
 30
0.0
 10
237.670910
 20
28.740157
 30
0.0
  0
ENDSEC
  0
SECTION
  2
OBJECTS
  0
DICTIONARY
  5
C
330
0
100
AcDbDictionary
  3
ACAD_GROUP
350
D
  3
ACAD_MLINESTYLE
350
17
  0
DICTIONARY
  5
D
330
C
100
AcDbDictionary
  0
DICTIONARY
  5
1A
330
C
100
AcDbDictionary
  0
DICTIONARY
  5
17
330
C
100
AcDbDictionary
  3
STANDARD
350
18
  0
DICTIONARY
  5
19
330
C
100
AcDbDictionary
  0
ENDSEC
  0
EOF
