  0
SECTION
  2
HEADER
  9
$ACADVER
  1
AC1014
  9
$HANDSEED
  5
FFFF
  9
$MEASUREMENT
 70
     1
  0
ENDSEC
  0
SECTION
  2
TABLES
  0
TABLE
  2
VPORT
  5
8
330
0
100
AcDbSymbolTable
 70
     4
  0
VPORT
  5
2E
330
8
100
AcDbSymbolTableRecord
100
AcDbViewportTableRecord
  2
*ACTIVE
 70
     0
 10
0.0
 20
0.0
 11
1.0
 21
1.0
 12
210.0
 22
148.5
 13
0.0
 23
0.0
 14
10.0
 24
10.0
 15
10.0
 25
10.0
 16
0.0
 26
0.0
 36
1.0
 17
0.0
 27
0.0
 37
0.0
 40
341.0
 41
1.24
 42
50.0
 43
0.0
 44
0.0
 50
0.0
 51
0.0
 71
     0
 72
   100
 73
     1
 74
     3
 75
     0
 76
     0
 77
     0
 78
     0
  0
ENDTAB
  0
TABLE
  2
LTYPE
  5
5
330
0
100
AcDbSymbolTable
 70
     1
  0
LTYPE
  5
14
330
5
100
AcDbSymbolTableRecord
100
AcDbLinetypeTableRecord
  2
BYBLOCK
 70
     0
  3

 72
    65
 73
     0
 40
0.0
  0
LTYPE
  5
15
330
5
100
AcDbSymbolTableRecord
100
AcDbLinetypeTableRecord
  2
BYLAYER
 70
     0
  3

 72
    65
 73
     0
 40
0.0
  0
LTYPE
  5
16
330
5
100
AcDbSymbolTableRecord
100
AcDbLinetypeTableRecord
  2
CONTINUOUS
 70
     0
  3
Solid line
 72
    65
 73
     0
 40
0.0
  0
ENDTAB
  0
TABLE
  2
LAYER
  5
2
100
AcDbSymbolTable
 70
1
  0
LAYER
  5
50
100
AcDbSymbolTableRecord
100
AcDbLayerTableRecord
  2
0
 70
0
  6
CONTINUOUS
  0
ENDTAB
  0
TABLE
  2
STYLE
  5
3
330
0
100
AcDbSymbolTable
 70
     1
  0
STYLE
  5
11
330
3
100
AcDbSymbolTableRecord
100
AcDbTextStyleTableRecord
  2
STANDARD
 70
     0
 40
0.0
 41
1.0
 50
0.0
 71
     0
 42
2.5
  3
txt
  4

  0
ENDTAB
  0
TABLE
  2
VIEW
  5
6
330
0
100
AcDbSymbolTable
 70
     0
  0
ENDTAB
  0
TABLE
  2
UCS
  5
7
330
0
100
AcDbSymbolTable
 70
     0
  0
ENDTAB
  0
TABLE
  2
APPID
  5
9
330
0
100
AcDbSymbolTable
 70
     2
  0
APPID
  5
12
330
9
100
AcDbSymbolTableRecord
100
AcDbRegAppTableRecord
  2
ACAD
 70
     0
  0
ENDTAB
  0
TABLE
  2
DIMSTYLE
  5
A
330
0
100
AcDbSymbolTable
 70
     1
  0
DIMSTYLE
105
27
330
A
100
AcDbSymbolTableRecord
100
AcDbDimStyleTableRecord
  2
ISO-25
 70
     0
  3

  4

  5

  6

  7

 40
1.0
 41
2.5
 42
0.625
 43
3.75
 44
1.25
 45
0.0
 46
0.0
 47
0.0
 48
0.0
140
2.5
141
2.5
142
0.0
143
0.03937007874016
144
1.0
145
0.0
146
1.0
147
0.625
 71
     0
 72
     0
 73
     0
 74
     0
 75
     0
 76
     0
 77
     1
 78
     8
170
     0
171
     3
172
     1
173
     0
174
     0
175
     0
176
     0
177
     0
178
     0
270
     2
271
     2
272
     2
273
     2
274
     3
340
11
275
     0
280
     0
281
     0
282
     0
283
     0
284
     8
285
     0
286
     0
287
     3
288
     0
  0
ENDTAB
  0
TABLE
  2
BLOCK_RECORD
  5
1
330
0
100
AcDbSymbolTable
 70
     1
  0
BLOCK_RECORD
  5
1F
330
1
100
AcDbSymbolTableRecord
100
AcDbBlockTableRecord
  2
*MODEL_SPACE
  0
BLOCK_RECORD
  5
1B
330
1
100
AcDbSymbolTableRecord
100
AcDbBlockTableRecord
  2
*PAPER_SPACE
  0
ENDTAB
  0
ENDSEC
  0
SECTION
  2
BLOCKS
  0
BLOCK
  5
20
330
1F
100
AcDbEntity
  8
0
100
AcDbBlockBegin
  2
*MODEL_SPACE
 70
     0
 10
0.0
 20
0.0
 30
0.0
  3
*MODEL_SPACE
  1

  0
ENDBLK
  5
21
330
1F
100
AcDbEntity
  8
0
100
AcDbBlockEnd
  0
BLOCK
  5
1C
330
1B
100
AcDbEntity
 67
     1
  8
0
100
AcDbBlockBegin
  2
*PAPER_SPACE
  1

  0
ENDBLK
  5
1D
330
1B
100
AcDbEntity
 67
     1
  8
0
100
AcDbBlockEnd
  0
ENDSEC
  0
SECTION
  2
ENTITIES
  0
SPLINE
  5
100
100
AcDbEntity
  8
0
 62
7
100
AcDbSpline
 70
8
 71
3
 72
8
 73
4
 74
0
 40
0
 40
0
 40
0
 40
0
 40
1
 40
1
 40
1
 40
1
 10
466.840000
 20
138.740157
 30
0.0
 10
483.497000
 20
138.740157
 30
0.0
 10
497.000000
 20
125.237157
 30
0.0
 10
497.000000
 20
108.580157
 30
0.0
  0
LWPOLYLINE
  5
101
100
AcDbEntity
  8
0
 62
7
100
AcDbPolyline
 90
2
 70
0
 10
127.160000
 20
138.740157
 30
0.0
 10
466.840000
 20
138.740157
 30
0.0
  0
SPLINE
  5
102
100
AcDbEntity
  8
0
 62
7
100
AcDbSpline
 70
8
 71
3
 72
8
 73
4
 74
0
 40
0
 40
0
 40
0
 40
0
 40
1
 40
1
 40
1
 40
1
 10
497.000000
 20
-211.099843
 30
0.0
 10
497.000000
 20
-227.756843
 30
0.0
 10
483.497000
 20
-241.259843
 30
0.0
 10
466.840000
 20
-241.259843
 30
0.0
  0
LWPOLYLINE
  5
103
100
AcDbEntity
  8
0
 62
7
100
AcDbPolyline
 90
2
 70
0
 10
497.000000
 20
108.580157
 30
0.0
 10
497.000000
 20
-211.099843
 30
0.0
  0
SPLINE
  5
104
100
AcDbEntity
  8
0
 62
7
100
AcDbSpline
 70
8
 71
3
 72
8
 73
4
 74
0
 40
0
 40
0
 40
0
 40
0
 40
1
 40
1
 40
1
 40
1
 10
127.160000
 20
-241.259843
 30
0.0
 10
110.503000
 20
-241.259843
 30
0.0
 10
97.000000
 20
-227.756843
 30
0.0
 10
97.000000
 20
-211.099843
 30
0.0
  0
LWPOLYLINE
  5
105
100
AcDbEntity
  8
0
 62
7
100
AcDbPolyline
 90
2
 70
0
 10
466.840000
 20
-241.259843
 30
0.0
 10
127.160000
 20
-241.259843
 30
0.0
  0
SPLINE
  5
106
100
AcDbEntity
  8
0
 62
7
100
AcDbSpline
 70
8
 71
3
 72
8
 73
4
 74
0
 40
0
 40
0
 40
0
 40
0
 40
1
 40
1
 40
1
 40
1
 10
97.000000
 20
108.580157
 30
0.0
 10
97.000000
 20
125.237157
 30
0.0
 10
110.503000
 20
138.740157
 30
0.0
 10
127.160000
 20
138.740157
 30
0.0
  0
LWPOLYLINE
  5
107
100
AcDbEntity
  8
0
 62
7
100
AcDbPolyline
 90
2
 70
0
 10
97.000000
 20
-211.099843
 30
0.0
 10
97.000000
 20
108.580157
 30
0.0
  0
SPLINE
  5
108
100
AcDbEntity
  8
0
 62
7
100
AcDbSpline
 70
8
 71
3
 72
8
 73
4
 74
0
 40
0
 40
0
 40
0
 40
0
 40
1
 40
1
 40
1
 40
1
 10
457.000000
 20
-191.259843
 30
0.0
 10
457.000000
 20
-196.782843
 30
0.0
 10
452.523000
 20
-201.259843
 30
0.0
 10
447.000000
 20
-201.259843
 30
0.0
  0
LWPOLYLINE
  5
109
100
AcDbEntity
  8
0
 62
7
100
AcDbPolyline
 90
2
 70
0
 10
457.000000
 20
88.740157
 30
0.0
 10
457.000000
 20
-191.259843
 30
0.0
  0
SPLINE
  5
10a
100
AcDbEntity
  8
0
 62
7
100
AcDbSpline
 70
8
 71
3
 72
8
 73
4
 74
0
 40
0
 40
0
 40
0
 40
0
 40
1
 40
1
 40
1
 40
1
 10
147.000000
 20
-201.259843
 30
0.0
 10
141.477000
 20
-201.259843
 30
0.0
 10
137.000000
 20
-196.782843
 30
0.0
 10
137.000000
 20
-191.259843
 30
0.0
  0
LWPOLYLINE
  5
10b
100
AcDbEntity
  8
0
 62
7
100
AcDbPolyline
 90
2
 70
0
 10
447.000000
 20
-201.259843
 30
0.0
 10
147.000000
 20
-201.259843
 30
0.0
  0
SPLINE
  5
10c
100
AcDbEntity
  8
0
 62
7
100
AcDbSpline
 70
8
 71
3
 72
8
 73
4
 74
0
 40
0
 40
0
 40
0
 40
0
 40
1
 40
1
 40
1
 40
1
 10
137.000000
 20
88.740157
 30
0.0
 10
137.000000
 20
94.263157
 30
0.0
 10
141.477000
 20
98.740157
 30
0.0
 10
147.000000
 20
98.740157
 30
0.0
  0
LWPOLYLINE
  5
10d
100
AcDbEntity
  8
0
 62
7
100
AcDbPolyline
 90
2
 70
0
 10
137.000000
 20
-191.259843
 30
0.0
 10
137.000000
 20
88.740157
 30
0.0
  0
SPLINE
  5
10e
100
AcDbEntity
  8
0
 62
7
100
AcDbSpline
 70
8
 71
3
 72
8
 73
4
 74
0
 40
0
 40
0
 40
0
 40
0
 40
1
 40
1
 40
1
 40
1
 10
275.000000
 20
110.740157
 30
0.0
 10
275.000000
 20
112.397157
 30
0.0
 10
276.343100
 20
113.740157
 30
0.0
 10
278.000000
 20
113.740157
 30
0.0
  0
LWPOLYLINE
  5
10f
100
AcDbEntity
  8
0
 62
7
100
AcDbPolyline
 90
3
 70
0
 10
147.000000
 20
98.740157
 30
0.0
 10
275.000000
 20
98.740157
 30
0.0
 10
275.000000
 20
110.740157
 30
0.0
  0
SPLINE
  5
110
100
AcDbEntity
  8
0
 62
7
100
AcDbSpline
 70
8
 71
3
 72
8
 73
4
 74
0
 40
0
 40
0
 40
0
 40
0
 40
1
 40
1
 40
1
 40
1
 10
316.000000
 20
113.740157
 30
0.0
 10
317.656900
 20
113.740157
 30
0.0
 10
319.000000
 20
112.397157
 30
0.0
 10
319.000000
 20
110.740157
 30
0.0
  0
LWPOLYLINE
  5
111
100
AcDbEntity
  8
0
 62
7
100
AcDbPolyline
 90
2
 70
0
 10
278.000000
 20
113.740157
 30
0.0
 10
316.000000
 20
113.740157
 30
0.0
  0
SPLINE
  5
112
100
AcDbEntity
  8
0
 62
7
100
AcDbSpline
 70
8
 71
3
 72
8
 73
4
 74
0
 40
0
 40
0
 40
0
 40
0
 40
1
 40
1
 40
1
 40
1
 10
447.000000
 20
98.740157
 30
0.0
 10
452.523000
 20
98.740157
 30
0.0
 10
457.000000
 20
94.263157
 30
0.0
 10
457.000000
 20
88.740157
 30
0.0
  0
SPLINE
  5
113
100
AcDbEntity
  8
0
 62
7
100
AcDbSpline
 70
8
 71
3
 72
8
 73
4
 74
0
 40
0
 40
0
 40
0
 40
0
 40
1
 40
1
 40
1
 40
1
 10
192.000000
 20
108.740157
 30
0.0
 10
192.000000
 20
105.702157
 30
0.0
 10
189.538000
 20
103.240157
 30
0.0
 10
186.500000
 20
103.240157
 30
0.0
  0
SPLINE
  5
114
100
AcDbEntity
  8
0
 62
7
100
AcDbSpline
 70
8
 71
3
 72
8
 73
4
 74
0
 40
0
 40
0
 40
0
 40
0
 40
1
 40
1
 40
1
 40
1
 10
186.500000
 20
103.240157
 30
0.0
 10
183.462000
 20
103.240157
 30
0.0
 10
181.000000
 20
105.702157
 30
0.0
 10
181.000000
 20
108.740157
 30
0.0
  0
SPLINE
  5
115
100
AcDbEntity
  8
0
 62
7
100
AcDbSpline
 70
8
 71
3
 72
8
 73
4
 74
0
 40
0
 40
0
 40
0
 40
0
 40
1
 40
1
 40
1
 40
1
 10
181.000000
 20
108.740157
 30
0.0
 10
181.000000
 20
111.778157
 30
0.0
 10
183.462000
 20
114.240157
 30
0.0
 10
186.500000
 20
114.240157
 30
0.0
  0
SPLINE
  5
116
100
AcDbEntity
  8
0
 62
7
100
AcDbSpline
 70
8
 71
3
 72
8
 73
4
 74
0
 40
0
 40
0
 40
0
 40
0
 40
1
 40
1
 40
1
 40
1
 10
186.500000
 20
114.240157
 30
0.0
 10
189.538000
 20
114.240157
 30
0.0
 10
192.000000
 20
111.778157
 30
0.0
 10
192.000000
 20
108.740157
 30
0.0
  0
SPLINE
  5
117
100
AcDbEntity
  8
0
 62
7
100
AcDbSpline
 70
8
 71
3
 72
8
 73
4
 74
0
 40
0
 40
0
 40
0
 40
0
 40
1
 40
1
 40
1
 40
1
 10
164.500000
 20
108.740157
 30
0.0
 10
164.500000
 20
107.083157
 30
0.0
 10
163.157000
 20
105.740157
 30
0.0
 10
161.500000
 20
105.740157
 30
0.0
  0
SPLINE
  5
118
100
AcDbEntity
  8
0
 62
7
100
AcDbSpline
 70
8
 71
3
 72
8
 73
4
 74
0
 40
0
 40
0
 40
0
 40
0
 40
1
 40
1
 40
1
 40
1
 10
161.500000
 20
105.740157
 30
0.0
 10
159.843000
 20
105.740157
 30
0.0
 10
158.500000
 20
107.083157
 30
0.0
 10
158.500000
 20
108.740157
 30
0.0
  0
SPLINE
  5
119
100
AcDbEntity
  8
0
 62
7
100
AcDbSpline
 70
8
 71
3
 72
8
 73
4
 74
0
 40
0
 40
0
 40
0
 40
0
 40
1
 40
1
 40
1
 40
1
 10
158.500000
 20
108.740157
 30
0.0
 10
158.500000
 20
110.397157
 30
0.0
 10
159.843000
 20
111.740157
 30
0.0
 10
161.500000
 20
111.740157
 30
0.0
  0
SPLINE
  5
11a
100
AcDbEntity
  8
0
 62
7
100
AcDbSpline
 70
8
 71
3
 72
8
 73
4
 74
0
 40
0
 40
0
 40
0
 40
0
 40
1
 40
1
 40
1
 40
1
 10
161.500000
 20
111.740157
 30
0.0
 10
163.157000
 20
111.740157
 30
0.0
 10
164.500000
 20
110.397157
 30
0.0
 10
164.500000
 20
108.740157
 30
0.0
  0
SPLINE
  5
11b
100
AcDbEntity
  8
0
 62
7
100
AcDbSpline
 70
8
 71
3
 72
8
 73
4
 74
0
 40
0
 40
0
 40
0
 40
0
 40
1
 40
1
 40
1
 40
1
 10
149.000000
 20
-231.259843
 30
0.0
 10
149.000000
 20
-232.364843
 30
0.0
 10
148.105000
 20
-233.259843
 30
0.0
 10
147.000000
 20
-233.259843
 30
0.0
  0
SPLINE
  5
11c
100
AcDbEntity
  8
0
 62
7
100
AcDbSpline
 70
8
 71
3
 72
8
 73
4
 74
0
 40
0
 40
0
 40
0
 40
0
 40
1
 40
1
 40
1
 40
1
 10
147.000000
 20
-233.259843
 30
0.0
 10
145.895000
 20
-233.259843
 30
0.0
 10
145.000000
 20
-232.364843
 30
0.0
 10
145.000000
 20
-231.259843
 30
0.0
  0
SPLINE
  5
11d
100
AcDbEntity
  8
0
 62
7
100
AcDbSpline
 70
8
 71
3
 72
8
 73
4
 74
0
 40
0
 40
0
 40
0
 40
0
 40
1
 40
1
 40
1
 40
1
 10
145.000000
 20
-231.259843
 30
0.0
 10
145.000000
 20
-230.154843
 30
0.0
 10
145.895000
 20
-229.259843
 30
0.0
 10
147.000000
 20
-229.259843
 30
0.0
  0
SPLINE
  5
11e
100
AcDbEntity
  8
0
 62
7
100
AcDbSpline
 70
8
 71
3
 72
8
 73
4
 74
0
 40
0
 40
0
 40
0
 40
0
 40
1
 40
1
 40
1
 40
1
 10
147.000000
 20
-229.259843
 30
0.0
 10
148.105000
 20
-229.259843
 30
0.0
 10
149.000000
 20
-230.154843
 30
0.0
 10
149.000000
 20
-231.259843
 30
0.0
  0
SPLINE
  5
11f
100
AcDbEntity
  8
0
 62
7
100
AcDbSpline
 70
8
 71
3
 72
8
 73
4
 74
0
 40
0
 40
0
 40
0
 40
0
 40
1
 40
1
 40
1
 40
1
 10
449.000000
 20
128.740157
 30
0.0
 10
449.000000
 20
127.635157
 30
0.0
 10
448.105000
 20
126.740157
 30
0.0
 10
447.000000
 20
126.740157
 30
0.0
  0
SPLINE
  5
120
100
AcDbEntity
  8
0
 62
7
100
AcDbSpline
 70
8
 71
3
 72
8
 73
4
 74
0
 40
0
 40
0
 40
0
 40
0
 40
1
 40
1
 40
1
 40
1
 10
447.000000
 20
126.740157
 30
0.0
 10
445.895000
 20
126.740157
 30
0.0
 10
445.000000
 20
127.635157
 30
0.0
 10
445.000000
 20
128.740157
 30
0.0
  0
SPLINE
  5
121
100
AcDbEntity
  8
0
 62
7
100
AcDbSpline
 70
8
 71
3
 72
8
 73
4
 74
0
 40
0
 40
0
 40
0
 40
0
 40
1
 40
1
 40
1
 40
1
 10
445.000000
 20
128.740157
 30
0.0
 10
445.000000
 20
129.845157
 30
0.0
 10
445.895000
 20
130.740157
 30
0.0
 10
447.000000
 20
130.740157
 30
0.0
  0
SPLINE
  5
122
100
AcDbEntity
  8
0
 62
7
100
AcDbSpline
 70
8
 71
3
 72
8
 73
4
 74
0
 40
0
 40
0
 40
0
 40
0
 40
1
 40
1
 40
1
 40
1
 10
447.000000
 20
130.740157
 30
0.0
 10
448.105000
 20
130.740157
 30
0.0
 10
449.000000
 20
129.845157
 30
0.0
 10
449.000000
 20
128.740157
 30
0.0
  0
SPLINE
  5
123
100
AcDbEntity
  8
0
 62
7
100
AcDbSpline
 70
8
 71
3
 72
8
 73
4
 74
0
 40
0
 40
0
 40
0
 40
0
 40
1
 40
1
 40
1
 40
1
 10
489.000000
 20
-191.259843
 30
0.0
 10
489.000000
 20
-192.364843
 30
0.0
 10
488.105000
 20
-193.259843
 30
0.0
 10
487.000000
 20
-193.259843
 30
0.0
  0
SPLINE
  5
124
100
AcDbEntity
  8
0
 62
7
100
AcDbSpline
 70
8
 71
3
 72
8
 73
4
 74
0
 40
0
 40
0
 40
0
 40
0
 40
1
 40
1
 40
1
 40
1
 10
487.000000
 20
-193.259843
 30
0.0
 10
485.895000
 20
-193.259843
 30
0.0
 10
485.000000
 20
-192.364843
 30
0.0
 10
485.000000
 20
-191.259843
 30
0.0
  0
SPLINE
  5
125
100
AcDbEntity
  8
0
 62
7
100
AcDbSpline
 70
8
 71
3
 72
8
 73
4
 74
0
 40
0
 40
0
 40
0
 40
0
 40
1
 40
1
 40
1
 40
1
 10
485.000000
 20
-191.259843
 30
0.0
 10
485.000000
 20
-190.154843
 30
0.0
 10
485.895000
 20
-189.259843
 30
0.0
 10
487.000000
 20
-189.259843
 30
0.0
  0
SPLINE
  5
126
100
AcDbEntity
  8
0
 62
7
100
AcDbSpline
 70
8
 71
3
 72
8
 73
4
 74
0
 40
0
 40
0
 40
0
 40
0
 40
1
 40
1
 40
1
 40
1
 10
487.000000
 20
-189.259843
 30
0.0
 10
488.105000
 20
-189.259843
 30
0.0
 10
489.000000
 20
-190.154843
 30
0.0
 10
489.000000
 20
-191.259843
 30
0.0
  0
SPLINE
  5
127
100
AcDbEntity
  8
0
 62
7
100
AcDbSpline
 70
8
 71
3
 72
8
 73
4
 74
0
 40
0
 40
0
 40
0
 40
0
 40
1
 40
1
 40
1
 40
1
 10
149.000000
 20
128.740157
 30
0.0
 10
149.000000
 20
127.635157
 30
0.0
 10
148.105000
 20
126.740157
 30
0.0
 10
147.000000
 20
126.740157
 30
0.0
  0
SPLINE
  5
128
100
AcDbEntity
  8
0
 62
7
100
AcDbSpline
 70
8
 71
3
 72
8
 73
4
 74
0
 40
0
 40
0
 40
0
 40
0
 40
1
 40
1
 40
1
 40
1
 10
147.000000
 20
126.740157
 30
0.0
 10
145.895000
 20
126.740157
 30
0.0
 10
145.000000
 20
127.635157
 30
0.0
 10
145.000000
 20
128.740157
 30
0.0
  0
SPLINE
  5
129
100
AcDbEntity
  8
0
 62
7
100
AcDbSpline
 70
8
 71
3
 72
8
 73
4
 74
0
 40
0
 40
0
 40
0
 40
0
 40
1
 40
1
 40
1
 40
1
 10
145.000000
 20
128.740157
 30
0.0
 10
145.000000
 20
129.845157
 30
0.0
 10
145.895000
 20
130.740157
 30
0.0
 10
147.000000
 20
130.740157
 30
0.0
  0
SPLINE
  5
12a
100
AcDbEntity
  8
0
 62
7
100
AcDbSpline
 70
8
 71
3
 72
8
 73
4
 74
0
 40
0
 40
0
 40
0
 40
0
 40
1
 40
1
 40
1
 40
1
 10
147.000000
 20
130.740157
 30
0.0
 10
148.105000
 20
130.740157
 30
0.0
 10
149.000000
 20
129.845157
 30
0.0
 10
149.000000
 20
128.740157
 30
0.0
  0
SPLINE
  5
12b
100
AcDbEntity
  8
0
 62
7
100
AcDbSpline
 70
8
 71
3
 72
8
 73
4
 74
0
 40
0
 40
0
 40
0
 40
0
 40
1
 40
1
 40
1
 40
1
 10
489.000000
 20
88.740157
 30
0.0
 10
489.000000
 20
87.635157
 30
0.0
 10
488.105000
 20
86.740157
 30
0.0
 10
487.000000
 20
86.740157
 30
0.0
  0
SPLINE
  5
12c
100
AcDbEntity
  8
0
 62
7
100
AcDbSpline
 70
8
 71
3
 72
8
 73
4
 74
0
 40
0
 40
0
 40
0
 40
0
 40
1
 40
1
 40
1
 40
1
 10
487.000000
 20
86.740157
 30
0.0
 10
485.895000
 20
86.740157
 30
0.0
 10
485.000000
 20
87.635157
 30
0.0
 10
485.000000
 20
88.740157
 30
0.0
  0
SPLINE
  5
12d
100
AcDbEntity
  8
0
 62
7
100
AcDbSpline
 70
8
 71
3
 72
8
 73
4
 74
0
 40
0
 40
0
 40
0
 40
0
 40
1
 40
1
 40
1
 40
1
 10
485.000000
 20
88.740157
 30
0.0
 10
485.000000
 20
89.845157
 30
0.0
 10
485.895000
 20
90.740157
 30
0.0
 10
487.000000
 20
90.740157
 30
0.0
  0
SPLINE
  5
12e
100
AcDbEntity
  8
0
 62
7
100
AcDbSpline
 70
8
 71
3
 72
8
 73
4
 74
0
 40
0
 40
0
 40
0
 40
0
 40
1
 40
1
 40
1
 40
1
 10
487.000000
 20
90.740157
 30
0.0
 10
488.105000
 20
90.740157
 30
0.0
 10
489.000000
 20
89.845157
 30
0.0
 10
489.000000
 20
88.740157
 30
0.0
  0
SPLINE
  5
12f
100
AcDbEntity
  8
0
 62
7
100
AcDbSpline
 70
8
 71
3
 72
8
 73
4
 74
0
 40
0
 40
0
 40
0
 40
0
 40
1
 40
1
 40
1
 40
1
 10
449.000000
 20
-231.259843
 30
0.0
 10
449.000000
 20
-232.364843
 30
0.0
 10
448.105000
 20
-233.259843
 30
0.0
 10
447.000000
 20
-233.259843
 30
0.0
  0
SPLINE
  5
130
100
AcDbEntity
  8
0
 62
7
100
AcDbSpline
 70
8
 71
3
 72
8
 73
4
 74
0
 40
0
 40
0
 40
0
 40
0
 40
1
 40
1
 40
1
 40
1
 10
447.000000
 20
-233.259843
 30
0.0
 10
445.895000
 20
-233.259843
 30
0.0
 10
445.000000
 20
-232.364843
 30
0.0
 10
445.000000
 20
-231.259843
 30
0.0
  0
SPLINE
  5
131
100
AcDbEntity
  8
0
 62
7
100
AcDbSpline
 70
8
 71
3
 72
8
 73
4
 74
0
 40
0
 40
0
 40
0
 40
0
 40
1
 40
1
 40
1
 40
1
 10
445.000000
 20
-231.259843
 30
0.0
 10
445.000000
 20
-230.154843
 30
0.0
 10
445.895000
 20
-229.259843
 30
0.0
 10
447.000000
 20
-229.259843
 30
0.0
  0
SPLINE
  5
132
100
AcDbEntity
  8
0
 62
7
100
AcDbSpline
 70
8
 71
3
 72
8
 73
4
 74
0
 40
0
 40
0
 40
0
 40
0
 40
1
 40
1
 40
1
 40
1
 10
447.000000
 20
-229.259843
 30
0.0
 10
448.105000
 20
-229.259843
 30
0.0
 10
449.000000
 20
-230.154843
 30
0.0
 10
449.000000
 20
-231.259843
 30
0.0
  0
SPLINE
  5
133
100
AcDbEntity
  8
0
 62
7
100
AcDbSpline
 70
8
 71
3
 72
8
 73
4
 74
0
 40
0
 40
0
 40
0
 40
0
 40
1
 40
1
 40
1
 40
1
 10
109.000000
 20
88.740157
 30
0.0
 10
109.000000
 20
87.635157
 30
0.0
 10
108.105000
 20
86.740157
 30
0.0
 10
107.000000
 20
86.740157
 30
0.0
  0
SPLINE
  5
134
100
AcDbEntity
  8
0
 62
7
100
AcDbSpline
 70
8
 71
3
 72
8
 73
4
 74
0
 40
0
 40
0
 40
0
 40
0
 40
1
 40
1
 40
1
 40
1
 10
107.000000
 20
86.740157
 30
0.0
 10
105.895000
 20
86.740157
 30
0.0
 10
105.000000
 20
87.635157
 30
0.0
 10
105.000000
 20
88.740157
 30
0.0
  0
SPLINE
  5
135
100
AcDbEntity
  8
0
 62
7
100
AcDbSpline
 70
8
 71
3
 72
8
 73
4
 74
0
 40
0
 40
0
 40
0
 40
0
 40
1
 40
1
 40
1
 40
1
 10
105.000000
 20
88.740157
 30
0.0
 10
105.000000
 20
89.845157
 30
0.0
 10
105.895000
 20
90.740157
 30
0.0
 10
107.000000
 20
90.740157
 30
0.0
  0
SPLINE
  5
136
100
AcDbEntity
  8
0
 62
7
100
AcDbSpline
 70
8
 71
3
 72
8
 73
4
 74
0
 40
0
 40
0
 40
0
 40
0
 40
1
 40
1
 40
1
 40
1
 10
107.000000
 20
90.740157
 30
0.0
 10
108.105000
 20
90.740157
 30
0.0
 10
109.000000
 20
89.845157
 30
0.0
 10
109.000000
 20
88.740157
 30
0.0
  0
SPLINE
  5
137
100
AcDbEntity
  8
0
 62
7
100
AcDbSpline
 70
8
 71
3
 72
8
 73
4
 74
0
 40
0
 40
0
 40
0
 40
0
 40
1
 40
1
 40
1
 40
1
 10
109.000000
 20
-191.259843
 30
0.0
 10
109.000000
 20
-192.364843
 30
0.0
 10
108.105000
 20
-193.259843
 30
0.0
 10
107.000000
 20
-193.259843
 30
0.0
  0
SPLINE
  5
138
100
AcDbEntity
  8
0
 62
7
100
AcDbSpline
 70
8
 71
3
 72
8
 73
4
 74
0
 40
0
 40
0
 40
0
 40
0
 40
1
 40
1
 40
1
 40
1
 10
107.000000
 20
-193.259843
 30
0.0
 10
105.895000
 20
-193.259843
 30
0.0
 10
105.000000
 20
-192.364843
 30
0.0
 10
105.000000
 20
-191.259843
 30
0.0
  0
SPLINE
  5
139
100
AcDbEntity
  8
0
 62
7
100
AcDbSpline
 70
8
 71
3
 72
8
 73
4
 74
0
 40
0
 40
0
 40
0
 40
0
 40
1
 40
1
 40
1
 40
1
 10
105.000000
 20
-191.259843
 30
0.0
 10
105.000000
 20
-190.154843
 30
0.0
 10
105.895000
 20
-189.259843
 30
0.0
 10
107.000000
 20
-189.259843
 30
0.0
  0
SPLINE
  5
13a
100
AcDbEntity
  8
0
 62
7
100
AcDbSpline
 70
8
 71
3
 72
8
 73
4
 74
0
 40
0
 40
0
 40
0
 40
0
 40
1
 40
1
 40
1
 40
1
 10
107.000000
 20
-189.259843
 30
0.0
 10
108.105000
 20
-189.259843
 30
0.0
 10
109.000000
 20
-190.154843
 30
0.0
 10
109.000000
 20
-191.259843
 30
0.0
  0
LWPOLYLINE
  5
13b
100
AcDbEntity
  8
0
 62
7
100
AcDbPolyline
 90
3
 70
0
 10
319.000000
 20
110.740157
 30
0.0
 10
319.000000
 20
98.740157
 30
0.0
 10
447.000000
 20
98.740157
 30
0.0
  0
SPLINE
  5
13c
100
AcDbEntity
  8
0
 62
7
100
AcDbSpline
 70
8
 71
3
 72
8
 73
4
 74
0
 40
0
 40
0
 40
0
 40
0
 40
1
 40
1
 40
1
 40
1
 10
275.000000
 20
110.740157
 30
0.0
 10
275.000000
 20
112.397157
 30
0.0
 10
276.343100
 20
113.740157
 30
0.0
 10
278.000000
 20
113.740157
 30
0.0
  0
LWPOLYLINE
  5
13d
100
AcDbEntity
  8
0
 62
7
100
AcDbPolyline
 90
2
 70
0
 10
275.000000
 20
98.740157
 30
0.0
 10
275.000000
 20
110.740157
 30
0.0
  0
LWPOLYLINE
  5
13e
100
AcDbEntity
  8
0
 62
7
100
AcDbPolyline
 90
2
 70
0
 10
147.000000
 20
98.740157
 30
0.0
 10
275.000000
 20
98.740157
 30
0.0
  0
SPLINE
  5
13f
100
AcDbEntity
  8
0
 62
7
100
AcDbSpline
 70
8
 71
3
 72
8
 73
4
 74
0
 40
0
 40
0
 40
0
 40
0
 40
1
 40
1
 40
1
 40
1
 10
147.000000
 20
98.740157
 30
0.0
 10
141.477000
 20
98.740157
 30
0.0
 10
137.000000
 20
94.263157
 30
0.0
 10
137.000000
 20
88.740157
 30
0.0
  0
SPLINE
  5
140
100
AcDbEntity
  8
0
 62
7
100
AcDbSpline
 70
8
 71
3
 72
8
 73
4
 74
0
 40
0
 40
0
 40
0
 40
0
 40
1
 40
1
 40
1
 40
1
 10
316.000000
 20
113.740157
 30
0.0
 10
317.656900
 20
113.740157
 30
0.0
 10
319.000000
 20
112.397157
 30
0.0
 10
319.000000
 20
110.740157
 30
0.0
  0
LWPOLYLINE
  5
141
100
AcDbEntity
  8
0
 62
7
100
AcDbPolyline
 90
2
 70
0
 10
278.000000
 20
113.740157
 30
0.0
 10
316.000000
 20
113.740157
 30
0.0
  0
LWPOLYLINE
  5
142
100
AcDbEntity
  8
0
 62
7
100
AcDbPolyline
 90
2
 70
0
 10
137.000000
 20
-191.259843
 30
0.0
 10
137.000000
 20
88.740157
 30
0.0
  0
SPLINE
  5
143
100
AcDbEntity
  8
0
 62
7
100
AcDbSpline
 70
8
 71
3
 72
8
 73
4
 74
0
 40
0
 40
0
 40
0
 40
0
 40
1
 40
1
 40
1
 40
1
 10
137.000000
 20
-191.259843
 30
0.0
 10
137.000000
 20
-196.782843
 30
0.0
 10
141.477000
 20
-201.259843
 30
0.0
 10
147.000000
 20
-201.259843
 30
0.0
  0
LWPOLYLINE
  5
144
100
AcDbEntity
  8
0
 62
7
100
AcDbPolyline
 90
3
 70
0
 10
319.000000
 20
110.740157
 30
0.0
 10
319.000000
 20
98.740157
 30
0.0
 10
447.000000
 20
98.740157
 30
0.0
  0
SPLINE
  5
145
100
AcDbEntity
  8
0
 62
7
100
AcDbSpline
 70
8
 71
3
 72
8
 73
4
 74
0
 40
0
 40
0
 40
0
 40
0
 40
1
 40
1
 40
1
 40
1
 10
457.000000
 20
88.740157
 30
0.0
 10
457.000000
 20
94.263157
 30
0.0
 10
452.523000
 20
98.740157
 30
0.0
 10
447.000000
 20
98.740157
 30
0.0
  0
SPLINE
  5
146
100
AcDbEntity
  8
0
 62
7
100
AcDbSpline
 70
8
 71
3
 72
8
 73
4
 74
0
 40
0
 40
0
 40
0
 40
0
 40
1
 40
1
 40
1
 40
1
 10
447.000000
 20
-201.259843
 30
0.0
 10
452.523000
 20
-201.259843
 30
0.0
 10
457.000000
 20
-196.782843
 30
0.0
 10
457.000000
 20
-191.259843
 30
0.0
  0
LWPOLYLINE
  5
147
100
AcDbEntity
  8
0
 62
7
100
AcDbPolyline
 90
2
 70
0
 10
447.000000
 20
-201.259843
 30
0.0
 10
147.000000
 20
-201.259843
 30
0.0
  0
LWPOLYLINE
  5
148
100
AcDbEntity
  8
0
 62
7
100
AcDbPolyline
 90
2
 70
0
 10
457.000000
 20
88.740157
 30
0.0
 10
457.000000
 20
-191.259843
 30
0.0
  0
SPLINE
  5
149
100
AcDbEntity
  8
0
 62
7
100
AcDbSpline
 70
8
 71
3
 72
8
 73
4
 74
0
 40
0
 40
0
 40
0
 40
0
 40
1
 40
1
 40
1
 40
1
 10
127.160000
 20
138.740157
 30
0.0
 10
110.503000
 20
138.740157
 30
0.0
 10
97.000000
 20
125.237157
 30
0.0
 10
97.000000
 20
108.580157
 30
0.0
  0
SPLINE
  5
14a
100
AcDbEntity
  8
0
 62
7
100
AcDbSpline
 70
8
 71
3
 72
8
 73
4
 74
0
 40
0
 40
0
 40
0
 40
0
 40
1
 40
1
 40
1
 40
1
 10
466.840000
 20
138.740157
 30
0.0
 10
483.497000
 20
138.740157
 30
0.0
 10
497.000000
 20
125.237157
 30
0.0
 10
497.000000
 20
108.580157
 30
0.0
  0
LWPOLYLINE
  5
14b
100
AcDbEntity
  8
0
 62
7
100
AcDbPolyline
 90
2
 70
0
 10
127.160000
 20
138.740157
 30
0.0
 10
466.840000
 20
138.740157
 30
0.0
  0
LWPOLYLINE
  5
14c
100
AcDbEntity
  8
0
 62
7
100
AcDbPolyline
 90
2
 70
0
 10
97.000000
 20
-211.099843
 30
0.0
 10
97.000000
 20
108.580157
 30
0.0
  0
SPLINE
  5
14d
100
AcDbEntity
  8
0
 62
7
100
AcDbSpline
 70
8
 71
3
 72
8
 73
4
 74
0
 40
0
 40
0
 40
0
 40
0
 40
1
 40
1
 40
1
 40
1
 10
97.000000
 20
-211.099843
 30
0.0
 10
97.000000
 20
-227.756843
 30
0.0
 10
110.503000
 20
-241.259843
 30
0.0
 10
127.160000
 20
-241.259843
 30
0.0
  0
SPLINE
  5
14e
100
AcDbEntity
  8
0
 62
7
100
AcDbSpline
 70
8
 71
3
 72
8
 73
4
 74
0
 40
0
 40
0
 40
0
 40
0
 40
1
 40
1
 40
1
 40
1
 10
497.000000
 20
-211.099843
 30
0.0
 10
497.000000
 20
-227.756843
 30
0.0
 10
483.497000
 20
-241.259843
 30
0.0
 10
466.840000
 20
-241.259843
 30
0.0
  0
LWPOLYLINE
  5
14f
100
AcDbEntity
  8
0
 62
7
100
AcDbPolyline
 90
2
 70
0
 10
497.000000
 20
108.580157
 30
0.0
 10
497.000000
 20
-211.099843
 30
0.0
  0
SPLINE
  5
150
100
AcDbEntity
  8
0
 62
7
100
AcDbSpline
 70
8
 71
3
 72
8
 73
4
 74
0
 40
0
 40
0
 40
0
 40
0
 40
1
 40
1
 40
1
 40
1
 10
489.000000
 20
-191.259843
 30
0.0
 10
489.000000
 20
-192.364843
 30
0.0
 10
488.105000
 20
-193.259843
 30
0.0
 10
487.000000
 20
-193.259843
 30
0.0
  0
SPLINE
  5
151
100
AcDbEntity
  8
0
 62
7
100
AcDbSpline
 70
8
 71
3
 72
8
 73
4
 74
0
 40
0
 40
0
 40
0
 40
0
 40
1
 40
1
 40
1
 40
1
 10
487.000000
 20
-193.259843
 30
0.0
 10
485.895000
 20
-193.259843
 30
0.0
 10
485.000000
 20
-192.364843
 30
0.0
 10
485.000000
 20
-191.259843
 30
0.0
  0
SPLINE
  5
152
100
AcDbEntity
  8
0
 62
7
100
AcDbSpline
 70
8
 71
3
 72
8
 73
4
 74
0
 40
0
 40
0
 40
0
 40
0
 40
1
 40
1
 40
1
 40
1
 10
485.000000
 20
-191.259843
 30
0.0
 10
485.000000
 20
-190.154843
 30
0.0
 10
485.895000
 20
-189.259843
 30
0.0
 10
487.000000
 20
-189.259843
 30
0.0
  0
SPLINE
  5
153
100
AcDbEntity
  8
0
 62
7
100
AcDbSpline
 70
8
 71
3
 72
8
 73
4
 74
0
 40
0
 40
0
 40
0
 40
0
 40
1
 40
1
 40
1
 40
1
 10
487.000000
 20
-189.259843
 30
0.0
 10
488.105000
 20
-189.259843
 30
0.0
 10
489.000000
 20
-190.154843
 30
0.0
 10
489.000000
 20
-191.259843
 30
0.0
  0
SPLINE
  5
154
100
AcDbEntity
  8
0
 62
7
100
AcDbSpline
 70
8
 71
3
 72
8
 73
4
 74
0
 40
0
 40
0
 40
0
 40
0
 40
1
 40
1
 40
1
 40
1
 10
449.000000
 20
-231.259843
 30
0.0
 10
449.000000
 20
-232.364843
 30
0.0
 10
448.105000
 20
-233.259843
 30
0.0
 10
447.000000
 20
-233.259843
 30
0.0
  0
SPLINE
  5
155
100
AcDbEntity
  8
0
 62
7
100
AcDbSpline
 70
8
 71
3
 72
8
 73
4
 74
0
 40
0
 40
0
 40
0
 40
0
 40
1
 40
1
 40
1
 40
1
 10
447.000000
 20
-233.259843
 30
0.0
 10
445.895000
 20
-233.259843
 30
0.0
 10
445.000000
 20
-232.364843
 30
0.0
 10
445.000000
 20
-231.259843
 30
0.0
  0
SPLINE
  5
156
100
AcDbEntity
  8
0
 62
7
100
AcDbSpline
 70
8
 71
3
 72
8
 73
4
 74
0
 40
0
 40
0
 40
0
 40
0
 40
1
 40
1
 40
1
 40
1
 10
445.000000
 20
-231.259843
 30
0.0
 10
445.000000
 20
-230.154843
 30
0.0
 10
445.895000
 20
-229.259843
 30
0.0
 10
447.000000
 20
-229.259843
 30
0.0
  0
SPLINE
  5
157
100
AcDbEntity
  8
0
 62
7
100
AcDbSpline
 70
8
 71
3
 72
8
 73
4
 74
0
 40
0
 40
0
 40
0
 40
0
 40
1
 40
1
 40
1
 40
1
 10
447.000000
 20
-229.259843
 30
0.0
 10
448.105000
 20
-229.259843
 30
0.0
 10
449.000000
 20
-230.154843
 30
0.0
 10
449.000000
 20
-231.259843
 30
0.0
  0
SPLINE
  5
158
100
AcDbEntity
  8
0
 62
7
100
AcDbSpline
 70
8
 71
3
 72
8
 73
4
 74
0
 40
0
 40
0
 40
0
 40
0
 40
1
 40
1
 40
1
 40
1
 10
489.000000
 20
88.740157
 30
0.0
 10
489.000000
 20
87.635157
 30
0.0
 10
488.105000
 20
86.740157
 30
0.0
 10
487.000000
 20
86.740157
 30
0.0
  0
SPLINE
  5
159
100
AcDbEntity
  8
0
 62
7
100
AcDbSpline
 70
8
 71
3
 72
8
 73
4
 74
0
 40
0
 40
0
 40
0
 40
0
 40
1
 40
1
 40
1
 40
1
 10
487.000000
 20
86.740157
 30
0.0
 10
485.895000
 20
86.740157
 30
0.0
 10
485.000000
 20
87.635157
 30
0.0
 10
485.000000
 20
88.740157
 30
0.0
  0
SPLINE
  5
15a
100
AcDbEntity
  8
0
 62
7
100
AcDbSpline
 70
8
 71
3
 72
8
 73
4
 74
0
 40
0
 40
0
 40
0
 40
0
 40
1
 40
1
 40
1
 40
1
 10
485.000000
 20
88.740157
 30
0.0
 10
485.000000
 20
89.845157
 30
0.0
 10
485.895000
 20
90.740157
 30
0.0
 10
487.000000
 20
90.740157
 30
0.0
  0
SPLINE
  5
15b
100
AcDbEntity
  8
0
 62
7
100
AcDbSpline
 70
8
 71
3
 72
8
 73
4
 74
0
 40
0
 40
0
 40
0
 40
0
 40
1
 40
1
 40
1
 40
1
 10
487.000000
 20
90.740157
 30
0.0
 10
488.105000
 20
90.740157
 30
0.0
 10
489.000000
 20
89.845157
 30
0.0
 10
489.000000
 20
88.740157
 30
0.0
  0
SPLINE
  5
15c
100
AcDbEntity
  8
0
 62
7
100
AcDbSpline
 70
8
 71
3
 72
8
 73
4
 74
0
 40
0
 40
0
 40
0
 40
0
 40
1
 40
1
 40
1
 40
1
 10
149.000000
 20
-231.259843
 30
0.0
 10
149.000000
 20
-232.364843
 30
0.0
 10
148.105000
 20
-233.259843
 30
0.0
 10
147.000000
 20
-233.259843
 30
0.0
  0
SPLINE
  5
15d
100
AcDbEntity
  8
0
 62
7
100
AcDbSpline
 70
8
 71
3
 72
8
 73
4
 74
0
 40
0
 40
0
 40
0
 40
0
 40
1
 40
1
 40
1
 40
1
 10
147.000000
 20
-233.259843
 30
0.0
 10
145.895000
 20
-233.259843
 30
0.0
 10
145.000000
 20
-232.364843
 30
0.0
 10
145.000000
 20
-231.259843
 30
0.0
  0
SPLINE
  5
15e
100
AcDbEntity
  8
0
 62
7
100
AcDbSpline
 70
8
 71
3
 72
8
 73
4
 74
0
 40
0
 40
0
 40
0
 40
0
 40
1
 40
1
 40
1
 40
1
 10
145.000000
 20
-231.259843
 30
0.0
 10
145.000000
 20
-230.154843
 30
0.0
 10
145.895000
 20
-229.259843
 30
0.0
 10
147.000000
 20
-229.259843
 30
0.0
  0
SPLINE
  5
15f
100
AcDbEntity
  8
0
 62
7
100
AcDbSpline
 70
8
 71
3
 72
8
 73
4
 74
0
 40
0
 40
0
 40
0
 40
0
 40
1
 40
1
 40
1
 40
1
 10
147.000000
 20
-229.259843
 30
0.0
 10
148.105000
 20
-229.259843
 30
0.0
 10
149.000000
 20
-230.154843
 30
0.0
 10
149.000000
 20
-231.259843
 30
0.0
  0
SPLINE
  5
160
100
AcDbEntity
  8
0
 62
7
100
AcDbSpline
 70
8
 71
3
 72
8
 73
4
 74
0
 40
0
 40
0
 40
0
 40
0
 40
1
 40
1
 40
1
 40
1
 10
149.000000
 20
128.740157
 30
0.0
 10
149.000000
 20
127.635157
 30
0.0
 10
148.105000
 20
126.740157
 30
0.0
 10
147.000000
 20
126.740157
 30
0.0
  0
SPLINE
  5
161
100
AcDbEntity
  8
0
 62
7
100
AcDbSpline
 70
8
 71
3
 72
8
 73
4
 74
0
 40
0
 40
0
 40
0
 40
0
 40
1
 40
1
 40
1
 40
1
 10
147.000000
 20
126.740157
 30
0.0
 10
145.895000
 20
126.740157
 30
0.0
 10
145.000000
 20
127.635157
 30
0.0
 10
145.000000
 20
128.740157
 30
0.0
  0
SPLINE
  5
162
100
AcDbEntity
  8
0
 62
7
100
AcDbSpline
 70
8
 71
3
 72
8
 73
4
 74
0
 40
0
 40
0
 40
0
 40
0
 40
1
 40
1
 40
1
 40
1
 10
145.000000
 20
128.740157
 30
0.0
 10
145.000000
 20
129.845157
 30
0.0
 10
145.895000
 20
130.740157
 30
0.0
 10
147.000000
 20
130.740157
 30
0.0
  0
SPLINE
  5
163
100
AcDbEntity
  8
0
 62
7
100
AcDbSpline
 70
8
 71
3
 72
8
 73
4
 74
0
 40
0
 40
0
 40
0
 40
0
 40
1
 40
1
 40
1
 40
1
 10
147.000000
 20
130.740157
 30
0.0
 10
148.105000
 20
130.740157
 30
0.0
 10
149.000000
 20
129.845157
 30
0.0
 10
149.000000
 20
128.740157
 30
0.0
  0
SPLINE
  5
164
100
AcDbEntity
  8
0
 62
7
100
AcDbSpline
 70
8
 71
3
 72
8
 73
4
 74
0
 40
0
 40
0
 40
0
 40
0
 40
1
 40
1
 40
1
 40
1
 10
449.000000
 20
128.740157
 30
0.0
 10
449.000000
 20
127.635157
 30
0.0
 10
448.105000
 20
126.740157
 30
0.0
 10
447.000000
 20
126.740157
 30
0.0
  0
SPLINE
  5
165
100
AcDbEntity
  8
0
 62
7
100
AcDbSpline
 70
8
 71
3
 72
8
 73
4
 74
0
 40
0
 40
0
 40
0
 40
0
 40
1
 40
1
 40
1
 40
1
 10
447.000000
 20
126.740157
 30
0.0
 10
445.895000
 20
126.740157
 30
0.0
 10
445.000000
 20
127.635157
 30
0.0
 10
445.000000
 20
128.740157
 30
0.0
  0
SPLINE
  5
166
100
AcDbEntity
  8
0
 62
7
100
AcDbSpline
 70
8
 71
3
 72
8
 73
4
 74
0
 40
0
 40
0
 40
0
 40
0
 40
1
 40
1
 40
1
 40
1
 10
445.000000
 20
128.740157
 30
0.0
 10
445.000000
 20
129.845157
 30
0.0
 10
445.895000
 20
130.740157
 30
0.0
 10
447.000000
 20
130.740157
 30
0.0
  0
SPLINE
  5
167
100
AcDbEntity
  8
0
 62
7
100
AcDbSpline
 70
8
 71
3
 72
8
 73
4
 74
0
 40
0
 40
0
 40
0
 40
0
 40
1
 40
1
 40
1
 40
1
 10
447.000000
 20
130.740157
 30
0.0
 10
448.105000
 20
130.740157
 30
0.0
 10
449.000000
 20
129.845157
 30
0.0
 10
449.000000
 20
128.740157
 30
0.0
  0
SPLINE
  5
168
100
AcDbEntity
  8
0
 62
7
100
AcDbSpline
 70
8
 71
3
 72
8
 73
4
 74
0
 40
0
 40
0
 40
0
 40
0
 40
1
 40
1
 40
1
 40
1
 10
164.500000
 20
108.740157
 30
0.0
 10
164.500000
 20
107.083157
 30
0.0
 10
163.157000
 20
105.740157
 30
0.0
 10
161.500000
 20
105.740157
 30
0.0
  0
SPLINE
  5
169
100
AcDbEntity
  8
0
 62
7
100
AcDbSpline
 70
8
 71
3
 72
8
 73
4
 74
0
 40
0
 40
0
 40
0
 40
0
 40
1
 40
1
 40
1
 40
1
 10
161.500000
 20
105.740157
 30
0.0
 10
159.843000
 20
105.740157
 30
0.0
 10
158.500000
 20
107.083157
 30
0.0
 10
158.500000
 20
108.740157
 30
0.0
  0
SPLINE
  5
16a
100
AcDbEntity
  8
0
 62
7
100
AcDbSpline
 70
8
 71
3
 72
8
 73
4
 74
0
 40
0
 40
0
 40
0
 40
0
 40
1
 40
1
 40
1
 40
1
 10
158.500000
 20
108.740157
 30
0.0
 10
158.500000
 20
110.397157
 30
0.0
 10
159.843000
 20
111.740157
 30
0.0
 10
161.500000
 20
111.740157
 30
0.0
  0
SPLINE
  5
16b
100
AcDbEntity
  8
0
 62
7
100
AcDbSpline
 70
8
 71
3
 72
8
 73
4
 74
0
 40
0
 40
0
 40
0
 40
0
 40
1
 40
1
 40
1
 40
1
 10
161.500000
 20
111.740157
 30
0.0
 10
163.157000
 20
111.740157
 30
0.0
 10
164.500000
 20
110.397157
 30
0.0
 10
164.500000
 20
108.740157
 30
0.0
  0
SPLINE
  5
16c
100
AcDbEntity
  8
0
 62
7
100
AcDbSpline
 70
8
 71
3
 72
8
 73
4
 74
0
 40
0
 40
0
 40
0
 40
0
 40
1
 40
1
 40
1
 40
1
 10
192.000000
 20
108.740157
 30
0.0
 10
192.000000
 20
105.702157
 30
0.0
 10
189.538000
 20
103.240157
 30
0.0
 10
186.500000
 20
103.240157
 30
0.0
  0
SPLINE
  5
16d
100
AcDbEntity
  8
0
 62
7
100
AcDbSpline
 70
8
 71
3
 72
8
 73
4
 74
0
 40
0
 40
0
 40
0
 40
0
 40
1
 40
1
 40
1
 40
1
 10
186.500000
 20
103.240157
 30
0.0
 10
183.462000
 20
103.240157
 30
0.0
 10
181.000000
 20
105.702157
 30
0.0
 10
181.000000
 20
108.740157
 30
0.0
  0
SPLINE
  5
16e
100
AcDbEntity
  8
0
 62
7
100
AcDbSpline
 70
8
 71
3
 72
8
 73
4
 74
0
 40
0
 40
0
 40
0
 40
0
 40
1
 40
1
 40
1
 40
1
 10
181.000000
 20
108.740157
 30
0.0
 10
181.000000
 20
111.778157
 30
0.0
 10
183.462000
 20
114.240157
 30
0.0
 10
186.500000
 20
114.240157
 30
0.0
  0
SPLINE
  5
16f
100
AcDbEntity
  8
0
 62
7
100
AcDbSpline
 70
8
 71
3
 72
8
 73
4
 74
0
 40
0
 40
0
 40
0
 40
0
 40
1
 40
1
 40
1
 40
1
 10
186.500000
 20
114.240157
 30
0.0
 10
189.538000
 20
114.240157
 30
0.0
 10
192.000000
 20
111.778157
 30
0.0
 10
192.000000
 20
108.740157
 30
0.0
  0
SPLINE
  5
170
100
AcDbEntity
  8
0
 62
7
100
AcDbSpline
 70
8
 71
3
 72
8
 73
4
 74
0
 40
0
 40
0
 40
0
 40
0
 40
1
 40
1
 40
1
 40
1
 10
109.000000
 20
-191.259843
 30
0.0
 10
109.000000
 20
-192.364843
 30
0.0
 10
108.105000
 20
-193.259843
 30
0.0
 10
107.000000
 20
-193.259843
 30
0.0
  0
SPLINE
  5
171
100
AcDbEntity
  8
0
 62
7
100
AcDbSpline
 70
8
 71
3
 72
8
 73
4
 74
0
 40
0
 40
0
 40
0
 40
0
 40
1
 40
1
 40
1
 40
1
 10
107.000000
 20
-193.259843
 30
0.0
 10
105.895000
 20
-193.259843
 30
0.0
 10
105.000000
 20
-192.364843
 30
0.0
 10
105.000000
 20
-191.259843
 30
0.0
  0
SPLINE
  5
172
100
AcDbEntity
  8
0
 62
7
100
AcDbSpline
 70
8
 71
3
 72
8
 73
4
 74
0
 40
0
 40
0
 40
0
 40
0
 40
1
 40
1
 40
1
 40
1
 10
105.000000
 20
-191.259843
 30
0.0
 10
105.000000
 20
-190.154843
 30
0.0
 10
105.895000
 20
-189.259843
 30
0.0
 10
107.000000
 20
-189.259843
 30
0.0
  0
SPLINE
  5
173
100
AcDbEntity
  8
0
 62
7
100
AcDbSpline
 70
8
 71
3
 72
8
 73
4
 74
0
 40
0
 40
0
 40
0
 40
0
 40
1
 40
1
 40
1
 40
1
 10
107.000000
 20
-189.259843
 30
0.0
 10
108.105000
 20
-189.259843
 30
0.0
 10
109.000000
 20
-190.154843
 30
0.0
 10
109.000000
 20
-191.259843
 30
0.0
  0
SPLINE
  5
174
100
AcDbEntity
  8
0
 62
7
100
AcDbSpline
 70
8
 71
3
 72
8
 73
4
 74
0
 40
0
 40
0
 40
0
 40
0
 40
1
 40
1
 40
1
 40
1
 10
109.000000
 20
88.740157
 30
0.0
 10
109.000000
 20
87.635157
 30
0.0
 10
108.105000
 20
86.740157
 30
0.0
 10
107.000000
 20
86.740157
 30
0.0
  0
SPLINE
  5
175
100
AcDbEntity
  8
0
 62
7
100
AcDbSpline
 70
8
 71
3
 72
8
 73
4
 74
0
 40
0
 40
0
 40
0
 40
0
 40
1
 40
1
 40
1
 40
1
 10
107.000000
 20
86.740157
 30
0.0
 10
105.895000
 20
86.740157
 30
0.0
 10
105.000000
 20
87.635157
 30
0.0
 10
105.000000
 20
88.740157
 30
0.0
  0
SPLINE
  5
176
100
AcDbEntity
  8
0
 62
7
100
AcDbSpline
 70
8
 71
3
 72
8
 73
4
 74
0
 40
0
 40
0
 40
0
 40
0
 40
1
 40
1
 40
1
 40
1
 10
105.000000
 20
88.740157
 30
0.0
 10
105.000000
 20
89.845157
 30
0.0
 10
105.895000
 20
90.740157
 30
0.0
 10
107.000000
 20
90.740157
 30
0.0
  0
SPLINE
  5
177
100
AcDbEntity
  8
0
 62
7
100
AcDbSpline
 70
8
 71
3
 72
8
 73
4
 74
0
 40
0
 40
0
 40
0
 40
0
 40
1
 40
1
 40
1
 40
1
 10
107.000000
 20
90.740157
 30
0.0
 10
108.105000
 20
90.740157
 30
0.0
 10
109.000000
 20
89.845157
 30
0.0
 10
109.000000
 20
88.740157
 30
0.0
  0
LWPOLYLINE
  5
178
100
AcDbEntity
  8
0
 62
7
100
AcDbPolyline
 90
2
 70
0
 10
466.840000
 20
-241.259843
 30
0.0
 10
127.160000
 20
-241.259843
 30
0.0
  0
LWPOLYLINE
  5
179
100
AcDbEntity
  8
0
 62
7
100
AcDbPolyline
 90
2
 70
0
 10
278.000000
 20
106.540157
 30
0.0
 10
278.000000
 20
114.940157
 30
0.0
  0
LWPOLYLINE
  5
17a
100
AcDbEntity
  8
0
 62
7
100
AcDbPolyline
 90
2
 70
0
 10
282.200000
 20
110.740157
 30
0.0
 10
273.800000
 20
110.740157
 30
0.0
  0
LWPOLYLINE
  5
17b
100
AcDbEntity
  8
0
 62
7
100
AcDbPolyline
 90
2
 70
0
 10
147.000000
 20
84.540157
 30
0.0
 10
147.000000
 20
92.940157
 30
0.0
  0
LWPOLYLINE
  5
17c
100
AcDbEntity
  8
0
 62
7
100
AcDbPolyline
 90
2
 70
0
 10
151.200000
 20
88.740157
 30
0.0
 10
142.800000
 20
88.740157
 30
0.0
  0
LWPOLYLINE
  5
17d
100
AcDbEntity
  8
0
 62
7
100
AcDbPolyline
 90
2
 70
0
 10
316.000000
 20
106.540157
 30
0.0
 10
316.000000
 20
114.940157
 30
0.0
  0
LWPOLYLINE
  5
17e
100
AcDbEntity
  8
0
 62
7
100
AcDbPolyline
 90
2
 70
0
 10
320.200000
 20
110.740157
 30
0.0
 10
311.800000
 20
110.740157
 30
0.0
  0
LWPOLYLINE
  5
17f
100
AcDbEntity
  8
0
 62
7
100
AcDbPolyline
 90
2
 70
0
 10
147.000000
 20
-195.459843
 30
0.0
 10
147.000000
 20
-187.059843
 30
0.0
  0
LWPOLYLINE
  5
180
100
AcDbEntity
  8
0
 62
7
100
AcDbPolyline
 90
2
 70
0
 10
151.200000
 20
-191.259843
 30
0.0
 10
142.800000
 20
-191.259843
 30
0.0
  0
LWPOLYLINE
  5
181
100
AcDbEntity
  8
0
 62
7
100
AcDbPolyline
 90
2
 70
0
 10
447.000000
 20
84.540157
 30
0.0
 10
447.000000
 20
92.940157
 30
0.0
  0
LWPOLYLINE
  5
182
100
AcDbEntity
  8
0
 62
7
100
AcDbPolyline
 90
2
 70
0
 10
451.200000
 20
88.740157
 30
0.0
 10
442.800000
 20
88.740157
 30
0.0
  0
LWPOLYLINE
  5
183
100
AcDbEntity
  8
0
 62
7
100
AcDbPolyline
 90
2
 70
0
 10
447.000000
 20
-195.459843
 30
0.0
 10
447.000000
 20
-187.059843
 30
0.0
  0
LWPOLYLINE
  5
184
100
AcDbEntity
  8
0
 62
7
100
AcDbPolyline
 90
2
 70
0
 10
451.200000
 20
-191.259843
 30
0.0
 10
442.800000
 20
-191.259843
 30
0.0
  0
LWPOLYLINE
  5
185
100
AcDbEntity
  8
0
 62
7
100
AcDbPolyline
 90
2
 70
0
 10
127.160000
 20
104.380157
 30
0.0
 10
127.160000
 20
112.780157
 30
0.0
  0
LWPOLYLINE
  5
186
100
AcDbEntity
  8
0
 62
7
100
AcDbPolyline
 90
2
 70
0
 10
131.360000
 20
108.580157
 30
0.0
 10
122.960000
 20
108.580157
 30
0.0
  0
LWPOLYLINE
  5
187
100
AcDbEntity
  8
0
 62
7
100
AcDbPolyline
 90
2
 70
0
 10
466.840000
 20
104.380157
 30
0.0
 10
466.840000
 20
112.780157
 30
0.0
  0
LWPOLYLINE
  5
188
100
AcDbEntity
  8
0
 62
7
100
AcDbPolyline
 90
2
 70
0
 10
471.040000
 20
108.580157
 30
0.0
 10
462.640000
 20
108.580157
 30
0.0
  0
LWPOLYLINE
  5
189
100
AcDbEntity
  8
0
 62
7
100
AcDbPolyline
 90
2
 70
0
 10
127.160000
 20
-215.299843
 30
0.0
 10
127.160000
 20
-206.899843
 30
0.0
  0
LWPOLYLINE
  5
18a
100
AcDbEntity
  8
0
 62
7
100
AcDbPolyline
 90
2
 70
0
 10
131.360000
 20
-211.099843
 30
0.0
 10
122.960000
 20
-211.099843
 30
0.0
  0
LWPOLYLINE
  5
18b
100
AcDbEntity
  8
0
 62
7
100
AcDbPolyline
 90
2
 70
0
 10
466.840000
 20
-215.299843
 30
0.0
 10
466.840000
 20
-206.899843
 30
0.0
  0
LWPOLYLINE
  5
18c
100
AcDbEntity
  8
0
 62
7
100
AcDbPolyline
 90
2
 70
0
 10
471.040000
 20
-211.099843
 30
0.0
 10
462.640000
 20
-211.099843
 30
0.0
  0
LWPOLYLINE
  5
18d
100
AcDbEntity
  8
0
 62
7
100
AcDbPolyline
 90
2
 70
0
 10
487.000000
 20
-195.459843
 30
0.0
 10
487.000000
 20
-187.059843
 30
0.0
  0
LWPOLYLINE
  5
18e
100
AcDbEntity
  8
0
 62
7
100
AcDbPolyline
 90
2
 70
0
 10
491.200000
 20
-191.259843
 30
0.0
 10
482.800000
 20
-191.259843
 30
0.0
  0
LWPOLYLINE
  5
18f
100
AcDbEntity
  8
0
 62
7
100
AcDbPolyline
 90
2
 70
0
 10
447.000000
 20
-235.459843
 30
0.0
 10
447.000000
 20
-227.059843
 30
0.0
  0
LWPOLYLINE
  5
190
100
AcDbEntity
  8
0
 62
7
100
AcDbPolyline
 90
2
 70
0
 10
451.200000
 20
-231.259843
 30
0.0
 10
442.800000
 20
-231.259843
 30
0.0
  0
LWPOLYLINE
  5
191
100
AcDbEntity
  8
0
 62
7
100
AcDbPolyline
 90
2
 70
0
 10
487.000000
 20
84.540157
 30
0.0
 10
487.000000
 20
92.940157
 30
0.0
  0
LWPOLYLINE
  5
192
100
AcDbEntity
  8
0
 62
7
100
AcDbPolyline
 90
2
 70
0
 10
491.200000
 20
88.740157
 30
0.0
 10
482.800000
 20
88.740157
 30
0.0
  0
LWPOLYLINE
  5
193
100
AcDbEntity
  8
0
 62
7
100
AcDbPolyline
 90
2
 70
0
 10
147.000000
 20
-235.459843
 30
0.0
 10
147.000000
 20
-227.059843
 30
0.0
  0
LWPOLYLINE
  5
194
100
AcDbEntity
  8
0
 62
7
100
AcDbPolyline
 90
2
 70
0
 10
151.200000
 20
-231.259843
 30
0.0
 10
142.800000
 20
-231.259843
 30
0.0
  0
LWPOLYLINE
  5
195
100
AcDbEntity
  8
0
 62
7
100
AcDbPolyline
 90
2
 70
0
 10
147.000000
 20
124.540157
 30
0.0
 10
147.000000
 20
132.940157
 30
0.0
  0
LWPOLYLINE
  5
196
100
AcDbEntity
  8
0
 62
7
100
AcDbPolyline
 90
2
 70
0
 10
151.200000
 20
128.740157
 30
0.0
 10
142.800000
 20
128.740157
 30
0.0
  0
LWPOLYLINE
  5
197
100
AcDbEntity
  8
0
 62
7
100
AcDbPolyline
 90
2
 70
0
 10
447.000000
 20
124.540157
 30
0.0
 10
447.000000
 20
132.940157
 30
0.0
  0
LWPOLYLINE
  5
198
100
AcDbEntity
  8
0
 62
7
100
AcDbPolyline
 90
2
 70
0
 10
451.200000
 20
128.740157
 30
0.0
 10
442.800000
 20
128.740157
 30
0.0
  0
LWPOLYLINE
  5
199
100
AcDbEntity
  8
0
 62
7
100
AcDbPolyline
 90
2
 70
0
 10
161.500000
 20
104.540157
 30
0.0
 10
161.500000
 20
112.940157
 30
0.0
  0
LWPOLYLINE
  5
19a
100
AcDbEntity
  8
0
 62
7
100
AcDbPolyline
 90
2
 70
0
 10
165.700000
 20
108.740157
 30
0.0
 10
157.300000
 20
108.740157
 30
0.0
  0
LWPOLYLINE
  5
19b
100
AcDbEntity
  8
0
 62
7
100
AcDbPolyline
 90
2
 70
0
 10
186.500000
 20
104.540157
 30
0.0
 10
186.500000
 20
112.940157
 30
0.0
  0
LWPOLYLINE
  5
19c
100
AcDbEntity
  8
0
 62
7
100
AcDbPolyline
 90
2
 70
0
 10
190.700000
 20
108.740157
 30
0.0
 10
182.300000
 20
108.740157
 30
0.0
  0
LWPOLYLINE
  5
19d
100
AcDbEntity
  8
0
 62
7
100
AcDbPolyline
 90
2
 70
0
 10
107.000000
 20
-195.459843
 30
0.0
 10
107.000000
 20
-187.059843
 30
0.0
  0
LWPOLYLINE
  5
19e
100
AcDbEntity
  8
0
 62
7
100
AcDbPolyline
 90
2
 70
0
 10
111.200000
 20
-191.259843
 30
0.0
 10
102.800000
 20
-191.259843
 30
0.0
  0
LWPOLYLINE
  5
19f
100
AcDbEntity
  8
0
 62
7
100
AcDbPolyline
 90
2
 70
0
 10
107.000000
 20
84.540157
 30
0.0
 10
107.000000
 20
92.940157
 30
0.0
  0
LWPOLYLINE
  5
1a0
100
AcDbEntity
  8
0
 62
7
100
AcDbPolyline
 90
2
 70
0
 10
111.200000
 20
88.740157
 30
0.0
 10
102.800000
 20
88.740157
 30
0.0
  0
ENDSEC
  0
SECTION
  2
OBJECTS
  0
DICTIONARY
  5
C
330
0
100
AcDbDictionary
  3
ACAD_GROUP
350
D
  3
ACAD_MLINESTYLE
350
17
  0
DICTIONARY
  5
D
330
C
100
AcDbDictionary
  0
DICTIONARY
  5
1A
330
C
100
AcDbDictionary
  0
DICTIONARY
  5
17
330
C
100
AcDbDictionary
  3
STANDARD
350
18
  0
DICTIONARY
  5
19
330
C
100
AcDbDictionary
  0
ENDSEC
  0
EOF
